<?xml version="1.0" encoding="UTF-8"?><svg id="Layer_1" xmlns="http://www.w3.org/2000/svg" xmlns:xlink="http://www.w3.org/1999/xlink" viewBox="0 0 303.91 101.63"><defs><style>.cls-1,.cls-2{fill:none;}.cls-3{clip-path:url(#clippath);}.cls-4{fill:#fff;}.cls-5{fill:#ed1c24;}.cls-2{clip-rule:evenodd;}.cls-6{clip-path:url(#clippath-1);}</style><clipPath id="clippath"><path class="cls-2" d="m51.01,53.17h-23.81c-3.56,0-6.9-.42-9.94-1.24-3.15-.85-5.88-2.23-8.13-4.1-2.28-1.89-4.08-4.32-5.33-7.22-1.26-2.93-1.9-6.4-1.9-10.33V3.41c0-.83.77-1.51,1.71-1.51h15.29c.94,0,1.71.68,1.71,1.51v27.23c0,2.63.58,4.7,1.74,6.15,1.02,1.28,2.67,1.91,5.04,1.91h6.63V3.41c0-.83.77-1.51,1.71-1.51h15.29c.94,0,1.71.68,1.71,1.51v48.25c0,.83-.77,1.51-1.71,1.51ZM5.32,4.92v25.35c0,3.56.56,6.67,1.68,9.25,1.07,2.47,2.57,4.52,4.47,6.1,1.89,1.57,4.11,2.68,6.79,3.41,2.71.74,5.72,1.11,8.93,1.11h22.1V4.92h-11.87v35.28c0,.83-.77,1.51-1.71,1.51h-8.34c-3.51,0-6.15-1.07-7.83-3.19-1.57-1.96-2.36-4.62-2.36-7.89V4.92H5.32Zm128.96,48.25h-17.52c-.94,0-1.71-.68-1.71-1.51V3.41c0-.83.77-1.51,1.71-1.51h18.91c4.33,0,8.34.41,11.94,1.22,3.71.84,6.89,2.28,9.48,4.27,2.6,2.04,4.63,4.71,6.03,7.94,1.39,3.19,2.09,7.2,2.09,11.9s-.67,8.69-2,12c-1.36,3.38-3.39,6.12-6.06,8.15-2.72,2.07-6.02,3.57-9.82,4.46-3.75.88-8.14,1.32-13.06,1.32Zm-15.81-3.02h15.81c4.62,0,8.72-.41,12.18-1.22,3.29-.77,6.14-2.06,8.46-3.83,2.24-1.7,3.89-3.95,5.06-6.87h0c1.2-2.98,1.8-6.68,1.8-10.99s-.63-7.97-1.86-10.82c-1.2-2.78-2.92-5.05-5.1-6.75-2.17-1.67-4.89-2.89-8.07-3.62-3.32-.75-7.05-1.13-11.09-1.13h-17.2v45.22Zm16.68-8.43h-3.25c-.94,0-1.71-.68-1.71-1.51V14.84c0-.83.77-1.51,1.71-1.51h3.69c2.54,0,4.63.26,6.41.8,1.87.57,3.43,1.48,4.62,2.7,1.16,1.19,1.97,2.68,2.49,4.55,0,0,0,0,0,0,.46,1.71.7,3.7.74,6.07,0,2.61-.25,4.71-.75,6.44-.5,1.85-1.4,3.4-2.69,4.59-1.28,1.18-2.9,2.03-4.82,2.53-1.84.47-4,.71-6.44.71Zm-1.54-3.02h1.54c2.11,0,3.96-.2,5.48-.59,1.33-.34,2.44-.92,3.3-1.72.86-.79,1.48-1.88,1.84-3.22.43-1.49.65-3.39.65-5.69-.04-2.13-.25-3.9-.65-5.39-.38-1.39-.96-2.46-1.75-3.28-.8-.82-1.83-1.41-3.14-1.81-1.41-.43-3.14-.64-5.29-.64h-1.98v22.34Zm-39.08-11.11l16.23-22.86c.4-.57.43-1.28.06-1.87-.37-.59-1.06-.95-1.82-.95h-16.25c-.72,0-1.38.32-1.76.86l-7.11,9.98-7.11-9.98c-.38-.54-1.04-.86-1.76-.86h-16.25c-.76,0-1.45.36-1.82.95-.37.59-.34,1.3.06,1.86l16.22,22.93-16.22,22.71c-.4.57-.43,1.28-.06,1.87.37.59,1.06.95,1.82.95h16.44c.72,0,1.38-.32,1.76-.86l6.91-9.75,6.91,9.75c.38.54,1.04.86,1.76.86h16.44c.76,0,1.46-.36,1.82-.95.37-.59.34-1.3-.06-1.87l-16.23-22.78Zm-1.02-22.65h12.53l-17.57,16.95-3.52-4.96,5.06-7.1,3.5-4.89Zm-6.32,18.18l-3.07,2.96-3.42-3.24,3.16-4.42,3.33,4.7Zm-1.54,4.41l15.04-14.3-12.04,17.14-3-2.84Zm-19.04-14.96l15.78,15.18-3.03,2.92-12.76-18.1Zm11.48,19.33l-12.35,11.91,10.38-14.54s.03-.05.04-.07l1.92,2.7Zm5.81-2.71l3.32,3.2-3.26,4.59-.07-.1-.05.07-3.27-4.59,3.33-3.16Zm6.05,2.4l1.63-2.29,8.29,11.69-9.92-9.4Zm-28.1,18.57l17.44-16.58,3.47,4.89-8.29,11.69h-12.63Zm31.46,0l-8.27-11.67,1.51-2.13,1.95-2.75,17.2,16.54h-12.39Zm-10.51-33.25l-3.37,4.71L61.8,4.92h12.47l4.99,7,3.53,4.97Z"/></clipPath><clipPath id="clippath-1"><rect class="cls-1" x="1.9" y="1.9" width="163.31" height="51.27"/></clipPath></defs><g class="cls-3"><g class="cls-6"><rect class="cls-5" width="167.11" height="55.07"/></g></g><g><path class="cls-4" d="m1.17,94.35v-23.93h7.93c1.76,0,3.37.31,4.84.92,1.47.62,2.73,1.45,3.78,2.51,1.05,1.06,1.87,2.32,2.46,3.79s.89,3.05.89,4.73-.29,3.26-.87,4.73c-.58,1.47-1.4,2.73-2.44,3.79-1.05,1.06-2.31,1.9-3.79,2.51-1.48.62-3.1.92-4.85.92H1.17Zm8.1-21.57H3.8v19.21h5.47c1.28,0,2.47-.24,3.59-.73s2.09-1.16,2.91-2.02c.82-.85,1.46-1.87,1.93-3.04.47-1.17.7-2.44.7-3.81s-.23-2.64-.7-3.81c-.47-1.17-1.11-2.19-1.93-3.04s-1.79-1.53-2.91-2.02-2.31-.74-3.59-.74Z"/><path class="cls-4" d="m39.35,92.43c-.96.75-1.95,1.31-2.97,1.67s-2.12.55-3.28.55-2.25-.22-3.26-.67c-1.01-.44-1.89-1.05-2.63-1.83-.74-.77-1.32-1.69-1.74-2.75-.42-1.06-.63-2.19-.63-3.4s.2-2.34.6-3.4c.4-1.06.95-1.97,1.66-2.74.71-.76,1.54-1.37,2.5-1.81.96-.44,1.99-.67,3.11-.67s2.11.22,3.04.65c.93.43,1.74,1.02,2.43,1.76.68.74,1.22,1.63,1.61,2.67s.58,2.15.58,3.33v.75h-13.09c.11,1.69.74,3.09,1.88,4.22,1.14,1.13,2.5,1.69,4.07,1.69.87,0,1.7-.15,2.51-.46.81-.31,1.5-.72,2.07-1.25l1.57,1.67Zm-6.7-12.89c-1.37,0-2.54.49-3.52,1.47-.98.98-1.58,2.23-1.81,3.76h10.56c-.18-1.5-.76-2.75-1.73-3.74-.97-.99-2.14-1.49-3.5-1.49Z"/><path class="cls-4" d="m43.01,92.2l1.33-1.64c.98.73,1.9,1.26,2.75,1.59.85.33,1.73.5,2.62.5,1.21,0,2.21-.28,3.01-.85.8-.57,1.2-1.29,1.2-2.15,0-.68-.24-1.22-.72-1.61s-1.24-.68-2.29-.89l-2.73-.48c-1.62-.3-2.81-.8-3.57-1.5s-1.15-1.66-1.15-2.87c0-1.44.56-2.61,1.69-3.52,1.13-.91,2.57-1.37,4.32-1.37,1.14,0,2.22.17,3.25.51,1.02.34,2.06.87,3.11,1.57l-1.23,1.74c-.87-.62-1.73-1.06-2.6-1.35-.87-.28-1.74-.43-2.63-.43-1.09,0-1.97.24-2.63.72s-.99,1.13-.99,1.95c0,.68.21,1.21.63,1.57.42.37,1.17.64,2.24.82l2.8.51c1.66.3,2.89.81,3.67,1.54.79.73,1.18,1.71,1.18,2.94,0,1.44-.62,2.65-1.86,3.66-1.24,1-2.79,1.5-4.63,1.5-1.37,0-2.63-.21-3.79-.63-1.16-.42-2.15-1.03-2.97-1.83Z"/><path class="cls-4" d="m61.33,73.57c-.5,0-.93-.18-1.28-.53-.35-.35-.53-.78-.53-1.28s.18-.89.53-1.25c.35-.35.78-.53,1.28-.53s.89.18,1.25.53c.35.35.53.77.53,1.25,0,.5-.17.93-.51,1.28-.34.35-.76.53-1.26.53Zm1.23,4.1v16.68h-2.5v-16.68h2.5Z"/><path class="cls-4" d="m74.63,94.55c-1.07,0-2.08-.22-3.02-.67-.95-.44-1.76-1.05-2.44-1.81-.68-.76-1.22-1.67-1.62-2.72s-.6-2.16-.6-3.35.2-2.3.6-3.35c.4-1.05.95-1.95,1.66-2.72.71-.76,1.54-1.37,2.5-1.81s1.98-.67,3.08-.67,2.02.2,2.91.6c.89.4,1.66.99,2.32,1.76v-2.15h2.46v17.54c0,2.05-.61,3.63-1.83,4.75-1.22,1.12-2.96,1.67-5.21,1.67-1.12,0-2.24-.15-3.37-.46-1.13-.31-2.17-.73-3.13-1.28l1.06-1.91c1.03.52,1.96.91,2.8,1.16.84.25,1.69.38,2.53.38,1.5,0,2.65-.36,3.45-1.09.8-.73,1.2-1.79,1.2-3.18v-3.15c-.64.8-1.41,1.41-2.32,1.83-.91.42-1.91.63-3.01.63Zm-5.23-8.55c0,1.82.56,3.34,1.67,4.56,1.12,1.22,2.51,1.83,4.17,1.83.98,0,1.88-.2,2.7-.6s1.49-.95,2.02-1.66v-8.24c-.55-.71-1.24-1.26-2.07-1.66-.83-.4-1.72-.6-2.65-.6-1.66,0-3.05.6-4.17,1.81-1.12,1.21-1.67,2.72-1.67,4.55Z"/><path class="cls-4" d="m87.58,94.35v-16.68h2.5v2.7c.64-.98,1.4-1.72,2.29-2.22.89-.5,1.89-.75,3.01-.75,1.78,0,3.23.57,4.36,1.71,1.13,1.14,1.69,2.62,1.69,4.44v10.8h-2.5v-10.08c0-1.46-.41-2.62-1.21-3.49-.81-.86-1.9-1.3-3.26-1.3-.91,0-1.74.22-2.5.65-.75.43-1.38,1.07-1.88,1.91v12.31h-2.5Z"/><path class="cls-4" d="m126,92.33c1.37,0,2.69-.29,3.96-.85,1.28-.57,2.35-1.38,3.21-2.43l1.71,1.74c-1.16,1.25-2.52,2.22-4.07,2.91-1.55.68-3.18,1.03-4.89,1.03s-3.31-.32-4.8-.98c-1.49-.65-2.78-1.53-3.86-2.63-1.08-1.11-1.94-2.41-2.56-3.91s-.94-3.11-.94-4.82.31-3.32.94-4.84,1.49-2.83,2.58-3.93c1.09-1.11,2.38-1.98,3.86-2.61,1.48-.64,3.08-.96,4.79-.96s3.42.34,4.99,1.03c1.57.68,2.92,1.65,4.03,2.91l-1.74,1.81c-.89-1.05-1.98-1.87-3.28-2.46-1.3-.59-2.63-.89-4-.89s-2.6.26-3.76.77c-1.16.51-2.17,1.21-3.01,2.1-.84.89-1.51,1.94-2,3.16-.49,1.22-.73,2.52-.73,3.91s.24,2.69.73,3.91c.49,1.22,1.16,2.27,2,3.16.84.89,1.85,1.59,3.02,2.1,1.17.51,2.44.77,3.81.77Z"/><path class="cls-4" d="m138.47,86.01c0-1.23.2-2.37.61-3.42.41-1.05.97-1.96,1.69-2.73s1.58-1.38,2.58-1.81c1-.43,2.07-.65,3.21-.65s2.24.22,3.23.65c.99.43,1.85,1.04,2.58,1.81.73.78,1.3,1.69,1.71,2.73.41,1.05.61,2.19.61,3.42s-.21,2.38-.63,3.45c-.42,1.07-.99,1.99-1.71,2.75s-1.58,1.37-2.58,1.81c-1,.45-2.07.67-3.21.67s-2.2-.22-3.2-.67-1.85-1.05-2.56-1.83-1.29-1.69-1.71-2.75c-.42-1.06-.63-2.2-.63-3.43Zm8.1,6.46c1.62,0,2.97-.61,4.05-1.83,1.08-1.22,1.62-2.75,1.62-4.6s-.54-3.38-1.62-4.61c-1.08-1.23-2.43-1.85-4.05-1.85s-2.96.62-4.03,1.85c-1.07,1.23-1.61,2.77-1.61,4.61s.54,3.38,1.61,4.6c1.07,1.22,2.41,1.83,4.03,1.83Z"/><path class="cls-4" d="m159.09,94.35v-16.68h2.5v2.7c.64-.98,1.4-1.72,2.29-2.22.89-.5,1.89-.75,3.01-.75,1.78,0,3.23.57,4.36,1.71,1.13,1.14,1.69,2.62,1.69,4.44v10.8h-2.5v-10.08c0-1.46-.41-2.62-1.21-3.49-.81-.86-1.9-1.3-3.26-1.3-.91,0-1.74.22-2.5.65-.75.43-1.38,1.07-1.88,1.91v12.31h-2.5Z"/><path class="cls-4" d="m182.74,94.35l-6.84-16.68h2.7l5.4,13.57,5.33-13.57h2.67l-6.87,16.68h-2.39Z"/><path class="cls-4" d="m208.85,92.43c-.96.75-1.95,1.31-2.97,1.67s-2.12.55-3.28.55-2.25-.22-3.26-.67c-1.01-.44-1.89-1.05-2.63-1.83-.74-.77-1.32-1.69-1.74-2.75-.42-1.06-.63-2.19-.63-3.4s.2-2.34.6-3.4c.4-1.06.95-1.97,1.66-2.74.71-.76,1.54-1.37,2.5-1.81.96-.44,1.99-.67,3.11-.67s2.11.22,3.04.65c.93.43,1.74,1.02,2.43,1.76.68.74,1.22,1.63,1.61,2.67s.58,2.15.58,3.33v.75h-13.09c.11,1.69.74,3.09,1.88,4.22,1.14,1.13,2.5,1.69,4.07,1.69.87,0,1.7-.15,2.51-.46.81-.31,1.5-.72,2.07-1.25l1.57,1.67Zm-6.7-12.89c-1.37,0-2.54.49-3.52,1.47-.98.98-1.58,2.23-1.81,3.76h10.56c-.18-1.5-.76-2.75-1.73-3.74-.97-.99-2.14-1.49-3.5-1.49Z"/><path class="cls-4" d="m214.12,94.35v-16.68h2.5v2.7c.64-.98,1.4-1.72,2.29-2.22.89-.5,1.89-.75,3.01-.75,1.78,0,3.23.57,4.36,1.71,1.13,1.14,1.69,2.62,1.69,4.44v10.8h-2.5v-10.08c0-1.46-.41-2.62-1.21-3.49-.81-.86-1.9-1.3-3.26-1.3-.91,0-1.74.22-2.5.65-.75.43-1.38,1.07-1.88,1.91v12.31h-2.5Z"/><path class="cls-4" d="m234.97,90.59v-10.87h-3.45v-2.05h3.45v-4.58l2.5-.58v5.16h4.79v2.05h-4.79v10.22c0,.89.19,1.53.56,1.91.38.39,1,.58,1.86.58.43,0,.82-.04,1.16-.1.34-.07.74-.18,1.2-.34v2.22c-.46.16-.93.27-1.44.34-.5.07-.99.1-1.47.1-1.44,0-2.52-.35-3.26-1.04-.74-.7-1.11-1.7-1.11-3.03Z"/><path class="cls-4" d="m247.17,73.57c-.5,0-.93-.18-1.28-.53-.35-.35-.53-.78-.53-1.28s.18-.89.53-1.25c.35-.35.78-.53,1.28-.53s.89.18,1.25.53c.35.35.53.77.53,1.25,0,.5-.17.93-.51,1.28-.34.35-.76.53-1.26.53Zm1.23,4.1v16.68h-2.5v-16.68h2.5Z"/><path class="cls-4" d="m252.78,86.01c0-1.23.2-2.37.61-3.42.41-1.05.97-1.96,1.69-2.73s1.58-1.38,2.58-1.81c1-.43,2.07-.65,3.21-.65s2.24.22,3.23.65c.99.43,1.85,1.04,2.58,1.81.73.78,1.3,1.69,1.71,2.73.41,1.05.61,2.19.61,3.42s-.21,2.38-.63,3.45c-.42,1.07-.99,1.99-1.71,2.75s-1.58,1.37-2.58,1.81c-1,.45-2.07.67-3.21.67s-2.2-.22-3.2-.67-1.85-1.05-2.56-1.83-1.29-1.69-1.71-2.75c-.42-1.06-.63-2.2-.63-3.43Zm8.1,6.46c1.62,0,2.97-.61,4.05-1.83,1.08-1.22,1.62-2.75,1.62-4.6s-.54-3.38-1.62-4.61c-1.08-1.23-2.43-1.85-4.05-1.85s-2.96.62-4.03,1.85c-1.07,1.23-1.61,2.77-1.61,4.61s.54,3.38,1.61,4.6c1.07,1.22,2.41,1.83,4.03,1.83Z"/><path class="cls-4" d="m273.39,94.35v-16.68h2.5v2.7c.64-.98,1.4-1.72,2.29-2.22.89-.5,1.89-.75,3.01-.75,1.78,0,3.23.57,4.36,1.71,1.13,1.14,1.69,2.62,1.69,4.44v10.8h-2.5v-10.08c0-1.46-.41-2.62-1.21-3.49-.81-.86-1.9-1.3-3.26-1.3-.91,0-1.74.22-2.5.65-.75.43-1.38,1.07-1.88,1.91v12.31h-2.5Z"/><path class="cls-4" d="m290.65,92.2l1.33-1.64c.98.73,1.9,1.26,2.75,1.59.85.33,1.73.5,2.62.5,1.21,0,2.21-.28,3.01-.85.8-.57,1.2-1.29,1.2-2.15,0-.68-.24-1.22-.72-1.61s-1.24-.68-2.29-.89l-2.73-.48c-1.62-.3-2.81-.8-3.57-1.5s-1.15-1.66-1.15-2.87c0-1.44.56-2.61,1.69-3.52,1.13-.91,2.57-1.37,4.32-1.37,1.14,0,2.22.17,3.25.51,1.02.34,2.06.87,3.11,1.57l-1.23,1.74c-.87-.62-1.73-1.06-2.6-1.35-.87-.28-1.74-.43-2.63-.43-1.09,0-1.97.24-2.63.72s-.99,1.13-.99,1.95c0,.68.21,1.21.63,1.57.42.37,1.17.64,2.24.82l2.8.51c1.66.3,2.89.81,3.67,1.54.79.73,1.18,1.71,1.18,2.94,0,1.44-.62,2.65-1.86,3.66-1.24,1-2.79,1.5-4.63,1.5-1.37,0-2.63-.21-3.79-.63-1.16-.42-2.15-1.03-2.97-1.83Z"/></g></svg>