<?xml version="1.0" encoding="utf-8"?>
<!-- Generator: Adobe Illustrator 27.4.1, SVG Export Plug-In . SVG Version: 6.00 Build 0)  -->
<svg version="1.1" id="Layer_1" xmlns="http://www.w3.org/2000/svg" xmlns:xlink="http://www.w3.org/1999/xlink" x="0px" y="0px"
	 width="177.4px" height="101.6px" viewBox="0 0 177.4 101.6" style="enable-background:new 0 0 177.4 101.6;" xml:space="preserve"
	>
<style type="text/css">
	.st0{clip-path:url(#SVGID_00000152974055957342633250000003520323624918470792_);}
	.st1{clip-path:url(#SVGID_00000021103292484536767760000015115499439522800270_);}
	.st2{fill:#ED1C24;}
	.st3{fill:#FFFFFF;}
</style>
<g>
	<g>
		<defs>
			<path id="SVGID_1_" d="M50.7,53.4H26.9c-3.6,0-6.9-0.4-9.9-1.2c-3.2-0.8-5.9-2.2-8.1-4.1c-2.3-1.9-4.1-4.3-5.3-7.2
				c-1.3-2.9-1.9-6.4-1.9-10.3V3.6c0-0.8,0.8-1.5,1.7-1.5h15.3c0.9,0,1.7,0.7,1.7,1.5v27.2c0,2.6,0.6,4.7,1.7,6.2
				c1,1.3,2.7,1.9,5,1.9h6.6V3.6c0-0.8,0.8-1.5,1.7-1.5h15.3c0.9,0,1.7,0.7,1.7,1.5v48.2C52.4,52.7,51.7,53.4,50.7,53.4L50.7,53.4z
				 M5,5.1v25.4c0,3.6,0.6,6.7,1.7,9.2c1.1,2.5,2.6,4.5,4.5,6.1c1.9,1.6,4.1,2.7,6.8,3.4c2.7,0.7,5.7,1.1,8.9,1.1H49V5.1H37.1v35.3
				c0,0.8-0.8,1.5-1.7,1.5h-8.3c-3.5,0-6.1-1.1-7.8-3.2c-1.6-2-2.4-4.6-2.4-7.9V5.1H5z M134,53.4h-17.5c-0.9,0-1.7-0.7-1.7-1.5V3.6
				c0-0.8,0.8-1.5,1.7-1.5h18.9c4.3,0,8.3,0.4,11.9,1.2c3.7,0.8,6.9,2.3,9.5,4.3c2.6,2,4.6,4.7,6,7.9c1.4,3.2,2.1,7.2,2.1,11.9
				s-0.7,8.7-2,12c-1.4,3.4-3.4,6.1-6.1,8.1c-2.7,2.1-6,3.6-9.8,4.5C143.3,52.9,138.9,53.4,134,53.4L134,53.4z M118.2,50.4H134
				c4.6,0,8.7-0.4,12.2-1.2c3.3-0.8,6.1-2.1,8.5-3.8c2.2-1.7,3.9-4,5.1-6.9l0,0c1.2-3,1.8-6.7,1.8-11s-0.6-8-1.9-10.8
				c-1.2-2.8-2.9-5.1-5.1-6.8c-2.2-1.7-4.9-2.9-8.1-3.6c-3.3-0.8-7.1-1.1-11.1-1.1h-17.2L118.2,50.4L118.2,50.4z M134.9,41.9h-3.2
				c-0.9,0-1.7-0.7-1.7-1.5V15.1c0-0.8,0.8-1.5,1.7-1.5h3.7c2.5,0,4.6,0.3,6.4,0.8c1.9,0.6,3.4,1.5,4.6,2.7c1.2,1.2,2,2.7,2.5,4.6
				l0,0c0.5,1.7,0.7,3.7,0.7,6.1c0,2.6-0.2,4.7-0.8,6.4c-0.5,1.8-1.4,3.4-2.7,4.6c-1.3,1.2-2.9,2-4.8,2.5
				C139.5,41.7,137.3,41.9,134.9,41.9z M133.3,38.9h1.5c2.1,0,4-0.2,5.5-0.6c1.3-0.3,2.4-0.9,3.3-1.7c0.9-0.8,1.5-1.9,1.8-3.2
				c0.4-1.5,0.6-3.4,0.6-5.7c0-2.1-0.2-3.9-0.6-5.4c-0.4-1.4-1-2.5-1.8-3.3c-0.8-0.8-1.8-1.4-3.1-1.8c-1.4-0.4-3.1-0.6-5.3-0.6h-2
				V38.9z M94.2,27.8L110.5,5c0.4-0.6,0.4-1.3,0.1-1.9s-1.1-1-1.8-1H92.5c-0.7,0-1.4,0.3-1.8,0.9l-7.1,10L76.5,3
				c-0.4-0.5-1-0.9-1.8-0.9H58.5c-0.8,0-1.5,0.4-1.8,1s-0.3,1.3,0.1,1.9l16.2,22.9L56.7,50.6c-0.4,0.6-0.4,1.3-0.1,1.9s1.1,1,1.8,1
				h16.4c0.7,0,1.4-0.3,1.8-0.9l6.9-9.8l6.9,9.8c0.4,0.5,1,0.9,1.8,0.9h16.4c0.8,0,1.5-0.4,1.8-1c0.4-0.6,0.3-1.3-0.1-1.9L94.2,27.8
				L94.2,27.8z M93.2,5.2h12.5l-17.6,17l-3.5-5l5.1-7.1C89.7,10.1,93.2,5.2,93.2,5.2z M86.9,23.3l-3.1,3l-3.4-3.2l3.2-4.4
				C83.6,18.6,86.9,23.3,86.9,23.3z M85.4,27.8l15-14.3l-12,17.1C88.4,30.6,85.4,27.8,85.4,27.8z M66.3,12.8L82.1,28l-3,2.9
				L66.3,12.8L66.3,12.8z M77.8,32.1L65.5,44l10.4-14.5c0,0,0,0,0-0.1L77.8,32.1L77.8,32.1z M83.6,29.4l3.3,3.2l-3.3,4.6l-0.1-0.1
				l-0.1,0.1l-3.3-4.6L83.6,29.4L83.6,29.4z M89.7,31.8l1.6-2.3l8.3,11.7L89.7,31.8z M61.6,50.4L79,33.8l3.5,4.9l-8.3,11.7
				L61.6,50.4L61.6,50.4z M93,50.4l-8.3-11.7l1.5-2.1l1.9-2.8l17.2,16.5L93,50.4L93,50.4z M82.5,17.1l-3.4,4.7L61.5,5.1H74l5,7
				L82.5,17.1L82.5,17.1z"/>
		</defs>
		<clipPath id="SVGID_00000182521985394818380360000017902813765052042666_">
			<use xlink:href="#SVGID_1_"  style="overflow:visible;"/>
		</clipPath>
		<g style="clip-path:url(#SVGID_00000182521985394818380360000017902813765052042666_);">
			<g>
				<defs>
					<rect id="SVGID_00000037658696234877917890000001759331525566673812_" x="1.6" y="2.1" width="163.3" height="51.3"/>
				</defs>
				<clipPath id="SVGID_00000051376420543096531150000007700548670425109382_">
					<use xlink:href="#SVGID_00000037658696234877917890000001759331525566673812_"  style="overflow:visible;"/>
				</clipPath>
				<g style="clip-path:url(#SVGID_00000051376420543096531150000007700548670425109382_);">
					<rect x="-0.3" y="0.2" class="st2" width="167.1" height="55.1"/>
				</g>
			</g>
		</g>
	</g>
	<g>
		<path class="st3" d="M1.6,71.2h7.9c7.2,0,12.5,5,12.5,11.9S16.7,95,9.5,95H1.6V71.2z M9.6,92.6c5.5,0,9.7-4.1,9.7-9.5
			c0-5.4-4.2-9.5-9.7-9.5H4.2v19H9.6z"/>
		<path class="st3" d="M24.8,86.4c0-4.9,3.7-8.8,8.4-8.8c4.5,0,8.1,3.9,8.1,8.8v0.8h-14c0.4,3.4,3,5.8,6.4,5.8
			c1.8,0,3.5-0.6,4.7-1.6l1.6,1.7c-1.9,1.4-3.9,2.1-6.4,2.1C28.7,95.3,24.8,91.4,24.8,86.4z M38.8,85.2c-0.4-3-2.8-5.3-5.6-5.3
			c-3,0-5.3,2.2-5.8,5.3H38.8z"/>
		<path class="st3" d="M43.2,92.6l1.5-1.6c1.6,1.5,3.5,2.3,5.5,2.3c2.7,0,4.6-1.3,4.6-3.1c0-1.5-1-2.3-3.2-2.6l-3-0.4
			c-3.4-0.5-5-2-5-4.7c0-2.9,2.7-5,6.4-5c2.5,0,4.6,0.7,6.7,2.2l-1.3,1.7c-1.9-1.3-3.6-1.9-5.5-1.9c-2.3,0-3.9,1.2-3.9,2.8
			c0,1.5,0.9,2.3,3.2,2.6l3,0.4c3.4,0.5,5.1,2,5.1,4.7c0,3-3,5.2-6.9,5.2C47.6,95.3,45,94.3,43.2,92.6z"/>
		<path class="st3" d="M59.7,73c0-1,0.8-1.7,1.7-1.7c1,0,1.7,0.7,1.7,1.7c0,0.9-0.7,1.7-1.7,1.7C60.5,74.7,59.7,73.9,59.7,73z
			 M60.1,77.9h2.5v17h-2.5V77.9z"/>
		<path class="st3" d="M68.6,100.5l1.1-2c2,1.1,3.7,1.6,5.5,1.6c3.2,0,4.9-1.6,4.9-4.6v-2.4c-1.5,1.3-3.4,2-5.4,2
			c-4.7,0-8.5-3.8-8.5-8.7c0-4.9,3.7-8.7,8.6-8.7c1.9,0,3.8,0.7,5.4,2v-1.7h2.5v17.5c0,4.4-2.6,6.8-7.3,6.8
			C72.8,102.2,70.5,101.6,68.6,100.5z M80.1,90.5v-8.4c-1.2-1.5-3.1-2.3-5.2-2.3c-3.5,0-6.2,2.8-6.2,6.5c0,3.7,2.7,6.5,6.2,6.5
			C77,92.9,78.9,92,80.1,90.5z"/>
		<path class="st3" d="M86.9,77.9h2.5v2c1.3-1.6,3.2-2.3,5.4-2.3c3.9,0,6.6,2.7,6.6,6.6V95h-2.5V84.7c0-3-1.8-4.9-4.8-4.9
			c-2,0-3.7,1-4.7,2.6V95h-2.5V77.9z"/>
		<path class="st3" d="M113.3,71.2h2.6v10.6h13.8V71.2h2.6V95h-2.6V84.1h-13.8V95h-2.6V71.2z"/>
		<path class="st3" d="M137.1,88.7V77.9h2.5v10.3c0,3,1.8,4.9,4.8,4.9c2,0,3.7-1,4.7-2.7V77.9h2.5v17H149v-2
			c-1.3,1.5-3.1,2.3-5.3,2.3C139.8,95.3,137.1,92.6,137.1,88.7z"/>
		<path class="st3" d="M155.8,71.2l2.5-0.6v9.1c1.4-1.4,3.3-2.1,5.5-2.1c4.8,0,8.6,3.8,8.6,8.8c0,5-3.7,8.8-8.6,8.8
			c-2,0-3.9-0.7-5.5-2V95h-2.5V71.2z M169.9,86.5c0-3.7-2.8-6.6-6.3-6.6c-2.1,0-4,0.9-5.2,2.4v8.4c1.2,1.5,3.1,2.3,5.2,2.3
			C167.2,93,169.9,90.2,169.9,86.5z"/>
	</g>
</g>
</svg>
