<?xml version="1.0" encoding="utf-8"?>
<!-- Generator: Adobe Illustrator 27.4.1, SVG Export Plug-In . SVG Version: 6.00 Build 0)  -->
<svg version="1.1" id="Layer_1" xmlns="http://www.w3.org/2000/svg" xmlns:xlink="http://www.w3.org/1999/xlink" x="0px" y="0px"
	 width="303.9px" height="100px" viewBox="0 0 303.9 100" style="enable-background:new 0 0 303.9 100;" xml:space="preserve">
<style type="text/css">
	.st0{clip-path:url(#SVGID_00000147203796919702329810000008664350797899485584_);}
	.st1{clip-path:url(#SVGID_00000087372766176227311140000010963784054952567716_);}
	.st2{fill:#ED1C24;}
	.st3{fill:#FFFFFF;}
</style>
<g>
	<g>
		<g>
			<defs>
				<path id="SVGID_1_" d="M50.7,55.1H26.9c-3.6,0-6.9-0.4-9.9-1.2c-3.2-0.8-5.9-2.2-8.1-4.1c-2.3-1.9-4.1-4.3-5.3-7.2
					c-1.3-2.9-1.9-6.4-1.9-10.3v-27c0-0.8,0.8-1.5,1.7-1.5h15.3c0.9,0,1.7,0.7,1.7,1.5v27.2c0,2.6,0.6,4.7,1.7,6.2
					c1,1.3,2.7,1.9,5,1.9h6.6V5.3c0-0.8,0.8-1.5,1.7-1.5h15.3c0.9,0,1.7,0.7,1.7,1.5v48.2C52.4,54.4,51.7,55.1,50.7,55.1L50.7,55.1z
					 M5,6.8v25.4c0,3.6,0.6,6.7,1.7,9.2s2.6,4.5,4.5,6.1s4.1,2.7,6.8,3.4s5.7,1.1,8.9,1.1H49V6.8H37.1v35.3c0,0.8-0.8,1.5-1.7,1.5
					h-8.3c-3.5,0-6.1-1.1-7.8-3.2c-1.6-2-2.4-4.6-2.4-7.9V6.8H5z M134,55.1h-17.5c-0.9,0-1.7-0.7-1.7-1.5V5.3c0-0.8,0.8-1.5,1.7-1.5
					h18.9c4.3,0,8.3,0.4,11.9,1.2c3.7,0.8,6.9,2.3,9.5,4.3s4.6,4.7,6,7.9s2.1,7.2,2.1,11.9s-0.7,8.7-2,12c-1.4,3.4-3.4,6.1-6.1,8.1
					c-2.7,2.1-6,3.6-9.8,4.5C143.3,54.6,138.9,55.1,134,55.1L134,55.1z M118.2,52.1H134c4.6,0,8.7-0.4,12.2-1.2
					c3.3-0.8,6.1-2.1,8.5-3.8c2.2-1.7,3.9-4,5.1-6.9l0,0c1.2-3,1.8-6.7,1.8-11s-0.6-8-1.9-10.8c-1.2-2.8-2.9-5.1-5.1-6.8
					c-2.2-1.7-4.9-2.9-8.1-3.6c-3.3-0.8-7.1-1.1-11.1-1.1h-17.2V52.1L118.2,52.1z M134.9,43.6h-3.2c-0.9,0-1.7-0.7-1.7-1.5V16.8
					c0-0.8,0.8-1.5,1.7-1.5h3.7c2.5,0,4.6,0.3,6.4,0.8c1.9,0.6,3.4,1.5,4.6,2.7c1.2,1.2,2,2.7,2.5,4.6l0,0c0.5,1.7,0.7,3.7,0.7,6.1
					c0,2.6-0.2,4.7-0.8,6.4c-0.5,1.8-1.4,3.4-2.7,4.6c-1.3,1.2-2.9,2-4.8,2.5C139.5,43.4,137.3,43.6,134.9,43.6z M133.3,40.6h1.5
					c2.1,0,4-0.2,5.5-0.6c1.3-0.3,2.4-0.9,3.3-1.7c0.9-0.8,1.5-1.9,1.8-3.2c0.4-1.5,0.6-3.4,0.6-5.7c0-2.1-0.2-3.9-0.6-5.4
					c-0.4-1.4-1-2.5-1.8-3.3s-1.8-1.4-3.1-1.8c-1.4-0.4-3.1-0.6-5.3-0.6h-2v22.3H133.3z M94.2,29.5l16.2-22.9
					c0.4-0.6,0.4-1.3,0.1-1.9s-1.1-1-1.8-1H92.5c-0.7,0-1.4,0.3-1.8,0.9l-7.1,10l-7.1-10c-0.4-0.5-1-0.9-1.8-0.9H58.5
					c-0.8,0-1.5,0.4-1.8,0.9s-0.3,1.3,0.1,1.9L73,29.4L56.7,52.3c-0.4,0.6-0.4,1.3-0.1,1.9s1.1,1,1.8,1h16.4c0.7,0,1.4-0.3,1.8-0.9
					l6.9-9.8l6.9,9.8c0.4,0.5,1,0.9,1.8,0.9h16.4c0.8,0,1.5-0.4,1.8-1c0.4-0.6,0.3-1.3-0.1-1.9L94.2,29.5L94.2,29.5z M93.2,6.9h12.5
					l-17.6,17l-3.5-5l5.1-7.1C89.7,11.7,93.2,6.9,93.2,6.9z M86.9,25l-3.1,3l-3.4-3.2l3.2-4.4C83.6,20.3,86.9,25,86.9,25z
					 M85.4,29.4l15-14.3l-12,17.1C88.4,32.3,85.4,29.4,85.4,29.4z M66.3,14.5l15.8,15.2l-3,2.9L66.3,14.5L66.3,14.5z M77.8,33.8
					L65.5,45.7l10.4-14.5c0,0,0,0,0-0.1L77.8,33.8L77.8,33.8z M83.6,31.1l3.3,3.2l-3.3,4.6l-0.1-0.1l-0.1,0.1l-3.3-4.6L83.6,31.1
					L83.6,31.1z M89.7,33.5l1.6-2.3l8.3,11.7L89.7,33.5z M61.6,52.1L79,35.5l3.5,4.9l-8.3,11.7L61.6,52.1L61.6,52.1z M93,52.1
					l-8.3-11.7l1.5-2.1l1.9-2.8L105.3,52L93,52.1L93,52.1z M82.5,18.8l-3.4,4.7L61.5,6.8H74l5,7L82.5,18.8L82.5,18.8z"/>
			</defs>
			<clipPath id="SVGID_00000058551257056400470320000004068484259239466425_">
				<use xlink:href="#SVGID_1_"  style="overflow:visible;"/>
			</clipPath>
			<g style="clip-path:url(#SVGID_00000058551257056400470320000004068484259239466425_);">
				<g>
					<g>
						<defs>
							<rect id="SVGID_00000006672832185564900120000005180816283876066744_" x="1.6" y="3.8" width="163.3" height="51.3"/>
						</defs>
						<clipPath id="SVGID_00000108298802584145753280000007118250929835595936_">
							<use xlink:href="#SVGID_00000006672832185564900120000005180816283876066744_"  style="overflow:visible;"/>
						</clipPath>
						<g style="clip-path:url(#SVGID_00000108298802584145753280000007118250929835595936_);">
							<rect x="-0.3" y="1.9" class="st2" width="167.1" height="55.1"/>
						</g>
					</g>
				</g>
			</g>
		</g>
	</g>
	<g>
		<path class="st3" d="M1.8,70.8h10.8c4.9,0,8.2,2.9,8.2,7.2c0,3.3-2.1,5.8-5.4,6.8L21.1,96H18l-5.4-10.8H4.5V96H1.8V70.8z
			 M12.4,82.8c3.4,0,5.6-1.9,5.6-4.8c0-2.9-2.2-4.8-5.6-4.8H4.5v9.5H12.4z"/>
		<path class="st3" d="M22.6,86.9c0-5.2,3.9-9.3,8.9-9.3c4.8,0,8.5,4.1,8.5,9.3v0.8H25.2c0.4,3.6,3.2,6.2,6.8,6.2
			c1.9,0,3.7-0.6,5-1.7l1.7,1.8c-2,1.5-4.1,2.2-6.7,2.2C26.6,96.3,22.6,92.2,22.6,86.9z M37.3,85.6c-0.5-3.2-3-5.7-5.9-5.7
			c-3.1,0-5.6,2.3-6.1,5.7H37.3z"/>
		<path class="st3" d="M42.1,93.5l1.6-1.7c1.7,1.5,3.7,2.4,5.9,2.4c2.9,0,4.9-1.3,4.9-3.2c0-1.6-1-2.4-3.3-2.8L48,87.7
			c-3.6-0.5-5.3-2.1-5.3-4.9c0-3,2.8-5.3,6.8-5.3c2.6,0,4.9,0.8,7.1,2.4l-1.4,1.8c-2-1.4-3.9-2-5.8-2c-2.5,0-4.2,1.2-4.2,3
			c0,1.6,1,2.4,3.3,2.7l3.1,0.4c3.6,0.5,5.4,2.1,5.4,4.9c0,3.1-3.2,5.5-7.3,5.5C46.7,96.3,44,95.3,42.1,93.5z"/>
		<path class="st3" d="M59.3,87c0-5.3,4.1-9.4,9.2-9.4s9.2,4.1,9.2,9.4c0,5.3-4.1,9.4-9.2,9.4S59.3,92.2,59.3,87z M75.1,87
			c0-3.9-2.9-7-6.6-7c-3.7,0-6.6,3.1-6.6,7s2.9,7,6.6,7C72.2,93.9,75.1,90.9,75.1,87z"/>
		<path class="st3" d="M81.4,89.3V77.9H84v10.9c0,3.2,1.9,5.2,5,5.2c2.2,0,3.9-1,5-2.8V77.9h2.7v18H94v-2.1
			c-1.4,1.6-3.3,2.4-5.7,2.4C84.2,96.3,81.4,93.5,81.4,89.3z"/>
		<path class="st3" d="M101.2,77.9h2.7v2.6c1.1-1.9,2.8-3,5-3c0.7,0,1.2,0.1,1.7,0.3v2.4c-0.6-0.2-1.3-0.3-1.9-0.3
			c-2.2,0-3.9,1.3-4.9,3.7V96h-2.7V77.9z"/>
		<path class="st3" d="M111.6,86.9c0-5.2,4-9.4,9.2-9.4c2.6,0,5.2,1,7.1,2.8l-1.7,1.9c-1.4-1.5-3.4-2.3-5.3-2.3
			c-3.7,0-6.6,3.1-6.6,6.9c0,3.9,2.9,6.9,6.6,6.9c1.9,0,3.7-0.8,5.3-2.3l1.7,1.8c-1.9,1.8-4.4,2.9-7,2.9
			C115.6,96.3,111.6,92.2,111.6,86.9z"/>
		<path class="st3" d="M129.5,86.9c0-5.2,3.9-9.3,8.9-9.3c4.8,0,8.5,4.1,8.5,9.3v0.8h-14.8c0.4,3.6,3.2,6.2,6.8,6.2
			c1.9,0,3.7-0.6,5-1.7l1.7,1.8c-2,1.5-4.1,2.2-6.7,2.2C133.6,96.3,129.5,92.2,129.5,86.9z M144.3,85.6c-0.5-3.2-3-5.7-5.9-5.7
			c-3.1,0-5.6,2.3-6.1,5.7H144.3z"/>
		<path class="st3" d="M158.9,70.8h2.8V82h14.7V70.8h2.8V96h-2.8V84.5h-14.7V96h-2.8V70.8z"/>
		<path class="st3" d="M184,89.3V77.9h2.6v10.9c0,3.2,1.9,5.2,5,5.2c2.2,0,3.9-1,5-2.8V77.9h2.7v18h-2.7v-2.1
			c-1.4,1.6-3.3,2.4-5.7,2.4C186.9,96.3,184,93.5,184,89.3z"/>
		<path class="st3" d="M203.9,70.8l2.7-0.6v9.7c1.5-1.4,3.5-2.2,5.8-2.2c5.1,0,9.1,4.1,9.1,9.3c0,5.3-4,9.3-9.1,9.3
			c-2.1,0-4.2-0.8-5.8-2.1V96h-2.6V70.8z M218.8,87c0-4-2.9-7-6.7-7c-2.3,0-4.3,0.9-5.5,2.5v8.9c1.3,1.5,3.3,2.5,5.5,2.5
			C215.9,93.9,218.8,90.9,218.8,87z"/>
	</g>
</g>
</svg>
