<?xml version="1.0" encoding="utf-8"?>
<!-- Generator: Adobe Illustrator 27.0.1, SVG Export Plug-In . SVG Version: 6.00 Build 0)  -->
<svg version="1.1" id="Layer_1" xmlns="http://www.w3.org/2000/svg" xmlns:xlink="http://www.w3.org/1999/xlink" x="0px" y="0px"
	 width="30px" height="30px" viewBox="0 0 30 30" style="enable-background:new 0 0 30 30;" xml:space="preserve">
<style type="text/css">
	.st0{fill:#0ACF83;}
	.st1{fill:#A259FF;}
	.st2{fill:#F24E1E;}
	.st3{fill:#FF7262;}
	.st4{fill:#1ABCFE;}
</style>
<g>
	<path class="st0" d="M10.8,27.5c2.3,0,4.2-1.8,4.2-4.2v-4.2h-4.2c-2.3,0-4.2,1.8-4.2,4.2S8.5,27.5,10.8,27.5z"/>
	<path class="st1" d="M6.7,15c0-2.3,1.8-4.2,4.2-4.2H15v8.3h-4.2C8.5,19.2,6.7,17.3,6.7,15z"/>
	<path class="st2" d="M6.7,6.7c0-2.3,1.8-4.2,4.2-4.2H15v8.3h-4.2C8.5,10.8,6.7,9,6.7,6.7z"/>
	<path class="st3" d="M15,2.5h4.2c2.3,0,4.2,1.8,4.2,4.2s-1.8,4.2-4.2,4.2H15V2.5z"/>
	<path class="st4" d="M23.3,15c0,2.3-1.8,4.2-4.2,4.2S15,17.3,15,15s1.8-4.2,4.2-4.2S23.3,12.7,23.3,15z"/>
</g>
</svg>
