<?xml version="1.0" encoding="utf-8"?>
<!-- Generator: Adobe Illustrator 27.0.1, SVG Export Plug-In . SVG Version: 6.00 Build 0)  -->
<svg version="1.1" id="Layer_1" xmlns="http://www.w3.org/2000/svg" xmlns:xlink="http://www.w3.org/1999/xlink" x="0px" y="0px"
	 width="30px" height="30px" viewBox="0 0 30 30" style="enable-background:new 0 0 30 30;" xml:space="preserve">
<style type="text/css">
	.st0{fill:#FFFFFF;}
</style>
<path class="st0" d="M10.9,22.1c0,0.1-0.1,0.2-0.3,0.2c-0.2,0-0.3-0.1-0.3-0.2c0-0.1,0.1-0.2,0.3-0.2C10.7,21.9,10.9,21.9,10.9,22.1
	z M9.3,21.8c0,0.1,0.1,0.2,0.2,0.2c0.1,0.1,0.3,0,0.3-0.1c0-0.1-0.1-0.2-0.2-0.3C9.5,21.7,9.3,21.7,9.3,21.8L9.3,21.8z M11.5,21.7
	c-0.1,0-0.2,0.1-0.2,0.2c0,0.1,0.1,0.2,0.3,0.1c0.1,0,0.2-0.1,0.2-0.2C11.8,21.8,11.7,21.7,11.5,21.7z M14.8,2.4
	c-7,0-12.3,5.3-12.3,12.3c0,5.6,3.5,10.4,8.5,12.1c0.6,0.1,0.9-0.3,0.9-0.6c0-0.3,0-2,0-3.1c0,0-3.5,0.8-4.3-1.5
	c0,0-0.6-1.5-1.4-1.8c0,0-1.2-0.8,0.1-0.8c0,0,1.3,0.1,1.9,1.3c1.1,1.9,3,1.4,3.7,1.1c0.1-0.8,0.4-1.4,0.8-1.7
	c-2.8-0.3-5.7-0.7-5.7-5.6c0-1.4,0.4-2.1,1.2-3c-0.1-0.3-0.6-1.7,0.1-3.4C9.5,7.3,11.9,9,11.9,9c1-0.3,2.1-0.4,3.2-0.4
	s2.2,0.1,3.2,0.4c0,0,2.4-1.7,3.5-1.4c0.7,1.7,0.3,3.1,0.1,3.4c0.8,0.9,1.3,1.6,1.3,3c0,4.9-3,5.3-5.8,5.6c0.5,0.4,0.9,1.2,0.9,2.3
	c0,1.7,0,3.8,0,4.2c0,0.3,0.2,0.7,0.9,0.6c5-1.7,8.5-6.5,8.5-12C27.5,7.7,21.8,2.4,14.8,2.4z M7.4,19.8c-0.1,0.1-0.1,0.2,0,0.3
	c0.1,0.1,0.2,0.1,0.3,0.1c0.1-0.1,0.1-0.2,0-0.3C7.6,19.8,7.5,19.7,7.4,19.8z M6.9,19.4c0,0.1,0,0.1,0.1,0.2c0.1,0.1,0.2,0,0.2,0
	c0-0.1,0-0.1-0.1-0.2C7,19.3,6.9,19.4,6.9,19.4z M8.5,21.2c-0.1,0.1-0.1,0.2,0.1,0.3c0.1,0.1,0.3,0.1,0.3,0.1c0.1-0.1,0-0.2-0.1-0.3
	C8.7,21.1,8.6,21.1,8.5,21.2z M7.9,20.5c-0.1,0.1-0.1,0.2,0,0.3s0.2,0.2,0.3,0.1c0.1-0.1,0.1-0.2,0-0.3C8.1,20.4,8,20.4,7.9,20.5
	L7.9,20.5z"/>
</svg>
