<?xml version="1.0" encoding="utf-8"?>
<!-- Generator: Adobe Illustrator 27.0.1, SVG Export Plug-In . SVG Version: 6.00 Build 0)  -->
<svg version="1.1" id="Layer_1" xmlns="http://www.w3.org/2000/svg" xmlns:xlink="http://www.w3.org/1999/xlink" x="0px" y="0px"
	 width="30px" height="30px" viewBox="0 0 30 30" style="enable-background:new 0 0 30 30;" xml:space="preserve">
<style type="text/css">
	.st0{fill:#4285F4;}
	.st1{fill:#F1F1F1;}
	.st2{fill:#A1C2FA;}
</style>
<g>
	<path class="st0" d="M16.9,4.1H8.5C7.7,4.1,7,4.8,7,5.5v19c0,0.8,0.7,1.5,1.5,1.5h13c0.8,0,1.5-0.7,1.5-1.5V10l-3.5-2.5L16.9,4.1z"
		/>
	<path class="st1" d="M11,20h8V19h-8V20L11,20z M11,21.9h6v-1.1h-6C11,21,11,21.9,11,21.9z M11,15v1.1h8V15H11z M11,18h8v-1.1h-8V18
		L11,18z"/>
	<path class="st2" d="M16.9,4.1v4.5c0,0.8,0.7,1.5,1.5,1.5h4.5L16.9,4.1z"/>
</g>
</svg>
