<?xml version="1.0" encoding="UTF-8"?>
<svg id="Layer_1" data-name="Layer 1" xmlns="http://www.w3.org/2000/svg" width=".42in" height=".42in" viewBox="0 0 30 30">
  <defs>
    <style>
      .cls-1 {
        fill: #504b4b;
      }

      .cls-1, .cls-2 {
        stroke-width: 0px;
      }

      .cls-2 {
        fill: #fff;
      }

      .cls-3 {
        fill: none;
        stroke: #504b4b;
        stroke-miterlimit: 10;
        stroke-width: .59px;
      }
    </style>
  </defs>
  <path class="cls-2" d="M17.2,9.5V3.6h-8.6c-.6,0-1,.5-1,1v19.9c0,.6.5,1,1,1h14.4c.6,0,1-.5,1-1v-14h-5.8c-.6,0-1-.5-1-1ZM24,8.9v.3h-5.5V3.6h.3c.3,0,.5.1.7.3l4.2,4.2c.2.2.3.5.3.8Z"/>
  <path class="cls-1" d="M16.18,14.1c0,.21-.15.38-.39.38-.22,0-.37-.17-.37-.38s.16-.39.39-.39.38.17.38.39ZM15.49,18.48v-3.41h.62v3.41h-.62Z"/>
  <circle class="cls-3" cx="15.8" cy="16.1" r="3.85"/>
</svg>