<?xml version="1.0" encoding="UTF-8"?>
<svg id="Layer_2" data-name="Layer 2" xmlns="http://www.w3.org/2000/svg" width="16.4" height="21.9" viewBox="0 0 16.4 21.9">
  <defs>
    <style>
      .cls-1 {
        fill: #504b4b;
      }

      .cls-1, .cls-2 {
        stroke-width: 0px;
      }

      .cls-2 {
        fill: #fff;
      }
    </style>
  </defs>
  <g id="Layer_1-2" data-name="Layer 1">
    <path class="cls-2" d="M9.6,5.9V0H1C.4,0,0,.5,0,1v19.9c0,.6.5,1,1,1h14.4c.6,0,1-.5,1-1V6.9h-5.8c-.6,0-1-.5-1-1ZM16.4,5.3v.3h-5.5V0h.3c.3,0,.5.1.7.3l4.2,4.2c.2.2.3.5.3.8Z"/>
    <circle class="cls-1" cx="8.2" cy="13.5" r="6.35"/>
    <path class="cls-2" d="M7.1,9.9c0-.6.49-1.1,1.09-1.1s1.1.49,1.1,1.1-.49,1.1-1.1,1.1-1.09-.49-1.09-1.1ZM7.2,11.6h1.99v6.51h-1.99v-6.51Z"/>
  </g>
</svg>