<?xml version="1.0" encoding="utf-8"?>
<!-- Generator: Adobe Illustrator 27.0.1, SVG Export Plug-In . SVG Version: 6.00 Build 0)  -->
<svg version="1.1" id="Layer_1" xmlns="http://www.w3.org/2000/svg" xmlns:xlink="http://www.w3.org/1999/xlink" x="0px" y="0px"
	 width="30px" height="30px" viewBox="0 0 30 30" style="enable-background:new 0 0 30 30;" xml:space="preserve">
<style type="text/css">
	.st0{fill:#FFFFFF;}
</style>
<path class="st0" d="M25.4,14.4C22.3,11.3,18.2,7.1,15.1,4C7.9,11.1,4.6,14.4,4.6,14.4c-0.3,0.3-0.3,0.9,0,1.2
	c5.7,5.7,2.7,2.6,10.4,10.4c16.3-16.2,0.7-0.7,10.4-10.4C25.8,15.3,25.8,14.7,25.4,14.4L25.4,14.4z M15.1,18.3L11.8,15l3.3-3.3
	l3.3,3.3L15.1,18.3z"/>
<g id="V6hr0o.tif">
	
		<image style="overflow:visible;" width="3840" height="2160" id="Layer_0" xlink:href="841383B35943BE7D.png"  transform="matrix(0.448 0 0 0.448 779.6788 -468.837)">
	</image>
</g>
</svg>
