<?xml version="1.0" encoding="utf-8"?>
<!-- Generator: Adobe Illustrator 27.0.1, SVG Export Plug-In . SVG Version: 6.00 Build 0)  -->
<svg version="1.1" id="Layer_1" xmlns="http://www.w3.org/2000/svg" xmlns:xlink="http://www.w3.org/1999/xlink" x="0px" y="0px"
	 width="30px" height="30px" viewBox="0 0 30 30" style="enable-background:new 0 0 30 30;" xml:space="preserve">
<style type="text/css">
	.st0{fill:#FFFFFF;}
</style>
<g>
	<path class="st0" d="M17.1,11.3c0.4-0.4,0.7-0.7,1-1c0.3-0.3,0.6-0.6,0.9-0.8c0.3-0.2,0.5-0.5,0.8-0.7c0.6-0.5,1.1-0.9,1.5-1.1
		c0.4-0.2,0.8-0.3,1.1-0.3c0.5,0,1,0.2,1.4,0.6c0.4,0.4,0.6,0.8,0.6,1.3c0,0.4-0.1,0.7-0.3,1.1c-0.2,0.4-0.6,0.9-1.1,1.6
		c-2.4,3.1-3.5,5.1-3.5,6c0,0.4,0.2,0.6,0.6,0.6c0.3,0,0.6-0.1,1-0.4c0.4-0.3,0.8-0.7,1.4-1.3c0.3-0.3,0.7-0.8,1.1-1.4
		c0.4-0.6,0.8-1.1,1.2-1.6c0.3-0.5,0.6-0.8,0.8-1c0.2-0.2,0.5-0.3,0.8-0.3c0.3,0,0.6,0.1,0.8,0.3c0.2,0.2,0.3,0.5,0.3,0.8
		c0,0.6-0.3,1.3-0.8,2.3c-0.5,1-1.2,1.9-2.1,2.9c-1.1,1.3-2.1,2.2-3.2,2.9c-1.1,0.7-2.1,1-3,1c-0.8,0-1.5-0.3-2.1-0.8
		c-0.5-0.6-0.8-1.3-0.8-2.2c0-0.5,0-0.9,0.1-1.3c0.1-0.4,0.2-0.8,0.3-1.3c0.2-0.4,0.4-0.9,0.6-1.4c0.3-0.5,0.6-1,1-1.7
		c0-0.1,0.1-0.2,0.2-0.4c-0.8,0.6-1.6,1.4-2.3,2.3c-0.8,0.9-1.5,2.1-2.3,3.6c-0.6,1-1,1.6-1.3,1.9c-0.3,0.3-0.7,0.5-1.1,0.5
		c-0.5,0-0.9-0.2-1.2-0.5c-0.3-0.3-0.5-0.8-0.5-1.3c0-0.3,0-0.7,0.1-1C9.3,19,9.4,18.6,9.7,18c0.2-0.4,0.3-0.9,0.6-1.4
		c0.2-0.5,0.5-0.9,0.6-1.2l0.9-1.5c0.1-0.1,0.2-0.2,0.3-0.5c-0.6,0.5-1.2,1-1.8,1.7c-0.6,0.6-1.1,1.3-1.7,1.9c-0.5,0.7-1,1.3-1.4,2
		c-0.4,0.7-0.7,1.3-1,2c-0.4,0.8-0.7,1.4-1,1.7c-0.3,0.3-0.7,0.4-1.1,0.4c-0.5,0-0.8-0.2-1.1-0.5c-0.3-0.4-0.5-0.8-0.5-1.4
		c0-1.1,0.6-3.1,1.7-5.9c0.6-1.6,1.3-3.1,2.1-4.4C7,9.6,7.7,8.4,8.4,7.4c0.4-0.5,0.8-0.9,1.1-1.2c0.3-0.2,0.6-0.3,1-0.3
		c0.4,0,0.7,0.1,1,0.4c0.3,0.3,0.4,0.6,0.4,1c0,0.3-0.1,0.6-0.2,1c-0.1,0.3-0.5,0.9-1,1.7c-0.1,0.2-0.2,0.4-0.4,0.7
		c-0.2,0.3-0.4,0.7-0.7,1.2l-0.5,1c0.9-1.1,1.7-2,2.4-2.8c0.7-0.8,1.3-1.4,1.8-1.8c0.5-0.5,1-0.8,1.4-1C15.2,7.1,15.5,7,15.9,7
		c0.4,0,0.8,0.1,1.1,0.4c0.3,0.3,0.5,0.6,0.5,1.1c0,0.3-0.1,0.6-0.2,0.9c-0.1,0.3-0.4,0.8-0.8,1.5l-1,1.7l-0.4,0.7l0.5-0.6
		C16.2,12.2,16.7,11.7,17.1,11.3z"/>
</g>
</svg>
