<?xml version="1.0" encoding="UTF-8"?><svg id="Layer_2" xmlns="http://www.w3.org/2000/svg" viewBox="0 0 803.27 132.32"><defs><style>.cls-1{fill:#231f20;}.cls-2{fill:none;stroke:#ec2027;stroke-width:3px;}</style></defs><g id="Layer_1-2"><g><path class="cls-2" d="M1.5,66.1c0-5.24,.99-10.14,2.97-14.7,1.98-4.55,4.69-8.51,8.14-11.87,3.45-3.36,7.52-6,12.21-7.94s9.71-2.9,15.04-2.9,10.35,.97,15.04,2.9,8.76,4.58,12.21,7.94c3.45,3.36,6.16,7.31,8.14,11.87,1.98,4.55,2.97,9.45,2.97,14.7s-.99,10.14-2.97,14.7c-1.98,4.55-4.69,8.49-8.14,11.8-3.45,3.31-7.52,5.93-12.21,7.87-4.69,1.93-9.71,2.9-15.04,2.9s-10.35-.97-15.04-2.9c-4.69-1.93-8.76-4.55-12.21-7.87-3.45-3.31-6.16-7.25-8.14-11.8-1.98-4.55-2.97-9.45-2.97-14.7Zm38.36,20.84c5.52,0,10.21-2.02,14.08-6.07,3.86-4.05,5.8-8.97,5.8-14.77s-1.93-10.85-5.8-14.9c-3.86-4.05-8.56-6.07-14.08-6.07s-10.21,2.02-14.08,6.07c-3.86,4.05-5.8,9.02-5.8,14.9s1.93,10.72,5.8,14.77c3.86,4.05,8.56,6.07,14.08,6.07Z"/><path class="cls-2" d="M92.58,130.82V30.08h18.63v5.93c2.85-2.3,6.02-4.02,9.52-5.17,3.5-1.15,7.13-1.72,10.9-1.72,5.06,0,9.82,.97,14.28,2.9,4.46,1.93,8.35,4.55,11.66,7.87,3.31,3.31,5.91,7.22,7.8,11.73,1.88,4.51,2.83,9.34,2.83,14.49s-.96,9.98-2.9,14.49c-1.93,4.51-4.55,8.42-7.87,11.73-3.31,3.31-7.24,5.91-11.8,7.8-4.55,1.88-9.41,2.83-14.56,2.83-3.5,0-6.92-.48-10.28-1.45-3.36-.97-6.46-2.37-9.31-4.21v33.53h-18.91Zm36.02-85.56c-3.4,0-6.58,.58-9.52,1.72-2.95,1.15-5.48,2.83-7.59,5.04v28.29c2.02,2.03,4.53,3.64,7.52,4.83,2.99,1.2,6.19,1.79,9.59,1.79,5.89,0,10.85-2,14.9-6,4.05-4,6.07-8.95,6.07-14.83s-2.05-10.83-6.14-14.83-9.04-6-14.83-6Z"/><path class="cls-2" d="M247.55,93.01c-4.42,3.59-8.95,6.21-13.59,7.87-4.65,1.66-9.82,2.48-15.52,2.48s-10.51-.97-15.25-2.9c-4.74-1.93-8.83-4.55-12.28-7.87-3.45-3.31-6.17-7.25-8.14-11.8-1.98-4.55-2.97-9.45-2.97-14.7s.94-10,2.83-14.56c1.88-4.55,4.49-8.51,7.8-11.87,3.31-3.36,7.25-6,11.8-7.94,4.55-1.93,9.41-2.9,14.56-2.9s9.77,.99,14.14,2.97c4.37,1.98,8.14,4.67,11.32,8.07,3.17,3.4,5.66,7.48,7.45,12.21,1.79,4.74,2.69,9.87,2.69,15.39v4.97h-53.54c1.29,4.51,3.77,8.14,7.45,10.9,3.68,2.76,8,4.14,12.97,4.14,3.13,0,6.07-.5,8.83-1.52,2.76-1.01,5.11-2.44,7.04-4.28l12.42,11.32Zm-31.19-48.58c-4.33,0-8.05,1.31-11.18,3.93-3.13,2.62-5.29,6.14-6.49,10.56h35.19c-1.2-4.23-3.38-7.7-6.56-10.42-3.17-2.71-6.83-4.07-10.97-4.07Z"/><path class="cls-2" d="M269.49,101.98V30.08h18.91v5.66c2.76-2.3,5.82-4.05,9.18-5.24,3.36-1.2,7.01-1.79,10.97-1.79,8.28,0,15.09,2.67,20.42,8,5.33,5.34,8,12.19,8,20.56v44.71h-18.91V60.03c0-4.51-1.36-8.14-4.07-10.9-2.71-2.76-6.33-4.14-10.83-4.14-3.13,0-5.96,.62-8.49,1.86-2.53,1.24-4.62,3.01-6.28,5.31v49.82h-18.91Z"/><path class="cls-1" d="M416.05,101.98v-5.93c-2.85,2.3-6.03,4.03-9.52,5.17-3.5,1.15-7.13,1.72-10.9,1.72-5.06,0-9.82-.97-14.28-2.9-4.46-1.93-8.35-4.55-11.66-7.87s-5.91-7.22-7.8-11.73c-1.89-4.51-2.83-9.34-2.83-14.49s.97-9.98,2.9-14.49c1.93-4.51,4.55-8.42,7.87-11.73,3.31-3.31,7.25-5.91,11.8-7.8,4.55-1.88,9.41-2.83,14.56-2.83,3.5,0,6.92,.48,10.28,1.45,3.36,.97,6.46,2.37,9.32,4.21V5.38l18.91-4.14V101.98h-18.63Zm-38.36-36.02c0,5.8,2.02,10.72,6.07,14.77,4.05,4.05,9.02,6.07,14.9,6.07,3.5,0,6.69-.6,9.59-1.79,2.9-1.19,5.4-2.9,7.52-5.11v-28.01c-2.03-2.12-4.53-3.77-7.52-4.97-2.99-1.19-6.19-1.79-9.59-1.79-5.98,0-10.97,2-14.97,6s-6,8.95-6,14.83Z"/><path class="cls-1" d="M516.79,93.01c-4.42,3.59-8.95,6.21-13.59,7.87-4.65,1.66-9.82,2.48-15.52,2.48s-10.51-.97-15.25-2.9c-4.74-1.93-8.83-4.55-12.28-7.87-3.45-3.31-6.17-7.25-8.14-11.8-1.98-4.55-2.97-9.45-2.97-14.7s.94-10,2.83-14.56c1.88-4.55,4.49-8.51,7.8-11.87,3.31-3.36,7.25-6,11.8-7.94,4.55-1.93,9.41-2.9,14.56-2.9s9.77,.99,14.14,2.97c4.37,1.98,8.14,4.67,11.32,8.07,3.17,3.4,5.66,7.48,7.45,12.21,1.79,4.74,2.69,9.87,2.69,15.39v4.97h-53.54c1.29,4.51,3.77,8.14,7.45,10.9,3.68,2.76,8,4.14,12.97,4.14,3.13,0,6.07-.5,8.83-1.52,2.76-1.01,5.11-2.44,7.04-4.28l12.42,11.32Zm-31.19-48.58c-4.33,0-8.05,1.31-11.18,3.93-3.13,2.62-5.29,6.14-6.49,10.56h35.19c-1.2-4.23-3.38-7.7-6.56-10.42-3.17-2.71-6.83-4.07-10.97-4.07Z"/><path class="cls-1" d="M533.35,93.43l9.38-12.56c4.23,2.76,8.23,4.81,12.01,6.14,3.77,1.33,7.54,2,11.32,2,4.23,0,7.61-.69,10.14-2.07,2.53-1.38,3.8-3.22,3.8-5.52,0-1.84-.71-3.31-2.14-4.42-1.43-1.1-3.7-1.88-6.83-2.35l-13.8-2.07c-7.08-1.1-12.49-3.4-16.21-6.9-3.73-3.5-5.59-8.14-5.59-13.94,0-6.9,2.71-12.42,8.14-16.56,5.43-4.14,12.7-6.21,21.8-6.21,5.24,0,10.35,.76,15.32,2.28,4.97,1.52,9.71,3.75,14.21,6.69l-9.11,12.14c-3.96-2.3-7.73-4.02-11.32-5.17-3.59-1.15-7.22-1.73-10.9-1.73-3.4,0-6.14,.65-8.21,1.93-2.07,1.29-3.1,2.99-3.1,5.11,0,1.93,.76,3.43,2.28,4.49,1.52,1.06,4.02,1.82,7.52,2.28l13.8,2.07c6.99,1.01,12.4,3.31,16.21,6.9,3.82,3.59,5.73,8.14,5.73,13.66,0,3.4-.81,6.55-2.42,9.45-1.61,2.9-3.79,5.41-6.55,7.52-2.76,2.12-6.07,3.77-9.94,4.97-3.86,1.2-8.05,1.79-12.56,1.79-6.53,0-12.65-.85-18.35-2.55-5.71-1.7-10.58-4.16-14.63-7.38Z"/><path class="cls-1" d="M616.56,21.53c-2.95,0-5.47-1.06-7.59-3.17-2.12-2.12-3.17-4.64-3.17-7.59s1.06-5.47,3.17-7.59,4.64-3.17,7.59-3.17,5.47,1.06,7.59,3.17c2.12,2.12,3.17,4.65,3.17,7.59s-1.06,5.47-3.17,7.59-4.65,3.17-7.59,3.17Zm9.52,8.56V101.98h-18.91V30.08h18.91Z"/><path class="cls-1" d="M676.73,102.4c-5.06,0-9.82-.97-14.28-2.9-4.46-1.93-8.33-4.55-11.59-7.87-3.27-3.31-5.84-7.2-7.73-11.66-1.89-4.46-2.83-9.27-2.83-14.42s.97-9.82,2.9-14.28c1.93-4.46,4.55-8.35,7.87-11.66s7.22-5.91,11.73-7.8c4.51-1.88,9.34-2.83,14.49-2.83,3.59,0,7.01,.51,10.28,1.52,3.26,1.01,6.32,2.44,9.18,4.28v-4.69h18.63V101.98c0,9.47-3.06,16.79-9.18,21.94-6.12,5.15-14.93,7.73-26.43,7.73-5.52,0-10.83-.55-15.94-1.66-5.11-1.1-9.78-2.71-14.01-4.83l6.62-14.77c3.95,1.93,7.82,3.38,11.59,4.35,3.77,.97,7.54,1.45,11.32,1.45,5.61,0,9.87-1.22,12.76-3.66,2.9-2.44,4.35-6,4.35-10.7v-5.93c-2.85,2.12-5.96,3.73-9.31,4.83-3.36,1.1-6.83,1.66-10.42,1.66Zm-17.8-36.85c0,5.8,2,10.72,6,14.77,4,4.05,8.9,6.07,14.7,6.07,3.4,0,6.53-.57,9.38-1.72,2.85-1.15,5.33-2.74,7.45-4.76v-28.29c-2.02-2.02-4.51-3.61-7.45-4.76-2.95-1.15-6.03-1.72-9.25-1.72-5.8,0-10.72,1.98-14.77,5.93-4.05,3.96-6.07,8.79-6.07,14.49Z"/><path class="cls-1" d="M735.79,101.98V30.08h18.91v5.66c2.76-2.3,5.82-4.05,9.18-5.24,3.36-1.2,7.01-1.79,10.97-1.79,8.28,0,15.09,2.67,20.42,8,5.33,5.34,8,12.19,8,20.56v44.71h-18.91V60.03c0-4.51-1.36-8.14-4.07-10.9-2.71-2.76-6.33-4.14-10.83-4.14-3.13,0-5.96,.62-8.49,1.86-2.53,1.24-4.62,3.01-6.28,5.31v49.82h-18.91Z"/></g></g></svg>