<?xml version="1.0" encoding="utf-8"?>
<!-- Generator: Adobe Illustrator 27.5.0, SVG Export Plug-In . SVG Version: 6.00 Build 0)  -->
<svg version="1.1" id="Layer_1" xmlns="http://www.w3.org/2000/svg" xmlns:xlink="http://www.w3.org/1999/xlink" x="0px" y="0px"
	 width="30px" height="30px" viewBox="0 0 30 30" style="enable-background:new 0 0 30 30;" xml:space="preserve">
<style type="text/css">
	.st0{fill:url(#SVGID_1_);}
</style>
<g id="PATTERNFLY">
	<g id="_x34_-Desktop-HOME-PAGE" transform="translate(-658.000000, -193.000000)">
		<g id="HERO" transform="translate(-81.000000, 60.000000)">
			<g id="PF4" transform="translate(739.000000, 133.000000)">
				<g id="Shape">
					<linearGradient id="SVGID_1_" gradientUnits="userSpaceOnUse" x1="15" y1="2.8775" x2="15" y2="27.23">
						<stop  offset="0" style="stop-color:#54EEFF"/>
						<stop  offset="1" style="stop-color:#1C75BC"/>
					</linearGradient>
					<path class="st0" d="M27.7,15.2L15.3,3.1L15,2.9l-0.3,0.3L2.3,15.2l-0.2,0.2l0.1,0.2l4.9,7l0.1,0.1l0.2,0l3.7-0.8l3.6,5.1
						l0.2,0.3l0.2-0.3l3.6-5.1l3.7,0.8l0.2,0l0.1-0.1l3.1-4.3l1.9-2.7l0.1-0.2L27.7,15.2z M20.1,16.1L17.3,20L15.8,6.3L20.1,16.1z
						 M16.4,5.7l6,7.3l-1.7,2.3L16.4,5.7z M15,26l-3.1-4.3l0.9-0.2l2,2.7l0.2,0.3l0.2-0.3l1.8-2.7l0.9,0.2L15,26z M15,6l1.5,15
						L15,23.2L13.5,21L15,6z M12.7,20l-2.9-3.9l4.3-9.8L12.7,20z M9.4,15.4L7.7,13l6-7.3L9.4,15.4z M7.7,21.9l-4.5-6.4L10.8,8
						l-3.9,4.8L6.7,13l0.1,0.2l2.2,3l-0.7,1.5l-0.1,0.1l0.1,0.1l2.3,3.2L7.7,21.9z M9.1,17.7l0.4-0.9l2.9,3.9L11.5,21L9.1,17.7z
						 M18.5,21l-1-0.2l2.9-3.9l0.4,0.9L18.5,21z M25.2,17.8l-2.9,4.1l-3-0.7l2.3-3.2l0.1-0.1l-0.1-0.1L21,16.2l2.2-3l0.1-0.2
						l-0.1-0.2l-4-4.8l7.6,7.5L25.2,17.8z"/>
				</g>
			</g>
		</g>
	</g>
</g>
</svg>
