<?xml version="1.0" encoding="UTF-8"?>
<svg width="191px" height="48px" viewBox="0 0 191 48" version="1.1" xmlns="http://www.w3.org/2000/svg" xmlns:xlink="http://www.w3.org/1999/xlink">
    <title>Red Hat Logo</title>
    <g id="Symbols" stroke="none" stroke-width="1" fill="none" fill-rule="evenodd">
        <g id="Red-Hat-Logo" fill-rule="nonzero">
            <g id="Group">
                <g>
                    <path d="M25.2715162,16.9053704 C27.7594578,16.9053704 31.3639877,16.3777778 31.3639877,13.3487037 C31.3639877,13.1124074 31.3580166,12.8822222 31.3022867,12.652037 L29.8194735,6.06018519 C29.4751424,4.61185185 29.1765894,3.95185185 26.6866574,2.6787037 C24.758005,1.66833333 20.5523884,0 19.3084176,0 C18.150032,0 17.8076912,1.53592593 16.4343474,1.53592593 C15.0610036,1.53592593 14.1175761,0.395185185 12.8736053,0.395185185 C11.6296345,0.395185185 10.8991748,1.23037037 10.3000785,2.94148148 C10.3000785,2.94148148 8.62619131,7.7712963 8.41123315,8.47407407 C8.36744537,8.60648148 8.36744537,8.75314815 8.36744537,8.86925926 C8.36744537,10.7474074 15.5904376,16.9053704 25.2735065,16.9053704 M31.7521066,14.577037 C32.0964377,16.2453704 32.0964377,16.4205556 32.0964377,16.6405556 C32.0964377,19.4944444 28.9636216,21.0751852 24.8455805,21.0751852 C15.5347077,21.0751852 7.38222048,15.4977778 7.38222048,11.8107407 C7.38222048,11.2403704 7.51159344,10.7127778 7.68276383,10.3175926 C4.33299919,10.4948148 0,11.11 0,15.017037 C0,21.4275926 14.8460454,29.3333333 26.6010722,29.3333333 C35.6114017,29.3333333 37.8843852,25.1614815 37.8843852,21.8675926 C37.8843852,19.2764815 35.6969869,16.335 31.7481259,14.577037" id="Shape" fill="#EE0000"></path>
                    <path d="M31.7501162,14.5790741 C32.0944474,16.2474074 32.0944474,16.4225926 32.0944474,16.6425926 C32.0944474,19.4964815 28.9616312,21.0772222 24.8435902,21.0772222 C15.5327173,21.0772222 7.38023013,15.4998148 7.38023013,11.8127778 C7.38023013,11.2424074 7.50960309,10.7148148 7.68077348,10.3196296 L8.41123315,8.47407407 C8.36744537,8.60648148 8.36744537,8.75314815 8.36744537,8.86925926 C8.36744537,10.7474074 15.5904376,16.9053704 25.2735065,16.9053704 C27.7614482,16.9053704 31.365978,16.3777778 31.365978,13.3487037 C31.365978,13.1124074 31.360007,12.8822222 31.3042771,12.652037 L31.7521066,14.5790741 L31.7501162,14.5790741 Z" id="Path" fill="#000000"></path>
                </g>
                <path d="M115.289226,18.8018519 C115.289226,21.2218519 116.712329,22.4012963 119.307749,22.4012963 C119.936701,22.4012963 121.023434,22.2505556 121.674279,22.0590741 L121.674279,19.252037 C121.109019,19.4231481 120.691045,19.4883333 120.145688,19.4883333 C119.078859,19.4883333 118.680788,19.1461111 118.680788,18.1174074 L118.680788,13.8111111 L121.777778,13.8111111 L121.777778,10.9185185 L118.680788,10.9185185 L118.680788,7.25592593 L115.289226,8.00555556 L115.289226,10.9185185 L113.050078,10.9185185 L113.050078,13.8111111 L115.289226,13.8111111 L115.289226,18.8018519 L115.289226,18.8018519 Z M104.752295,18.867037 C104.752295,18.1174074 105.484745,17.7527778 106.593372,17.7527778 C107.325822,17.7527778 107.996571,17.8607407 108.603629,18.0094444 L108.603629,19.4659259 C107.974677,19.8305556 107.242227,20.0016667 106.489874,20.0016667 C105.401151,20.0016667 104.752295,19.5738889 104.752295,18.867037 M105.787279,22.4440741 C106.979501,22.4440741 107.942832,22.1874074 108.842472,21.5661111 L108.842472,22.2525926 L112.192236,22.2525926 L112.192236,14.9905556 C112.192236,12.2262963 110.371063,10.7066667 107.335774,10.7066667 C105.639993,10.7066667 103.966106,11.1140741 102.164836,11.9492593 L103.378952,14.4996296 C104.676662,13.9435185 105.765385,13.5992593 106.728716,13.5992593 C108.131915,13.5992593 108.842472,14.1553704 108.842472,15.292037 L108.842472,15.8481481 C108.04633,15.6342593 107.210382,15.5262963 106.330646,15.5262963 C103.48444,15.5262963 101.766765,16.7464815 101.766765,18.9322222 C101.766765,20.9244444 103.31526,22.4461111 105.785289,22.4461111 M87.3864627,22.2525926 L90.9870119,22.2525926 L90.9870119,16.3818519 L97.0157921,16.3818519 L97.0157921,22.2525926 L100.616341,22.2525926 L100.616341,7.25592593 L97.0157921,7.25592593 L97.0157921,13.0187037 L90.9870119,13.0187037 L90.9870119,7.25592593 L87.3864627,7.25592593 L87.3864627,22.2525926 L87.3864627,22.2525926 Z M73.6669572,16.5753704 C73.6669572,14.9477778 74.9228702,13.7051852 76.5768538,13.7051852 C77.4983874,13.7051852 78.3343358,14.027037 78.92149,14.5831481 L78.92149,18.5472222 C78.3144322,19.1461111 77.5182909,19.4475926 76.5768538,19.4475926 C74.9447641,19.4475926 73.6669572,18.205 73.6669572,16.5774074 M78.9632874,22.2546296 L82.3130521,22.2546296 L82.3130521,6.5062963 L78.92149,7.25592593 L78.92149,11.5194444 C78.0835513,11.0264815 77.1222106,10.7698148 76.0951883,10.7698148 C72.8708159,10.7698148 70.3390865,13.3201852 70.3390865,16.5753704 C70.3390865,19.8305556 72.8310088,22.4033333 75.9916899,22.4033333 C77.0804132,22.4033333 78.1054451,22.0611111 78.9632874,21.4174074 L78.9632874,22.2525926 L78.9632874,22.2546296 Z M63.5997501,13.5564815 C64.6665795,13.5564815 65.5682096,14.2633333 65.9224924,15.3551852 L61.2969113,15.3551852 C61.6312907,14.2205556 62.4692294,13.5564815 63.5997501,13.5564815 M57.8854457,16.5977778 C57.8854457,19.8977778 60.5226639,22.4685185 63.9142259,22.4685185 C65.7771967,22.4685185 67.1385983,21.9551852 68.5398071,20.7553704 L66.3006596,18.7203704 C65.7771967,19.2764815 65.0029492,19.577963 64.0814156,19.577963 C62.8255027,19.577963 61.8004707,18.8711111 61.3606026,17.7792593 L69.2523536,17.7792593 L69.2523536,16.9216667 C69.2523536,13.3222222 66.8878138,10.7311111 63.6634414,10.7311111 C60.439069,10.7311111 57.8854457,13.3018519 57.8854457,16.6018519 M52.0457491,10.4112963 C53.2379707,10.4112963 53.9087198,11.1833333 53.9087198,12.1040741 C53.9087198,13.0248148 53.2379707,13.7968519 52.0457491,13.7968519 L48.4869973,13.7968519 L48.4869973,10.4112963 L52.0457491,10.4112963 Z M44.8864482,22.2587037 L48.4869973,22.2587037 L48.4869973,16.7953704 L51.2297042,16.7953704 L53.9923146,22.2587037 L58.010838,22.2587037 L54.7864656,16.2596296 C56.524044,15.4875926 57.549076,13.8824074 57.549076,12.0388889 C57.549076,9.33981481 55.4771182,7.26203704 52.3781381,7.26203704 L44.8844578,7.26203704 L44.8844578,22.2525926 L44.8864482,22.2587037 Z" id="Shape" fill="#FFFFFF"></path>
            </g>
            <g id="Group" transform="translate(44.444444, 28.444444)" fill="#FFFFFF">
                <path d="M0.0019890242,15.002453 L0.0019890242,0 L4.92880197,0 C6.06652382,0 7.11076153,0.185881712 8.06350412,0.557645135 C9.01624671,0.929408558 9.84368078,1.45107659 10.5477953,2.12264922 C11.2519099,2.79422186 11.7988916,3.58771691 12.1907293,4.50113564 C12.5825671,5.4165531 12.7774915,6.41591714 12.7774915,7.50122649 C12.7774915,8.58653584 12.5845561,9.58789861 12.2006745,10.5013173 C11.8167928,11.4167348 11.2737892,12.2082311 10.5696746,12.8798038 C9.86556005,13.5513764 9.03414793,14.0730444 8.07344924,14.4448078 C7.11275055,14.8165713 6.06453479,15.002453 4.92681295,15.002453 L0,15.002453 L0.0019890242,15.002453 Z M1.59519741,13.6013446 L4.96460441,13.6013446 C5.83181896,13.6013446 6.63538474,13.45144 7.37530174,13.1516308 C8.11521875,12.8518216 8.76165161,12.4300899 9.31658937,11.8864359 C9.87152712,11.3427819 10.3011563,10.7071863 10.6074661,9.97964931 C10.9137758,9.25011356 11.0669307,8.45861724 11.0669307,7.6011629 C11.0669307,6.74370855 10.9137758,5.9502135 10.6074661,5.22267648 C10.3011563,4.49314073 9.87152712,3.8575452 9.31658937,3.31588989 C8.76165161,2.77223585 8.11521875,2.35250295 7.37530174,2.05069501 C6.63538474,1.7508858 5.83181896,1.60098119 4.96460441,1.60098119 L1.59519741,1.60098119 L1.59519741,13.6033433 L1.59519741,13.6013446 Z" id="Shape"></path>
                <path d="M19.8981981,15.2482965 C18.8818068,15.2482965 17.9588995,15.0044517 17.1334545,14.5147633 C16.3060204,14.025075 15.6496424,13.3614972 15.1623315,12.5240302 C14.6750206,11.6865631 14.4303706,10.7491596 14.4303706,9.71381848 C14.4303706,8.67847733 14.6630864,7.7650586 15.1305071,6.93558644 C15.5959388,6.10411556 16.2244704,5.4445353 17.0161021,4.95484692 C17.8077337,4.46515854 18.6908604,4.22131371 19.6654823,4.22131371 C20.6401042,4.22131371 21.4635602,4.46515854 22.2193894,4.95484692 C22.9752186,5.4445353 23.5759039,6.10411556 24.0214453,6.93558644 C24.4669867,7.7650586 24.6897574,8.69246843 24.6897574,9.71381848 L24.6897574,10.2035069 L15.9798204,10.2035069 C16.0653485,10.8990642 16.2881192,11.5246661 16.6481326,12.0783138 C17.008146,12.6319615 17.4775557,13.0676842 18.0583507,13.3874807 C18.6371568,13.7072772 19.2736445,13.8671754 19.9658249,13.8671754 C20.5167847,13.8671754 21.0538212,13.7832289 21.5769346,13.6113382 C22.1000479,13.4414464 22.5376332,13.1996003 22.8916796,12.8877987 L23.8663014,13.9311347 C23.2735722,14.3708549 22.6549857,14.700645 22.0125309,14.9205051 C21.370076,15.1403652 20.6679505,15.2502953 19.9041652,15.2502953 L19.8981981,15.2482965 Z M16.1150741,8.80039975 L23.2139015,8.80039975 C23.1303625,8.16280549 22.9215149,7.59116926 22.5893479,7.08748978 C22.2571808,6.5838103 21.8434638,6.18606341 21.3501858,5.89424911 C20.8549188,5.60443354 20.3119152,5.45852639 19.7191859,5.45852639 C19.1264567,5.45852639 18.5536178,5.60043609 18.0444276,5.88425547 C17.5352374,6.16807486 17.1115752,6.56182429 16.7734411,7.06550377 C16.435307,7.56918325 16.2145253,8.14881439 16.1170631,8.80039975 L16.1150741,8.80039975 Z" id="Shape"></path>
                <path d="M30.4599166,15.2103207 C29.584746,15.2103207 28.76129,15.0644136 27.9915376,14.774598 C27.2217852,14.4847824 26.5534731,14.0750432 25.9885902,13.5493777 L26.9413328,12.5260289 C27.4346108,12.9797402 27.9796035,13.3315163 28.5723327,13.5793586 C29.1650619,13.8272009 29.7737033,13.9531207 30.3942788,13.9531207 C31.2416032,13.9531207 31.9337836,13.7752339 32.4708201,13.4214591 C33.0078566,13.0676842 33.2763749,12.605978 33.2763749,12.0363405 C33.2763749,11.5686381 33.117253,11.2028709 32.7990091,10.9390388 C32.4807652,10.6752067 31.9835092,10.4953212 31.3052519,10.3953848 L29.4614265,10.1395476 C28.4012766,9.98364677 27.613623,9.66385028 27.0984657,9.18215681 C26.5833085,8.70046334 26.3247353,8.04687926 26.3247353,7.22340329 C26.3247353,6.62778232 26.4938024,6.09412192 26.8339255,5.62641955 C27.1720596,5.15871718 27.6414693,4.78895248 28.2441437,4.51912419 C28.844829,4.2492959 29.5330314,4.11538112 30.3107398,4.11538112 C31.0884483,4.11538112 31.8144421,4.22930862 32.4926994,4.45716362 C33.1709566,4.68501862 33.8352907,5.0387935 34.4857016,5.52248569 L33.6582676,6.58780776 C33.0655383,6.17606977 32.4887213,5.87426183 31.9317946,5.68238394 C31.3728788,5.49050604 30.8040178,5.39456709 30.2252118,5.39456709 C29.4912619,5.39456709 28.8965436,5.5584628 28.4450351,5.88425547 C27.9935266,6.21004815 27.7667779,6.63577723 27.7667779,7.16144272 C27.7667779,7.64313619 27.9219218,8.00890343 28.2322095,8.25874444 C28.5424973,8.50658672 29.0437314,8.68247479 29.7359118,8.78041246 L31.5797373,9.03624966 C32.6398872,9.17815935 33.4335078,9.49195966 33.9645773,9.97365313 C34.4936577,10.4553466 34.7581979,11.1169256 34.7581979,11.9543927 C34.7581979,12.5660035 34.5672516,13.1176524 34.185359,13.6153357 C33.8034663,14.113019 33.2922871,14.502771 32.6478433,14.7865904 C32.0053884,15.0704097 31.2734275,15.2123194 30.4539496,15.2123194 L30.4599166,15.2103207 Z" id="Path"></path>
                <path d="M37.3061379,2.2845462 C37.0236965,2.2845462 36.7770575,2.17861361 36.5642319,1.9647497 C36.3514063,1.7508858 36.245988,1.49704733 36.245988,1.19923685 C36.245988,0.901426365 36.3514063,0.669573908 36.5642319,0.463704915 C36.7750685,0.257835923 37.0236965,0.153902062 37.3061379,0.153902062 C37.5885794,0.153902062 37.8531196,0.257835923 38.0579891,0.463704915 C38.2628586,0.669573908 38.3662878,0.921413646 38.3662878,1.21922413 C38.3662878,1.51703461 38.2628586,1.7508858 38.0579891,1.9647497 C37.8531196,2.17661488 37.6025026,2.2845462 37.3061379,2.2845462 L37.3061379,2.2845462 Z M36.4329563,15.002453 L36.4329563,4.39920051 L38.0261647,4.39920051 L38.0261647,15.002453 L36.4329563,15.002453 Z" id="Shape"></path>
                <path d="M45.9305469,19.5535568 C45.1946079,19.5535568 44.4686141,19.4576179 43.7485873,19.26574 C43.0285606,19.0738621 42.3701936,18.8000363 41.7774644,18.4462615 L42.4557216,17.2110475 C43.0902203,17.5508313 43.6809605,17.8006723 44.2259531,17.9565731 C44.7689568,18.1124739 45.3179274,18.1904243 45.8688871,18.1904243 C46.8713553,18.1904243 47.6351406,17.9485782 48.158254,17.4668847 C48.6813674,16.9831925 48.7788295,15.3362406 48.7788295,15.3362406 L48.7788295,13.8451894 C48.7788295,13.8451894 46.845498,15.0804034 45.5725225,15.0804034 C44.5979007,15.0804034 43.7088069,14.8385573 42.9032521,14.3568638 C42.0976973,13.8751703 41.4592205,13.2175888 40.9858327,12.3881167 C40.512445,11.5566458 40.2757511,10.6312347 40.2757511,9.60988462 C40.2757511,8.58853457 40.512445,7.66112474 40.9858327,6.83165258 C41.4592205,6.0001817 42.0976973,5.34459889 42.9032521,4.86290542 C43.7088069,4.38121196 44.6118238,4.13936586 45.6162811,4.13936586 C46.2229334,4.13936586 46.8136736,4.24529845 47.3865126,4.45916235 C47.9593516,4.67102753 48.484454,4.98482784 48.979721,5.39656582 L48.979721,4.40319796 L50.5729294,4.40319796 L50.5729294,15.318252 C50.5132587,16.6813846 50.1174428,17.7287181 49.3258112,18.4582538 C48.5341796,19.1897883 47.4044138,19.5555556 45.9345249,19.5555556 L45.9305469,19.5535568 Z M45.7336335,13.6972835 C46.4118907,13.6972835 47.0324663,13.5693649 47.5973492,13.3135278 C48.162232,13.0576906 48.6216966,12.6959208 48.9757429,12.2282184 L48.9757429,6.9895521 C48.6216966,6.53584083 48.160243,6.18006723 47.5874041,5.92423004 C47.0145651,5.66839284 46.3979676,5.54047424 45.7336335,5.54047424 C44.9996836,5.54047424 44.3393275,5.71836104 43.7525654,6.07213591 C43.1658032,6.42790951 42.7043496,6.91360044 42.3642265,7.53120741 C42.0241034,8.14881439 41.8550363,8.84037431 41.8550363,9.60788589 C41.8550363,10.3753975 42.0280814,11.0669574 42.3741716,11.6845644 C42.7202618,12.3021713 43.1856935,12.7918597 43.7724556,13.1536295 C44.3592178,13.5153993 45.0116177,13.6972835 45.7336335,13.6972835 Z" id="Shape"></path>
                <path d="M53.1546828,15.002453 L53.1546828,4.39920051 L54.7478912,4.39920051 L54.7478912,5.64840556 C55.5733362,4.67502498 56.6792337,4.18733533 58.0635945,4.18733533 C58.8611932,4.18733533 59.5633188,4.36122468 60.1719602,4.70700463 C60.7806016,5.05278459 61.2559784,5.53247933 61.5980905,6.14608885 C61.9402027,6.75969837 62.1112588,7.47524303 62.1112588,8.29472154 L62.1112588,15.002453 L60.7169528,15.002453 L60.7169528,8.57254474 C60.7169528,7.62115018 60.4484345,6.87162715 59.911398,6.32597438 C59.3743615,5.78032161 58.6404115,5.50649587 57.7095482,5.50649587 C57.0651044,5.50649587 56.4922654,5.64840556 55.9910313,5.93222495 C55.4897972,6.21604434 55.0740912,6.62178614 54.7459022,7.14545289 L54.7459022,15.002453 L53.1526938,15.002453 L53.1546828,15.002453 Z" id="Path"></path>
                <path d="M69.279702,19.4036522 L69.279702,4.40119924 L70.8729104,4.40119924 L70.8729104,5.47851367 C71.8316201,4.59907332 72.977298,4.15935314 74.3477357,4.15935314 C75.3502039,4.15935314 76.2552099,4.40319796 77.0607647,4.89288635 C77.8663195,5.38257473 78.5047963,6.04015626 78.978184,6.86363223 C79.4515718,7.6871082 79.6882657,8.61651676 79.6882657,9.65385664 C79.6882657,10.6911965 79.4515718,11.6226038 78.978184,12.4540747 C78.5047963,13.2855456 77.8663195,13.9451258 77.0607647,14.4348142 C76.2552099,14.9245026 75.3442368,15.1703461 74.3278454,15.1703461 C73.7052809,15.1703461 73.1065846,15.0644136 72.5257895,14.8505497 C71.9469835,14.6366857 71.0738018,13.9351322 71.0738018,13.9351322 L71.0738018,19.4076497 L69.281691,19.4076497 L69.279702,19.4036522 Z M74.1349101,13.7832289 C74.8827832,13.7832289 75.5550734,13.6033433 76.1478026,13.2395748 C76.7405318,12.877805 77.2099415,12.3881167 77.5560317,11.7705097 C77.9021219,11.1529027 78.075167,10.4533479 78.075167,9.67384392 C78.075167,8.89433997 77.9021219,8.19078768 77.5560317,7.56518579 C77.2099415,6.9395839 76.7405318,6.44789679 76.1478026,6.08612701 C75.5550734,5.72435723 74.8827832,5.54247297 74.1349101,5.54247297 C73.470576,5.54247297 72.8539785,5.67438903 72.2811395,5.9362224 C71.7083006,6.20005451 71.2388908,6.56382302 70.8729104,7.03352412 L70.8729104,12.3141637 C71.2408799,12.767875 71.7122786,13.127646 72.2930737,13.3894794 C72.8718797,13.6533115 73.4864882,13.7832289 74.1368991,13.7832289 L74.1349101,13.7832289 Z" id="Shape"></path>
                <path d="M85.2058188,15.1943309 C84.3942969,15.1943309 83.6822263,15.0604161 83.0715958,14.7905878 C82.4589764,14.5207595 81.9796215,14.1449986 81.6335313,13.6613064 C81.2874411,13.179613 81.112407,12.6179704 81.112407,11.9783774 C81.112407,10.9710184 81.5102118,10.1755247 82.3078105,9.59389479 C83.1034202,9.01226492 84.1794823,8.72045062 85.5379858,8.72045062 C86.7314004,8.72045062 87.8154186,8.96229672 88.7900404,9.44399019 L88.7900404,8.03888435 C88.7900404,7.18742618 88.5394234,6.54583447 88.0381893,6.11211048 C87.5369552,5.67838648 86.8069833,5.46252385 85.8482736,5.46252385 C85.303281,5.46252385 84.7543103,5.53647679 84.1993726,5.68638139 C83.6444348,5.836286 83.0377824,6.07413464 82.3754374,6.39992732 L81.7568508,5.18669937 C82.5524605,4.81693468 83.2903885,4.54710639 83.9686457,4.3772145 C84.646903,4.20732261 85.3251603,4.12137731 86.0034175,4.12137731 C87.4036905,4.12137731 88.4837307,4.4411738 89.2435379,5.07876806 C90.0033452,5.71836104 90.3832488,6.6337785 90.3832488,7.82502044 L90.3832488,15.0004543 L88.7900404,15.0004543 L88.7900404,13.9571182 C88.2888063,14.3688562 87.7398356,14.6766603 87.1411393,14.8825293 C86.5444321,15.0883983 85.8979992,15.1903334 85.2058188,15.1903334 L85.2058188,15.1943309 Z M82.9403202,11.9304079 C82.9403202,12.5260289 83.1909373,13.0137185 83.6921714,13.3894794 C84.1934055,13.7652403 84.8398383,13.9531207 85.63147,13.9531207 C86.2659687,13.9531207 86.8467638,13.8531843 87.3698771,13.6553103 C87.8929905,13.4574362 88.3663783,13.1436359 88.7900404,12.7179068 L88.7900404,10.7151812 C88.3524551,10.4173708 87.8850344,10.2015081 87.3917564,10.0655946 C86.8964894,9.93167984 86.3395626,9.86372309 85.716998,9.86372309 C84.8696737,9.86372309 84.1953945,10.0516035 83.6941604,10.4273644 C83.1929263,10.8031253 82.9423093,11.304806 82.9423093,11.9284092 L82.9403202,11.9304079 Z" id="Shape"></path>
                <path d="M96.6586202,15.2243118 C95.7297459,15.2243118 95.0156862,15.002453 94.5164411,14.5567366 C94.017196,14.113019 93.766579,13.4654311 93.766579,12.6179704 L93.766579,5.60043609 L91.5766633,5.60043609 L91.5766633,4.1993277 L93.9654814,4.1993277 L93.9654814,1.49504861 L95.5586898,1.09130553 L95.5586898,4.1993277 L98.7431175,4.1993277 L98.7431175,5.60043609 L95.3597874,5.60043609 L95.3597874,12.1582629 C95.3597874,12.7259017 95.4870849,13.135641 95.74168,13.3834832 C95.9962751,13.6313255 96.4139702,13.7572454 96.9947652,13.7572454 C97.2911299,13.7572454 97.5576591,13.7352594 97.7903749,13.6932861 C98.0230908,13.6513128 98.2756968,13.5793586 98.5442151,13.4814209 L98.5442151,14.9464886 C98.2717188,15.046425 97.9693871,15.1183792 97.633242,15.1623512 C97.2970969,15.2043245 96.972886,15.2263105 96.6586202,15.2263105 L96.6586202,15.2243118 Z" id="Path"></path>
                <path d="M104.620684,15.2243118 C103.69181,15.2243118 102.97775,15.002453 102.478505,14.5567366 C101.97926,14.113019 101.728643,13.4654311 101.728643,12.6179704 L101.728643,5.60043609 L99.5387272,5.60043609 L99.5387272,4.1993277 L101.927545,4.1993277 L101.927545,1.49504861 L103.520754,1.09130553 L103.520754,4.1993277 L106.506279,4.1993277 L106.506279,5.60043609 L103.321851,5.60043609 L103.321851,12.1582629 C103.321851,12.7259017 103.449149,13.135641 103.703744,13.3834832 C103.958339,13.6313255 104.376034,13.7572454 104.956829,13.7572454 C105.253194,13.7572454 105.519723,13.7352594 105.752439,13.6932861 C105.985155,13.6513128 106.237761,13.5793586 106.506279,13.4814209 L106.506279,14.9464886 C106.233783,15.046425 105.931451,15.1183792 105.595306,15.1623512 C105.259161,15.2043245 104.93495,15.2263105 104.620684,15.2263105 L104.620684,15.2243118 Z" id="Path"></path>
                <path d="M113.064092,15.2482965 C112.0477,15.2482965 111.124793,15.0044517 110.299348,14.5147633 C109.471914,14.025075 108.815536,13.3614972 108.328225,12.5240302 C107.840914,11.6865631 107.596264,10.7491596 107.596264,9.71381848 C107.596264,8.67847733 107.82898,7.7650586 108.296401,6.93558644 C108.761832,6.10411556 109.390364,5.4445353 110.181996,4.95484692 C110.973627,4.46515854 111.856754,4.22131371 112.831376,4.22131371 C113.805998,4.22131371 114.629454,4.46515854 115.385283,4.95484692 C116.141112,5.4445353 116.741798,6.10411556 117.187339,6.93558644 C117.63288,7.7650586 117.855651,8.69246843 117.855651,9.71381848 L117.855651,10.2035069 L109.145714,10.2035069 C109.231242,10.8990642 109.454013,11.5246661 109.814026,12.0783138 C110.17404,12.6319615 110.643449,13.0676842 111.224244,13.3874807 C111.80305,13.7072772 112.439538,13.8671754 113.131719,13.8671754 C113.682678,13.8671754 114.219715,13.7832289 114.742828,13.6113382 C115.265942,13.4414464 115.703527,13.1996003 116.057573,12.8877987 L117.032195,13.9311347 C116.439466,14.3708549 115.820879,14.700645 115.178425,14.9205051 C114.53597,15.1403652 113.833844,15.2502953 113.070059,15.2502953 L113.064092,15.2482965 Z M109.161626,8.80039975 L116.260454,8.80039975 C116.176915,8.16280549 115.968067,7.59116926 115.6359,7.08748978 C115.303733,6.5838103 114.890016,6.18606341 114.396738,5.89424911 C113.901471,5.60443354 113.358467,5.45852639 112.765738,5.45852639 C112.173009,5.45852639 111.60017,5.60043609 111.09098,5.88425547 C110.58179,6.16807486 110.158127,6.56182429 109.819993,7.06550377 C109.481859,7.56918325 109.261078,8.14881439 109.163615,8.80039975 L109.161626,8.80039975 Z" id="Shape"></path>
                <path d="M120.043578,15.002453 L120.043578,4.39920051 L121.636786,4.39920051 L121.636786,5.91023894 C121.962986,5.35659126 122.378692,4.92686472 122.881915,4.62105933 C123.385138,4.31525393 123.963944,4.1633506 124.616344,4.1633506 C124.986303,4.1633506 125.31847,4.2133188 125.616824,4.3132552 L125.616824,5.76233306 C125.431844,5.69037885 125.246865,5.64240938 125.063875,5.61242845 C124.880885,5.58244753 124.693916,5.57045516 124.510926,5.57045516 C123.858526,5.57045516 123.287676,5.7583356 122.796387,6.13409648 C122.307087,6.50985736 121.919228,7.0535114 121.636786,7.76305987 L121.636786,15.0004543 L120.043578,15.0004543 L120.043578,15.002453 Z" id="Path"></path>
                <path d="M127.408934,15.002453 L127.408934,4.39920051 L129.002143,4.39920051 L129.002143,5.64840556 C129.827588,4.67502498 130.933485,4.18733533 132.317846,4.18733533 C133.115445,4.18733533 133.81757,4.36122468 134.426212,4.70700463 C135.034853,5.05278459 135.51023,5.53247933 135.852342,6.14608885 C136.194454,6.75969837 136.36551,7.47524303 136.36551,8.29472154 L136.36551,15.002453 L134.772302,15.002453 L134.772302,8.57254474 C134.772302,7.62115018 134.503784,6.87162715 133.966747,6.32597438 C133.429711,5.78032161 132.695761,5.50649587 131.764897,5.50649587 C131.120453,5.50649587 130.547615,5.64840556 130.04638,5.93222495 C129.545146,6.21604434 129.12944,6.62178614 128.801251,7.14545289 L128.801251,15.002453 L127.406945,15.002453 L127.408934,15.002453 Z" id="Path"></path>
                <path d="M142.368385,15.2103207 C141.493215,15.2103207 140.669759,15.0644136 139.900006,14.774598 C139.130254,14.4847824 138.461942,14.0750432 137.897059,13.5493777 L138.849802,12.5260289 C139.34308,12.9797402 139.888072,13.3315163 140.480801,13.5793586 C141.073531,13.8272009 141.682172,13.9531207 142.302748,13.9531207 C143.150072,13.9531207 143.842252,13.7752339 144.379289,13.4214591 C144.916325,13.0676842 145.184844,12.605978 145.184844,12.0363405 C145.184844,11.5686381 145.025722,11.2028709 144.707478,10.9390388 C144.389234,10.6752067 143.891978,10.4953212 143.213721,10.3953848 L141.369895,10.1395476 C140.309745,9.98364677 139.522092,9.66385028 139.006934,9.18215681 C138.491777,8.70046334 138.233204,8.04687926 138.233204,7.22340329 C138.233204,6.62778232 138.402271,6.09412192 138.742394,5.62641955 C139.080528,5.15871718 139.549938,4.78895248 140.152612,4.51912419 C140.753298,4.2492959 141.4415,4.11538112 142.219209,4.11538112 C142.996917,4.11538112 143.722911,4.22930862 144.401168,4.45716362 C145.079425,4.68501862 145.743759,5.0387935 146.39417,5.52248569 L145.566736,6.58780776 C144.974007,6.17606977 144.39719,5.87426183 143.840263,5.68238394 C143.281347,5.49050604 142.712487,5.39456709 142.133681,5.39456709 C141.399731,5.39456709 140.805012,5.5584628 140.353504,5.88425547 C139.901995,6.21004815 139.675247,6.63577723 139.675247,7.16144272 C139.675247,7.64313619 139.83039,8.00890343 140.140678,8.25874444 C140.450966,8.50658672 140.9522,8.68247479 141.644381,8.78041246 L143.488206,9.03624966 C144.548356,9.17815935 145.341977,9.49195966 145.873046,9.97365313 C146.402126,10.4553466 146.666667,11.1169256 146.666667,11.9543927 C146.666667,12.5660035 146.47572,13.1176524 146.093828,13.6153357 C145.711935,14.113019 145.200756,14.502771 144.556312,14.7865904 C143.913857,15.0704097 143.181896,15.2123194 142.362418,15.2123194 L142.368385,15.2103207 Z" id="Path"></path>
            </g>
        </g>
    </g>
</svg>