<?xml version="1.0" encoding="utf-8"?>
<!-- Generator: Adobe Illustrator 27.4.1, SVG Export Plug-In . SVG Version: 6.00 Build 0)  -->
<svg version="1.1" id="Layer_1" xmlns="http://www.w3.org/2000/svg" xmlns:xlink="http://www.w3.org/1999/xlink" x="0px" y="0px"
	 width="30px" height="30px" viewBox="0 0 30 30" style="enable-background:new 0 0 30 30;" xml:space="preserve">
<style type="text/css">
	.st0{fill:#B8BBBE;}
	.st1{fill:#003737;}
</style>
<g id="_x2660__xFE0F_-Symbols">
	<g id="App-Header-_x2F_-Selected-_x2F_-Search" transform="translate(-32.000000, -399.000000)">
		<g id="atom" transform="translate(32.000000, 399.000000)">
			<g id="Path_00000021080059053020461610000010228583360075265197_">
				<path class="st0" d="M20.8,14.3C20.7,14.3,20.7,14.3,20.8,14.3C20.7,14.3,20.7,14.3,20.8,14.3C20.7,14.3,20.7,14.3,20.8,14.3z"
					/>
				<path class="st1" d="M25.1,8.5c-0.3-0.4-0.8-1-1.9-1.2c-1.1-0.2-2.5-0.1-4.1,0.4C18.2,4.9,16.8,3,15,3c-1.7,0-3.1,1.6-4,4.7
					c-2.6-0.7-5-0.7-6.1,0.9C3.8,10.2,5,12.6,7.2,15c-2.2,2.4-3.3,4.8-2.2,6.5c0.6,0.9,1.6,1.4,3.1,1.4c0.9,0,1.8-0.2,3-0.5
					c0.8,2.6,2.1,4.6,4,4.6c1.8,0,3.2-1.9,4-4.7c1.1,0.3,2.1,0.5,3,0.5c0.4,0,0.8,0,1.2-0.1c1.1-0.2,1.7-0.8,1.9-1.2
					c1-1.5,0.2-3.8-2.3-6.5C24.9,12.8,26.2,10.3,25.1,8.5z M15,5c0.7,0,1.5,1.2,2.1,3.3c-0.7,0.3-1.4,0.6-2.1,1
					c-0.7-0.3-1.4-0.7-2.1-1C13.6,5.9,14.5,5,15,5z M6.6,9.6C7,9,8.7,9,11.3,9.8c0.5,0.2,1,0.4,1.6,0.6c-0.2,0.1-0.4,0.2-0.5,0.3
					c-1.3,0.9-2.6,1.8-3.7,2.8C6.9,11.8,6.2,10.2,6.6,9.6z M6.6,20.4c-0.4-0.6,0.3-2.1,2-4c0.5,0.4,1,0.9,1.5,1.3
					c0.1,0.9,0.2,1.8,0.4,2.7C8.1,21.1,6.9,20.8,6.6,20.4z M15,25c-0.8,0-2.1-2-2.7-5.8c1.6,1,3.3,1.9,4.8,2.5
					C16.5,23.8,15.7,25,15,25z M17.9,17.2c-0.1,0.9-0.2,1.8-0.3,2.6c-1.3-0.5-2.7-1.2-4.2-2.2c-0.6-0.4-1.2-0.8-1.8-1.2
					C11,15.9,10.5,15.4,10,15c0.9-0.8,2.1-1.7,3.4-2.5c0.7-0.5,1.4-0.9,2.1-1.2c0.7-0.4,1.4-0.7,2.1-1c0.2,1.4,0.4,3,0.4,4.7
					C18,15.8,18,16.5,17.9,17.2z M22.8,9.2c0.2,0,0.5,0.2,0.7,0.4c0.4,0.6-0.4,2.5-2.7,4.7c0,0,0,0-0.1,0.1c0,0,0,0,0,0
					c-0.2,0.2-0.4,0.4-0.7,0.6c0-1.8-0.2-3.7-0.5-5.4C20.9,9.2,22,9.1,22.8,9.2z M23.4,20.4c-0.1,0.2-0.4,0.3-0.7,0.4
					c-0.7,0.2-1.8,0.1-3.3-0.3c0.2-0.9,0.3-1.8,0.4-2.7c0.5-0.4,1-0.8,1.5-1.2C23.4,18.5,23.7,19.9,23.4,20.4z"/>
			</g>
			<g id="Oval">
				<ellipse class="st1" cx="15" cy="15" rx="1" ry="1"/>
			</g>
		</g>
	</g>
</g>
</svg>
