<?xml version="1.0" encoding="utf-8"?>
<!-- Generator: Adobe Illustrator 27.5.0, SVG Export Plug-In . SVG Version: 6.00 Build 0)  -->
<svg version="1.1" id="Layer_1" xmlns="http://www.w3.org/2000/svg" xmlns:xlink="http://www.w3.org/1999/xlink" x="0px" y="0px"
	 width="30px" height="30px" viewBox="0 0 30 30" style="enable-background:new 0 0 30 30;" xml:space="preserve">
<style type="text/css">
	.st0{fill:#EE0000;}
</style>
<g>
	<path id="Shape" class="st0" d="M18.7,16.3c1.4,0,3.5-0.3,3.5-2.1c0-0.1,0-0.3,0-0.4L21.3,10c-0.2-0.8-0.4-1.2-1.8-2
		c-1.1-0.6-3.6-1.6-4.3-1.6c-0.7,0-0.9,0.9-1.7,0.9s-1.3-0.7-2.1-0.7S10.3,7.2,10,8.2c0,0-1,2.8-1.1,3.2c0,0.1,0,0.2,0,0.2
		C8.9,12.7,13.1,16.3,18.7,16.3 M22.4,14.9c0.2,1,0.2,1.1,0.2,1.2c0,1.7-1.8,2.6-4.2,2.6c-5.4,0-10.1-3.2-10.1-5.4
		c0-0.3,0.1-0.6,0.2-0.9C6.5,12.6,4,12.9,4,15.2c0,3.7,8.6,8.3,15.4,8.3c5.2,0,6.6-2.4,6.6-4.3C26,17.7,24.7,16,22.4,14.9"/>
	<path id="Path" d="M22.4,14.9c0.2,1,0.2,1.1,0.2,1.2c0,1.7-1.8,2.6-4.2,2.6c-5.4,0-10.1-3.2-10.1-5.4c0-0.3,0.1-0.6,0.2-0.9
		l0.4-1.1c0,0.1,0,0.2,0,0.2c0,1.1,4.2,4.7,9.8,4.7c1.4,0,3.5-0.3,3.5-2.1c0-0.1,0-0.3,0-0.4L22.4,14.9L22.4,14.9z"/>
</g>
</svg>
