<?xml version="1.0" encoding="utf-8"?>
<!-- Generator: Adobe Illustrator 27.0.1, SVG Export Plug-In . SVG Version: 6.00 Build 0)  -->
<svg version="1.1" id="Layer_1" xmlns="http://www.w3.org/2000/svg" xmlns:xlink="http://www.w3.org/1999/xlink" x="0px" y="0px"
	 width="100px" height="100px" viewBox="0 0 100 100" style="enable-background:new 0 0 100 100;" xml:space="preserve">
<style type="text/css">
	.st0{fill-rule:evenodd;clip-rule:evenodd;fill:#EA6C00;}
	.st1{fill-rule:evenodd;clip-rule:evenodd;fill:#FDAD00;}
	.st2{fill-rule:evenodd;clip-rule:evenodd;fill:#FDD231;}
	.st3{fill-rule:evenodd;clip-rule:evenodd;fill:#FEEEB7;}
</style>
<g>
	<g transform="translate(.17 30.901)">
		<path id="a" class="st0" d="M26.2,39.6L50,86.2L10,39.6H26.2z"/>
	</g>
	<g transform="matrix(-1 0 0 1 94.64 30.901)">
		<path id="b" class="st0" d="M73.8,39.6L50,86.2l40-46.6H73.8z"/>
	</g>
	<g transform="translate(19.3 30.901)">
		<path id="c" class="st1" d="M26.2,39.6h47.6L50,86.2L26.2,39.6z"/>
	</g>
	<g transform="translate(19.3 .42)">
		<path id="d" class="st2" d="M50,13.8l-22.5,2.4l-1.3,23.4L50,13.8z"/>
	</g>
	<g transform="matrix(-1 0 0 1 75.5 .42)">
		<path id="e" class="st2" d="M50,13.8l22.5,2.4l1.3,23.4L50,13.8z"/>
	</g>
	<g transform="matrix(-1 0 0 1 94.64 3.234)">
		<path id="f" class="st1" d="M90,39.6L72.5,16.2l1.3,23.4H90z"/>
	</g>
	<g transform="translate(.17 3.234)">
		<path id="g" class="st1" d="M10,39.6l17.5-23.4l-1.3,23.4H10z"/>
	</g>
	<g transform="translate(19.3 .42)">
		<path id="h" class="st3" d="M50,13.8L26.2,39.6h47.6L50,13.8z"/>
	</g>
</g>
</svg>
