<?xml version="1.0" encoding="UTF-8"?>
<svg id="Layer_1" data-name="Layer 1" xmlns="http://www.w3.org/2000/svg" width="25.97" height="26.02" viewBox="0 0 25.97 26.02">
  <defs>
    <style>
      .cls-1 {
        fill: #36c5f0;
      }

      .cls-1, .cls-2, .cls-3, .cls-4 {
        fill-rule: evenodd;
      }

      .cls-2 {
        fill: #e01e5a;
      }

      .cls-3 {
        fill: #2eb67d;
      }

      .cls-4 {
        fill: #ecb22e;
      }
    </style>
  </defs>
  <path class="cls-1" d="m9.52,0c-1.44,0-2.6,1.17-2.6,2.6,0,1.44,1.16,2.6,2.6,2.6h2.6v-2.6c0-1.44-1.16-2.6-2.6-2.6t0,0m0,6.94H2.6C1.16,6.94,0,8.11,0,9.54c0,1.44,1.16,2.6,2.6,2.6h6.93c1.44,0,2.6-1.17,2.6-2.6,0-1.44-1.16-2.6-2.6-2.6h0Z"/>
  <path class="cls-3" d="m25.97,9.54c0-1.44-1.16-2.6-2.6-2.6-1.44,0-2.6,1.17-2.6,2.6v2.6h2.6c1.44,0,2.6-1.17,2.6-2.6Zm-6.93,0V2.6C19.05,1.17,17.89,0,16.45,0c-1.44,0-2.6,1.17-2.6,2.6v6.94c0,1.44,1.16,2.6,2.6,2.6,1.44,0,2.6-1.17,2.6-2.6Z"/>
  <path class="cls-4" d="m16.45,26.02c1.44,0,2.6-1.17,2.6-2.6,0-1.44-1.16-2.6-2.6-2.6h-2.6v2.6c0,1.43,1.16,2.6,2.6,2.6Zm0-6.94h6.93c1.44,0,2.6-1.17,2.6-2.6,0-1.44-1.16-2.6-2.6-2.6h-6.93c-1.44,0-2.6,1.17-2.6,2.6,0,1.44,1.16,2.6,2.6,2.6h0Z"/>
  <path class="cls-2" d="m0,16.48c0,1.44,1.16,2.6,2.6,2.6,1.44,0,2.6-1.17,2.6-2.6v-2.6h-2.6C1.16,13.88,0,15.05,0,16.48Zm6.93,0v6.94c0,1.44,1.16,2.6,2.6,2.6,1.44,0,2.6-1.17,2.6-2.6v-6.94c0-1.44-1.16-2.6-2.6-2.6-1.44,0-2.6,1.17-2.6,2.6,0,0,0,0,0,0"/>
</svg>