<?xml version="1.0" encoding="UTF-8"?>
<svg id="Layer_1" data-name="Layer 1" xmlns="http://www.w3.org/2000/svg" viewBox="0 0 23.3 23.3">
  <defs>
    <style>
      .cls-1 {
        fill: #36c5f0;
      }

      .cls-1, .cls-2, .cls-3, .cls-4 {
        fill-rule: evenodd;
      }

      .cls-2 {
        fill: #e01e5a;
      }

      .cls-3 {
        fill: #2eb67d;
      }

      .cls-4 {
        fill: #ecb22e;
      }
    </style>
  </defs>
  <path class="cls-1" d="m8.7.56c-1.22,0-2.21.99-2.21,2.22,0,1.22.99,2.22,2.21,2.22h2.21v-2.22c0-1.22-.99-2.22-2.22-2.22t0,0m0,5.92H2.79c-1.22,0-2.22.99-2.21,2.22,0,1.22.99,2.22,2.21,2.22h5.9c1.22,0,2.22-.99,2.21-2.22,0-1.22-.99-2.22-2.21-2.22h0Z"/>
  <path class="cls-3" d="m22.72,8.69c0-1.22-.99-2.22-2.21-2.22-1.22,0-2.22.99-2.21,2.22v2.22h2.21c1.22,0,2.22-.99,2.21-2.22Zm-5.9,0V2.77c0-1.22-.99-2.22-2.21-2.22-1.22,0-2.22.99-2.21,2.22v5.92c0,1.22.99,2.22,2.21,2.22,1.22,0,2.22-.99,2.21-2.22Z"/>
  <path class="cls-4" d="m14.6,22.74c1.22,0,2.22-.99,2.21-2.22,0-1.22-.99-2.22-2.21-2.22h-2.21v2.22c0,1.22.99,2.22,2.21,2.22Zm0-5.92h5.9c1.22,0,2.22-.99,2.21-2.22,0-1.22-.99-2.22-2.21-2.22h-5.9c-1.22,0-2.22.99-2.21,2.22,0,1.22.99,2.22,2.21,2.22h0Z"/>
  <path class="cls-2" d="m.58,14.61c0,1.22.99,2.22,2.21,2.22,1.22,0,2.22-.99,2.21-2.22v-2.22h-2.21c-1.22,0-2.22.99-2.21,2.22Zm5.9,0v5.92c0,1.22.99,2.22,2.21,2.22,1.22,0,2.22-.99,2.21-2.22v-5.91c0-1.22-.99-2.22-2.21-2.22-1.22,0-2.22.99-2.21,2.22,0,0,0,0,0,0"/>
</svg>