<?xml version="1.0" encoding="utf-8"?>
<!-- Generator: Adobe Illustrator 27.1.1, SVG Export Plug-In . SVG Version: 6.00 Build 0)  -->
<svg version="1.1" id="Layer_1" xmlns="http://www.w3.org/2000/svg" xmlns:xlink="http://www.w3.org/1999/xlink" x="0px" y="0px"
	 width="30px" height="30px" viewBox="0 0 30 30" style="enable-background:new 0 0 30 30;" xml:space="preserve">
<style type="text/css">
	.st0{fill:#FF4785;}
	.st1{filter:url(#Adobe_OpacityMaskFilter);}
	.st2{fill:#FFFFFF;}
	.st3{mask:url(#mask-2_00000135692138242700155520000013158735671881036957_);fill:#FFFFFF;}
</style>
<g>
	<g>
		<path id="path-1_00000056426263433081399630000002397293879925155757_" class="st0" d="M6.6,23.9L5.9,5.8c0-0.6,0.4-1.1,1-1.1
			l15.4-1c0.6,0,1.1,0.4,1.2,1c0,0,0,0,0,0.1v19.8c0,0.6-0.5,1.1-1.1,1.1c0,0,0,0,0,0L7.7,25C7.1,25,6.6,24.5,6.6,23.9L6.6,23.9z"/>
	</g>
	<defs>
		<filter id="Adobe_OpacityMaskFilter" filterUnits="userSpaceOnUse" x="10.5" y="3.7" width="10.8" height="17.8">
			<feColorMatrix  type="matrix" values="1 0 0 0 0  0 1 0 0 0  0 0 1 0 0  0 0 0 1 0"/>
		</filter>
	</defs>
	
		<mask maskUnits="userSpaceOnUse" x="10.5" y="3.7" width="10.8" height="17.8" id="mask-2_00000135692138242700155520000013158735671881036957_">
		<g class="st1">
			<path id="path-1_00000047772600093360509550000017699889578953615292_" class="st2" d="M6.6,23.9L5.9,5.8c0-0.6,0.4-1.1,1-1.1
				l15.4-1c0.6,0,1.1,0.4,1.2,1c0,0,0,0,0,0.1v19.8c0,0.6-0.5,1.1-1.1,1.1c0,0,0,0,0,0L7.7,25C7.1,25,6.6,24.5,6.6,23.9L6.6,23.9z"
				/>
		</g>
	</mask>
	<path class="st3" d="M19,6.4l0.1-2.5l2.1-0.2l0.1,2.6c0,0.1-0.1,0.2-0.2,0.2c0,0-0.1,0-0.1,0l-0.8-0.6l-1,0.7c-0.1,0.1-0.2,0-0.2,0
		C19,6.4,19,6.4,19,6.4z M16.2,12c0,0.4,2.9,0.2,3.3-0.1c0-2.9-1.6-4.5-4.5-4.5s-4.5,1.6-4.5,3.9c0,4.1,5.5,4.2,5.5,6.4
		c0,0.6-0.3,1-1,1c-0.9,0-1.2-0.4-1.2-2c0-0.3-3.3-0.4-3.5,0c-0.3,3.7,2,4.8,4.7,4.8c2.6,0,4.6-1.4,4.6-3.8c0-4.4-5.6-4.3-5.6-6.4
		c0-0.9,0.7-1,1-1C15.6,10.2,16.3,10.3,16.2,12z"/>
</g>
</svg>
