<svg width="371" height="281" viewBox="0 0 371 281" fill="none" xmlns="http://www.w3.org/2000/svg">
<path d="M547.894 280.888C571.837 206.863 561.952 205.051 526.752 166.831C503.687 141.735 450.475 122.569 379.251 117.298C295.89 111.092 298.911 76.8803 258.658 56.2324C218.406 35.5845 137.077 40.3072 102.151 102.251C65.9625 166.446 70.2459 142.064 30.1032 203.129C9.94955 233.772 15.8254 261.174 26.6436 280.888H547.894Z" fill="#DEDEDE" fill-opacity="0.25"/>
<mask id="mask0_282_6379" style="mask-type:luminance" maskUnits="userSpaceOnUse" x="0" y="0" width="573" height="281">
<path d="M551.353 68.9179C586.553 107.139 571.727 206.424 547.784 280.449H26.5337C15.7155 260.735 -13.0048 154.969 7.14885 124.327L105.995 26.9631L257.23 0L452.013 11.9714L546.356 42.1196L551.353 68.9179Z" fill="white"/>
</mask>
<g mask="url(#mask0_282_6379)">
<path d="M214.671 262.053C205.39 242.833 201.052 220.702 195.121 200.109C191.771 188.412 185.237 177.1 180.294 165.897L144.819 141.954C137.845 142.284 130.816 142.613 123.842 142.943C114.012 143.437 102.206 141.845 95.0668 149.917C91.6071 153.816 89.9597 158.539 88.4221 163.426C87.3787 166.611 85.4567 169.741 84.7428 173.036C82.9306 181.218 81.393 188.577 80.7889 197.089C78.8669 224.436 78.7022 251.949 80.1849 279.351C80.5693 286.215 81.0635 293.025 81.6127 299.889C81.8323 302.195 81.5577 306.094 82.2167 308.95C82.6011 310.488 83.2052 311.751 84.3035 312.19C86.6099 313.178 91.4424 312.19 93.9685 312.19C120.163 312.19 146.412 312.19 172.606 312.19C174.309 312.19 182.601 312.245 192.101 312.245L188.696 310.488L188.312 308.126L186.335 303.898L184.688 300.548L183.809 279.571L190.069 288.686L198.801 303.678L195.396 312.3C209.729 312.355 225.489 312.355 225.489 312.19C225.654 307.028 227.191 302.031 227.741 296.869C229.059 285.007 219.668 272.377 214.671 262.053Z" fill="#BE0000"/>
<path d="M225.929 284.403L218.735 270.235L210.388 253.157L206.269 240.252L203.359 230.422L200.668 220.537L197.867 209.939L196.549 206.314L181.338 207.083L158.274 213.069L144.655 212.3C144.655 212.794 146.302 244.974 146.302 244.974L150.531 255.353L160.415 277.594L164.534 288.302L171.892 305.271L172.497 312.629L192.65 312.465L188.861 310.543L188.477 308.181L186.5 303.953L184.852 300.603L183.974 279.626L190.234 288.741L198.965 303.733L195.506 312.519L225.654 312.245L227.521 299.724L227.851 292.091L225.929 284.403Z" fill="#8F0000"/>
<path d="M179.36 135.694C179.36 135.694 182.875 142.888 181.557 149.917C180.239 156.946 183.973 168.698 183.973 168.698L177.768 174.739L169.036 168.918C169.036 168.918 165.522 159.253 165.522 158.978C165.522 158.703 164.424 150.356 164.479 150.137C164.533 149.862 171.343 140.142 171.343 140.142L179.36 135.694Z" fill="white"/>
<path d="M175.078 133.443C175.407 135.42 175.682 137.397 175.791 139.374C175.901 141.351 175.956 143.383 175.737 145.36C175.682 145.854 175.572 146.348 175.517 146.842C175.407 147.337 175.242 147.886 175.132 148.325C174.858 149.204 174.748 150.137 174.748 151.016C174.748 151.949 174.913 152.828 175.242 153.707C175.572 154.585 176.011 155.409 176.615 156.068C176.011 155.464 175.407 154.64 175.023 153.762C174.638 152.883 174.364 151.949 174.254 151.016C174.144 150.027 174.199 149.039 174.419 148.105C174.583 147.117 174.748 146.183 174.748 145.195C174.803 143.218 174.638 141.296 174.309 139.374C174.034 137.452 173.595 135.53 173.156 133.663L175.078 133.443Z" fill="#DFDEDE"/>
<path d="M168.323 137.671C170.575 142.284 171.893 147.281 172.222 152.333C172.332 153.596 172.332 154.859 172.277 156.122L172.222 157.056V157.55V157.77V157.989C172.222 158.593 172.222 159.197 172.332 159.802C172.607 162.163 173.375 164.579 174.913 166.336C173.211 164.634 172.277 162.273 171.838 159.802C171.728 159.197 171.673 158.593 171.618 157.934C171.618 157.33 171.618 156.671 171.618 156.067C171.563 154.804 171.508 153.541 171.344 152.333C171.014 149.862 170.465 147.446 169.641 145.084C169.257 143.931 168.817 142.778 168.323 141.625C167.829 140.526 167.28 139.373 166.676 138.385C167.115 138.11 167.719 137.891 168.323 137.671Z" fill="#DFDEDE"/>
<path d="M186.006 70.4008L188.092 70.7851C188.092 70.7851 188.532 71.1146 188.696 71.1696C188.861 71.2245 189.355 71.4991 189.355 71.4991L189.905 71.9384C190.399 72.3228 191.772 72.1031 192.376 72.2679C193.364 72.5424 194.408 73.3661 195.231 74.0251C197.043 75.4529 198.526 77.32 199.515 79.3518C200.009 80.3952 200.393 81.5484 200.283 82.7016C200.009 85.7769 196.659 85.9416 194.298 85.4474L186.28 76.8807L186.006 70.4008Z" fill="black"/>
<path d="M190.124 76.8259L189.575 74.4645C189.575 74.4645 189.575 73.8605 189.685 73.6957C189.795 73.5859 189.959 73.4212 189.959 73.4212C189.959 73.4212 190.234 73.1466 190.344 73.1466C190.454 73.1466 190.948 73.0917 190.948 73.0917C192.76 72.9269 194.627 74.0801 195.89 75.3432C196.988 76.4415 197.867 77.8143 198.691 79.1323C199.185 79.9011 199.734 80.7797 199.734 81.7133C199.789 82.9214 198.526 84.1295 197.318 84.0197C196.714 83.9648 195.451 83.7451 195.341 83.7451C195.231 83.7451 192.76 82.3723 192.65 82.2624C192.54 82.1526 190.124 76.8259 190.124 76.8259Z" fill="#4D4D4D"/>
<path d="M201.876 104.667L201.162 102.361C201.052 102.086 201.107 101.922 201.107 101.922C203.908 91.2682 191.497 76.9904 191.497 76.9904C188.532 73.421 180.954 73.2562 180.954 73.2562L165.578 72.3776L157.121 79.187L153.441 96.4302C153.441 96.4302 154.869 107.248 154.869 107.358C154.924 107.468 155.803 130.038 155.803 130.038L155.363 153.102C155.363 153.102 159.976 164.909 160.031 164.799C160.141 164.689 161.734 160.296 161.734 160.296L162.502 158.703L163.765 156.232L164.973 154.914C164.864 154.695 164.754 154.475 164.699 154.255C164.04 152.169 165.468 149.752 167.554 149.203C169.092 148.819 170.63 148.599 172.222 148.38C172.991 148.27 173.705 148.325 174.364 148.489C174.419 148.434 174.419 148.434 174.419 148.434C179.306 149.093 180.075 146.567 180.075 146.567C181.668 145.194 181.283 141.405 181.283 141.405L181.393 140.801L182.985 139.373L185.731 136.079L188.752 132.894L193.804 129.104C196.989 126.853 197.099 123.558 197.099 123.558L197.263 121.526C197.263 121.526 196.385 119.824 197.099 118.945C198.307 117.463 197.922 116.145 197.922 116.145L199.24 114.497L201.492 110.763C202.974 108.017 201.876 104.667 201.876 104.667Z" fill="#FBB88F"/>
<path d="M192.321 123.668C192.211 123.668 192.101 123.613 192.046 123.558C191.058 122.405 188.806 122.24 188.806 122.24C186.72 122.075 185.896 121.087 185.841 121.032C185.237 120.428 184.907 119.824 184.907 119.11C184.907 118.176 185.512 117.572 185.566 117.572C185.731 117.407 185.951 117.462 186.116 117.572C186.28 117.737 186.225 117.957 186.116 118.121C186.116 118.121 185.676 118.561 185.676 119.11C185.676 119.549 185.896 120.043 186.39 120.483C186.445 120.538 187.104 121.306 188.806 121.471C188.916 121.471 191.387 121.636 192.596 123.064C192.705 123.228 192.705 123.448 192.541 123.613C192.486 123.613 192.376 123.668 192.321 123.668Z" fill="#F7823C"/>
<path d="M181.173 98.2423C181.173 98.2423 180.294 97.9677 181.447 97.6383L185.237 96.7596L187.818 96.7047L189.3 97.1989C189.3 97.1989 194.847 99.8898 196.274 102.965L196.659 103.899L196.11 105.216L195.506 105.381L194.517 104.503L191.826 101.702L189.74 99.6152L188.696 99.0111L187.708 98.1874C187.708 98.1874 187.213 98.0227 186.884 97.9128C186.554 97.8579 185.566 97.803 185.346 97.803C185.072 97.803 184.028 97.7481 183.864 97.7481C183.534 97.7481 181.173 98.2423 181.173 98.2423Z" fill="#C65E2B"/>
<path d="M201.326 111.038L199.789 113.509C199.789 113.509 198.526 115.76 198.032 115.98C198.032 115.98 198.361 118.012 197.208 118.78L196.604 117.957L195.945 115.266L195.89 112.41L196.769 110.488L198.141 109.335L200.118 108.731L201.876 108.621C201.876 108.566 202.535 109.335 201.326 111.038Z" fill="#F7823C"/>
<path d="M174.529 148.544C174.529 148.544 162.612 145.799 153.551 132.509L149.213 149.643L159.043 165.239L160.141 164.964L162.557 158.923L163.82 156.452C163.82 156.452 170.904 147.721 174.529 148.544Z" fill="#F7823C"/>
<path d="M202.095 108.841L201.601 108.237C202.15 107.798 201.876 105.931 201.491 104.777L200.777 102.416C200.667 102.087 200.722 101.867 200.777 101.757C203.468 91.4331 191.332 77.3749 191.222 77.2102C188.367 73.8055 181.063 73.5858 180.953 73.5858V72.817C181.283 72.817 188.696 73.0916 191.771 76.716C191.771 76.7709 194.901 80.3403 197.647 85.2277C200.173 89.7857 202.919 96.3205 201.436 101.977V102.032C201.436 102.032 201.436 102.087 201.491 102.141L202.205 104.503C202.315 104.887 203.248 107.907 202.095 108.841Z" fill="#F7823C"/>
<path d="M191.958 77.203C192.299 77.0058 192.121 76.0582 191.56 75.0864C190.999 74.1147 190.268 73.4867 189.926 73.6838C189.585 73.881 189.763 74.8286 190.324 75.8003C190.885 76.7721 191.616 77.4001 191.958 77.203Z" fill="#6C6C6C"/>
<path d="M160.305 165.129H160.086C159.756 165.074 159.701 165.074 155.088 153.212V153.157L155.528 130.038H156.296L155.857 152.992C157.285 156.672 159.317 161.834 160.141 163.756C160.47 162.822 161.074 161.23 161.513 160.076L161.953 158.813L162.831 156.727L163.93 154.53C163.93 154.475 163.93 154.42 163.985 154.365C164.039 154.146 164.259 154.091 164.369 154.036C164.094 153.047 164.259 151.949 164.808 150.961C165.412 149.862 166.401 149.039 167.554 148.709C168.817 148.38 170.08 148.215 171.288 147.995C171.618 147.94 171.892 147.885 172.222 147.831C172.936 147.721 173.65 147.721 174.309 147.885L174.363 147.831H174.528C179.086 148.435 179.8 146.238 179.8 146.183L179.855 146.073L179.965 146.018C181.118 145.03 181.118 142.174 181.008 141.186V141.131L181.173 140.362L182.875 138.824L185.621 135.53L188.696 132.29L193.748 128.501C194.352 128.006 195.945 126.359 196.11 125.48L196.824 125.59C196.604 126.908 194.462 128.885 194.188 129.105L189.135 132.894L186.17 136.079L183.424 139.374L181.887 140.801L181.777 141.186C181.832 141.68 182.051 145.085 180.514 146.513C180.294 147.007 179.141 149.094 174.693 148.599L174.638 148.654L174.418 148.599C173.759 148.435 173.1 148.435 172.386 148.544C172.057 148.599 171.728 148.654 171.453 148.709C170.245 148.874 168.982 149.094 167.774 149.368C166.84 149.643 165.961 150.302 165.467 151.235C164.973 152.114 164.863 153.102 165.138 153.926C165.193 154.146 165.193 154.42 164.644 154.64L163.49 156.946L162.612 158.978L162.172 160.241C160.58 164.634 160.47 164.744 160.47 164.799L160.305 165.129Z" fill="#F7823C"/>
<path d="M201.217 107.139C201.217 107.139 200.393 107.688 200.228 107.743C200.064 107.798 199.679 108.072 199.679 108.072L199.295 108.951C199.954 109.39 200.503 109.445 200.668 109.445C200.833 109.445 201.711 109.445 201.711 109.445L202.48 109.39L202.919 108.072L202.864 107.468C202.315 107.139 201.217 107.139 201.217 107.139Z" fill="#C65E2B"/>
<path d="M197.044 85.3373C197.044 85.3373 192.981 80.395 184.743 79.5163L183.096 80.6146L182.437 81.3834C182.437 81.3834 181.833 82.5366 181.778 82.8661C181.668 83.1956 181.339 84.2939 181.339 84.5136C181.339 84.7881 181.174 85.2824 181.174 85.2824C180.899 86.161 181.119 87.2044 180.79 88.1379C180.405 89.1813 179.581 90.1149 178.538 90.5542C177.55 90.9935 176.451 90.9935 175.353 91.0484C172.223 91.323 169.312 92.3114 166.622 93.8491C166.018 94.1785 165.359 94.8375 165.359 94.8375C165.359 94.8375 164.041 96.485 163.766 96.6497C163.491 96.8144 162.997 97.4734 162.778 97.6382C162.503 97.8029 162.009 98.2422 161.515 98.407C161.02 98.5717 159.867 98.9012 159.867 98.9012L157.78 98.9561C157.78 98.9561 156.682 99.1209 156.188 99.011C155.694 98.9012 153.936 98.6816 153.936 98.6816L152.454 97.748L153.168 83.3603L158.439 69.0825L169.258 64.0304L174.584 64.7443L180.186 70.4005C180.186 70.4554 195.067 74.574 197.044 85.3373Z" fill="white"/>
<path d="M189.85 131.96C189.85 131.96 191.607 128.83 191.058 129.324C191.003 129.379 191.333 125.48 192.211 126.414C192.266 126.468 193.474 126.523 193.474 126.523H194.737L196 126.194L195.726 127.018L192.925 129.599L191.552 130.697L189.85 131.96Z" fill="#F7823C"/>
<path d="M192.684 123.883C192.914 123.563 192.562 122.916 191.897 122.437C191.232 121.959 190.507 121.831 190.276 122.151C190.046 122.471 190.399 123.118 191.063 123.596C191.728 124.075 192.454 124.203 192.684 123.883Z" fill="#F7823C"/>
<path d="M189.85 131.631L185.622 136.957L182.272 135.914L179.856 133.113C179.856 133.113 176.231 128.665 175.792 126.414L175.682 124.601L180.734 126.798L186.885 128.995L189.85 131.631Z" fill="#632F16"/>
<path d="M186.775 128.83L179.91 125.919L175.572 124.437C176.725 126.194 178.043 127.841 179.471 129.379C179.581 129.379 179.691 129.434 179.691 129.434L179.8 129.708C180.075 129.983 180.295 130.203 180.569 130.477C180.679 130.477 180.844 130.532 180.954 130.587C181.228 130.642 181.503 130.752 181.503 130.752L182.052 131.466L182.601 132.015L183.919 132.894L185.621 134.266C186.39 134.706 187.159 134.98 187.159 134.98C187.543 134.706 189.246 132.894 189.246 132.894L188.752 131.246L186.775 128.83Z" fill="white"/>
<path d="M176.78 128.83C176.78 128.83 179.91 135.31 183.26 136.848C183.26 136.848 185.237 138.166 186.335 137.726C186.335 137.726 187.928 136.463 185.896 135.859L183.205 134.926L181.997 133.992L180.734 132.784L179.032 131.411L176.78 128.83Z" fill="#EE0000"/>
<path d="M175.572 124.437L183.809 127.073L188.422 128.83L189.74 129.544L191.058 130.258C191.278 130.367 191.223 131.191 191.168 131.411C191.058 131.905 190.728 132.399 190.289 132.674C190.07 132.839 189.795 132.948 189.52 132.894C188.916 132.839 188.367 132.07 187.928 131.63C187.653 131.356 187.324 130.971 186.994 130.752L184.853 129.379L183.864 128.885L181.338 127.567L178.867 126.633L175.572 124.437Z" fill="#EE0000"/>
<path d="M186.116 106.754C186.753 106.754 187.269 106.238 187.269 105.601C187.269 104.964 186.753 104.448 186.116 104.448C185.479 104.448 184.963 104.964 184.963 105.601C184.963 106.238 185.479 106.754 186.116 106.754Z" fill="black"/>
<path d="M197.703 114.552C198.249 114.552 198.691 114.134 198.691 113.618C198.691 113.103 198.249 112.685 197.703 112.685C197.157 112.685 196.714 113.103 196.714 113.618C196.714 114.134 197.157 114.552 197.703 114.552Z" fill="black"/>
<path d="M188.696 108.786C187.159 108.786 185.292 106.974 185.182 106.919C183.26 105.216 180.294 105.162 180.294 105.162C180.13 105.162 179.965 105.052 179.91 104.887C179.855 104.722 179.91 104.557 180.075 104.448C184.138 101.812 189.026 104.887 189.245 105.052C189.41 105.162 189.465 105.381 189.355 105.546C189.245 105.711 189.026 105.766 188.861 105.656C188.806 105.656 185.017 103.294 181.612 104.503C182.766 104.667 184.413 105.162 185.676 106.315C186.17 106.809 187.653 107.962 188.641 107.962C188.861 107.962 189.026 108.127 189.026 108.347C189.081 108.621 188.916 108.786 188.696 108.786Z" fill="black"/>
<path d="M199.021 115.925C198.966 115.925 197.483 115.925 195.616 113.948C195.451 113.783 195.506 113.564 195.616 113.399C195.781 113.234 196.001 113.289 196.165 113.399C197.813 115.101 199.021 115.156 199.076 115.156C199.295 115.156 199.46 115.321 199.46 115.541C199.405 115.76 199.241 115.925 199.021 115.925Z" fill="black"/>
<path d="M199.13 113.344C199.075 113.344 198.966 113.344 198.911 113.289C198.911 113.289 197.648 112.466 196 112.905C195.781 112.96 195.616 112.85 195.561 112.63C195.506 112.411 195.616 112.246 195.835 112.191C197.757 111.642 199.24 112.63 199.35 112.63C199.515 112.74 199.57 112.96 199.46 113.125C199.35 113.289 199.24 113.344 199.13 113.344Z" fill="black"/>
<path d="M193.474 127.127C193.09 127.127 192.705 127.073 192.266 127.018C192.046 126.963 191.937 126.798 191.937 126.578C191.991 126.359 192.156 126.249 192.376 126.249C193.804 126.468 194.957 126.249 195.726 125.7C196.549 125.096 196.714 124.162 196.714 124.162L196.769 124.052C197.483 122.57 196.22 117.462 195.671 115.65C194.463 111.257 197.373 109.39 197.428 109.39C197.483 109.335 199.075 108.127 201.601 108.127C201.821 108.127 201.986 108.292 201.986 108.511C201.986 108.731 201.821 108.896 201.601 108.896C199.35 108.896 197.867 110.049 197.812 110.049C197.703 110.159 195.286 111.641 196.385 115.486C196.604 116.199 198.416 122.295 197.483 124.382C197.428 124.656 197.208 125.645 196.22 126.359C195.506 126.853 194.627 127.127 193.474 127.127Z" fill="#F7823C"/>
<path d="M156.846 82.5368C158.494 82.1524 160.141 82.0426 161.789 82.1524C163.436 82.2073 165.083 82.5368 166.621 83.2507C164.974 82.8663 163.326 82.8663 161.734 83.086C160.196 83.3056 158.603 83.745 157.286 84.4039C157.121 83.745 156.956 83.1409 156.846 82.5368Z" fill="#DFDEDE"/>
<path d="M155.308 94.0685C156.791 95.5512 159.042 96.6495 161.129 95.9905C160.635 96.2651 160.141 96.5396 159.537 96.6495C158.933 96.7593 158.328 96.8142 157.67 96.7044C157.065 96.6495 156.406 96.4847 155.802 96.2651C155.198 96.0454 154.594 95.8258 153.99 95.3864C154.484 95.002 154.924 94.5078 155.308 94.0685Z" fill="#DFDEDE"/>
<path d="M152.124 88.0282C154.485 87.7537 156.846 87.4791 159.208 87.2594C160.416 87.1496 161.569 87.0947 162.777 87.0398C163.381 87.0398 163.985 86.9849 164.589 86.9849C164.864 86.9849 165.193 86.9849 165.523 87.0398C165.798 87.0398 166.182 87.0947 166.511 87.1496C166.182 87.1496 165.852 87.0947 165.523 87.1496C165.193 87.1496 164.919 87.2045 164.589 87.2045C163.985 87.2594 163.381 87.3693 162.777 87.4791C161.624 87.6988 160.416 87.9184 159.263 88.193C156.956 88.6872 154.595 89.2913 152.343 89.8954L152.124 88.0282Z" fill="#DFDEDE"/>
<path d="M156.571 85.4475L161.184 85.7221L156.626 87.3146L156.571 85.4475Z" fill="#DFDEDE"/>
<path d="M156.241 78.9125C159.207 77.924 162.172 77.5396 165.193 77.3749C168.213 77.2101 171.178 77.3749 174.144 77.7593C171.123 77.7044 168.103 77.8691 165.193 78.3084C163.71 78.5281 162.282 78.8576 160.854 79.242C160.14 79.4616 159.426 79.6264 158.768 79.901C158.109 80.1206 157.395 80.3952 156.791 80.7247C156.626 80.1206 156.461 79.5166 156.241 78.9125Z" fill="#DFDEDE"/>
<path d="M157.505 75.0684C160.47 74.5741 163.436 74.4094 166.456 74.4643C169.421 74.5192 172.387 74.9036 175.297 75.6175C172.332 75.1782 169.312 75.1233 166.401 75.3979C163.491 75.6724 160.525 76.1667 157.779 76.9355C157.67 76.3314 157.56 75.7274 157.505 75.0684Z" fill="#DFDEDE"/>
<path d="M161.074 71.9935C163.491 71.4992 165.907 71.2247 168.378 71.1698C170.794 71.0599 173.266 71.2247 175.682 71.5541C176.89 71.7738 178.098 71.9935 179.251 72.323C180.404 72.6524 181.613 73.0918 182.711 73.586C183.809 74.0802 184.907 74.7392 185.896 75.4531C186.884 76.167 187.818 76.9907 188.642 77.9242C187.708 77.1005 186.775 76.3317 185.731 75.6727C184.688 75.0138 183.589 74.5195 182.436 74.0253C181.283 73.586 180.13 73.2565 178.977 72.9819C177.823 72.7074 176.615 72.5426 175.407 72.4328C172.991 72.2131 170.63 72.268 168.268 72.5426C165.907 72.7623 163.546 73.2016 161.294 73.8056C161.184 73.2016 161.129 72.5975 161.074 71.9935Z" fill="#DFDEDE"/>
<path d="M169.366 69.0827C170.629 68.8631 171.837 68.8082 173.045 68.8631L173.979 68.918L174.857 69.0278C175.461 69.0827 176.066 69.1926 176.67 69.3024C179.031 69.7966 181.282 70.6203 183.424 71.7186C187.653 73.9701 191.277 77.1552 194.187 80.8345C191.002 77.3749 187.158 74.4095 182.93 72.4874C180.788 71.5539 178.537 70.8949 176.285 70.6203L175.461 70.5105C175.187 70.5105 174.912 70.4556 174.583 70.4556C174.034 70.4007 173.43 70.4556 172.881 70.4556C172.606 70.4556 172.331 70.5105 172.057 70.5105C171.782 70.5105 171.508 70.5654 171.233 70.6203C170.958 70.6753 170.684 70.6753 170.409 70.7851C170.135 70.84 169.86 70.8949 169.641 70.9498C169.476 70.3458 169.421 69.7417 169.366 69.0827Z" fill="#DFDEDE"/>
<path d="M154.595 90.3896C155.308 91.2683 156.132 92.1469 156.956 92.9157C157.395 93.3001 157.835 93.6845 158.274 94.014C158.713 94.3435 159.207 94.6181 159.592 94.673C159.152 94.7828 158.548 94.6181 157.999 94.3984C157.45 94.1788 156.901 93.9042 156.352 93.6296C155.254 93.0255 154.21 92.3666 153.222 91.5978L154.595 90.3896Z" fill="#DFDEDE"/>
<path d="M152.947 92.0918C154.1 93.904 155.858 95.5514 157.889 95.9358C158.878 96.1006 159.976 95.9358 160.91 95.4416C161.898 94.9473 162.777 94.2335 163.546 93.4097C162.887 94.3433 162.063 95.2219 161.129 95.8809C160.141 96.5399 158.933 96.9243 157.725 96.8694C156.462 96.8144 155.253 96.3202 154.21 95.6063C153.661 95.2768 153.167 94.8924 152.727 94.4531C152.233 94.0138 151.849 93.5745 151.409 93.0253C151.904 92.7508 152.398 92.4213 152.947 92.0918Z" fill="#DFDEDE"/>
<path d="M156.187 90.719C156.351 90.8288 156.351 90.8288 156.461 90.8837L156.681 90.9936C156.791 91.0485 156.955 91.1583 157.065 91.2132C157.34 91.378 157.614 91.4878 157.889 91.5976C158.438 91.8173 158.987 91.982 159.591 92.0369C158.987 92.3115 158.328 92.4213 157.614 92.4763C157.285 92.4763 156.9 92.4763 156.516 92.4763C156.351 92.4763 156.132 92.4213 155.967 92.4213L155.692 92.3664C155.637 92.3664 155.583 92.3664 155.583 92.3664H155.528L155.583 92.2566L155.637 92.0369C155.692 91.8722 155.747 91.7624 155.802 91.5976L155.747 91.7624L155.802 91.6525L155.857 91.4329C155.912 91.2681 156.077 90.9936 156.187 90.719Z" fill="#DFDEDE"/>
<path d="M156.352 89.1263L162.008 89.6206L156.297 90.9935L156.352 89.1263Z" fill="#DFDEDE"/>
<path d="M157.45 80.6697L174.583 67.7648C174.583 67.7648 175.187 66.1173 173.54 65.4034L156.901 77.5396L157.45 80.6697Z" fill="black"/>
<path d="M167.774 66.392C165.248 67.2706 162.173 74.7939 161.02 77.0454C156.517 86.1063 156.297 96.5401 158.659 106.15C160.196 112.52 161.734 118.671 162.228 125.206C162.722 131.85 162.612 138.495 161.789 145.085C161.459 147.666 161.075 150.192 160.581 152.718C160.196 154.75 160.306 156.617 160.416 158.649C160.635 163.261 161.514 167.984 163.436 172.213L170.959 181.328L167.61 184.623L165.193 184.953L150.147 176.716L118.351 144.81C117.143 144.536 115.935 144.261 114.727 143.931C113.683 143.657 113.793 143.437 114.233 142.394C114.672 141.405 115.221 140.472 115.825 139.593C116.978 137.946 118.296 136.408 119.504 134.816C120.822 133.113 121.591 131.356 122.525 129.489C124.611 125.26 126.204 120.922 127.522 116.364C127.632 116.09 127.687 115.76 127.796 115.486C129.938 107.853 131.64 99.9997 134.826 92.6961C137.077 87.5341 140.097 82.7016 143.722 78.3634C147.236 74.1349 151.52 69.7967 156.297 67.0509C158.164 66.0076 160.141 65.1838 162.173 64.6347C162.173 64.6347 171.069 62.2734 174.749 64.415C178.428 66.5567 170.136 64.7445 170.136 64.7445L168.818 65.5133L167.774 66.392Z" fill="white"/>
<path d="M165.139 185.392L149.927 177.045L118.132 145.14C117.967 144.975 117.967 144.755 118.132 144.59C118.296 144.426 118.516 144.426 118.681 144.59L150.476 176.496L165.358 184.623L167.5 184.349L170.52 181.383L163.107 172.432C161.349 168.533 160.306 164.03 160.032 158.704V158.539C159.922 156.562 159.812 154.64 160.251 152.663C160.745 150.137 161.185 147.611 161.459 145.03C162.228 138.495 162.393 131.795 161.899 125.206C161.404 118.671 159.922 112.63 158.329 106.205C156.462 98.6818 155.419 87.4792 160.69 76.8258C160.745 76.661 162.338 72.7072 164.205 71.1696C164.37 71.0597 164.589 71.0597 164.754 71.2245C164.919 71.3892 164.864 71.6089 164.699 71.7736C162.942 73.1465 161.404 77.1003 161.404 77.1003C156.187 87.589 157.286 98.572 159.098 105.985C160.69 112.41 162.173 118.506 162.667 125.096C163.162 131.74 163.052 138.44 162.228 145.03C161.899 147.611 161.514 150.192 161.02 152.718C160.636 154.64 160.745 156.452 160.855 158.429V158.594C161.13 163.756 162.118 168.259 163.821 171.993L171.564 181.328L167.884 184.953L165.139 185.392Z" fill="#DEDEDE"/>
<path d="M188.257 73.5309L188.202 72.0482L187.982 71.2794L187.653 70.5655L187.378 70.0163L186.555 69.2475L185.291 67.7099L182.161 65.5133C178.866 63.6462 174.363 63.8659 174.363 63.8659L173.759 64.415L173.375 64.6896C173.375 64.6896 173.32 65.074 173.375 65.1838C173.43 65.2937 173.979 65.6232 173.979 65.6232L174.309 66.337L174.638 67.7648L175.242 67.9296L176.395 69.0279L177.878 70.2909L179.745 71.6638L182.601 73.0916C182.656 73.0916 182.656 73.0916 182.71 73.1465C184.633 74.0251 187.104 74.9037 187.982 73.9153L187.927 73.8054C188.257 73.6956 188.257 73.5309 188.257 73.5309Z" fill="black"/>
<path d="M183.15 67.1058C181.887 66.1174 180.514 65.4035 178.756 65.1838C178.372 65.1289 177.933 65.1838 177.823 65.5682C177.768 65.7879 177.878 66.0075 177.933 66.1723C178.427 67.1607 179.086 68.0394 179.8 68.8631C181.337 70.5654 183.259 72.1031 185.291 73.0915C185.84 73.3661 186.499 73.5857 186.939 73.2013C187.213 72.9817 187.323 72.5973 187.323 72.2678C187.268 71.499 186.939 70.5654 186.39 70.0163C185.401 69.0278 184.303 67.9845 183.15 67.1058Z" fill="#4D4D4D"/>
<path d="M159.097 184.733C156.846 179.846 154.924 174.903 153.166 169.851C151.464 164.799 149.981 159.692 148.828 154.475C148.279 151.839 147.785 149.258 147.4 146.567C147.016 143.932 146.741 141.241 146.686 138.55C146.467 133.168 146.906 127.732 148.444 122.515C147.181 127.841 147.071 133.278 147.62 138.605C147.84 141.241 148.279 143.877 148.828 146.512C149.322 149.093 149.981 151.674 150.695 154.255C152.123 159.363 153.935 164.36 155.912 169.192C156.9 171.608 157.999 174.025 159.097 176.441C160.195 178.802 161.403 181.219 162.612 183.47C161.513 183.909 160.305 184.349 159.097 184.733Z" fill="#DFDEDE"/>
<path d="M151.519 180.23C151.355 179.571 151.025 178.692 150.751 177.923L149.927 175.507C149.378 173.915 148.883 172.267 148.389 170.62C147.401 167.325 146.522 164.03 145.808 160.68C145.094 157.33 144.545 153.926 144.161 150.576C143.776 147.171 143.667 143.767 143.722 140.307C143.831 143.767 144.106 147.171 144.655 150.576C145.204 153.981 145.863 157.33 146.742 160.625C147.62 163.92 148.609 167.215 149.762 170.4C150.311 171.993 150.915 173.585 151.574 175.178L152.508 177.539L153.002 178.747L153.222 179.351C153.277 179.571 153.386 179.845 153.441 180.12C152.782 180.12 152.178 180.175 151.519 180.23Z" fill="#DFDEDE"/>
<path d="M133.232 165.403C133.177 164.689 133.068 163.811 132.958 162.987L132.628 160.461C132.409 158.759 132.244 157.056 132.079 155.354C131.804 151.949 131.64 148.545 131.585 145.085C131.53 141.68 131.75 138.221 132.079 134.816C132.409 131.411 133.013 128.006 133.727 124.712C133.122 128.116 132.683 131.521 132.518 134.926C132.354 138.33 132.354 141.79 132.518 145.195C132.683 148.599 133.013 152.004 133.452 155.409C133.672 157.111 133.946 158.759 134.221 160.461L134.66 162.987L134.88 164.25L134.99 164.909C135.044 165.129 135.044 165.403 135.044 165.678C134.495 165.568 133.836 165.458 133.232 165.403Z" fill="#DFDEDE"/>
<path d="M123.458 157.221C122.963 155.903 122.579 154.75 122.305 153.486C122.14 152.882 122.03 152.278 121.865 151.674L121.536 149.807C121.151 147.336 121.041 144.81 121.206 142.339C121.426 137.342 123.128 132.399 125.764 128.281C124.172 133.058 123.952 138.001 124.94 142.449C125.435 144.7 126.149 146.787 127.027 148.819C127.247 149.313 127.521 149.807 127.741 150.301C128.016 150.796 128.235 151.235 128.51 151.729C128.784 152.169 129.059 152.663 129.334 153.047C129.498 153.267 129.608 153.486 129.773 153.651C129.828 153.761 129.938 153.871 129.993 153.926C130.047 154.036 130.157 154.091 130.212 154.145C128.016 155.189 125.764 156.232 123.458 157.221Z" fill="#DFDEDE"/>
<path d="M137.351 168.588C136.253 161.998 135.594 155.409 135.265 148.819C134.935 142.229 134.99 135.584 135.539 128.995C136.088 122.405 137.132 115.815 138.944 109.39C139.878 106.205 140.921 103.02 142.294 99.9997C143.667 96.9794 145.259 94.014 147.126 91.2134C145.369 94.0689 143.886 97.1442 142.678 100.219C141.47 103.35 140.536 106.535 139.768 109.775C138.285 116.254 137.571 122.844 137.351 129.379C137.132 135.969 137.406 142.559 138.065 149.039C138.395 152.278 138.779 155.573 139.273 158.813C139.768 162.053 140.372 165.293 141.086 168.423C139.823 168.478 138.56 168.533 137.351 168.588Z" fill="#DFDEDE"/>
<path d="M180.582 68.9599C180.924 68.7628 180.746 67.8152 180.185 66.8434C179.624 65.8716 178.892 65.2436 178.551 65.4408C178.209 65.6379 178.387 66.5855 178.948 67.5573C179.509 68.5291 180.241 69.1571 180.582 68.9599Z" fill="#6C6C6C"/>
<path d="M181.435 68.2193C181.645 68.098 181.643 67.7016 181.431 67.3339C181.218 66.9662 180.876 66.7665 180.666 66.8878C180.456 67.0091 180.458 67.4055 180.67 67.7732C180.882 68.1409 181.225 68.3406 181.435 68.2193Z" fill="#6C6C6C"/>
<path d="M192.858 76.4349C193.068 76.3136 193.066 75.9172 192.854 75.5495C192.641 75.1818 192.299 74.982 192.089 75.1033C191.879 75.2246 191.88 75.6211 192.093 75.9888C192.305 76.3565 192.647 76.5562 192.858 76.4349Z" fill="#6C6C6C"/>
<path d="M208.465 176.496L209.508 176.826L217.636 183.58L208.795 189.566L206.433 190.774L204.566 192.312L207.641 176.716L207.751 176.112L208.465 176.496Z" fill="#5F0000"/>
<path d="M88.4222 163.481C88.4222 163.481 91.0032 145.304 106.544 143.931C106.544 143.931 119.559 141.076 132.189 151.51C132.189 151.51 145.094 164.524 145.149 164.634C147.73 167.215 149.487 170.675 151.958 173.42C155.967 177.869 160.91 180.999 165.467 184.788L179.306 168.149L186.445 159.802L208.96 170.949C208.136 175.892 207.258 180.834 206.434 185.831C205.006 194.288 202.096 202.141 197.428 209.39C194.023 214.716 189.41 219.439 183.589 221.855C178.867 223.832 173.705 224.217 168.598 224.271C154.1 224.326 140.701 220.702 126.862 216.858L104.238 211.531L93.5842 210.543C93.5842 210.543 83.5897 206.205 88.7517 164.195" fill="#BE0000"/>
<path d="M168.158 224.601C153.441 224.601 139.877 220.812 126.752 217.188L104.128 211.861L93.5291 210.873C93.3094 210.873 93.1447 210.653 93.1996 210.488C93.1996 210.269 93.4193 210.159 93.584 210.159L104.237 211.147L126.917 216.474C140.042 220.098 153.551 223.888 168.158 223.888C168.268 223.888 168.433 223.888 168.543 223.888C173.155 223.888 178.537 223.558 183.424 221.526C188.586 219.33 193.309 215.101 197.098 209.17C201.601 202.196 204.621 194.289 206.049 185.722L208.52 171.115L186.5 160.241L179.525 168.369L165.742 185.008C165.632 185.118 154.814 198.462 168.268 216.145C168.378 216.309 168.378 216.529 168.213 216.694C168.048 216.804 167.829 216.804 167.664 216.639C160.47 207.139 160.141 198.956 161.184 193.739C162.282 188.083 165.083 184.678 165.193 184.569L178.976 167.929L186.335 159.363L209.399 170.785L206.818 185.941C205.335 194.618 202.315 202.581 197.757 209.665C193.913 215.705 189.026 220.043 183.754 222.295C178.757 224.382 173.265 224.711 168.597 224.711C168.433 224.601 168.268 224.601 168.158 224.601Z" fill="#8F0000"/>
<path d="M140.81 198.736C140.591 198.736 140.426 198.571 140.426 198.352C141.085 178.912 156.626 177.868 156.736 177.868C156.955 177.868 157.12 178.033 157.12 178.198C157.12 178.418 156.955 178.582 156.791 178.582C156.736 178.582 153.001 178.802 149.212 181.383C144.215 184.733 141.414 190.609 141.195 198.352C141.195 198.571 141.03 198.736 140.81 198.736Z" fill="#8F0000"/>
<path d="M200.832 166.886C202.535 176.99 200.558 186.984 198.526 196.924C196.824 205.271 193.254 213.234 186.994 219.164C186.225 219.933 185.401 220.647 184.523 221.306C189.849 218.78 194.188 214.277 197.373 209.28C202.04 202.031 204.951 194.123 206.379 185.721C207.202 180.779 208.081 175.837 208.905 170.84L200.832 166.886Z" fill="#8F0000"/>
<path d="M177.768 170.016L176.944 168.478L177.383 166.556L178.646 165.348L180.129 164.964L181.886 164.909L177.768 170.016Z" fill="#5F0000"/>
<path d="M177.659 170.345C177.549 170.345 177.384 170.29 177.329 170.18C175.737 167.599 177.329 165.787 177.384 165.787C177.549 165.623 177.768 165.623 177.933 165.787C178.098 165.952 178.098 166.172 177.933 166.336C177.878 166.391 176.725 167.709 177.988 169.796C178.098 169.961 178.043 170.18 177.878 170.29C177.823 170.345 177.768 170.345 177.659 170.345Z" fill="#8F0000"/>
<path d="M204.402 192.86C204.292 192.86 204.182 192.805 204.127 192.75C204.017 192.585 204.017 192.366 204.182 192.201L206.324 190.444L208.301 189.51L210.607 187.973L217.581 183.25C217.746 183.14 217.966 183.195 218.075 183.36C218.185 183.525 218.13 183.744 217.966 183.854L210.991 188.577L208.63 190.114L206.653 191.103L204.676 192.805C204.566 192.86 204.511 192.86 204.402 192.86Z" fill="#8F0000"/>
<path d="M382.929 201.043L378.481 190.444L375.351 184.239L374.088 183.47L369.86 172.103L369.256 169.247L368.981 166.392L367.224 160.131L364.148 154.365L362.611 150.906L353.166 179.626L355.142 205.326L362.501 212.3L382.929 201.043Z" fill="#BE0000"/>
<path d="M363.105 241.13L361.567 220.043L360.963 197.803L360.579 184.733L361.567 178.747L362.062 172.981L362.446 158.264L362.94 148.27L361.732 132.839L359.591 117.682L357.723 110.818L355.472 105.766L351.957 102.086L347.619 99.4506L342.238 96.595L332.737 93.8493L325.873 92.5862L318.295 92.3666L303.303 92.9706L269.256 99.4506L262.996 103.075L257.724 107.578L249.596 114.223L231.694 142.119L229.937 144.645L229.168 153.377L230.651 168.478L232.298 174.244L234.934 179.242L238.668 184.349L239.382 194.069L239.877 206.534L241.085 212.685L243.501 216.419L247.18 220.153L256.351 228.5L257.12 230.147L257.504 233.882L255.363 245.633L254.429 250.74L363.105 241.13Z" fill="#EE0000"/>
<path d="M253.99 251.18L255.033 245.579L257.12 233.882L256.736 230.258L256.022 228.775L246.906 220.483L243.172 216.639L240.7 212.74L239.492 206.589L238.998 194.124L238.284 184.514L234.55 179.462L231.914 174.409L230.267 168.589L228.784 153.432L229.553 144.536L231.42 141.9L249.377 113.948L257.559 107.304L262.831 102.801L269.201 99.1215L303.248 92.6415L318.295 92.0375L325.983 92.312L332.847 93.5751L342.457 96.3757L347.839 99.2313L352.287 101.922L355.856 105.711L358.108 110.818L359.975 117.683L362.117 132.839L363.38 148.325L362.886 158.319L362.501 173.037L362.007 178.803L361.018 184.788L362.007 220.098L363.545 241.515L253.99 251.18ZM243.831 216.2L247.455 219.934L256.681 228.336L257.504 230.148L257.889 233.937L254.923 250.356L362.721 240.801L361.238 220.098L360.25 184.733V184.679L361.238 178.693L361.732 172.982L362.117 158.265L362.611 148.27L361.348 132.839L359.206 117.738L357.339 110.928L355.143 105.931L351.738 102.361L347.4 99.7804L342.073 96.9249L332.628 94.1791L325.818 92.971L318.24 92.6964L303.303 93.3554L269.366 99.8353L263.215 103.405L257.999 107.853L249.926 114.443L232.079 142.284L230.322 144.756L229.608 153.377L231.09 168.424L232.683 174.08L235.264 179.022L239.053 184.184L239.822 194.014L240.316 206.48L241.524 212.52L243.831 216.2Z" fill="#BE0000"/>
<path d="M267.06 232.509C266.95 232.509 266.895 232.509 266.785 232.509C262.941 232.399 259.262 230.093 256.077 227.951L256.516 227.347C259.592 229.434 263.216 231.685 266.84 231.74C272.277 231.905 274.858 227.512 277.384 223.228C277.713 222.679 277.988 222.185 278.317 221.691C280.734 217.737 282.436 212.136 282.82 206.644L282.875 205.985C283.095 203.514 283.26 201.153 282.491 198.736C281.557 195.716 279.8 193.08 277.713 191.598C276.89 191.048 275.956 190.554 275.023 190.115C274.638 189.95 274.254 189.73 273.869 189.566L246.412 192.311C246.137 192.915 245.808 193.574 245.533 194.179C244.874 195.496 244.27 196.924 243.556 198.242C242.293 200.768 240.811 204.118 240.536 207.578L239.767 207.523C240.042 203.898 241.58 200.494 242.843 197.913C243.502 196.595 244.161 195.167 244.819 193.849C245.149 193.19 245.478 192.476 245.808 191.817L245.918 191.652L274.034 188.852L274.144 188.907C274.528 189.126 274.968 189.291 275.352 189.511C276.286 189.95 277.274 190.444 278.153 191.048C280.349 192.586 282.271 195.387 283.205 198.572C283.974 201.153 283.809 203.569 283.589 206.095L283.534 206.754C283.095 212.355 281.393 218.066 278.921 222.13C278.592 222.624 278.317 223.173 277.988 223.668C275.517 227.786 272.771 232.509 267.06 232.509Z" fill="#BE0000"/>
<path d="M277.988 191.598L277.219 191.543C277.219 191.433 278.262 180.56 272.112 167.655L266.73 159.527L262.721 149.643L259.097 142.449L259.756 142.119L263.38 149.368L267.389 159.198L272.716 167.27C279.086 180.45 278.042 191.488 277.988 191.598Z" fill="#BE0000"/>
<path d="M238.724 185.337C238.559 185.337 238.394 185.172 238.339 185.007C238.339 184.898 237.076 171.169 252.837 162.932C253.002 162.822 253.221 162.932 253.331 163.097C253.441 163.261 253.331 163.481 253.166 163.591C237.845 171.608 239.053 184.788 239.053 184.953C239.163 185.117 238.998 185.337 238.724 185.337C238.779 185.337 238.779 185.337 238.724 185.337Z" fill="#BE0000"/>
<path d="M233.452 175.782C233.287 175.782 233.177 175.672 233.123 175.562C233.068 175.398 231.64 171.499 233.946 167.38C236.198 163.371 241.195 160.626 248.718 159.198C248.938 159.143 249.103 159.308 249.158 159.472C249.212 159.692 249.048 159.857 248.883 159.912C241.579 161.23 236.802 163.866 234.605 167.71C232.464 171.554 233.781 175.288 233.781 175.288C233.836 175.508 233.781 175.672 233.562 175.782C233.562 175.782 233.507 175.782 233.452 175.782Z" fill="#BE0000"/>
<path d="M316.592 95.7164C316.592 95.7164 322.963 96.2656 329.937 121.636L340.92 161.834L347.784 202.141L351.408 229.489L352.781 242.448L323.347 244.535L323.951 216.529V190.829L322.578 172.707L317.965 158.868L311.266 147.281L302.04 132.674L294.187 123.064L288.476 119.165L284.358 114.333L282.216 109.994L286.829 108.237L316.592 95.7164Z" fill="white"/>
<path d="M357.558 110.653C357.449 110.653 357.394 110.598 357.284 110.543C353.769 107.358 350.365 106.699 348.113 106.699C345.642 106.699 343.994 107.468 343.994 107.468C343.83 107.578 343.61 107.468 343.5 107.303C343.39 107.138 343.5 106.919 343.665 106.809C343.72 106.754 350.694 103.569 357.778 109.994C357.943 110.159 357.943 110.378 357.778 110.543C357.723 110.598 357.668 110.653 357.558 110.653Z" fill="#BE0000"/>
<path d="M309.563 81.5485C309.563 81.5485 316.812 83.3607 328.509 92.0921C340.206 100.824 343.885 103.954 343.885 103.954L349.267 110.214C349.267 110.214 347.125 114.223 338.778 113.344L339.547 114.442L343.391 115.321L344.654 120.922L344.05 128.446L342.677 135.035L342.787 143.767L342.402 158.539L342.842 173.421L337.515 150.192L332.023 128.226L326.806 111.806C326.806 111.806 321.919 96.4303 315.549 93.41L310.332 92.9158L309.563 81.5485Z" fill="#EE0000"/>
<path d="M342.513 173.475L337.186 150.247L331.694 128.281L326.478 111.861C326.423 111.696 321.59 96.7048 315.495 93.7394L310.003 93.1902L309.179 81.0541L309.674 81.1639C309.948 81.2188 317.142 83.1408 328.784 91.8174C340.371 100.439 344.105 103.679 344.16 103.679L344.215 103.734L349.761 110.159L349.652 110.379C349.542 110.543 347.455 114.332 339.602 113.783L339.822 114.113L343.776 114.991L345.094 120.867L344.49 128.445L343.117 135.09L343.227 143.767L342.842 158.539L343.281 173.366L342.513 173.475ZM310.662 92.5312L315.714 93.0255C322.139 96.0458 326.917 110.983 327.137 111.642L332.353 128.061L337.845 150.027L342.293 169.522L341.964 158.484L342.348 143.712L342.238 134.98L343.611 128.336L344.215 120.922L343.007 115.595L339.218 114.717L337.955 112.795L338.724 112.905C345.588 113.618 348.114 110.983 348.718 110.159L343.556 104.173C343.227 103.899 339.383 100.659 328.235 92.3665C318.46 85.0629 311.706 82.5917 309.893 81.9876L310.662 92.5312Z" fill="#BE0000"/>
<path d="M314.451 161.889C315.725 161.889 316.757 160.856 316.757 159.582C316.757 158.308 315.725 157.276 314.451 157.276C313.177 157.276 312.144 158.308 312.144 159.582C312.144 160.856 313.177 161.889 314.451 161.889Z" fill="#8F0000"/>
<path d="M317.527 200.823C318.8 200.823 319.833 199.79 319.833 198.517C319.833 197.243 318.8 196.21 317.527 196.21C316.253 196.21 315.22 197.243 315.22 198.517C315.22 199.79 316.253 200.823 317.527 200.823Z" fill="#8F0000"/>
<path d="M256.681 127.841C256.571 127.841 256.406 127.786 256.352 127.677C256.242 127.512 256.297 127.292 256.516 127.182C263.381 123.338 270.19 123.887 270.465 123.942C270.684 123.942 270.849 124.162 270.794 124.327C270.794 124.546 270.574 124.711 270.41 124.656C270.355 124.656 263.545 124.052 256.901 127.841C256.791 127.841 256.736 127.841 256.681 127.841Z" fill="#BE0000"/>
<path d="M319.832 240.966C321.106 240.966 322.138 239.933 322.138 238.66C322.138 237.386 321.106 236.353 319.832 236.353C318.558 236.353 317.526 237.386 317.526 238.66C317.526 239.933 318.558 240.966 319.832 240.966Z" fill="#8F0000"/>
<path d="M276.341 193.025L277.164 193.245C277.164 193.245 279.471 192.97 276.78 197.912C276.78 197.967 276.725 198.022 276.725 198.077C273.869 203.184 271.947 196.924 271.947 196.924L269.366 193.409L276.341 193.025Z" fill="#BE0000"/>
<path d="M245.094 205.545L244.435 205.051C244.435 205.051 242.183 204.392 246.631 200.933C246.686 200.878 246.741 200.878 246.741 200.823C251.354 197.253 250.695 203.788 250.695 203.788L251.628 208.017L245.094 205.545Z" fill="#BE0000"/>
<path d="M279.415 192.256L274.858 189.565C274.858 189.565 269.86 186.161 269.86 185.941C269.86 185.776 260.195 154.804 260.195 154.804L260.964 145.085L262.831 148.599L265.138 154.64L266.62 158.099L271.453 166.172L274.638 171.279L278.427 184.294L279.525 192.421L279.415 192.256Z" fill="#BE0000"/>
<path d="M309.454 79.901C309.454 79.901 314.945 78.1986 315 69.4672C315 69.4672 315.824 62.9872 313.682 58.3744C313.682 58.3744 313.682 57.7704 313.737 57.5507C313.792 57.331 313.847 57.1663 313.902 56.9466C313.957 56.6721 314.286 56.1778 314.286 56.1778L314.451 55.6287L314.012 52.9928L312.968 50.247L312.749 48.5996L312.09 46.8972C312.09 46.8972 317.636 46.1284 317.966 40.637C317.966 40.637 316.318 43.7122 312.913 43.9319C312.913 43.9319 314.781 41.6804 313.243 38.9895C313.243 38.9895 315.989 38.1109 316.483 35.4201C316.483 35.4201 314.616 37.5068 311.541 35.2004L308.41 32.7293L306.104 30.4778C306.104 30.4778 304.951 28.391 304.731 28.2812C304.566 28.1713 298.526 21.4718 292.485 19.4399C292.32 19.385 285.676 16.2 279.525 16.3098L274.308 16.2C274.308 16.2 267.829 17.5179 265.687 21.4718L265.193 21.8562C265.193 21.8562 262.502 20.044 260.195 21.1423L255.967 23.0643L253.166 25.5904L251.025 28.7205L248.828 32.5645L247.675 35.0357C247.675 35.0357 246.906 37.0126 246.906 37.3421C246.906 37.6716 246.906 38.4404 246.906 38.715C246.906 38.9895 247.126 40.3624 247.126 40.3624C247.126 40.3624 243.996 44.7007 243.886 50.1921L244.38 56.9466L244.49 60.1866C244.49 60.1866 244.6 61.0103 244.709 61.23C244.819 61.5046 245.588 62.5479 245.588 62.5479L246.851 63.5364L248.114 63.6462L248.608 63.5364C248.608 63.5364 250.53 62.6029 250.805 63.4815C250.805 63.4815 251.629 65.5682 249.597 66.2272C249.597 66.2272 248.663 66.7764 247.675 66.2272C247.675 66.2272 246.796 69.3024 251.848 68.5336C251.848 68.5336 254.265 68.5886 258.987 63.5364C258.987 63.5364 292.595 72.817 294.023 72.9268C295.451 73.1465 309.454 79.901 309.454 79.901Z" fill="black"/>
<path d="M252.617 71.8834C252.782 71.8285 256.297 61.6693 256.297 61.6693L256.681 65.5683L255.143 71.1696L252.617 71.8834Z" fill="#5F0000"/>
<path d="M307.147 63.2619C307.147 63.2619 310.826 76.8258 312.364 89.4013C312.364 89.4013 312.583 90.884 313.517 91.3782C313.517 91.3782 318.349 94.4534 318.624 96.8697C318.624 96.8697 318.185 100.549 320.766 102.196C320.766 102.196 324.774 103.789 322.962 109.171C322.962 109.171 320.162 116.968 314.505 117.023C314.505 117.023 304.84 119.33 292.814 115.266C292.814 115.266 284.083 113.069 281.886 108.127C281.886 108.127 278.976 104.228 279.58 101.482L295.285 90.7192L294.407 62.6029L307.147 63.2619Z" fill="#C65E2B"/>
<path d="M254.1 48.654C254.1 48.654 252.727 56.5617 255.967 62.822L256.296 66.5562C256.296 66.5562 255.802 68.3135 258.054 69.5765L260.03 71.3887L260.525 71.828C260.525 71.828 260.635 77.594 262.502 81.0537C262.502 81.0537 266.401 88.0278 269.86 91.8718L274.308 98.4616L278.207 103.733L279.635 104.722L281.063 105.271L284.303 105.655L287.378 105.161L290.893 104.118L293.913 102.525L296.878 100.109L299.624 96.265L302.315 90.8834L305.115 85.8312L306.763 82.152L307.751 79.8455L308.355 77.4293V73.9148L308.026 70.2355L307.147 67.1602L306.159 65.0186L300.777 54.8594L290.783 41.1856L275.187 38.2202L262.007 41.1307L254.1 48.654Z" fill="#C65E2B"/>
<path d="M278.537 66.4467C278.482 66.4467 278.427 66.4467 278.372 66.3918C278.207 66.282 278.097 66.0623 278.207 65.8976C278.262 65.7878 279.635 63.0969 282.491 62.7675C282.546 62.7675 286.005 62.2732 287.433 61.5593C287.598 61.4495 287.817 61.5593 287.927 61.7241C288.037 61.8888 287.927 62.1085 287.762 62.2183C286.17 63.042 282.71 63.4814 282.546 63.5363C280.074 63.8109 278.811 66.2271 278.811 66.282C278.811 66.3369 278.702 66.4467 278.537 66.4467Z" fill="black"/>
<path d="M282.271 65.7875C282.908 65.7875 283.424 65.2712 283.424 64.6343C283.424 63.9974 282.908 63.4811 282.271 63.4811C281.634 63.4811 281.118 63.9974 281.118 64.6343C281.118 65.2712 281.634 65.7875 282.271 65.7875Z" fill="black"/>
<path d="M266.346 71.1145C266.982 71.1145 267.499 70.5982 267.499 69.9613C267.499 69.3244 266.982 68.8081 266.346 68.8081C265.709 68.8081 265.192 69.3244 265.192 69.9613C265.192 70.5982 265.709 71.1145 266.346 71.1145Z" fill="black"/>
<path d="M266.29 70.5102C266.745 70.5102 267.114 70.1414 267.114 69.6865C267.114 69.2316 266.745 68.8628 266.29 68.8628C265.835 68.8628 265.467 69.2316 265.467 69.6865C265.467 70.1414 265.835 70.5102 266.29 70.5102Z" fill="black"/>
<path d="M261.952 71.8287C261.788 71.8287 261.623 71.7189 261.568 71.5542C261.513 71.3345 261.623 71.1698 261.843 71.1148C262.007 71.0599 262.282 70.7304 262.392 70.5108L262.447 70.4559C263.27 69.4674 264.973 68.7535 265.028 68.6986C266.51 68.0945 268.597 68.4789 268.652 68.4789C268.872 68.5339 268.981 68.6986 268.927 68.9183C268.872 69.1379 268.707 69.2477 268.487 69.1928C268.487 69.1928 266.565 68.8633 265.302 69.3576C265.302 69.3576 263.71 70.0715 262.996 70.8952C262.886 71.0599 262.501 71.664 262.007 71.8287C262.062 71.8287 262.007 71.8287 261.952 71.8287Z" fill="black"/>
<path d="M273.594 63.0421L275.681 64.1404L283.918 58.8686C283.918 58.8686 286.115 57.3859 288.421 56.8916C288.421 56.8916 290.343 55.9032 287.652 55.9032C287.652 55.9032 283.424 55.5737 278.756 58.7038L273.594 63.0421Z" fill="#632F16"/>
<path d="M269.53 67.3256L268.487 66.1724C268.487 66.1724 263.38 64.0307 257.229 66.2273C257.229 66.2273 255.966 66.8313 256.241 67.6001C256.241 67.6001 257.559 69.5771 257.998 69.5222C257.998 69.5222 262.172 66.0076 267.389 66.9961L269.53 67.3256Z" fill="#632F16"/>
<path d="M305.005 64.47C305.005 64.47 307.037 66.1724 308.794 64.2503C308.794 64.2503 310.881 62.6578 310.881 60.0768C310.881 60.0768 311.54 56.3426 310.771 51.8396C310.771 51.8396 310.661 45.8539 305.719 45.6343C305.719 45.6343 301.326 45.4146 300.173 49.1488C300.173 49.1488 299.184 51.5651 299.404 53.5969L305.005 64.47Z" fill="#C65E2B"/>
<path d="M301.655 50.6314C301.655 50.6314 309.892 52.3338 317.855 52.4436C317.855 52.4436 313.022 49.5331 312.803 47.666L310.881 43.7671L301.326 42.1196L298.745 42.4491L301.655 50.6314Z" fill="black"/>
<path d="M254.154 59.0884C254.154 59.0884 254.099 50.5218 258.877 47.8859C258.877 47.8859 259.975 47.5014 262.611 47.7211C262.611 47.7211 265.247 47.7211 267.279 45.4696C267.279 45.4696 268.267 42.5591 272.386 42.9984C272.386 42.9984 282.106 39.9781 286.938 47.0072L292.045 46.9523L298.086 38.9897L285.62 30.8623C285.62 30.8623 269.311 31.686 268.212 31.8508C267.114 32.0155 254.923 40.5273 254.758 40.8018C254.593 41.0764 247.949 54.5854 248.223 55.0248C248.443 55.4092 254.154 59.0884 254.154 59.0884Z" fill="black"/>
<path d="M291.99 82.0976L288.641 83.4705C287.268 84.0196 285.62 84.459 284.412 85.3376C282.6 86.7105 280.294 87.4243 277.987 87.2047C277.328 87.1498 276.614 87.0949 276.12 87.4793C275.9 87.5342 275.571 87.5342 275.571 87.5342L274.692 87.6989L274.418 87.8637L274.912 88.2481L275.351 88.4128L275.736 88.6325L276.01 89.0169C276.285 89.4562 276.724 89.7857 277.163 90.0053C279.14 91.0487 281.502 91.2684 283.588 90.6094C286.06 89.8955 288.146 88.0284 289.794 86.1064C290.563 85.1728 291.441 84.1295 291.99 83.0312C292.045 82.9763 292.1 82.8664 292.155 82.7017C292.375 82.4271 292.649 81.8231 291.99 82.0976Z" fill="#632F16"/>
<path d="M291.991 82.0978L288.641 83.4707C287.268 84.0198 285.62 84.4591 284.412 85.3378C282.6 86.7106 280.294 87.4245 277.987 87.2049C277.493 87.15 276.944 87.095 276.56 87.2598C276.669 88.3581 277.164 89.8957 279.25 90.0055L279.635 90.8842C280.953 91.1038 282.326 91.0489 283.644 90.6645C286.115 89.9506 288.201 88.0835 289.849 86.1615C290.618 85.2279 291.496 84.1846 292.046 83.0863C292.1 83.0314 292.155 82.9215 292.21 82.7568C292.375 82.4273 292.65 81.8232 291.991 82.0978Z" fill="white"/>
<path d="M295.121 52.0593L291.551 55.3542L288.916 57.7155L288.421 57.7705L287.158 57.9901L284.193 58.9237C280.953 60.1318 277.768 61.6694 274.912 63.6463C273.759 64.4151 272.661 65.2938 271.343 65.7331C270.08 66.1724 268.707 66.1724 267.389 66.2822C264.753 66.5019 262.117 67.106 259.646 68.1493C257.34 69.0829 255.308 70.4558 253.111 71.4991L252.562 71.8286L252.727 72.4876L253.056 73.2564L253.715 73.3662L254.1 73.6408C254.594 74.0252 254.978 74.8489 255.308 75.3981C255.857 76.2767 256.406 77.1004 257.065 77.8692C257.999 78.9126 259.207 79.7912 260.58 80.1207C262.062 80.4502 263.655 80.1207 265.083 79.6265C267.718 78.6929 270.299 77.8143 271.343 74.9038C272.112 72.7622 271.123 70.95 270.904 68.9181C270.849 68.5337 270.958 68.0944 271.233 67.8748C271.617 67.5453 272.167 67.5453 272.606 67.71C273.869 68.1493 275.077 69.5771 275.956 70.5107C276.999 71.609 278.152 72.2679 279.635 72.7072C281.996 73.3113 284.083 72.4327 286.28 71.4991C287.982 70.7852 290.069 70.0713 290.947 68.3141C291.387 67.4354 291.442 66.5019 291.277 65.5683C291.112 64.525 290.947 63.4267 290.508 62.4382C290.124 61.6145 289.355 60.8457 289.739 59.8572C290.069 58.9786 291.002 58.4294 291.606 57.7705C292.101 57.2762 292.595 56.6722 293.144 56.2878L294.627 55.1346L296.439 54.4207L295.121 52.0593ZM267.718 77.3201C266.181 78.0889 264.698 78.7479 262.996 79.1323C261.513 79.5167 259.975 78.9675 258.822 78.034C258.053 77.4299 257.394 76.6062 256.79 75.7825C256.516 75.3981 256.351 74.9587 256.077 74.5743C255.857 74.2449 255.582 73.8605 255.363 73.531C255.143 73.2015 254.923 72.8171 254.923 72.3778C254.923 71.9384 255.143 71.609 255.472 71.3344C255.692 71.1696 255.967 71.0049 256.241 70.8402C258.163 69.8517 260.195 69.0829 262.282 68.5337C263.325 68.2592 264.369 68.0395 265.467 67.8748C266.51 67.71 268.323 67.4354 269.036 68.369C269.366 68.7534 269.476 69.2476 269.64 69.7419C269.97 70.8402 270.245 71.9384 270.245 73.0367C270.354 75.0686 269.366 76.5513 267.718 77.3201ZM289.849 64.7995C289.849 64.7995 289.904 65.6233 289.904 65.788C289.904 65.9527 290.014 66.8863 290.014 66.8863L289.849 67.7649L289.245 68.5886L288.092 69.4124L285.895 70.4557L283.699 71.3344L282.271 71.554C282.271 71.554 281.173 71.554 281.063 71.554C279.635 71.554 278.097 70.8951 276.944 69.5771C276.505 69.0829 275.901 68.6985 275.407 68.2043C275.077 67.8198 274.418 67.2707 274.418 66.7215C274.418 66.5568 274.363 66.1175 274.418 66.0077C274.473 65.8978 274.528 65.4585 274.583 65.4036C274.693 65.3487 274.912 65.0741 275.022 65.0192C275.132 64.9643 276.23 64.1406 276.23 64.1406L278.482 62.8775L280.239 62.0538L282.436 61.2301L283.808 60.8457L286.225 60.1318L286.939 59.9121L287.598 59.7474L288.861 62.2735L289.41 63.866L289.849 64.7995Z" fill="#9C1B1E"/>
<path d="M287.653 45.634L286.884 47.0069C286.884 47.0069 294.187 52.2787 296.329 56.5621C296.329 56.5621 308.026 51.6197 311.98 61.2847C311.98 61.2847 311.54 53.0475 303.468 50.0821C303.468 50.0821 299.02 42.5039 298.745 42.5039C298.471 42.5039 287.653 45.634 287.653 45.634Z" fill="black"/>
<path d="M306.268 83.9098C306.213 83.9098 306.158 83.9098 306.103 83.8549C305.939 83.7451 305.884 83.5254 305.939 83.3607C310.881 74.4645 305.719 64.4151 305.664 64.3053C305.554 64.1405 305.664 63.9209 305.829 63.8111C305.994 63.7012 306.213 63.811 306.323 63.9758C306.378 64.0856 311.705 74.4645 306.598 83.7451C306.543 83.8549 306.433 83.9098 306.268 83.9098Z" fill="#944620"/>
<path d="M298.141 55.0795C298.141 55.0795 300.942 56.8368 301.601 61.175L302.314 65.8428C302.314 65.8428 303.138 67.9296 303.193 68.1492C303.248 68.3689 304.346 69.577 304.346 69.577L306.598 69.7417L308.245 67.6001C308.245 67.6001 306.817 59.0334 298.086 51.9494C289.794 45.0851 298.141 55.0795 298.141 55.0795Z" fill="black"/>
<path d="M302.809 81.9327C302.534 81.9876 298.635 82.1524 298.415 81.9876C298.141 81.8229 295.944 79.4066 295.944 79.4066L293.363 77.7043L291.386 77.0453C291.386 77.0453 289.629 76.7158 289.3 76.7158C288.97 76.7158 287.158 77.0453 287.158 77.0453L285.346 77.7592L283.753 78.2534L278.921 80.0656L271.947 82.2622L269.695 82.5917L267.773 84.0744L266.785 85.3374L266.675 86.4906V87.7537L267.004 88.6872L269.311 91.4329L271.782 95.3319C271.782 95.3319 275.406 100.329 275.681 100.494C275.955 100.659 277.493 103.514 277.493 103.514L280.239 105.601L283.424 106.205L287.103 105.656C287.103 105.656 295.011 104.448 298.525 98.2424L303.742 89.8404L306.927 83.3605L308.465 78.9673C308.355 78.9673 307.202 80.45 302.809 81.9327ZM293.034 94.618C291.606 97.0891 289.19 99.121 286.389 99.5603C284.357 99.8898 282.161 99.3407 280.568 98.0776C279.799 97.4186 279.25 96.5949 278.536 95.881C277.768 95.1671 276.889 94.6729 276.065 94.0139C275.187 93.355 274.473 92.4763 273.869 91.5977C273.649 91.2682 272.441 89.1814 272.715 88.9069C274.033 87.4791 276.12 87.0947 278.042 86.875C280.403 86.875 282.655 85.8316 284.742 84.8432C287.378 83.5801 290.288 82.6466 293.034 81.5483L293.089 81.6032C294.462 82.6466 294.846 84.5686 294.846 86.3259C294.956 89.1815 294.462 92.0919 293.034 94.618Z" fill="black"/>
<path d="M271.397 69.3571L271.672 77.8139L271.452 80.1753C271.452 80.1753 271.507 81.0539 271.617 81.1637C271.727 81.2735 271.946 81.9874 271.946 81.9874L272.605 82.921L273.978 84.4037L274.912 84.6783L276.12 84.6233L277.383 84.184L278.207 83.7447L278.646 83.4701L278.975 83.0308L279.799 82.0973L280.293 81.4932L280.733 81.0539L281.776 80.2851L282.71 79.5163L283.204 78.8024L283.314 78.1434L283.369 77.5394V76.9902L283.149 76.0017L283.039 74.9584L271.397 69.3571Z" fill="#C65E2B"/>
<path d="M275.571 85.1178C275.516 85.1178 275.516 85.1178 275.461 85.1178C274.473 85.0629 273.484 84.6236 272.716 83.7999C272.057 83.1409 271.617 82.2073 271.343 81.1639C271.013 79.846 271.123 78.4182 271.233 77.265C271.288 76.7159 271.233 76.1667 271.233 75.6176C271.233 75.3979 271.233 75.1233 271.178 74.9037L271.013 69.3573C271.013 69.1376 271.178 68.9729 271.398 68.9729C271.617 68.9729 271.782 69.1376 271.782 69.3573L271.947 74.9037C271.947 75.1233 271.947 75.3979 272.002 75.6176C272.057 76.1667 272.057 76.7708 272.002 77.3199C271.892 78.4731 271.837 79.7911 272.111 80.9992C272.331 81.9328 272.716 82.7016 273.265 83.3056C273.869 83.9646 274.692 84.349 275.461 84.349C276.175 84.349 276.944 84.1294 277.768 83.5802C278.536 83.086 279.195 82.427 279.854 81.768L281.612 80.0657C281.722 79.9558 281.886 79.846 281.996 79.6813C282.381 79.3518 282.71 79.0223 282.93 78.6928C283.04 78.528 283.259 78.4731 283.479 78.583C283.644 78.6928 283.698 78.9125 283.589 79.1321C283.259 79.5714 282.875 79.9009 282.545 80.2304C282.435 80.3402 282.271 80.4501 282.161 80.5599L280.404 82.2622C279.745 82.9212 279.031 83.5802 278.207 84.1294C277.273 84.8432 276.395 85.1178 275.571 85.1178Z" fill="#944620"/>
<path d="M314.176 105.162C313.956 105.162 313.791 104.997 313.791 104.832C313.023 89.2364 307.971 67.9296 307.916 67.7099C307.861 67.4902 307.971 67.3255 308.19 67.2706C308.41 67.2157 308.575 67.3255 308.629 67.5452C308.684 67.7648 313.737 89.1266 314.505 104.777C314.56 104.942 314.396 105.107 314.176 105.162Z" fill="#944620"/>
<path d="M243.391 114.992C242.458 114.937 241.799 114.278 241.03 113.783C240.316 113.289 239.602 112.85 238.779 112.685C236.966 112.356 235.209 113.564 233.781 114.772C232.518 115.815 231.255 116.804 229.992 117.847C229.663 118.122 229.388 118.341 229.169 118.671C228.235 120.154 228.125 122.46 227.906 124.162C227.631 126.304 227.521 128.446 227.466 130.587C227.411 132.29 227.356 133.992 227.631 135.694C228.015 138.385 228.784 141.241 230.432 143.382C231.42 144.7 232.848 145.304 234.221 146.128C235.813 147.062 237.351 147.995 238.943 148.929C240.097 149.588 241.085 150.412 242.293 150.906C242.732 151.125 243.227 151.29 243.556 151.62C243.886 152.004 244.05 152.498 244.105 152.993C244.215 153.706 244.38 154.365 244.545 155.079C244.709 155.848 244.874 156.617 244.984 157.386C245.259 158.978 245.423 160.571 245.588 162.163C245.753 163.811 245.863 165.458 245.918 167.161C245.918 167.49 245.972 167.82 245.972 168.149C246.302 176.112 245.533 184.184 244.819 192.092C244.764 192.751 244.709 193.41 244.819 194.069C244.929 194.673 245.204 195.222 245.423 195.716C247.126 199.286 248.828 202.855 250.475 206.534C250.53 206.699 250.64 206.919 250.805 207.029C250.915 207.138 251.08 207.193 251.244 207.193C253.386 207.797 255.583 208.237 257.779 208.676C259.536 209.006 261.349 209.28 263.161 209.06C265.083 208.841 266.84 208.072 268.542 207.248C269.751 206.644 270.904 206.04 271.947 205.161C273.155 204.118 274.089 202.745 274.858 201.372C275.242 200.658 275.626 199.89 275.956 199.121C276.121 198.736 276.67 198.023 276.67 197.583L276.615 194.892L275.846 191.488L274.254 187.314L271.673 181.823L269.092 175.892L266.291 169.192L263.93 162.383L262.776 154.969L261.623 148.05L261.184 142.998L260.69 140.637L260.195 139.044C260.195 139.044 259.481 137.452 260.031 135.804L260.525 133.717C260.525 133.717 260.47 131.082 260.47 131.027C260.415 129.873 259.921 128.501 259.646 127.347C259.372 126.249 258.877 125.261 258.493 124.217C257.944 122.68 257.45 121.087 256.846 119.55C255.418 115.925 252.672 113.619 249.926 110.983C249.707 110.763 249.487 110.598 249.267 110.434C248.114 109.665 246.522 110.049 245.478 110.928C243.996 111.971 243.886 113.399 243.391 114.992Z" fill="#C65E2B"/>
<path d="M257.779 209.061H257.725C255.528 208.676 253.331 208.182 251.19 207.578C251.025 207.523 250.805 207.468 250.586 207.303C250.366 207.139 250.256 206.864 250.146 206.699C248.664 203.349 247.071 200 245.479 196.705L245.094 195.881C244.82 195.332 244.545 194.783 244.435 194.124C244.325 193.41 244.38 192.751 244.435 192.092L244.6 190.225C245.259 182.976 245.918 175.508 245.588 168.149C245.588 167.82 245.533 167.49 245.533 167.161C245.424 165.294 245.314 163.701 245.204 162.218C245.039 160.571 244.82 158.978 244.6 157.496C244.49 156.782 244.325 156.013 244.161 155.189C244.106 154.97 244.051 154.695 243.996 154.475C243.886 154.036 243.776 153.542 243.721 153.103C243.666 152.663 243.557 152.224 243.227 151.894C243.007 151.62 242.623 151.51 242.239 151.345L242.074 151.29C241.25 150.906 240.481 150.467 239.767 149.972C239.383 149.753 239.054 149.478 238.669 149.258L233.947 146.458C233.727 146.293 233.452 146.183 233.233 146.019C232.079 145.36 230.926 144.701 230.048 143.602C228.62 141.735 227.686 139.154 227.137 135.749C226.862 133.992 226.917 132.07 226.972 130.587C227.027 128.501 227.137 126.304 227.412 124.108C227.467 123.888 227.467 123.613 227.521 123.394C227.686 121.801 227.906 119.824 228.785 118.451C229.004 118.067 229.389 117.792 229.718 117.518L233.507 114.443C235.045 113.18 236.802 111.917 238.834 112.301C239.767 112.466 240.536 113.015 241.25 113.454C241.415 113.564 241.58 113.674 241.689 113.784C242.184 114.113 242.623 114.443 243.117 114.552C243.172 114.333 243.227 114.113 243.282 113.948C243.611 112.685 243.941 111.532 245.149 110.544C246.247 109.665 248.06 109.171 249.378 110.049L252.343 112.575C253.661 113.674 254.814 115.211 255.912 117.243C257.889 120.868 259.317 124.712 260.251 128.72C260.745 130.697 261.129 133.059 260.47 135.255C259.921 137.232 258.164 139.429 255.693 139.539C255.473 139.539 255.308 139.374 255.308 139.209C255.308 139.044 255.473 138.825 255.638 138.825C257.779 138.715 259.262 136.793 259.756 135.036C260.306 133.004 259.976 130.807 259.482 128.885C258.548 124.931 257.12 121.142 255.198 117.573C254.155 115.651 253.002 114.113 251.794 113.07L248.828 110.544C247.84 109.885 246.412 110.324 245.533 111.038C244.49 111.862 244.216 112.795 243.941 114.003C243.886 114.333 243.776 114.607 243.666 114.937L243.557 115.211H243.282C242.458 115.156 241.799 114.717 241.195 114.223C241.03 114.113 240.921 114.003 240.756 113.893C240.097 113.454 239.383 112.96 238.614 112.85C236.967 112.521 235.319 113.729 233.947 114.827L230.267 118.067C229.993 118.287 229.718 118.506 229.498 118.836C228.73 120.044 228.565 121.966 228.345 123.449C228.29 123.723 228.29 123.943 228.235 124.217C227.961 126.359 227.851 128.556 227.796 130.642C227.741 132.51 227.686 134.102 227.961 135.64C228.455 138.935 229.334 141.406 230.707 143.163C231.475 144.151 232.519 144.755 233.672 145.414C233.892 145.524 234.166 145.689 234.386 145.854L239.108 148.654C239.493 148.874 239.877 149.149 240.262 149.368C240.976 149.863 241.689 150.302 242.458 150.631L242.623 150.686C243.062 150.851 243.502 151.071 243.831 151.455C244.27 151.894 244.38 152.553 244.49 153.048C244.545 153.487 244.655 153.926 244.765 154.366C244.82 154.585 244.875 154.86 244.929 155.079C245.094 155.958 245.259 156.672 245.369 157.441C245.643 158.978 245.808 160.571 245.973 162.218C246.138 163.701 246.247 165.294 246.302 167.216C246.302 167.545 246.357 167.875 246.357 168.204C246.687 175.563 246.028 183.086 245.369 190.39L245.204 192.257C245.149 192.861 245.094 193.52 245.204 194.124C245.314 194.673 245.533 195.167 245.808 195.716L246.192 196.54C247.73 199.78 249.378 203.185 250.86 206.534C250.915 206.644 250.97 206.809 251.08 206.864C251.135 206.919 251.3 206.974 251.409 206.974C253.551 207.523 255.748 208.017 257.889 208.456C258.109 208.511 258.219 208.676 258.164 208.896C258.164 208.896 257.999 209.061 257.779 209.061Z" fill="#944620"/>
<path d="M229.499 118.451L231.585 118.506L233.068 118.891L234.496 120.373L234.88 121.581L234.77 123.503L234.716 124.876L236.693 127.457L237.461 129.379L237.132 131.85L236.528 133.827L235.375 136.628L234.166 138.715C234.166 138.715 232.189 142.394 228.84 138.495L228.016 137.122L227.577 131.137L227.851 126.853L228.291 121.636L229.499 118.451Z" fill="#944620"/>
<path d="M245.918 140.746C245.204 140.746 244.49 140.527 243.776 140.252C243.556 140.197 243.502 139.978 243.556 139.758C243.611 139.538 243.831 139.483 244.051 139.538C245.643 140.142 246.741 140.252 247.675 139.154C248.389 138.33 248.663 137.012 248.389 135.694C248.334 135.475 248.279 135.2 248.114 134.98C247.84 134.541 247.291 134.321 246.796 134.157C245.753 133.772 244.71 133.498 243.611 133.278C242.952 133.168 242.019 133.003 241.14 133.058C239.603 133.223 238.449 134.047 237.186 134.98C236.967 135.145 236.747 135.31 236.527 135.475L233.507 137.616C233.342 137.726 233.123 137.726 232.958 137.506C232.848 137.342 232.848 137.122 233.068 136.957L236.088 134.816C236.308 134.651 236.527 134.486 236.747 134.321C238.01 133.388 239.328 132.399 241.085 132.235C242.074 132.125 243.062 132.29 243.776 132.454C244.874 132.674 246.028 133.003 247.071 133.388C247.73 133.608 248.389 133.937 248.773 134.541C248.993 134.871 249.048 135.2 249.158 135.475C249.487 137.012 249.158 138.55 248.279 139.593C247.51 140.472 246.741 140.746 245.918 140.746Z" fill="#944620"/>
<path d="M248.279 134.926C248.224 134.926 248.169 134.926 248.114 134.871C247.949 134.761 247.839 134.541 247.949 134.377C248.498 133.333 248.938 132.345 248.553 131.192C248.224 130.258 247.51 129.489 246.851 128.885C245.588 127.677 244.38 126.908 243.171 126.524C240.7 125.645 238.284 126.798 235.923 127.897C235.429 128.116 234.934 128.336 234.44 128.556C234.275 128.611 234.056 128.556 233.946 128.336C233.891 128.171 233.946 127.952 234.165 127.842C234.66 127.622 235.154 127.402 235.648 127.183C238.01 126.084 240.755 124.821 243.501 125.81C244.819 126.249 246.082 127.073 247.455 128.336C248.169 128.995 248.992 129.874 249.377 130.972C249.871 132.455 249.377 133.608 248.718 134.761C248.498 134.871 248.388 134.926 248.279 134.926Z" fill="#944620"/>
<path d="M248.609 129.709C248.554 129.709 248.444 129.709 248.389 129.654C248.224 129.544 248.169 129.27 248.334 129.105C249.432 127.677 249.762 126.304 249.377 124.876C249.268 124.492 249.158 124.217 248.993 123.943C248.664 123.449 248.169 123.119 247.51 122.735C245.753 121.636 243.941 120.538 241.909 119.934C238.504 118.946 235.868 120.209 232.793 121.691L232.354 121.911C232.189 122.021 231.969 121.911 231.86 121.746C231.75 121.581 231.86 121.362 232.024 121.252L232.464 121.032C235.539 119.55 238.394 118.122 242.129 119.22C244.27 119.824 246.137 120.977 247.95 122.131C248.499 122.46 249.158 122.899 249.652 123.558C249.872 123.888 250.036 124.272 250.146 124.712C250.586 126.359 250.201 127.897 248.993 129.544C248.883 129.654 248.773 129.709 248.609 129.709Z" fill="#944620"/>
<path d="M247.62 121.636C247.51 121.636 247.455 121.636 247.4 121.636C247.18 121.581 246.961 121.581 246.741 121.526C245.862 121.417 244.819 121.252 244.325 120.593C243.117 118.945 242.732 116.804 243.227 114.827C243.282 114.607 243.501 114.497 243.666 114.552C243.886 114.607 243.995 114.827 243.94 114.992C243.501 116.749 243.831 118.671 244.929 120.154C245.258 120.593 246.137 120.703 246.851 120.813C247.126 120.868 247.345 120.868 247.565 120.922C247.675 120.977 248.114 120.922 249.102 120.154C249.761 119.659 250.475 119.11 250.97 118.396C251.519 117.628 251.629 116.804 251.738 115.925L251.793 115.541C251.793 115.321 252.013 115.211 252.233 115.211C252.452 115.211 252.562 115.431 252.562 115.651L252.507 116.035C252.397 117.023 252.287 117.957 251.574 118.891C251.024 119.659 250.256 120.263 249.542 120.813C248.718 121.362 248.114 121.636 247.62 121.636Z" fill="#944620"/>
<path d="M247.566 122.021C247.346 122.021 247.181 121.856 247.181 121.636C247.181 121.416 247.346 121.252 247.566 121.252L249.597 121.197L250.641 121.032L251.904 120.703L254.979 120.538C255.199 120.538 255.363 120.703 255.363 120.867C255.363 121.087 255.199 121.252 255.034 121.252L252.014 121.416L250.806 121.746L249.707 121.911L247.566 122.021Z" fill="#944620"/>
<path d="M243.831 139.593L243.447 139.703L243.063 140.252L242.788 140.747V141.186L243.172 141.46L243.941 141.735L244.6 141.955H245.369L245.973 141.625L246.577 141.131L247.017 140.197L246.193 140.252L245.534 140.307H244.985L244.326 139.978L243.831 139.593Z" fill="#944620"/>
<path d="M248.993 123.393C248.993 123.393 248.718 122.13 249.761 121.691L247.071 121.746L248.993 123.393Z" fill="#944620"/>
<path d="M250.146 119.879C250.146 119.879 249.707 121.142 250.146 121.417L248.279 121.472L248.938 120.703L250.146 119.879Z" fill="#944620"/>
<path d="M249.707 154.091C248.334 154.091 246.961 153.816 245.698 153.212C244.984 152.883 244.27 152.443 243.611 152.059C243.227 151.839 242.842 151.62 242.458 151.4C242.293 151.29 242.183 151.071 242.293 150.906C242.403 150.741 242.623 150.631 242.787 150.741C243.172 150.961 243.556 151.18 243.941 151.455C244.6 151.839 245.259 152.279 245.973 152.553C247.949 153.432 250.201 153.597 252.178 152.938C254.539 152.169 256.242 150.412 256.955 148.05C257.01 147.831 257.23 147.721 257.395 147.776C257.614 147.831 257.724 148.05 257.669 148.215C256.901 150.796 254.979 152.773 252.398 153.597C251.574 153.981 250.64 154.091 249.707 154.091Z" fill="#944620"/>
<path d="M230.816 143.767L234.276 144.975L236.418 145.524L238.175 145.854L240.426 146.128H242.458C244.545 146.183 246.522 146.238 248.389 147.281C248.554 147.391 248.719 147.501 248.883 147.611C249.048 147.776 249.158 147.995 249.268 148.215C249.652 148.984 249.982 149.807 250.037 150.686C250.091 152.388 248.719 152.938 247.346 153.377L245.918 152.828L243.337 151.4L240.042 149.423L236.418 147.391L233.782 145.854L230.816 143.767Z" fill="#944620"/>
<path d="M248.608 154.036L248.499 157.605L248.883 161.01L249.322 164.36L253.166 187.479L255.363 197.583L257.614 203.569L259.152 206.534L260.909 209.225L252.947 207.907L251.025 207.138L247.895 205.765L245.533 199.286L244.6 195.277L244.71 193.355L245.808 179.242L246.192 169.577L245.533 160.9L244.49 154.914L243.337 151.455L245.918 152.883L248.608 154.036Z" fill="#944620"/>
<path d="M257.231 148.215C257.231 148.215 255.803 151.784 250.915 151.62C250.915 151.62 250.202 151.29 250.037 150.741L248.719 150.961L247.456 151.949L247.346 153.432L249.872 153.597L252.233 153.267L254.265 152.443L255.858 151.29L256.627 149.807L257.231 148.215Z" fill="#944620"/>
<path d="M262.996 209.61C252.233 209.61 244.49 205.162 244.435 205.107C244.27 204.997 244.215 204.777 244.325 204.612C244.435 204.448 244.655 204.393 244.819 204.503C244.874 204.557 252.672 209.006 263.436 208.896C263.49 208.896 275.791 206.974 277.329 194.124C277.329 193.904 277.549 193.794 277.768 193.794C277.988 193.794 278.098 194.014 278.098 194.234C276.505 207.633 263.655 209.61 263.49 209.665C263.326 209.61 263.161 209.61 262.996 209.61Z" fill="#BE0000"/>
<path d="M352.782 243.492C352.617 243.492 352.452 243.327 352.397 243.162L348.883 214.222L342.293 172.542C342.238 172.322 342.403 172.158 342.623 172.103C342.842 172.048 343.007 172.213 343.062 172.432L349.652 214.167L353.166 243.162C353.166 243.272 353.001 243.492 352.782 243.492Z" fill="#BE0000"/>
<path d="M323.458 245.469L323.677 207.028V187.698L322.524 175.068L321.206 168.753L319.119 162.493" fill="#EE0000"/>
<path d="M323.457 245.853C323.238 245.853 323.073 245.688 323.073 245.468L323.293 207.028V187.753L322.139 175.123L320.876 168.808L318.79 162.602C318.735 162.382 318.845 162.218 319.009 162.108C319.229 162.053 319.394 162.163 319.504 162.328L321.59 168.588L322.908 174.958L324.116 187.643V206.973L323.897 245.413C323.842 245.688 323.677 245.853 323.457 245.853Z" fill="#BE0000"/>
<path d="M193.913 148.215L199.02 135.42C199.953 132.454 200.832 129.599 201.93 126.688C202.26 125.809 202.534 124.931 202.974 124.107C204.127 121.636 205.994 119.494 208.081 117.682C210.332 115.76 212.858 114.058 215.33 112.465C216.043 112.026 217.032 111.641 217.856 111.422C219.009 111.037 220.272 110.873 221.48 110.982C222.304 111.037 223.182 111.257 223.622 111.971C223.951 112.465 223.951 113.124 224.281 113.618C224.72 114.277 225.544 114.497 226.312 114.552C227.081 114.607 227.905 114.552 228.619 114.881C229.333 115.156 229.882 115.76 230.102 116.474C230.376 117.353 229.827 118.066 229.937 118.945C230.047 119.714 230.431 120.373 231.255 120.483C231.255 120.483 233.781 121.087 233.506 122.844C233.506 122.844 233.067 126.359 234.55 126.743C234.55 126.743 237.735 129.104 235.868 131.356C235.483 132.015 235.099 132.674 234.66 133.278C234.165 133.992 233.781 134.87 233.232 135.584C230.706 138.879 226.093 140.087 222.084 139.593C221.37 139.483 220.656 139.373 220.052 139.703C219.503 139.977 219.119 140.582 218.844 141.131C217.691 143.437 216.757 145.853 216.098 148.324C215.549 150.466 215.22 152.663 214.835 154.859L213.737 159.033L213.188 161.339L212.419 162.987L211.815 164.305L201.601 153.157L194.956 149.313L193.913 148.215Z" fill="#FBB88F"/>
<path d="M211.87 164.799L201.327 153.267L194.737 149.423C194.572 149.313 194.517 149.094 194.627 148.929C194.737 148.764 194.956 148.709 195.121 148.819L201.876 152.773L211.705 163.536L212.859 161.12L213.408 158.869L214.506 154.64C214.616 154.091 214.671 153.542 214.781 152.993C215.055 151.4 215.33 149.698 215.769 148.105C216.428 145.579 217.362 143.163 218.515 140.857C218.844 140.252 219.229 139.593 219.888 139.264C220.547 138.934 221.315 139.044 221.974 139.099H222.139C226.477 139.648 230.706 138.166 232.957 135.255C233.232 134.871 233.452 134.486 233.726 134.047C233.946 133.718 234.111 133.333 234.385 133.004C234.66 132.619 234.934 132.125 235.209 131.741C235.319 131.521 235.483 131.301 235.593 131.082L235.648 131.027C236.033 130.587 236.197 130.093 236.142 129.544C235.978 128.336 234.715 127.238 234.44 127.018C232.738 126.469 233.122 123.119 233.177 122.735C233.397 121.362 231.2 120.813 231.2 120.813C230.322 120.703 229.717 119.989 229.608 118.946C229.553 118.506 229.663 118.122 229.717 117.792C229.827 117.353 229.882 117.024 229.772 116.584C229.553 115.98 229.058 115.431 228.454 115.211C227.96 115.047 227.466 114.992 226.862 114.992C226.642 114.992 226.477 114.992 226.258 114.937C225.16 114.827 224.391 114.443 223.951 113.838C223.787 113.564 223.677 113.234 223.567 112.905C223.512 112.63 223.402 112.411 223.292 112.191C223.018 111.752 222.359 111.477 221.48 111.367C221.261 111.367 221.096 111.148 221.151 110.983C221.151 110.763 221.37 110.653 221.535 110.653C222.688 110.763 223.512 111.148 223.951 111.807C224.116 112.081 224.226 112.411 224.336 112.74C224.391 113.015 224.501 113.234 224.61 113.454C224.995 114.003 225.764 114.168 226.368 114.223C226.532 114.223 226.752 114.223 226.972 114.278C227.576 114.333 228.18 114.333 228.784 114.552C229.608 114.882 230.267 115.541 230.486 116.419C230.706 117.024 230.541 117.573 230.431 118.012C230.376 118.341 230.267 118.616 230.321 118.946C230.376 119.275 230.541 120.044 231.31 120.154C231.475 120.209 234.22 120.868 233.891 122.954C233.781 123.778 233.726 126.194 234.66 126.414H234.715L234.77 126.469C234.825 126.524 236.637 127.842 236.801 129.544C236.911 130.258 236.692 130.972 236.142 131.576C236.033 131.796 235.923 131.96 235.758 132.18C235.483 132.619 235.209 133.059 234.934 133.498C234.715 133.827 234.55 134.157 234.33 134.486C234.111 134.926 233.836 135.365 233.507 135.804C231.145 138.934 226.587 140.527 222.029 139.923H221.865C221.261 139.868 220.657 139.758 220.217 139.978C219.723 140.198 219.448 140.747 219.174 141.241C218.021 143.492 217.087 145.909 216.483 148.38C216.099 149.972 215.769 151.62 215.495 153.212C215.385 153.761 215.33 154.311 215.22 154.86L214.122 159.088L213.573 161.45L211.87 164.799Z" fill="#F7823C"/>
<path d="M232.244 136.408C232.244 136.408 228.454 137.561 224.995 136.243C224.995 136.243 222.469 134.98 224.555 131.246C224.555 131.246 225.05 129.324 223.347 130.807C223.347 130.807 219.119 134.156 216.099 141.35C216.099 141.35 214.177 146.677 213.737 149.642C213.737 149.642 211.156 161.449 208.905 165.128L210.662 163.042L211.705 163.7L212.474 162.602L213.298 160.9L215.055 152.937L215.604 150.301L217.142 144.425L219.119 140.362L219.943 139.538L221.151 139.373L222.524 139.428L225.764 139.373L229.443 138.33L231.42 137.122L232.244 136.408Z" fill="#F7823C"/>
<path d="M177.933 165.952L193.035 148.435C193.035 148.435 195.012 146.348 199.295 148.874L209.674 158.594L217.637 168.588L222.359 179.571L222.744 180.944L218.021 183.415L209.784 176.551L207.642 175.782L204.896 175.288L202.92 174.794L200.174 172.927C200.119 172.927 183.425 160.955 177.933 165.952Z" fill="#BE0000"/>
<path d="M217.911 183.909L209.509 176.935L207.477 176.221L204.786 175.727L202.645 175.178L199.899 173.311C199.734 173.201 183.37 161.559 178.153 166.282L177.604 165.787L192.705 148.27C192.815 148.16 194.957 146.018 199.405 148.599L199.46 148.654L209.838 158.374L217.911 168.478L222.634 179.461L223.128 181.163L217.911 183.909ZM203.029 174.464L204.951 174.958L207.752 175.452L210.003 176.276L218.021 182.976L222.249 180.724L221.975 179.626L217.252 168.753L209.289 158.813L199.02 149.148C195.121 146.897 193.364 148.599 193.254 148.654L179.526 164.634C186.28 162.657 199.734 172.157 200.338 172.652L203.029 174.464Z" fill="#8F0000"/>
<path d="M290.893 166.721H290.783C290.344 166.611 289.904 166.556 289.465 166.446C287.873 166.117 286.225 165.787 284.742 165.128C281.722 163.756 278.647 162.547 275.517 161.504C275.023 161.339 274.528 161.175 274.034 161.065C272.991 160.735 271.947 160.461 270.959 159.966C270.52 159.747 269.861 159.582 269.202 159.362C268.543 159.143 267.884 158.978 267.389 158.758L267.28 158.703L266.346 157.825L263.381 150.082L263.71 149.972C263.82 149.917 277.164 144.755 288.477 148.764C288.532 148.764 294.517 151.015 303.578 149.258L305.281 148.929L307.587 156.891L301.986 160.57C301.546 160.9 301.052 161.175 300.613 161.504C299.185 162.438 297.757 163.426 296.275 164.305C295.341 164.799 294.352 165.293 293.144 165.787C292.98 165.842 292.76 165.952 292.54 166.117C292.046 166.391 291.387 166.721 290.893 166.721ZM267.829 158.099C268.268 158.264 268.872 158.484 269.476 158.648C270.135 158.868 270.849 159.088 271.343 159.307C272.277 159.747 273.32 160.076 274.309 160.351C274.803 160.516 275.297 160.625 275.791 160.79C278.921 161.834 282.052 163.097 285.072 164.415C286.5 165.073 288.092 165.403 289.63 165.678C290.069 165.787 290.508 165.842 290.893 165.952C291.222 165.952 291.771 165.623 292.211 165.403C292.43 165.293 292.705 165.128 292.87 165.073C294.023 164.579 295.011 164.085 295.945 163.591C297.428 162.767 298.856 161.779 300.228 160.845C300.668 160.516 301.162 160.241 301.601 159.912L306.708 156.507L304.731 149.752L303.688 149.972C294.353 151.784 288.422 149.533 288.147 149.478C278.098 145.963 266.456 149.807 264.259 150.576L266.895 157.44L267.829 158.099Z" fill="#BE0000"/>
<path d="M301.381 200.274L283.204 199.78C282.985 199.78 282.82 199.615 282.82 199.395C282.82 199.176 282.985 199.066 283.204 199.011L301.381 199.505L305.774 199.395C306.763 198.956 308.74 198.022 309.454 197.748C309.454 196.595 308.74 190.554 308.246 186.765L306.708 170.181L305.225 157.99C305.225 157.77 305.335 157.605 305.555 157.55C305.774 157.55 305.939 157.66 305.994 157.88L307.477 170.071L309.014 186.655C310.552 198.242 310.332 198.242 309.893 198.352C309.673 198.407 307.751 199.286 306.049 200.054L305.994 200.109L301.381 200.274Z" fill="#BE0000"/>
<path d="M291.002 190.829C290.783 190.829 290.618 190.664 290.618 190.444C291.332 174.903 288.256 166.172 288.202 166.062C288.147 165.842 288.256 165.678 288.421 165.568C288.641 165.513 288.806 165.623 288.915 165.788C288.97 165.897 292.1 174.794 291.387 190.444C291.332 190.664 291.167 190.829 291.002 190.829Z" fill="#BE0000"/>
<path d="M343.555 136.133C343.555 136.133 352.287 132.839 352.671 132.509C353.055 132.18 360.414 130.587 360.414 130.587C361.183 132.344 361.897 134.047 362.665 135.804C363.215 137.122 363.819 138.44 364.368 139.758C364.862 140.856 365.741 142.229 365.576 143.492C365.411 144.92 364.093 146.897 362.995 147.775C362.061 148.489 361.622 148.215 360.634 147.775C359.535 147.336 358.437 146.842 357.394 146.402C354.868 145.304 352.067 144.755 349.596 143.547C348.003 142.778 346.63 141.68 345.477 140.362C344.928 139.758 344.324 138.989 344.049 138.22C343.72 137.451 343.665 136.737 343.555 136.133Z" fill="#EE0000"/>
<path d="M361.952 148.489C361.568 148.489 361.183 148.324 360.744 148.105L360.14 147.83C359.151 147.391 358.163 147.006 357.174 146.567C356.021 146.073 354.813 145.689 353.66 145.304C352.232 144.865 350.749 144.371 349.377 143.712C347.784 142.943 346.301 141.79 345.148 140.417C344.599 139.758 343.94 138.989 343.61 138.11C343.446 137.671 343.391 137.232 343.336 136.792C343.281 136.573 343.226 136.298 343.226 136.078L343.171 135.749L343.501 135.639C346.796 134.376 352.122 132.344 352.507 132.07C352.891 131.74 357.614 130.697 360.414 130.093L360.689 130.038L364.753 139.428C364.862 139.648 364.972 139.922 365.082 140.197C365.576 141.186 366.071 142.284 365.961 143.327C365.796 144.92 364.368 146.952 363.215 147.885C362.721 148.379 362.336 148.489 361.952 148.489ZM343.94 136.353C343.94 136.463 343.995 136.628 343.995 136.792C344.05 137.232 344.16 137.616 344.269 138C344.489 138.714 345.148 139.428 345.642 140.032C346.741 141.295 348.113 142.394 349.651 143.108C350.969 143.767 352.452 144.206 353.825 144.645C355.033 145.03 356.241 145.414 357.449 145.908C358.437 146.348 359.426 146.732 360.414 147.171L361.018 147.446C361.842 147.775 362.062 147.885 362.721 147.391C363.764 146.567 365.027 144.755 365.192 143.382C365.302 142.503 364.808 141.57 364.368 140.636C364.258 140.362 364.094 140.087 363.984 139.868L360.14 131.026C356.79 131.74 353.221 132.619 352.836 132.839C352.507 133.058 346.741 135.31 343.94 136.353Z" fill="#BE0000"/>
<path d="M358.053 183.525L356.515 178.089L354.539 170.236L352.671 159.747L345.807 141.406L346.521 141.131L353.385 159.527L355.252 170.071L357.229 177.869L358.547 182.482C359.316 182.152 360.964 181.274 361.403 179.846L362.117 180.066C361.458 182.262 358.547 183.305 358.438 183.36L358.053 183.525Z" fill="#BE0000"/>
<path d="M310.827 246.128L310.113 245.908L312.474 238.22L313.792 217.517L312.969 203.239L310.333 170.565C309.729 154.146 303.359 144.535 303.304 144.426L303.908 143.986C303.963 144.096 310.443 153.871 311.102 170.51L313.737 203.184L314.561 217.517L313.243 238.385L310.827 246.128Z" fill="#BE0000"/>
<path d="M362.007 242.449L361.403 238.769L357.449 215.76L351.793 183.086L347.785 164.085L342.568 150.906L343.282 150.631L348.498 163.921L352.507 182.976L358.163 215.595L362.721 242.339L362.007 242.449Z" fill="#BE0000"/>
<path d="M260.25 247.94L259.536 247.775L262.117 236.627L310.991 242.228L310.936 242.997L262.721 237.396L260.25 247.94Z" fill="#BE0000"/>
<path d="M271.014 165.239C271.014 165.239 287.708 180.23 290.069 205.546L294.792 229.654L295.286 237.342C295.286 237.342 295.176 243.217 295.121 243.547C295.012 243.876 294.353 248.709 294.353 248.709L254.924 249.313L257.56 236.079L257.944 233.552L257.395 230.038L256.901 227.896C256.901 227.896 260.69 232.454 268.543 232.125C268.543 232.125 274.309 231.301 277.933 223.064L280.898 216.804L282.656 210.708L283.315 206.04L283.479 200.988C283.479 200.988 282.491 194.563 277.713 190.994C277.823 191.049 279.031 178.967 271.014 165.239Z" fill="#BE0000"/>
<mask id="mask1_282_6379" style="mask-type:luminance" maskUnits="userSpaceOnUse" x="16" y="44" width="545" height="269">
<path d="M52.8925 311.915C52.8925 311.915 -10.1496 263.755 29.993 202.69C70.1357 141.625 65.8523 166.007 102.041 101.812C136.967 39.8682 218.295 35.2005 258.548 55.7935C298.8 76.4414 295.78 110.598 379.086 116.804C450.365 122.075 503.522 141.241 526.586 166.337C566.18 209.39 573.758 206.26 537.075 312.025L52.8925 311.915Z" fill="white"/>
</mask>
<g mask="url(#mask1_282_6379)">
<path d="M181.887 315.87V278.583L406.543 298.846L423.786 300.878L583.972 269.577V312.63L181.887 315.87Z" fill="black"/>
<path d="M423.786 307.467L132.244 307.028L132.354 255.848L423.786 289.071V307.467Z" fill="#AAAAAA"/>
<path d="M434.659 234.98L583.258 245.633L583.149 261.284L423.786 289.071L132.354 255.847L434.659 234.98Z" fill="#6C6C6C"/>
</g>
<path d="M308.026 118.176C304.127 118.176 300.283 117.682 296.494 116.804C293.144 115.98 289.245 114.827 285.84 112.63C283.534 111.147 280.623 108.731 279.69 105.546C279.635 105.326 279.745 105.162 279.964 105.107C280.184 105.052 280.349 105.162 280.404 105.381C281.282 108.347 284.028 110.653 286.225 112.081C289.574 114.277 293.364 115.376 296.658 116.199C301.381 117.353 306.268 117.792 311.156 117.462C313.133 117.353 315.384 117.078 317.471 116.09C319.997 114.881 321.205 112.685 322.413 110.159C323.731 107.358 323.292 104.722 321.26 103.075C321.26 103.075 317.087 100.494 318.185 96.4302C318.24 96.2105 318.46 96.1007 318.624 96.1556C318.844 96.2105 318.954 96.4302 318.899 96.5949C317.965 100.109 321.535 102.306 321.699 102.416C324.061 104.228 324.555 107.303 323.127 110.433C321.864 113.124 320.601 115.431 317.855 116.749C315.714 117.792 313.352 118.067 311.266 118.176C310.167 118.176 309.124 118.176 308.026 118.176Z" fill="#944620"/>
<path d="M319.284 96.9245C319.174 96.9245 319.064 96.8696 319.009 96.8147C318.954 96.7598 315.055 92.6961 312.584 91.488C312.419 91.3782 312.31 91.1585 312.419 90.9938C312.529 90.829 312.749 90.7192 312.914 90.829C315.495 92.092 319.394 96.1557 319.558 96.3205C319.723 96.4852 319.723 96.7049 319.558 96.8696C319.503 96.9245 319.394 96.9245 319.284 96.9245Z" fill="#BE0000"/>
<path d="M314.177 105.162C313.957 105.162 313.792 104.997 313.792 104.832C313.023 89.2364 307.971 67.9296 307.916 67.7099C307.861 67.4902 307.971 67.3255 308.191 67.2706C308.411 67.2157 308.575 67.3255 308.63 67.5452C308.685 67.7648 313.737 89.1266 314.506 104.777C314.561 104.942 314.396 105.107 314.177 105.162Z" fill="#944620"/>
<path d="M298.141 55.0793C298.141 55.0793 300.942 56.8366 301.601 61.1748L302.314 65.8426C302.314 65.8426 303.138 67.9293 303.193 68.149C303.248 68.3687 304.346 69.5768 304.346 69.5768L306.598 69.7415L308.63 67.4351C308.63 67.4351 306.872 58.9782 298.141 51.8942C289.794 45.0848 298.141 55.0793 298.141 55.0793Z" fill="black"/>
<path d="M269.531 88.8519C269.531 88.8519 257.285 101.977 268.763 121.252L273.87 129.049L274.968 130.203L276.505 131.081L277.384 131.191L289.96 124.272L291.332 125.096L291.607 127.237L298.856 138.714L305.116 145.963L309.235 149.807L312.365 153.157C312.365 153.157 317.252 158.484 319.174 162.493C319.174 162.493 311.98 147.775 302.755 133.882L294.133 123.119L288.257 118.121L283.48 110.269L277.714 99.725L269.531 88.8519Z" fill="#EE0000"/>
<path d="M318.79 162.657C318.79 162.657 318.735 162.493 318.625 162.273C316.648 158.374 312.09 153.432 312.035 153.377L308.905 150.027L304.787 146.183L298.471 138.879L291.168 127.347L290.948 125.315L289.96 124.711L277.494 131.576L276.341 131.411L274.748 130.477L273.595 129.269L268.488 121.471C262.502 111.367 262.997 103.02 264.534 97.7483C266.182 92.0372 269.202 88.7423 269.312 88.6325L269.641 88.303L278.098 99.5056L283.864 110.049L288.587 117.847L294.463 122.844L303.084 133.608C311.376 146.128 318.131 159.472 319.394 161.889C319.449 161.998 319.504 162.163 319.614 162.273L318.79 162.657ZM299.13 138.44L305.336 145.634L309.399 149.478L312.53 152.883C312.639 152.992 314.012 154.475 315.55 156.452C312.585 150.851 307.807 142.284 302.316 134.047L293.749 123.339L287.818 118.286L283.04 110.434L277.329 99.89L269.477 89.5111C267.719 91.7077 258.878 104.009 269.037 121.142L274.144 128.885L275.188 129.928L276.615 130.752L277.274 130.862L289.96 123.888L291.662 124.931L291.937 127.128L299.13 138.44Z" fill="#BE0000"/>
<path d="M302.809 81.9327C302.535 81.9876 298.636 82.1524 298.416 81.9876C298.142 81.8229 295.945 79.4066 295.945 79.4066L293.364 77.7043L291.387 77.0453C291.387 77.0453 289.63 76.7158 289.3 76.7158C288.971 76.7158 287.159 77.0453 287.159 77.0453L285.347 77.7592L283.754 78.2534L278.922 80.0656L271.947 82.2622L269.696 82.5917L267.774 84.0744L266.785 85.3374L266.676 86.4906V87.7537L267.005 88.6872L269.311 91.4329L271.783 95.3319C271.783 95.3319 275.407 100.329 275.682 100.494C275.956 100.659 277.494 103.514 277.494 103.514L280.239 105.601L283.425 106.205L287.104 105.656C287.104 105.656 295.012 104.448 298.526 98.2424L303.743 89.8404L306.928 83.3605L308.466 78.9673C308.356 78.9673 307.203 80.45 302.809 81.9327ZM293.035 94.618C291.607 97.0891 289.191 99.121 286.39 99.5603C284.358 99.8898 282.161 99.3407 280.569 98.0776C279.8 97.4186 279.251 96.5949 278.537 95.881C277.768 95.1671 276.89 94.6729 276.066 94.0139C275.187 93.355 274.473 92.4763 273.869 91.5977C273.65 91.2682 272.442 89.1814 272.716 88.9069C274.034 87.4791 276.121 87.0947 278.043 86.875C280.404 86.875 282.656 85.8316 284.742 84.8432C287.378 83.5801 290.289 82.6466 293.035 81.5483L293.09 81.6032C294.462 82.6466 294.847 84.5686 294.847 86.3259C294.957 89.1815 294.462 92.0919 293.035 94.618Z" fill="black"/>
<path d="M271.397 69.3571L271.672 77.8139L271.452 80.1753C271.452 80.1753 271.507 81.0539 271.617 81.1637C271.727 81.2735 271.946 81.9874 271.946 81.9874L272.605 82.921L273.978 84.4037L274.912 84.6783L276.12 84.6233L277.383 84.184L278.207 83.7447L278.646 83.4701L278.975 83.0308L279.799 82.0973L280.293 81.4932L280.733 81.0539L281.776 80.2851L282.71 79.5163L283.204 78.8024L283.314 78.1434L283.369 77.5394V76.9902L283.149 76.0017L283.039 74.9584L271.397 69.3571Z" fill="#C65E2B"/>
<path d="M275.571 85.1178C275.516 85.1178 275.516 85.1178 275.461 85.1178C274.473 85.0629 273.484 84.6236 272.716 83.7999C272.057 83.1409 271.617 82.2073 271.343 81.1639C271.013 79.846 271.123 78.4182 271.233 77.265C271.288 76.7159 271.233 76.1667 271.233 75.6176C271.233 75.3979 271.233 75.1233 271.178 74.9037L271.013 69.3573C271.013 69.1376 271.178 68.9729 271.398 68.9729C271.617 68.9729 271.782 69.1376 271.782 69.3573L271.947 74.9037C271.947 75.1233 271.947 75.3979 272.002 75.6176C272.057 76.1667 272.057 76.7708 272.002 77.3199C271.892 78.4731 271.837 79.7911 272.111 80.9992C272.331 81.9328 272.716 82.7016 273.265 83.3056C273.869 83.9646 274.692 84.349 275.461 84.349C276.175 84.349 276.944 84.1294 277.768 83.5802C278.536 83.086 279.195 82.427 279.854 81.768L281.612 80.0657C281.722 79.9558 281.886 79.846 281.996 79.6813C282.381 79.3518 282.71 79.0223 282.93 78.6928C283.04 78.528 283.259 78.4731 283.479 78.583C283.644 78.6928 283.698 78.9125 283.589 79.1321C283.259 79.5714 282.875 79.9009 282.545 80.2304C282.435 80.3402 282.271 80.4501 282.161 80.5599L280.404 82.2622C279.745 82.9212 279.031 83.5802 278.207 84.1294C277.273 84.8432 276.395 85.1178 275.571 85.1178Z" fill="#944620"/>
<path d="M361.019 198.736L356.955 204.338L360.25 220.483L361.678 220.373L361.184 205.491L361.019 198.736Z" fill="#EE0000"/>
<path d="M361.391 196.424L360.623 196.446L361.31 220.599L362.078 220.577L361.391 196.424Z" fill="#BE0000"/>
<path d="M239.108 163.261L238.284 165.842L237.955 167.545L237.845 168.478L237.46 169.412C237.46 169.412 237.35 170.4 237.296 170.62C237.241 170.785 237.241 171.499 237.241 171.499L237.57 173.421L237.735 175.288C237.735 175.288 238.009 177.1 238.174 177.265C238.339 177.429 238.778 178.473 238.778 178.473L239.163 179.351L238.888 184.184L237.241 182.262L234.934 178.802L233.452 175.562C233.452 175.562 231.584 169.687 235.923 165.513C235.923 165.513 238.009 162.932 239.108 163.261Z" fill="#BE0000"/>
<path d="M359.151 204.447L361.787 200.329C361.787 200.329 374.967 192.037 382.106 199.56L386.224 205.93C388.86 209.28 391.496 212.575 393.912 216.089C394.187 216.474 394.461 216.858 394.791 217.243C395.23 217.737 395.779 218.121 396.274 218.561C397.262 219.329 398.141 220.153 399.019 221.087C399.294 221.361 399.569 221.636 399.843 221.8C400.118 221.965 400.392 222.075 400.667 222.185C405.829 224.052 411.101 223.722 416.537 223.668C418.294 223.613 420.052 223.613 421.809 223.558C423.182 223.503 424.39 223.503 425.708 223.283C427.575 222.954 429.442 222.679 431.254 222.35C431.803 222.24 432.298 222.185 432.847 222.185C433.616 222.185 434.384 222.405 435.098 222.679C436.636 223.228 438.064 224.052 439.546 224.766L443.83 226.358C446.411 227.457 449.047 228.884 451.847 229.269C452.342 229.324 452.781 229.434 453.275 229.489C453.769 229.598 454.318 229.543 454.813 229.653C455.966 229.983 455.417 231.575 455.142 232.454C454.758 233.552 453.55 233.937 452.506 234.211C453.001 234.101 453.824 234.596 454.044 235.035C454.318 235.584 454.044 236.298 453.769 236.847C453.275 237.726 452.287 237.89 451.353 238C449.321 238.165 447.015 237.561 444.983 237.286L439.217 235.804C436.746 235.2 433.945 235.035 431.419 234.98C429.442 234.98 427.41 235.255 425.433 235.419C424.115 235.529 422.907 235.968 421.699 236.353C421.644 238.11 422.358 240.307 420.656 241.57C420.052 242.009 419.173 242.009 418.404 241.954C417.471 241.899 416.537 241.844 415.549 241.844C412.638 241.735 410.002 240.142 407.092 240.307C405.225 240.417 403.358 240.471 401.491 240.197C399.953 239.922 398.47 239.373 397.042 238.824C395.505 238.22 393.857 237.836 392.375 237.067C391.496 236.627 390.672 235.914 389.849 235.309C388.036 233.992 386.334 232.399 384.412 231.136C381.117 228.939 377.328 227.786 373.759 226.194C371.452 225.15 369.311 224.052 367.279 222.405C365.137 220.647 362.995 218.89 360.909 216.968L359.151 204.447Z" fill="#C65E2B"/>
<path d="M419.063 242.393C418.844 242.393 418.624 242.393 418.459 242.393C417.8 242.339 417.141 242.339 416.482 242.284L415.658 242.229C414.286 242.174 413.023 241.789 411.76 241.46C410.222 241.021 408.794 240.581 407.257 240.691C405.554 240.801 403.577 240.911 401.6 240.581C400.227 240.362 398.855 239.867 397.592 239.373L397.097 239.208C396.603 239.044 396.054 238.824 395.56 238.659C394.516 238.33 393.418 237.945 392.375 237.396C391.716 237.067 391.057 236.572 390.453 236.133C390.233 235.968 390.013 235.804 389.794 235.639C388.97 235.035 388.146 234.376 387.377 233.772C386.389 233.003 385.401 232.179 384.412 231.52C382.161 230.038 379.634 228.994 377.218 228.061C376.065 227.621 374.912 227.127 373.759 226.633C371.233 225.48 369.146 224.381 367.224 222.789L366.894 222.514C364.862 220.867 362.831 219.165 360.854 217.352L360.744 217.243L358.822 204.447L361.568 200.109L361.622 200.054C361.732 199.944 375.131 191.707 382.38 199.395L382.435 199.45L386.554 205.82C389.135 209.06 391.825 212.465 394.242 215.979C394.516 216.364 394.791 216.748 395.065 217.078C395.45 217.462 395.834 217.847 396.274 218.176L396.493 218.341C397.482 219.11 398.415 219.988 399.294 220.867L399.349 220.922C399.568 221.141 399.788 221.416 400.063 221.581C400.282 221.746 400.557 221.8 400.832 221.91C405.389 223.558 410.002 223.503 414.89 223.393C415.439 223.393 415.988 223.393 416.592 223.393L421.864 223.283C423.127 223.283 424.39 223.228 425.708 223.009L431.254 222.075C431.803 221.965 432.353 221.91 432.902 221.91C433.725 221.91 434.549 222.185 435.263 222.405C436.361 222.789 437.35 223.338 438.338 223.832C438.778 224.052 439.217 224.272 439.711 224.491L443.94 226.084C444.544 226.358 445.093 226.578 445.642 226.853C447.619 227.786 449.706 228.72 451.847 228.994C452.341 229.049 452.836 229.159 453.275 229.214C453.495 229.269 453.714 229.269 453.934 229.269C454.263 229.269 454.538 229.324 454.868 229.379C455.252 229.489 455.527 229.708 455.691 230.038C456.076 230.752 455.746 231.74 455.417 232.674C455.142 233.497 454.483 233.992 453.714 234.321C453.989 234.486 454.209 234.76 454.318 234.98C454.593 235.584 454.483 236.298 454.044 237.122C453.495 238.11 452.341 238.385 451.353 238.44C449.815 238.604 448.223 238.275 446.63 238C446.026 237.89 445.422 237.781 444.873 237.726C439.052 236.243 439.052 236.243 439.052 236.243C436.471 235.584 433.396 235.474 431.364 235.474C430.046 235.474 428.673 235.584 427.355 235.694C426.696 235.749 426.037 235.804 425.378 235.859C424.39 235.914 423.401 236.243 422.468 236.518C422.303 236.573 422.138 236.627 421.974 236.682C421.974 237.012 422.029 237.341 422.029 237.671C422.138 239.153 422.248 240.856 420.82 241.899C420.381 242.284 419.722 242.393 419.063 242.393ZM407.641 239.922C409.124 239.922 410.551 240.307 411.924 240.746C413.132 241.076 414.395 241.46 415.658 241.515L416.482 241.57C417.141 241.57 417.8 241.625 418.514 241.68C419.228 241.734 419.997 241.734 420.546 241.35C421.699 240.526 421.589 239.153 421.479 237.781C421.425 237.341 421.425 236.847 421.425 236.408V236.133L421.699 236.078C421.974 236.023 422.193 235.914 422.468 235.859C423.456 235.529 424.445 235.2 425.543 235.145C426.202 235.09 426.806 235.035 427.465 234.98C428.783 234.87 430.211 234.705 431.529 234.705C433.616 234.705 436.746 234.815 439.382 235.529C439.437 235.529 445.148 237.012 445.148 237.012C445.697 237.067 446.301 237.177 446.905 237.286C448.443 237.561 449.98 237.836 451.408 237.726C452.287 237.671 453.11 237.451 453.55 236.737C453.769 236.298 454.044 235.749 453.824 235.309C453.659 234.98 453 234.65 452.726 234.705L452.561 233.991C453.605 233.717 454.593 233.387 454.922 232.454C455.087 232.015 455.472 230.916 455.197 230.422C455.142 230.312 455.032 230.202 454.813 230.147C454.593 230.093 454.318 230.093 454.044 230.038C453.769 230.038 453.55 230.038 453.275 229.983C452.836 229.928 452.341 229.818 451.902 229.763C449.651 229.434 447.509 228.5 445.477 227.567C444.928 227.292 444.379 227.072 443.775 226.798L439.491 225.205C438.997 224.985 438.558 224.711 438.064 224.491C437.075 223.997 436.087 223.503 435.043 223.118C434.439 222.899 433.67 222.679 432.902 222.624C432.407 222.624 431.858 222.679 431.364 222.789L425.818 223.722C424.39 223.942 423.127 223.997 421.864 224.052L416.592 224.162C416.043 224.162 415.494 224.162 414.89 224.162C410.167 224.217 405.28 224.327 400.557 222.624C400.282 222.514 399.953 222.405 399.623 222.185C399.294 221.965 399.019 221.691 398.745 221.416L398.69 221.361C397.811 220.482 396.933 219.659 395.944 218.89L395.724 218.725C395.285 218.341 394.791 218.011 394.407 217.517C394.077 217.133 393.802 216.748 393.528 216.364C391.112 212.849 388.421 209.5 385.84 206.205L381.721 199.835C375.131 192.915 362.995 199.999 362.007 200.603L359.481 204.557L361.293 216.858C363.215 218.615 365.137 220.208 367.169 221.91L367.498 222.185C369.365 223.722 371.397 224.821 373.868 225.919C374.967 226.413 376.175 226.908 377.273 227.347C379.744 228.335 382.27 229.379 384.577 230.916C385.62 231.63 386.664 232.454 387.597 233.223C388.366 233.827 389.19 234.486 389.958 235.09C390.178 235.255 390.398 235.419 390.617 235.584C391.221 236.023 391.826 236.463 392.43 236.792C393.418 237.286 394.461 237.671 395.505 238C396.054 238.165 396.548 238.33 397.042 238.549L397.537 238.769C398.8 239.263 400.063 239.703 401.381 239.922C403.303 240.252 405.225 240.142 406.872 240.032C407.311 239.922 407.476 239.922 407.641 239.922Z" fill="#944620"/>
<path d="M394.571 237.78C394.571 237.78 395.395 237.78 394.955 236.462L393.912 234.211L392.539 232.179L390.892 230.587L389.519 229.104L384.467 225.809L375.131 219.878L369.914 215.65L366.564 212.135L363.434 208.84L359.59 204.832L359.426 206.589L360.579 213.508L361.018 216.913L363.599 219.109L367.059 221.855L369.859 224.107L375.241 226.688L379.634 228.39L383.478 230.312L386.663 232.454L389.848 235.144L392.539 236.957L394.571 237.78Z" fill="#944620"/>
<path d="M291.716 260.405L311.596 257.605C311.596 257.605 311.925 260.57 317.032 260.954C322.139 261.284 317.252 261.119 317.252 261.119L346.137 262.767C346.137 262.767 353.605 262.657 352.946 264.689C352.946 264.689 354.264 267.544 347.455 267.489L336.527 268.038C336.527 268.038 332.848 268.038 327.521 267.489L292.211 262.712C292.211 262.712 288.861 262.657 288.971 261.504C288.971 261.504 288.641 260.515 291.716 260.405Z" fill="#4D4D4D"/>
<path d="M296.494 259.197L311.376 257.055C311.376 257.055 314.78 256.122 319.613 256.616C324.445 257.11 319.833 256.891 319.833 256.891L347.07 259.197C347.07 259.197 354.154 259.032 353.495 261.943C353.495 261.943 354.758 266.007 348.333 265.952L338.009 266.72C338.009 266.72 334.495 266.72 329.498 265.952L296.988 262.437C296.988 262.437 293.803 262.327 293.913 260.68C293.913 260.68 293.583 259.362 296.494 259.197Z" fill="black"/>
<path d="M357.229 243.327L364.643 245.139L369.86 244.92L377.987 245.689L386.115 246.018L394.516 245.689L413.133 245.085L423.017 246.018L429.168 244.371L429.827 246.622H431.09L435.098 252.937C435.098 252.937 435.702 254.31 433.286 254.53L423.786 255.628L390.178 254.695L354.594 254.365L356.79 246.787L357.229 243.327Z" fill="#4D4D4D"/>
<path d="M359.536 242.229L366.95 244.041L372.166 243.821L380.294 244.59L388.421 244.92L396.823 244.59L415.439 243.986L425.324 244.92L431.474 243.272L432.133 245.524H433.396L437.405 251.839C437.405 251.839 438.009 253.212 435.593 253.431L426.093 254.53L392.485 253.596L356.9 253.267L359.097 245.688L359.536 242.229Z" fill="white"/>
<path d="M343.831 253.761L365.687 252.717C365.687 252.717 367.773 252.717 367.938 253.925C367.938 253.925 368.268 255.573 366.016 255.683L344.325 256.891C344.325 256.891 340.316 256.891 337.186 255.957C337.131 256.012 334.989 255.628 343.831 253.761Z" fill="#4D4D4D"/>
<path d="M367.06 252.388L370.3 252.058C370.3 252.058 371.068 252.058 371.123 252.388C371.123 252.388 371.288 253.157 370.519 253.157L367.719 253.486L367.06 252.388Z" fill="#025C76"/>
<path d="M345.478 252.333L367.334 251.07C367.334 251.07 369.421 251.07 369.586 252.498C369.586 252.498 369.915 254.42 367.664 254.584L345.972 256.012C345.972 256.012 341.963 256.012 338.833 254.914C338.833 254.914 336.692 254.475 345.478 252.333Z" fill="#EE0000"/>
<path d="M361.568 254.969L366.675 254.64C366.785 253.706 366.895 252.388 366.51 251.125L360.964 251.455C361.293 252.169 361.678 253.322 361.568 254.969Z" fill="#BE0000"/>
</g>
</svg>
