<?xml version="1.0" encoding="UTF-8"?><svg id="Layer_1" xmlns="http://www.w3.org/2000/svg" xmlns:xlink="http://www.w3.org/1999/xlink" viewBox="0 0 612 792"><defs><style>.cls-1,.cls-2{fill:none;}.cls-3{clip-path:url(#clippath);}.cls-4{fill:#fff;}.cls-5{fill:#ed1c24;}.cls-2{clip-rule:evenodd;}.cls-6{clip-path:url(#clippath-1);}</style><clipPath id="clippath"><path class="cls-2" d="m38.34,37.89h-12.54c-1.87,0-3.63-.22-5.23-.65-1.66-.45-3.1-1.18-4.28-2.16-1.2-1-2.15-2.28-2.81-3.8-.67-1.54-1-3.37-1-5.44v-14.15c0-.44.4-.8.9-.8h8.05c.5,0,.9.36.9.8v14.34c0,1.39.31,2.48.91,3.24.54.68,1.41,1,2.65,1h3.49V11.69c0-.44.4-.8.9-.8h8.05c.5,0,.9.36.9.8v25.41c0,.44-.4.8-.9.8ZM14.28,12.48v13.35c0,1.87.3,3.51.88,4.87.56,1.3,1.35,2.38,2.36,3.21,1,.83,2.17,1.41,3.58,1.8,1.43.39,3.01.58,4.7.58h11.64V12.48h-6.25v18.58c0,.44-.4.8-.9.8h-4.39c-1.85,0-3.24-.56-4.13-1.68-.83-1.03-1.24-2.43-1.24-4.15v-13.54h-6.25Zm67.91,25.41h-9.22c-.5,0-.9-.36-.9-.8V11.69c0-.44.4-.8.9-.8h9.96c2.28,0,4.39.22,6.29.64,1.95.44,3.63,1.2,4.99,2.25,1.37,1.07,2.44,2.48,3.18,4.18.73,1.68,1.1,3.79,1.1,6.27s-.35,4.57-1.05,6.32c-.71,1.78-1.79,3.22-3.19,4.29-1.43,1.09-3.17,1.88-5.17,2.35-1.97.46-4.29.7-6.88.7Zm-8.32-1.59h8.32c2.43,0,4.59-.22,6.41-.64,1.73-.41,3.23-1.08,4.46-2.02,1.18-.9,2.05-2.08,2.67-3.62h0c.63-1.57.95-3.52.95-5.79s-.33-4.2-.98-5.7c-.63-1.46-1.54-2.66-2.68-3.56-1.14-.88-2.57-1.52-4.25-1.91-1.75-.39-3.71-.59-5.84-.59h-9.06v23.82Zm8.79-4.44h-1.71c-.5,0-.9-.36-.9-.8v-13.36c0-.44.4-.8.9-.8h1.94c1.34,0,2.44.14,3.37.42.99.3,1.8.78,2.43,1.42.61.63,1.04,1.41,1.31,2.39,0,0,0,0,0,0,.24.9.37,1.95.39,3.2,0,1.37-.13,2.48-.39,3.39-.26.97-.74,1.79-1.42,2.42-.68.62-1.53,1.07-2.54,1.33-.97.25-2.11.38-3.39.38Zm-.81-1.59h.81c1.11,0,2.08-.1,2.89-.31.7-.18,1.29-.48,1.74-.9.45-.42.78-.99.97-1.7.23-.78.34-1.79.34-3-.02-1.12-.13-2.05-.34-2.84-.2-.73-.5-1.3-.92-1.73-.42-.43-.96-.74-1.65-.95-.74-.23-1.65-.33-2.79-.33h-1.04v11.77Zm-20.58-5.85l8.55-12.04c.21-.3.22-.67.03-.98-.19-.31-.56-.5-.96-.5h-8.56c-.38,0-.73.17-.93.45l-3.75,5.26-3.74-5.25c-.2-.28-.55-.45-.93-.45h-8.56c-.4,0-.77.19-.96.5-.19.31-.18.68.03.98l8.54,12.08-8.54,11.96c-.21.3-.23.67-.03.98.19.31.56.5.96.5h8.66c.38,0,.73-.17.93-.45l3.64-5.14,3.64,5.14c.2.28.55.45.93.45h8.66c.4,0,.77-.19.96-.5.19-.31.18-.69-.03-.98l-8.54-11.99Zm-.54-11.93h6.6l-9.25,8.93-1.85-2.61,2.66-3.74,1.84-2.58Zm-3.33,9.57l-1.62,1.56-1.8-1.71,1.66-2.32,1.75,2.47Zm-.81,2.32l7.92-7.53-6.34,9.03-1.58-1.5Zm-10.03-7.88l8.31,7.99-1.59,1.54-6.72-9.53Zm6.04,10.18l-6.5,6.27,5.47-7.66s.02-.03.02-.04l1.01,1.42Zm3.06-1.43l1.75,1.68-1.72,2.42-.04-.05-.03.04-1.72-2.42,1.75-1.67Zm3.18,1.26l.86-1.21,4.37,6.16-5.23-4.95Zm-14.8,9.78l9.19-8.73,1.83,2.57-4.36,6.16h-6.65Zm16.57,0l-4.36-6.14.8-1.12,1.03-1.45,9.06,8.71h-6.53Zm-5.54-17.51l-1.77,2.48-9.27-8.79h6.57l2.63,3.69,1.86,2.62Z"/></clipPath><clipPath id="clippath-1"><rect class="cls-1" x="12.48" y="10.89" width="86" height="27"/></clipPath></defs><g class="cls-3"><g class="cls-6"><rect class="cls-5" x="11.48" y="9.89" width="88" height="29"/></g></g><g><path class="cls-4" d="m12.1,59.57v-12.6h4.18c.92,0,1.77.16,2.55.49.77.32,1.44.77,1.99,1.32.55.56.98,1.22,1.3,2s.47,1.61.47,2.49-.15,1.72-.46,2.49c-.31.77-.74,1.44-1.29,2-.55.56-1.22,1-2,1.32-.78.32-1.63.49-2.56.49h-4.18Zm4.27-11.36h-2.88v10.12h2.88c.67,0,1.3-.13,1.89-.39s1.1-.61,1.53-1.06c.43-.45.77-.98,1.02-1.6.25-.62.37-1.29.37-2.01s-.12-1.39-.37-2.01c-.25-.62-.58-1.15-1.02-1.6s-.94-.8-1.53-1.06-1.22-.39-1.89-.39Z"/><path class="cls-4" d="m32.2,58.57c-.5.4-1.03.69-1.57.88s-1.12.29-1.73.29-1.19-.12-1.72-.35c-.53-.23-1-.55-1.39-.96-.39-.41-.7-.89-.92-1.45-.22-.56-.33-1.16-.33-1.79s.1-1.23.31-1.79c.21-.56.5-1.04.87-1.44.37-.4.81-.72,1.31-.95.5-.23,1.05-.35,1.64-.35s1.11.11,1.6.34c.49.23.92.54,1.28.93.36.39.64.86.85,1.4s.31,1.13.31,1.75v.4h-6.89c.06.89.39,1.63.99,2.22.6.59,1.31.89,2.14.89.46,0,.9-.08,1.32-.24.43-.16.79-.38,1.09-.66l.83.88Zm-3.53-6.79c-.72,0-1.34.26-1.85.77-.52.52-.83,1.18-.95,1.98h5.56c-.1-.79-.4-1.45-.91-1.97-.51-.52-1.12-.78-1.84-.78Z"/><path class="cls-4" d="m34.13,58.44l.7-.86c.52.38,1,.66,1.45.84.45.17.91.26,1.38.26.64,0,1.16-.15,1.58-.45.42-.3.63-.68.63-1.13,0-.36-.13-.64-.38-.85s-.65-.36-1.21-.47l-1.44-.25c-.85-.16-1.48-.42-1.88-.79s-.6-.88-.6-1.51c0-.76.3-1.37.89-1.85.59-.48,1.35-.72,2.28-.72.6,0,1.17.09,1.71.27.54.18,1.09.46,1.64.83l-.65.92c-.46-.32-.91-.56-1.37-.71-.46-.15-.92-.22-1.39-.22-.58,0-1.04.13-1.39.38s-.52.59-.52,1.03c0,.36.11.64.33.83.22.19.61.34,1.18.43l1.48.27c.88.16,1.52.43,1.94.81.41.38.62.9.62,1.55,0,.76-.33,1.4-.98,1.93-.65.53-1.47.79-2.44.79-.72,0-1.39-.11-2-.33-.61-.22-1.13-.54-1.57-.96Z"/><path class="cls-4" d="m43.78,48.63c-.26,0-.49-.09-.68-.28-.19-.19-.28-.41-.28-.68s.09-.47.28-.66c.19-.19.41-.28.68-.28s.47.09.66.28c.19.19.28.4.28.66,0,.26-.09.49-.27.68-.18.19-.4.28-.67.28Zm.65,2.16v8.78h-1.31v-8.78h1.31Z"/><path class="cls-4" d="m50.78,59.68c-.56,0-1.1-.12-1.59-.35-.5-.23-.93-.55-1.29-.95-.36-.4-.65-.88-.85-1.43s-.31-1.14-.31-1.76.1-1.21.31-1.76c.21-.55.5-1.03.87-1.43.37-.4.81-.72,1.31-.95s1.04-.35,1.62-.35,1.06.1,1.53.31c.47.21.88.52,1.22.93v-1.13h1.3v9.23c0,1.08-.32,1.91-.96,2.5-.64.59-1.56.88-2.75.88-.59,0-1.18-.08-1.77-.24-.59-.16-1.14-.39-1.65-.67l.56-1.01c.54.28,1.03.48,1.48.61.44.13.89.2,1.33.2.79,0,1.4-.19,1.82-.58.42-.38.63-.94.63-1.67v-1.66c-.34.42-.74.74-1.22.96-.48.22-1.01.33-1.58.33Zm-2.75-4.5c0,.96.29,1.76.88,2.4.59.64,1.32.96,2.2.96.52,0,.99-.1,1.42-.31s.79-.5,1.06-.87v-4.34c-.29-.37-.65-.66-1.09-.87-.44-.21-.9-.32-1.4-.32-.88,0-1.61.32-2.2.95-.59.64-.88,1.43-.88,2.39Z"/><path class="cls-4" d="m57.6,59.57v-8.78h1.31v1.42c.34-.52.74-.91,1.21-1.17.47-.26,1-.4,1.58-.4.94,0,1.7.3,2.29.9.59.6.89,1.38.89,2.34v5.69h-1.31v-5.31c0-.77-.21-1.38-.64-1.84-.43-.46-1-.68-1.72-.68-.48,0-.92.11-1.31.34-.4.23-.73.56-.99,1.01v6.48h-1.31Z"/><path class="cls-4" d="m77.83,58.51c.72,0,1.42-.15,2.09-.45.67-.3,1.24-.73,1.69-1.28l.9.92c-.61.66-1.33,1.17-2.14,1.53-.82.36-1.67.54-2.57.54s-1.74-.17-2.53-.51c-.79-.34-1.46-.8-2.03-1.39-.57-.58-1.02-1.27-1.35-2.06s-.5-1.64-.5-2.54.17-1.75.5-2.55.78-1.49,1.36-2.07c.58-.58,1.25-1.04,2.03-1.38.78-.34,1.62-.5,2.52-.5s1.8.18,2.63.54c.83.36,1.54.87,2.12,1.53l-.92.95c-.47-.55-1.04-.98-1.73-1.3-.68-.31-1.39-.47-2.11-.47s-1.37.13-1.98.41c-.61.27-1.14.64-1.58,1.11-.44.47-.79,1.02-1.05,1.67-.26.64-.39,1.33-.39,2.06s.13,1.42.39,2.06c.26.64.61,1.2,1.05,1.67.44.47.97.84,1.59,1.11.62.27,1.29.41,2.01.41Z"/><path class="cls-4" d="m84.4,55.18c0-.65.11-1.25.32-1.8.22-.55.51-1.03.89-1.44s.83-.73,1.36-.95c.53-.23,1.09-.34,1.69-.34s1.18.11,1.7.34c.52.23.98.55,1.36.95.38.41.68.89.9,1.44.22.55.32,1.15.32,1.8s-.11,1.25-.33,1.82c-.22.56-.52,1.05-.9,1.45s-.83.72-1.36.95c-.53.23-1.09.35-1.69.35s-1.16-.12-1.68-.35-.97-.55-1.35-.96-.68-.89-.9-1.45c-.22-.56-.33-1.16-.33-1.81Zm4.27,3.4c.85,0,1.56-.32,2.13-.96.57-.64.85-1.45.85-2.42s-.29-1.78-.85-2.43c-.57-.65-1.28-.97-2.13-.97s-1.56.32-2.12.97c-.56.65-.85,1.46-.85,2.43s.28,1.78.85,2.42c.56.64,1.27.96,2.12.96Z"/><path class="cls-4" d="m95.25,59.57v-8.78h1.31v1.42c.34-.52.74-.91,1.21-1.17.47-.26,1-.4,1.58-.4.94,0,1.7.3,2.29.9.59.6.89,1.38.89,2.34v5.69h-1.31v-5.31c0-.77-.21-1.38-.64-1.84-.43-.46-1-.68-1.72-.68-.48,0-.92.11-1.31.34-.4.23-.73.56-.99,1.01v6.48h-1.31Z"/><path class="cls-4" d="m107.71,59.57l-3.6-8.78h1.42l2.84,7.15,2.81-7.15h1.4l-3.62,8.78h-1.26Z"/><path class="cls-4" d="m121.46,58.57c-.5.4-1.03.69-1.57.88s-1.12.29-1.73.29-1.19-.12-1.72-.35c-.53-.23-1-.55-1.39-.96-.39-.41-.7-.89-.92-1.45-.22-.56-.33-1.16-.33-1.79s.1-1.23.31-1.79c.21-.56.5-1.04.87-1.44.37-.4.81-.72,1.31-.95.5-.23,1.05-.35,1.64-.35s1.11.11,1.6.34c.49.23.92.54,1.28.93.36.39.64.86.85,1.4s.31,1.13.31,1.75v.4h-6.89c.06.89.39,1.63.99,2.22.6.59,1.31.89,2.14.89.46,0,.9-.08,1.32-.24.43-.16.79-.38,1.09-.66l.83.88Zm-3.53-6.79c-.72,0-1.34.26-1.85.77-.52.52-.83,1.18-.95,1.98h5.56c-.1-.79-.4-1.45-.91-1.97-.51-.52-1.12-.78-1.84-.78Z"/><path class="cls-4" d="m124.23,59.57v-8.78h1.31v1.42c.34-.52.74-.91,1.21-1.17.47-.26,1-.4,1.58-.4.94,0,1.7.3,2.29.9.59.6.89,1.38.89,2.34v5.69h-1.31v-5.31c0-.77-.21-1.38-.64-1.84-.43-.46-1-.68-1.72-.68-.48,0-.92.11-1.31.34-.4.23-.73.56-.99,1.01v6.48h-1.31Z"/><path class="cls-4" d="m135.21,57.59v-5.72h-1.82v-1.08h1.82v-2.41l1.31-.31v2.72h2.52v1.08h-2.52v5.38c0,.47.1.8.3,1.01.2.21.52.31.98.31.23,0,.43-.02.61-.05.18-.04.39-.1.63-.18v1.17c-.24.08-.49.14-.76.18-.26.04-.52.05-.77.05-.76,0-1.33-.18-1.72-.55-.39-.37-.58-.9-.58-1.59Z"/><path class="cls-4" d="m141.64,48.63c-.26,0-.49-.09-.68-.28-.19-.19-.28-.41-.28-.68s.09-.47.28-.66c.19-.19.41-.28.68-.28s.47.09.66.28c.19.19.28.4.28.66,0,.26-.09.49-.27.68-.18.19-.4.28-.67.28Zm.65,2.16v8.78h-1.31v-8.78h1.31Z"/><path class="cls-4" d="m144.59,55.18c0-.65.11-1.25.32-1.8.22-.55.51-1.03.89-1.44s.83-.73,1.36-.95c.53-.23,1.09-.34,1.69-.34s1.18.11,1.7.34c.52.23.98.55,1.36.95.38.41.68.89.9,1.44.22.55.32,1.15.32,1.8s-.11,1.25-.33,1.82c-.22.56-.52,1.05-.9,1.45s-.83.72-1.36.95c-.53.23-1.09.35-1.69.35s-1.16-.12-1.68-.35-.97-.55-1.35-.96-.68-.89-.9-1.45c-.22-.56-.33-1.16-.33-1.81Zm4.27,3.4c.85,0,1.56-.32,2.13-.96.57-.64.85-1.45.85-2.42s-.29-1.78-.85-2.43c-.57-.65-1.28-.97-2.13-.97s-1.56.32-2.12.97c-.56.65-.85,1.46-.85,2.43s.28,1.78.85,2.42c.56.64,1.27.96,2.12.96Z"/><path class="cls-4" d="m155.45,59.57v-8.78h1.31v1.42c.34-.52.74-.91,1.21-1.17.47-.26,1-.4,1.58-.4.94,0,1.7.3,2.29.9.59.6.89,1.38.89,2.34v5.69h-1.31v-5.31c0-.77-.21-1.38-.64-1.84-.43-.46-1-.68-1.72-.68-.48,0-.92.11-1.31.34-.4.23-.73.56-.99,1.01v6.48h-1.31Z"/><path class="cls-4" d="m164.54,58.44l.7-.86c.52.38,1,.66,1.45.84.45.17.91.26,1.38.26.64,0,1.16-.15,1.58-.45.42-.3.63-.68.63-1.13,0-.36-.13-.64-.38-.85s-.65-.36-1.21-.47l-1.44-.25c-.85-.16-1.48-.42-1.88-.79s-.6-.88-.6-1.51c0-.76.3-1.37.89-1.85.59-.48,1.35-.72,2.28-.72.6,0,1.17.09,1.71.27.54.18,1.09.46,1.64.83l-.65.92c-.46-.32-.91-.56-1.37-.71-.46-.15-.92-.22-1.39-.22-.58,0-1.04.13-1.39.38s-.52.59-.52,1.03c0,.36.11.64.33.83.22.19.61.34,1.18.43l1.48.27c.88.16,1.52.43,1.94.81.41.38.62.9.62,1.55,0,.76-.33,1.4-.98,1.93-.65.53-1.47.79-2.44.79-.72,0-1.39-.11-2-.33-.61-.22-1.13-.54-1.57-.96Z"/></g></svg>