<svg width="293" height="280" viewBox="0 0 293 280" fill="none" xmlns="http://www.w3.org/2000/svg">
<path d="M31.6364 279.639C31.6364 279.639 -16.0547 229.29 14.315 170.086C44.6889 110.881 85.4404 140.674 83.4946 71.7528C81.5446 2.83173 177.27 -3.05654 207.733 16.9356C238.196 36.9319 240.88 49.8064 303.785 41.8664C366.691 33.9263 395.941 92.5885 375.271 133.289C351.124 180.832 423.861 185.44 368.594 279.754L31.6364 279.639Z" fill="#DEDEDE" fill-opacity="0.25"/>
<path d="M317.77 135.625C352.215 135.625 380.138 107.702 380.138 73.2578C380.138 38.8133 352.215 10.8905 317.77 10.8905C283.326 10.8905 255.403 38.8133 255.403 73.2578C255.403 107.702 283.326 135.625 317.77 135.625Z" fill="#C9C9C9"/>
<path d="M307.906 113.606C334.985 113.606 356.937 91.6545 356.937 64.5756C356.937 37.4967 334.985 15.5449 307.906 15.5449C280.827 15.5449 258.875 37.4967 258.875 64.5756C258.875 91.6545 280.827 113.606 307.906 113.606Z" fill="#DEDEDE"/>
<path d="M268.125 35.8423C268.125 35.8423 254.627 54.2659 256.013 73.2575" stroke="#6C6C6C" stroke-width="2.75" stroke-miterlimit="10" stroke-linecap="round"/>
<path d="M306.829 43.4011C309.211 40.1496 308.508 35.584 305.256 33.2016C302.005 30.8191 297.439 31.5229 295.057 34.7743C295.057 34.7743 293.747 36.0503 293.526 39.624L292.225 50.9808L302.666 46.3219C306.002 45.0375 306.829 43.4011 306.829 43.4011Z" fill="#C9C9C9"/>
<path d="M274.653 56.017C277.036 52.7655 276.332 48.1999 273.08 45.8174C269.829 43.435 265.263 44.1387 262.881 47.3902C262.881 47.3902 261.571 48.6662 261.351 52.2398L260.049 63.5967L270.49 58.9378C273.831 57.6533 274.653 56.017 274.653 56.017Z" fill="#C9C9C9"/>
<path d="M302.653 89.5575C305.036 86.306 304.332 81.7404 301.081 79.358C297.829 76.9755 293.264 77.6792 290.881 80.9307C290.881 80.9307 289.571 82.2067 289.351 85.7804L288.049 97.1372L298.49 92.4783C301.831 91.1896 302.653 89.5575 302.653 89.5575Z" fill="#C9C9C9"/>
<path d="M283.094 72.9995C283.094 107.066 298.427 134.68 317.342 134.68C336.258 134.68 351.591 107.066 351.591 72.9995C351.591 48.3061 343.536 27.004 331.9 17.1521" stroke="#6C6C6C" stroke-width="2.75" stroke-miterlimit="10" stroke-linecap="round"/>
<path d="M377.153 92.1819C363.121 99.4055 341.417 104.039 317.05 104.039C293.67 104.039 272.741 99.7743 258.688 93.0509" stroke="#6C6C6C" stroke-width="2.75" stroke-miterlimit="10" stroke-linecap="round"/>
<path d="M148.893 279.373C183.078 275.333 178.572 241.86 178.572 241.86H216.335C216.335 241.86 211.829 275.333 246.014 279.373H148.893Z" fill="#6C6C6C"/>
<path d="M220.116 263.171H174.795C170.916 270.665 163.379 277.66 148.893 279.373H246.014C231.532 277.66 223.995 270.665 220.116 263.171Z" fill="#AAAAAA"/>
<path d="M295.239 78.3616C295.239 74.3301 291.971 71.0659 287.944 71.0659C283.912 71.0659 280.648 74.3343 280.648 78.3616C280.648 78.3616 280.347 80.1675 282.28 83.1773L287.944 93.1056L293.607 83.1773C295.544 80.1675 295.239 78.3616 295.239 78.3616Z" fill="#EE0000"/>
<path d="M287.956 82.1768C290.068 82.1768 291.78 80.4649 291.78 78.3531C291.78 76.2413 290.068 74.5293 287.956 74.5293C285.844 74.5293 284.132 76.2413 284.132 78.3531C284.132 80.4649 285.844 82.1768 287.956 82.1768Z" fill="white"/>
<path d="M49.8693 141.967C49.8693 141.967 43.5444 197.403 62.8328 232.05L64.1045 229.837C64.1003 229.837 71.9089 193.872 49.8693 141.967Z" fill="#AAAAAA"/>
<path d="M81.0827 159.526L68.8187 194.546L62.5234 236.505L63.6511 238.765L77.3692 210.684L78.1746 206.971C78.1746 206.971 81.7271 198.581 81.0827 159.526Z" fill="#6C6C6C"/>
<path d="M94.9575 169.534L83.6642 202.617L57.1946 248.125L57.521 250.707L87.5346 207.942L88.5435 206.611L89.8365 201.769L94.7158 175.058L94.9575 169.534Z" fill="#6C6C6C"/>
<path d="M121.83 201.808C121.224 201.685 89.1076 206.645 89.5909 207.654L46.1814 251.674L49.6915 254.577L92.6601 213.911L121.83 201.808Z" fill="#6C6C6C"/>
<path d="M5.81543 161.595C5.81543 161.595 26.6808 204.165 58.4834 228.434L60.6199 229.206L57.2455 219.066L46.6348 192.583L45.469 190.502C45.469 190.502 27.092 174.685 5.81543 161.595Z" fill="#AAAAAA"/>
<path d="M0.304443 239.172L36.448 220.464L56.156 229.167L53.7312 225.318C53.7312 225.318 45.2994 216.632 34.5997 208.455C34.6039 208.45 13.5859 224.75 0.304443 239.172Z" fill="#AAAAAA"/>
<path d="M62.7862 229.142L53.1462 163.998" stroke="#6C6C6C" stroke-width="3" stroke-miterlimit="10" stroke-linecap="round"/>
<path d="M78.0133 177.966L64.8209 236.544" stroke="#AAAAAA" stroke-width="1.7131" stroke-miterlimit="10"/>
<path d="M28.4952 185.762C29.0209 186.199 39.9284 197.581 39.9284 197.581L73.965 251.055" stroke="#6C6C6C" stroke-width="3" stroke-miterlimit="10" stroke-linecap="round"/>
<path d="M27.66 219.561L35.7145 214.567L71.9979 237.989" stroke="#6C6C6C" stroke-width="3" stroke-miterlimit="10" stroke-linecap="round"/>
<path d="M93.5079 209.434L89.8749 211.13L63.6511 238.765" stroke="#AAAAAA" stroke-width="1.7131" stroke-miterlimit="10"/>
<path d="M35.3711 227.832C35.5661 227.374 53.888 223.716 91.1676 227.832C91.1676 227.832 96.3733 236.548 96.3733 248.528C96.3733 248.528 97.7044 279.029 64.664 279.029C64.664 279.029 30.1696 281.45 30.1696 251.673C30.1653 251.673 29.5591 241.631 35.3711 227.832Z" fill="white"/>
<path d="M96.3734 248.528C96.3734 236.543 91.1676 227.832 91.1676 227.832C88.7682 227.569 86.4494 227.336 84.2069 227.132C89.7178 257.222 65.105 262.487 65.105 262.487C47.0035 265.968 36.5073 262.648 31.115 259.583C36.6514 280.987 64.6641 279.029 64.6641 279.029C97.7045 279.029 96.3734 248.528 96.3734 248.528Z" fill="#C9C9C9"/>
<path d="M39.8564 272.297C39.8564 272.297 56.72 285.473 81.7992 275.489C81.7992 275.489 105.912 264.836 92.4735 234.161" stroke="#4D4D4D" stroke-width="3" stroke-miterlimit="10" stroke-linecap="round"/>
<path d="M332.396 69.6672H62.5146V247.994H332.396V69.6672Z" fill="black"/>
<path d="M324.863 77.34H70.349V238.485H324.863V77.34Z" fill="white"/>
<path d="M85.6652 277.961H76.8561C76.1778 277.961 75.6267 277.405 75.6267 276.731V273.616C75.6267 272.937 76.182 272.386 76.8561 272.386H85.6652C86.3434 272.386 86.8945 272.942 86.8945 273.616V276.731C86.8945 277.41 86.3392 277.961 85.6652 277.961Z" fill="black"/>
<path d="M99.091 277.961H90.2819C89.6036 277.961 89.0525 277.405 89.0525 276.731V273.616C89.0525 272.937 89.6078 272.386 90.2819 272.386H99.091C99.7692 272.386 100.32 272.942 100.32 273.616V276.731C100.32 277.41 99.7692 277.961 99.091 277.961Z" fill="black"/>
<path d="M112.516 277.961H103.707C103.029 277.961 102.478 277.405 102.478 276.731V273.616C102.478 272.937 103.033 272.386 103.707 272.386H112.516C113.195 272.386 113.746 272.942 113.746 273.616V276.731C113.746 277.41 113.195 277.961 112.516 277.961Z" fill="black"/>
<path d="M125.942 277.961H117.133C116.455 277.961 115.904 277.405 115.904 276.731V273.616C115.904 272.937 116.459 272.386 117.133 272.386H125.942C126.62 272.386 127.172 272.942 127.172 273.616V276.731C127.176 277.41 126.62 277.961 125.942 277.961Z" fill="black"/>
<path d="M139.368 277.961H130.559C129.88 277.961 129.329 277.405 129.329 276.731V273.616C129.329 272.937 129.885 272.386 130.559 272.386H139.368C140.046 272.386 140.597 272.942 140.597 273.616V276.731C140.601 277.41 140.046 277.961 139.368 277.961Z" fill="black"/>
<path d="M152.797 277.961H143.988C143.31 277.961 142.759 277.405 142.759 276.731V273.616C142.759 272.937 143.314 272.386 143.988 272.386H152.797C153.476 272.386 154.027 272.942 154.027 273.616V276.731C154.027 277.41 153.471 277.961 152.797 277.961Z" fill="black"/>
<path d="M166.223 277.961H157.414C156.736 277.961 156.184 277.405 156.184 276.731V273.616C156.184 272.937 156.74 272.386 157.414 272.386H166.223C166.901 272.386 167.452 272.942 167.452 273.616V276.731C167.452 277.41 166.897 277.961 166.223 277.961Z" fill="black"/>
<path d="M179.648 277.961H170.839C170.161 277.961 169.61 277.405 169.61 276.731V273.616C169.61 272.937 170.165 272.386 170.839 272.386H179.648C180.327 272.386 180.878 272.942 180.878 273.616V276.731C180.878 277.41 180.327 277.961 179.648 277.961Z" fill="black"/>
<path d="M193.074 277.961H184.265C183.587 277.961 183.036 277.405 183.036 276.731V273.616C183.036 272.937 183.591 272.386 184.265 272.386H193.074C193.752 272.386 194.303 272.942 194.303 273.616V276.731C194.308 277.41 193.752 277.961 193.074 277.961Z" fill="black"/>
<path d="M206.5 277.961H197.691C197.012 277.961 196.461 277.405 196.461 276.731V273.616C196.461 272.937 197.017 272.386 197.691 272.386H206.5C207.178 272.386 207.729 272.942 207.729 273.616V276.731C207.733 277.41 207.178 277.961 206.5 277.961Z" fill="black"/>
<path d="M219.929 277.961H211.12C210.442 277.961 209.891 277.405 209.891 276.731V273.616C209.891 272.937 210.446 272.386 211.12 272.386H219.929C220.608 272.386 221.159 272.942 221.159 273.616V276.731C221.159 277.41 220.603 277.961 219.929 277.961Z" fill="black"/>
<path d="M233.355 277.961H224.546C223.868 277.961 223.317 277.405 223.317 276.731V273.616C223.317 272.937 223.872 272.386 224.546 272.386H233.355C234.034 272.386 234.585 272.942 234.585 273.616V276.731C234.585 277.41 234.029 277.961 233.355 277.961Z" fill="black"/>
<path d="M246.781 277.961H237.972C237.294 277.961 236.743 277.405 236.743 276.731V273.616C236.743 272.937 237.298 272.386 237.972 272.386H246.781C247.459 272.386 248.01 272.942 248.01 273.616V276.731C248.01 277.41 247.459 277.961 246.781 277.961Z" fill="black"/>
<path d="M260.206 277.961H251.397C250.719 277.961 250.168 277.405 250.168 276.731V273.616C250.168 272.937 250.723 272.386 251.397 272.386H260.206C260.885 272.386 261.436 272.942 261.436 273.616V276.731C261.44 277.41 260.885 277.961 260.206 277.961Z" fill="black"/>
<path d="M273.632 277.961H264.823C264.145 277.961 263.594 277.405 263.594 276.731V273.616C263.594 272.937 264.149 272.386 264.823 272.386H273.632C274.31 272.386 274.861 272.942 274.861 273.616V276.731C274.866 277.41 274.31 277.961 273.632 277.961Z" fill="black"/>
<path d="M277.735 274.709H73.1215V279.682H277.735V274.709Z" fill="#6C6C6C"/>
<path d="M304.4 279.305C304.4 279.305 312.031 280.114 312.031 274.714C312.031 274.714 310.899 267.291 300.725 267.291H297.003C286.829 267.291 285.697 274.714 285.697 274.714C285.697 280.114 293.327 279.305 293.327 279.305H304.4Z" fill="white"/>
<path d="M267.523 48.7808C267.523 44.7493 264.255 41.4851 260.227 41.4851C256.2 41.4851 252.932 44.7535 252.932 48.7808C252.932 48.7808 252.631 50.5867 254.564 53.5965L260.227 63.5248L265.891 53.5965C267.828 50.5867 267.523 48.7808 267.523 48.7808Z" fill="#EE0000"/>
<path d="M260.24 52.5957C262.352 52.5957 264.064 50.8837 264.064 48.7719C264.064 46.6601 262.352 44.9481 260.24 44.9481C258.128 44.9481 256.417 46.6601 256.417 48.7719C256.417 50.8837 258.128 52.5957 260.24 52.5957Z" fill="white"/>
<path d="M299.414 36.3043C299.414 32.2729 296.146 29.0087 292.119 29.0087C288.092 29.0087 284.823 32.2771 284.823 36.3043C284.823 36.3043 284.522 38.1102 286.455 41.1201L292.119 51.0483L297.782 41.1201C299.715 38.1102 299.414 36.3043 299.414 36.3043Z" fill="#EE0000"/>
<path d="M292.132 40.1196C294.243 40.1196 295.955 38.4076 295.955 36.2958C295.955 34.184 294.243 32.472 292.132 32.472C290.02 32.472 288.308 34.184 288.308 36.2958C288.308 38.4076 290.02 40.1196 292.132 40.1196Z" fill="white"/>
<path d="M83.3928 26.0797H158.567" stroke="#F56D6D" stroke-width="7" stroke-miterlimit="10" stroke-linecap="round"/>
<path d="M169.25 26.0797H173.769" stroke="#F56D6D" stroke-width="7" stroke-miterlimit="10" stroke-linecap="round"/>
<path d="M69.2637 43.6046H101.291" stroke="#F56D6D" stroke-width="7" stroke-miterlimit="10" stroke-linecap="round"/>
<path d="M114.856 43.6046H184.57" stroke="#F56D6D" stroke-width="7" stroke-miterlimit="10" stroke-linecap="round"/>
<path d="M155.426 140.551L154.413 139.733C152.259 138.224 150.47 140.445 150.47 140.445C148.855 141.971 150.118 144.536 150.118 144.536L150.712 145.303C150.712 145.303 148.312 146.083 148.117 148.216" stroke="#944620" stroke-width="1.4" stroke-miterlimit="10" stroke-linecap="round"/>
<path d="M9.35938 280H384.097" stroke="#2E2E2E" stroke-width="3" stroke-miterlimit="10" stroke-linecap="round"/>
<mask id="mask0_282_4176" style="mask-type:luminance" maskUnits="userSpaceOnUse" x="70" y="77" width="255" height="162">
<path d="M324.863 77.34H70.349V238.485H324.863V77.34Z" fill="white"/>
</mask>
<g mask="url(#mask0_282_4176)">
<path d="M215.572 180.535C215.572 180.535 207.526 183.812 203.566 188.564C199.607 193.316 200.018 197.843 202.646 197.78C205.275 197.716 207.572 194.961 211.786 192.998C216 191.035 225.135 188.187 232.075 185.274C239.01 182.362 242.084 176.55 244.966 175.41C247.849 174.269 324.452 171.192 326.605 168.801C328.759 166.41 327.741 140.58 326.762 140.402C326.274 140.317 250.778 150.004 242.533 150.513C234.161 151.03 225.072 149.945 222.215 150.161C216.547 150.589 206.385 150.894 204.44 151.204C202.489 151.513 191.4 152.649 190.162 153.069C188.928 153.489 187.19 154.218 186.711 155.184C186.232 156.151 186.664 157.558 186.664 157.558C186.664 157.558 181.785 158.482 180.615 159.118C179.445 159.75 178.152 161.009 177.826 162.268C177.499 163.527 178.809 164.862 178.809 164.862C178.809 164.862 173.794 166.236 173.375 167.414C172.955 168.593 173.175 171.035 174.782 171.81C176.389 172.586 177.499 172.222 177.499 172.222C177.499 172.222 176.596 174.367 178.186 175.935C179.776 177.504 181.154 177.745 184.702 177.644C188.25 177.542 198.852 178.186 202.629 178.195C206.402 178.207 215.572 180.535 215.572 180.535Z" fill="#FDDBC7"/>
<path d="M181.633 171.548C181.633 171.548 181.921 172.612 180.865 174.07C179.814 175.528 178.245 175.549 177.69 175.325C177.135 175.1 176.673 173.231 177.304 172.268L181.633 171.548Z" fill="#FAB6B6"/>
<path d="M177.783 166.707C177.783 166.707 178.847 167.796 177.894 168.894C176.94 169.992 174.434 171.599 173.773 170.891C173.112 170.183 172.828 168.254 173.366 167.415C173.909 166.575 176.982 165.88 177.783 166.707Z" fill="#FAB6B6"/>
<path d="M181.378 160.606C181.378 160.606 180.806 161.823 180.975 162.683C181.141 163.548 181.293 163.993 181.293 163.993C181.293 163.993 178.801 165.223 178.33 164.26C177.864 163.298 177.389 162.65 178.046 161.658C178.707 160.674 181.378 160.606 181.378 160.606Z" fill="#FAB6B6"/>
<path d="M187.165 154.612C187.868 154.116 188.826 154.18 189.475 154.748C189.611 154.867 189.729 154.989 189.797 155.104C190.03 155.498 189.649 155.986 188.737 156.715C188.085 157.232 186.694 157.817 186.609 157.351C186.525 156.884 186.279 155.252 187.144 154.629C187.144 154.625 187.156 154.616 187.165 154.612Z" fill="#FAB6B6"/>
<path d="M202.837 168.33C202.803 168.436 202.714 168.517 202.596 168.534C202.507 168.546 193.693 169.827 191.735 170.179C189.768 170.53 177.41 172.659 177.283 172.68C177.122 172.709 176.965 172.599 176.94 172.438C176.91 172.277 177.02 172.12 177.182 172.095C177.304 172.073 189.662 169.945 191.629 169.594C193.6 169.242 202.422 167.961 202.511 167.949C202.672 167.923 202.825 168.038 202.85 168.203C202.858 168.241 202.854 168.288 202.837 168.33Z" fill="#EE0000"/>
<path d="M207.869 193.592C206.936 193.308 202.82 194.126 201.125 197.038C201.472 197.526 201.989 197.793 202.642 197.78C204.652 197.733 206.47 196.11 209.098 194.469C208.874 194.177 208.463 193.774 207.869 193.592Z" fill="#FAB6B6"/>
<path d="M203.626 161.98C203.587 162.094 203.486 162.179 203.359 162.183C203.274 162.187 195.033 162.675 192.315 162.878C189.615 163.082 178.966 165.134 178.856 165.155C178.695 165.185 178.538 165.079 178.508 164.917C178.479 164.756 178.585 164.599 178.746 164.57C179.187 164.485 189.539 162.488 192.273 162.285C194.99 162.081 203.24 161.594 203.325 161.59C203.49 161.581 203.63 161.704 203.638 161.869C203.643 161.908 203.634 161.946 203.626 161.98Z" fill="#EE0000"/>
<path d="M206.11 155.812C206.076 155.922 205.974 156.003 205.855 156.015C205.813 156.02 201.442 156.431 198.492 156.524C195.563 156.617 186.792 157.847 186.703 157.86C186.537 157.881 186.389 157.771 186.364 157.605C186.342 157.444 186.453 157.291 186.618 157.266C186.978 157.215 195.512 156.02 198.471 155.926C201.404 155.833 205.754 155.426 205.8 155.422C205.966 155.405 206.11 155.528 206.127 155.689C206.127 155.731 206.123 155.774 206.11 155.812Z" fill="#EE0000"/>
<path d="M204.72 151.297C204.686 151.399 204.597 151.479 204.482 151.5C203.787 151.611 201.951 151.823 199.823 152.073C196.11 152.505 191.023 153.094 190.251 153.357C188.466 153.963 187.301 154.663 186.97 155.32C186.546 156.168 186.936 157.461 186.94 157.473C186.966 157.554 186.953 157.643 186.911 157.715C186.868 157.787 186.792 157.838 186.711 157.855C186.665 157.863 181.866 158.779 180.747 159.381C179.662 159.966 178.407 161.174 178.106 162.344C177.826 163.421 179 164.642 179.013 164.655C179.085 164.731 179.115 164.841 179.089 164.943C179.064 165.045 178.983 165.125 178.882 165.151C178.865 165.155 177.131 165.63 175.651 166.253C175.499 166.316 175.325 166.244 175.261 166.092C175.198 165.939 175.27 165.765 175.422 165.702C176.478 165.261 177.656 164.892 178.28 164.706C177.881 164.184 177.279 163.188 177.533 162.196C177.894 160.797 179.31 159.483 180.467 158.855C181.506 158.296 185.185 157.546 186.292 157.325C186.186 156.821 186.05 155.824 186.44 155.049C186.851 154.222 188.072 153.463 190.065 152.785C190.832 152.522 194.736 152.056 199.76 151.475C201.879 151.229 203.711 151.017 204.393 150.907C204.554 150.882 204.707 150.992 204.736 151.157C204.736 151.208 204.732 151.255 204.72 151.297Z" fill="#EE0000"/>
<path d="M232.355 185.367C232.329 185.448 232.27 185.516 232.185 185.55C228.769 186.987 224.741 188.432 221.189 189.708C217.509 191.031 214.037 192.277 211.905 193.269C210.171 194.075 208.764 195.024 207.517 195.859C205.703 197.076 204.27 198.043 202.647 198.081C201.761 198.102 201.057 197.665 200.663 196.851C200.226 195.949 200.213 194.651 200.624 193.206C201.078 191.62 202.011 189.95 203.329 188.373C206.589 184.464 212.465 181.586 214.631 180.615C212.265 180.043 205.639 178.504 202.617 178.496C200.964 178.491 198.022 178.369 194.91 178.237C190.866 178.068 186.686 177.889 184.698 177.945C181.116 178.046 179.64 177.805 177.962 176.151C177.754 175.948 177.576 175.727 177.423 175.499C177.334 175.363 177.372 175.176 177.508 175.083C177.644 174.994 177.83 175.032 177.923 175.168C178.051 175.363 178.207 175.554 178.381 175.727C179.916 177.241 181.234 177.449 184.681 177.351C186.69 177.292 190.883 177.47 194.935 177.644C198.043 177.775 200.976 177.898 202.617 177.902C206.385 177.911 215.258 180.153 215.635 180.251C215.758 180.28 215.852 180.391 215.86 180.518C215.869 180.645 215.792 180.768 215.674 180.815C215.593 180.848 207.649 184.121 203.783 188.755C201.01 192.078 200.497 195.147 201.197 196.589C201.485 197.186 201.981 197.496 202.63 197.479C204.079 197.445 205.449 196.525 207.182 195.359C208.446 194.511 209.874 193.553 211.651 192.727C213.804 191.722 217.293 190.471 220.981 189.145C224.525 187.873 228.544 186.427 231.948 184.999C232.101 184.935 232.274 185.007 232.338 185.16C232.376 185.228 232.376 185.304 232.355 185.367Z" fill="#FAB6B6"/>
<path d="M224.232 181.417C224.19 181.544 224.063 181.633 223.923 181.62L215.546 180.836C215.381 180.819 215.262 180.675 215.275 180.51C215.292 180.344 215.436 180.226 215.601 180.238L223.978 181.023C224.143 181.04 224.262 181.184 224.249 181.349C224.245 181.374 224.241 181.396 224.232 181.417Z" fill="#FAB6B6"/>
<path d="M179.983 174.151C179.983 174.151 186.436 168.335 192.438 166.839C198.441 165.342 202.337 167.687 201.137 170.027C199.937 172.367 196.457 173.231 192.854 176.169C189.25 179.107 182.705 186.093 177.063 191.066C171.42 196.038 164.849 196.276 162.569 198.374C160.288 200.473 129.478 258.414 126.387 259.313C123.297 260.212 100.418 249.605 100.689 248.647C100.825 248.172 137.172 192.545 141.22 185.343C145.332 178.03 148.317 169.378 149.754 166.898C152.607 161.981 157.308 152.968 158.436 151.349C159.563 149.729 165.418 140.238 166.333 139.309C167.249 138.381 168.661 137.135 169.742 137.122C170.823 137.109 171.899 138.114 171.899 138.114C171.899 138.114 174.858 134.125 175.939 133.349C177.02 132.573 178.716 131.954 179.992 132.213C181.268 132.467 181.9 134.226 181.9 134.226C181.9 134.226 185.316 130.309 186.563 130.445C187.809 130.581 189.907 131.844 189.907 133.629C189.907 135.413 189.094 136.253 189.094 136.253C189.094 136.253 191.417 136.376 192.137 138.491C192.854 140.606 192.476 141.95 190.836 145.1C189.2 148.25 185.164 158.076 183.523 161.48C181.883 164.884 179.983 174.151 179.983 174.151Z" fill="#944620"/>
<path d="M186.677 139.686C186.677 139.686 187.508 140.407 189.28 140.093C191.052 139.779 191.751 138.38 191.789 137.783C191.828 137.185 190.348 135.951 189.208 136.104L186.677 139.686Z" fill="#FDDBDB"/>
<path d="M183.998 134.111C183.998 134.111 184.515 135.544 185.918 135.163C187.322 134.781 189.861 133.225 189.509 132.322C189.157 131.42 187.546 130.322 186.559 130.445C185.571 130.567 183.6 133.035 183.998 134.111Z" fill="#FDDBDB"/>
<path d="M176.94 134.692C176.94 134.692 178.284 134.709 178.987 135.235C179.691 135.76 180.03 136.091 180.03 136.091C180.03 136.091 182.222 134.383 181.56 133.543C180.899 132.704 180.518 131.996 179.343 132.157C178.165 132.314 176.94 134.692 176.94 134.692Z" fill="#FDDBDB"/>
<path d="M169.021 137.287C168.266 137.706 167.906 138.596 168.139 139.427C168.19 139.601 168.249 139.762 168.317 139.868C168.571 140.25 169.178 140.118 170.229 139.614C170.979 139.254 172.111 138.253 171.73 137.973C171.348 137.693 169.983 136.761 169.046 137.27C169.042 137.278 169.029 137.282 169.021 137.287Z" fill="#FDDBDB"/>
<path d="M174.545 157.376C174.655 157.389 174.765 157.347 174.833 157.249C174.884 157.173 179.873 149.797 181.043 148.186C182.217 146.571 189.517 136.371 189.589 136.269C189.687 136.134 189.653 135.947 189.522 135.854C189.386 135.756 189.199 135.79 189.106 135.922C189.034 136.023 181.734 146.219 180.56 147.834C179.386 149.453 174.388 156.838 174.337 156.914C174.244 157.05 174.282 157.236 174.417 157.33C174.455 157.351 174.498 157.368 174.545 157.376Z" fill="#F56D6D"/>
<path d="M195.092 172.908C195.245 171.942 197.771 168.597 201.133 168.339C201.421 168.864 201.438 169.445 201.137 170.03C200.217 171.819 197.966 172.747 195.346 174.401C195.181 174.062 194.994 173.519 195.092 172.908Z" fill="#FDDBDB"/>
<path d="M168.487 155.316C168.605 155.333 168.724 155.278 168.788 155.168C168.83 155.096 172.857 147.885 174.222 145.532C175.579 143.192 182.069 134.497 182.133 134.408C182.23 134.277 182.205 134.09 182.073 133.989C181.942 133.891 181.756 133.916 181.654 134.048C181.387 134.408 175.079 142.857 173.705 145.227C172.34 147.584 168.309 154.799 168.266 154.871C168.186 155.015 168.237 155.197 168.381 155.278C168.415 155.299 168.449 155.312 168.487 155.316Z" fill="#F56D6D"/>
<path d="M161.848 154.866C161.963 154.883 162.081 154.828 162.145 154.727C162.166 154.688 164.438 150.937 165.808 148.317C167.164 145.722 172.094 138.359 172.145 138.283C172.238 138.147 172.2 137.96 172.065 137.867C171.929 137.774 171.742 137.812 171.649 137.948C171.446 138.253 166.655 145.413 165.282 148.037C163.921 150.636 161.657 154.375 161.636 154.413C161.551 154.553 161.594 154.739 161.738 154.824C161.772 154.845 161.81 154.858 161.848 154.866Z" fill="#F56D6D"/>
<path d="M158.393 151.649C158.499 151.662 158.613 151.619 158.677 151.522C159.08 150.945 160.072 149.385 161.22 147.579C163.226 144.425 165.973 140.101 166.545 139.525C167.868 138.181 169.004 137.435 169.741 137.426C170.691 137.414 171.683 138.329 171.691 138.338C171.755 138.397 171.835 138.423 171.92 138.418C172.005 138.41 172.081 138.368 172.132 138.3C172.162 138.262 175.074 134.34 176.104 133.598C177.105 132.878 178.737 132.272 179.92 132.513C181.013 132.734 181.598 134.319 181.607 134.336C181.641 134.434 181.73 134.51 181.832 134.527C181.933 134.548 182.043 134.51 182.111 134.429C182.124 134.417 183.307 133.064 184.511 132C184.634 131.89 184.646 131.704 184.536 131.581C184.426 131.458 184.239 131.445 184.116 131.555C183.26 132.314 182.412 133.213 181.976 133.692C181.679 133.107 181.047 132.127 180.043 131.928C178.622 131.644 176.829 132.344 175.757 133.115C174.799 133.806 172.522 136.791 171.844 137.694C171.437 137.376 170.598 136.825 169.733 136.833C168.809 136.846 167.592 137.613 166.117 139.109C165.549 139.686 163.429 142.997 160.716 147.266C159.571 149.067 158.584 150.623 158.189 151.191C158.096 151.327 158.13 151.513 158.266 151.607C158.304 151.624 158.346 151.641 158.393 151.649Z" fill="#C65E2B"/>
<path d="M177.025 191.366C177.105 191.379 177.194 191.354 177.262 191.294C180.043 188.844 183.099 185.847 185.796 183.206C188.589 180.472 191.226 177.886 193.045 176.402C194.524 175.194 195.991 174.337 197.284 173.583C199.17 172.481 200.662 171.607 201.404 170.166C201.807 169.378 201.722 168.555 201.163 167.847C200.54 167.059 199.378 166.482 197.899 166.228C196.275 165.948 194.363 166.058 192.371 166.554C187.432 167.784 182.281 171.824 180.463 173.35C180.976 170.971 182.481 164.337 183.79 161.611C184.507 160.119 185.677 157.419 186.91 154.562C188.517 150.848 190.179 147.007 191.095 145.244C192.748 142.064 193.168 140.631 192.413 138.402C192.32 138.126 192.201 137.868 192.057 137.63C191.972 137.49 191.79 137.444 191.646 137.528C191.506 137.613 191.459 137.795 191.544 137.94C191.663 138.143 191.764 138.363 191.845 138.597C192.536 140.636 192.154 141.916 190.565 144.972C189.636 146.757 187.97 150.606 186.359 154.328C185.126 157.181 183.96 159.877 183.248 161.357C181.611 164.757 179.767 173.719 179.691 174.1C179.666 174.227 179.725 174.354 179.835 174.418C179.945 174.482 180.09 174.469 180.183 174.38C180.246 174.32 186.652 168.598 192.51 167.135C196.712 166.088 199.696 166.961 200.692 168.22C201.103 168.742 201.167 169.322 200.87 169.899C200.209 171.188 198.785 172.019 196.979 173.074C195.664 173.841 194.181 174.71 192.663 175.948C190.823 177.449 188.174 180.043 185.372 182.79C182.68 185.427 179.632 188.416 176.864 190.858C176.741 190.968 176.728 191.154 176.838 191.277C176.889 191.324 176.957 191.358 177.025 191.366Z" fill="#F56D6D"/>
<path d="M177.003 182.332C177.139 182.349 177.27 182.273 177.321 182.142L180.263 174.257C180.323 174.104 180.242 173.93 180.089 173.871C179.937 173.816 179.763 173.892 179.704 174.045L176.762 181.93C176.702 182.082 176.783 182.256 176.935 182.315C176.961 182.324 176.982 182.328 177.003 182.332Z" fill="#F56D6D"/>
<path d="M206.114 151.903C204.613 149.746 201.048 149.347 197.089 146.909C193.129 144.476 185.719 138.418 179.466 134.234C173.214 130.05 166.672 130.686 164.133 128.91C163.319 128.338 157.677 121.453 151.852 113.708L132.517 130.784C137.719 136.939 143.382 142.908 144.701 144.658C149.745 151.361 153.849 159.542 155.6 161.81C159.08 166.308 164.934 174.617 166.261 176.071C167.592 177.525 174.655 186.16 175.685 186.957C176.715 187.759 178.279 188.801 179.352 188.674C180.424 188.547 181.361 187.407 181.361 187.407C181.361 187.407 184.82 190.968 185.995 191.595C187.169 192.222 188.933 192.608 190.162 192.184C191.391 191.76 191.786 189.937 191.786 189.937C191.786 189.937 195.694 193.367 196.911 193.066C198.127 192.765 200.039 191.239 199.802 189.467C199.564 187.695 198.649 186.974 198.649 186.974C198.649 186.974 200.938 186.546 201.37 184.354C201.803 182.163 201.247 180.878 199.208 177.974C197.169 175.071 191.866 165.867 189.793 162.709C187.72 159.551 184.613 150.615 184.613 150.615C184.613 150.615 191.781 155.524 197.928 156.21C204.058 156.901 207.615 154.065 206.114 151.903Z" fill="#FDDBC7"/>
<path d="M195.796 183.892C195.796 183.892 196.525 183.066 198.322 183.142C200.12 183.218 200.997 184.516 201.116 185.101C201.234 185.686 199.929 187.106 198.776 187.11L195.796 183.892Z" fill="white"/>
<path d="M193.88 189.772C193.88 189.772 194.202 188.284 195.643 188.475C197.084 188.666 199.806 189.874 199.581 190.811C199.352 191.752 197.903 193.053 196.906 193.066C195.902 193.079 193.629 190.895 193.88 189.772Z" fill="white"/>
<path d="M186.804 190.132C186.804 190.132 188.131 189.937 188.763 189.323C189.39 188.708 189.683 188.335 189.683 188.335C189.683 188.335 192.082 189.738 191.539 190.658C190.997 191.578 190.713 192.333 189.526 192.328C188.335 192.324 186.804 190.132 186.804 190.132Z" fill="white"/>
<path d="M178.614 188.61C177.809 188.296 177.334 187.461 177.457 186.605C177.482 186.427 177.521 186.257 177.576 186.143C177.779 185.732 178.394 185.778 179.505 186.143C180.297 186.402 181.548 187.245 181.209 187.567C180.87 187.894 179.64 189 178.644 188.619C178.636 188.614 178.623 188.61 178.614 188.61Z" fill="white"/>
<path d="M181.429 167.966C181.535 167.936 181.654 167.97 181.73 168.055C181.789 168.122 187.711 174.774 189.085 176.215C190.463 177.661 199.047 186.805 199.136 186.894C199.251 187.012 199.242 187.203 199.123 187.317C199.005 187.432 198.814 187.423 198.699 187.305C198.615 187.212 190.026 178.072 188.653 176.626C187.275 175.176 181.344 168.521 181.285 168.453C181.175 168.33 181.187 168.139 181.31 168.033C181.344 167.999 181.382 167.978 181.429 167.966Z" fill="#FAB6B6"/>
<path d="M199.738 149.851C200.018 150.788 202.964 153.768 206.33 153.582C206.546 153.027 206.487 152.446 206.11 151.907C204.961 150.254 202.604 149.635 199.789 148.342C199.675 148.694 199.564 149.254 199.738 149.851Z" fill="white"/>
<path d="M175.693 170.81C175.808 170.78 175.935 170.818 176.011 170.92C176.062 170.988 181.009 177.601 182.675 179.75C184.329 181.891 191.913 189.649 191.989 189.725C192.103 189.844 192.103 190.031 191.985 190.149C191.866 190.264 191.679 190.264 191.561 190.145C191.247 189.827 183.875 182.285 182.201 180.115C180.535 177.957 175.583 171.34 175.532 171.276C175.435 171.145 175.46 170.958 175.592 170.857C175.626 170.835 175.659 170.818 175.693 170.81Z" fill="#FAB6B6"/>
<path d="M169.178 172.137C169.288 172.107 169.411 172.141 169.487 172.239C169.513 172.273 172.264 175.694 173.968 178.106C175.659 180.497 181.518 187.144 181.577 187.211C181.688 187.334 181.675 187.525 181.552 187.631C181.429 187.741 181.238 187.729 181.132 187.606C180.891 187.33 175.193 180.87 173.485 178.449C171.789 176.054 169.055 172.646 169.025 172.612C168.923 172.484 168.94 172.294 169.072 172.192C169.101 172.162 169.14 172.145 169.178 172.137Z" fill="#FAB6B6"/>
<path d="M166.176 175.783C166.282 175.753 166.397 175.783 166.477 175.868C166.952 176.385 168.143 177.801 169.521 179.441C171.929 182.303 175.223 186.224 175.863 186.72C177.351 187.877 178.576 188.467 179.309 188.377C180.25 188.263 181.115 187.224 181.124 187.216C181.179 187.152 181.255 187.11 181.34 187.106C181.425 187.101 181.505 187.135 181.565 187.195C181.598 187.229 185.007 190.73 186.126 191.328C187.211 191.909 188.911 192.295 190.051 191.9C191.107 191.54 191.476 189.887 191.48 189.87C191.501 189.768 191.578 189.683 191.679 189.649C191.781 189.615 191.891 189.637 191.968 189.709C191.98 189.721 193.333 190.904 194.668 191.799C194.804 191.892 194.842 192.074 194.748 192.214C194.655 192.354 194.473 192.388 194.333 192.295C193.383 191.654 192.425 190.879 191.925 190.459C191.709 191.078 191.213 192.129 190.242 192.464C188.873 192.935 186.999 192.477 185.838 191.854C184.799 191.298 182.141 188.636 181.353 187.835C180.992 188.204 180.233 188.861 179.373 188.967C178.457 189.077 177.152 188.479 175.49 187.191C174.85 186.695 172.31 183.693 169.055 179.823C167.681 178.191 166.494 176.779 166.028 176.27C165.918 176.147 165.926 175.961 166.045 175.851C166.091 175.817 166.134 175.796 166.176 175.783Z" fill="#FAB6B6"/>
<path d="M179.386 133.946C179.466 133.925 179.555 133.938 179.632 133.984C182.714 136.045 186.139 138.609 189.161 140.869C192.29 143.209 195.249 145.422 197.25 146.651C198.878 147.651 200.446 148.309 201.828 148.885C203.846 149.729 205.44 150.394 206.364 151.725C206.869 152.454 206.894 153.281 206.432 154.057C205.919 154.922 204.842 155.642 203.409 156.096C201.837 156.588 199.929 156.732 197.886 156.503C192.824 155.935 187.186 152.616 185.185 151.344C186.007 153.633 188.377 160.009 190.039 162.54C190.946 163.922 192.464 166.444 194.066 169.115C196.152 172.582 198.305 176.169 199.45 177.796C201.51 180.73 202.116 182.095 201.663 184.405C201.608 184.689 201.523 184.961 201.413 185.215C201.349 185.368 201.171 185.436 201.023 185.372C200.87 185.308 200.802 185.13 200.866 184.982C200.959 184.766 201.031 184.533 201.078 184.291C201.493 182.18 200.942 180.963 198.962 178.14C197.805 176.495 195.647 172.9 193.557 169.42C191.955 166.753 190.446 164.239 189.543 162.866C187.474 159.716 184.456 151.073 184.329 150.708C184.286 150.585 184.329 150.449 184.43 150.373C184.532 150.292 184.672 150.292 184.782 150.365C184.854 150.411 191.959 155.24 197.962 155.909C202.265 156.393 205.105 155.129 205.927 153.752C206.267 153.179 206.254 152.599 205.885 152.064C205.058 150.873 203.537 150.237 201.608 149.432C200.205 148.847 198.615 148.181 196.949 147.155C194.922 145.909 191.959 143.692 188.818 141.339C185.804 139.084 182.383 136.524 179.314 134.472C179.178 134.379 179.14 134.196 179.233 134.056C179.259 134.01 179.318 133.967 179.386 133.946Z" fill="#FAB6B6"/>
<path d="M180.564 142.903C180.696 142.87 180.84 142.925 180.908 143.052L184.867 150.475C184.944 150.619 184.888 150.801 184.744 150.877C184.6 150.954 184.418 150.899 184.342 150.754L180.382 143.332C180.306 143.187 180.361 143.005 180.505 142.929C180.522 142.92 180.543 142.912 180.564 142.903Z" fill="#FAB6B6"/>
<path d="M200.692 180.018L216.648 166.681L218.204 165.27L221.031 162.162L227.674 150.343L224.478 150.187L223.011 150.293L215.732 152.764C215.732 152.764 194.888 168.945 194.748 169.157C194.608 169.369 195.524 178.059 195.524 178.059L200.692 180.018Z" fill="#FAB890"/>
<path d="M267.031 80.0826C250.731 94.1441 223.071 125.518 219.582 126.794C216.093 128.07 211.26 128.049 204.863 132.11C198.466 136.176 196.966 139.245 194.155 141.174C191.344 143.099 188.729 142.543 190.157 145.121C191.59 147.698 195.13 147.24 195.846 147.181C196.563 147.122 197.601 146.774 197.601 146.774C197.601 146.774 187.932 160.784 186.304 162.527C184.676 164.265 182.412 168.212 183.129 169.882C183.849 171.552 184.947 171.921 184.947 171.921C184.947 171.921 181.704 175.605 182.607 177.186C184.159 179.899 185.914 179.055 186.529 178.992C187.143 178.924 188.114 177.962 188.114 177.962C188.114 177.962 190.31 179.666 191.429 179.628C192.548 179.59 195.401 176.953 195.995 176.427C196.584 175.901 198.199 174.469 198.199 174.469C198.199 174.469 199.187 175.897 200.086 176.156C200.984 176.414 203.159 174.091 203.918 173.32C204.677 172.548 214.991 164.125 216.547 162.739C218.102 161.353 227.081 145.519 229.565 143.115C232.045 140.712 284.162 99.104 286.828 97.014L267.031 80.0826Z" fill="#944620"/>
<path d="M210.179 133.264C210.073 133.23 209.954 133.255 209.874 133.34C209.823 133.395 204.583 138.91 203.227 140.5C201.883 142.077 197.436 146.52 197.394 146.562C197.279 146.676 197.279 146.859 197.394 146.973C197.508 147.088 197.69 147.088 197.805 146.973C197.987 146.791 202.315 142.467 203.672 140.873C205.016 139.296 210.243 133.789 210.298 133.734C210.408 133.62 210.404 133.433 210.289 133.323C210.255 133.302 210.221 133.276 210.179 133.264Z" fill="#632F16"/>
<path d="M203.112 154.142C203.019 154.108 202.909 154.129 202.828 154.201C202.807 154.222 202.744 154.282 202.468 154.561C201.565 155.473 198.818 158.241 197.525 159.313C196.44 160.216 193.506 163.358 191.37 165.651C190.374 166.715 189.589 167.559 189.276 167.872C188.296 168.839 184.808 171.667 184.774 171.692C184.651 171.794 184.629 171.976 184.731 172.103C184.833 172.226 185.015 172.247 185.142 172.146C185.287 172.027 188.691 169.271 189.687 168.288C190.009 167.97 190.798 167.122 191.798 166.05C193.926 163.769 196.843 160.64 197.902 159.763C199.217 158.673 201.883 155.986 202.888 154.973C203.062 154.794 203.201 154.655 203.227 154.633C203.341 154.523 203.354 154.341 203.244 154.222C203.197 154.184 203.155 154.159 203.112 154.142Z" fill="#F56D6D"/>
<path d="M206.512 160.17C206.415 160.136 206.3 160.157 206.22 160.233C205.872 160.556 197.737 168.084 197.148 168.657C196.559 169.229 188 177.669 187.915 177.754C187.8 177.869 187.8 178.051 187.911 178.165C188.025 178.28 188.207 178.28 188.322 178.17C188.407 178.085 196.966 169.644 197.555 169.076C198.14 168.508 206.533 160.742 206.614 160.666C206.733 160.556 206.741 160.373 206.631 160.255C206.597 160.212 206.555 160.187 206.512 160.17Z" fill="#632F16"/>
<path d="M210.531 162.463C210.434 162.429 210.319 162.45 210.239 162.527C210.201 162.565 206.245 166.278 205.55 166.944C204.855 167.61 198.068 174.189 198 174.252C197.886 174.363 197.881 174.549 197.992 174.664C198.102 174.778 198.288 174.782 198.403 174.672C198.471 174.604 205.258 168.029 205.953 167.364C206.644 166.698 210.595 162.989 210.637 162.951C210.756 162.84 210.76 162.658 210.65 162.539C210.616 162.506 210.574 162.48 210.531 162.463Z" fill="#632F16"/>
<path d="M189.967 143.34C189.967 143.34 191.637 145.536 192.497 145.689C193.354 145.841 195.202 144.722 196.19 143.938C197.177 143.154 196.122 141.539 195.639 141.157C195.151 140.771 194.291 140.996 193.46 141.416C192.62 141.831 190.145 142.467 189.967 143.34Z" fill="#EE0000"/>
<path d="M204.957 131.839C204.876 131.814 204.783 131.818 204.706 131.869C200.726 134.4 198.627 136.545 196.94 138.27C195.919 139.313 195.041 140.216 193.99 140.937C193.07 141.568 192.154 141.929 191.421 142.221C190.492 142.59 189.759 142.882 189.53 143.518C189.369 143.963 189.488 144.519 189.903 145.265C190.87 147.007 192.841 147.753 195.757 147.482L195.868 147.473C196.19 147.448 196.567 147.367 196.894 147.283C194.944 150.097 187.483 160.84 186.092 162.328C184.532 163.994 182.048 168.101 182.862 169.996C183.37 171.179 184.066 171.756 184.485 172.014C183.693 172.972 181.497 175.834 182.353 177.33C183.807 179.874 185.486 179.509 186.291 179.331C186.397 179.306 186.491 179.289 186.554 179.28C187.097 179.221 187.796 178.644 188.131 178.343C188.729 178.788 190.412 179.954 191.438 179.92C192.472 179.886 194.558 178.11 196.037 176.779C196.097 176.724 196.147 176.682 196.186 176.643C196.635 176.241 197.678 175.312 198.148 174.897C198.496 175.346 199.255 176.224 200.001 176.436C200.836 176.673 202.18 175.516 203.939 173.71C204.003 173.642 204.062 173.583 204.113 173.532L207.559 170.361C207.678 170.251 207.687 170.068 207.576 169.95C207.466 169.831 207.284 169.823 207.165 169.933L203.714 173.112C203.71 173.116 203.706 173.121 203.706 173.121C203.651 173.176 203.592 173.239 203.524 173.307C201.739 175.143 200.607 176.008 200.162 175.88C199.505 175.694 198.691 174.685 198.432 174.308C198.386 174.24 198.309 174.193 198.229 174.185C198.144 174.176 198.064 174.202 198 174.257C198 174.257 196.389 175.69 195.796 176.215C195.753 176.253 195.702 176.296 195.643 176.351C192.926 178.797 191.845 179.327 191.412 179.344C190.577 179.373 188.873 178.195 188.284 177.737C188.169 177.648 188.004 177.657 187.902 177.758C187.555 178.102 186.864 178.666 186.491 178.704C186.393 178.712 186.287 178.738 186.164 178.763C185.393 178.933 184.095 179.217 182.853 177.042C182.196 175.893 184.295 173.095 185.159 172.116C185.223 172.044 185.248 171.942 185.223 171.849C185.198 171.756 185.126 171.679 185.037 171.65C184.998 171.637 184.045 171.285 183.392 169.772C182.756 168.296 184.816 164.54 186.512 162.73C188.135 160.996 197.44 147.52 197.835 146.943C197.907 146.842 197.902 146.702 197.826 146.604C197.75 146.503 197.618 146.464 197.5 146.503C197.491 146.507 196.487 146.842 195.813 146.897C195.779 146.901 195.741 146.905 195.694 146.91C193.027 147.16 191.247 146.511 190.403 144.989C190.081 144.408 189.975 143.997 190.073 143.722C190.213 143.332 190.836 143.086 191.628 142.768C192.392 142.467 193.337 142.09 194.312 141.42C195.41 140.669 196.309 139.745 197.351 138.681C199.017 136.977 201.09 134.858 205.012 132.365C205.147 132.28 205.185 132.098 205.101 131.962C205.071 131.899 205.016 131.86 204.957 131.839Z" fill="#632F16"/>
<path d="M182.811 169.517C182.811 169.517 185.944 166.075 186.588 166.151C187.232 166.228 188.631 167.474 188.309 168.084C187.987 168.695 185.329 171.645 184.837 171.794C184.346 171.942 183.129 171.077 182.811 169.517Z" fill="#EE0000"/>
<path d="M191.705 175.172C191.705 175.172 192.608 174.727 193.168 174.99C193.727 175.253 194.49 176.27 194.265 176.792C194.045 177.313 191.654 180.022 191.103 179.971C190.552 179.92 188.665 178.496 188.708 178.097C188.75 177.694 191.705 175.172 191.705 175.172Z" fill="#EE0000"/>
<path d="M182.824 178.093C182.62 177.779 182.641 177.372 182.874 177.084C183.141 176.758 183.527 176.321 183.943 175.948C184.706 175.266 186.151 173.981 186.766 173.956C187.381 173.93 188.245 174.494 188.517 174.799C188.788 175.104 188.602 176.156 188.394 176.508C188.186 176.86 186.317 178.843 185.562 179.424C184.579 180.179 183.417 179 182.824 178.093Z" fill="#EE0000"/>
<path d="M196.94 138.27L202.939 133.615C202.498 133.959 203.596 137.799 203.736 138.249C206.551 147.151 206.796 156.906 203.715 165.833C203.715 165.833 201.243 172.12 202.231 175.16C202.231 175.16 196.559 178.585 196.614 174.083C196.652 170.988 194.812 156.647 194.812 156.223C194.812 155.799 193.68 139.762 193.68 139.762L196.94 138.27Z" fill="#632F16"/>
<path d="M295.68 214.326C280.499 204.792 246.882 194.601 244.487 191.731C242.092 188.861 237.772 186.029 231.748 181.345C225.725 176.66 222.303 176.283 219.523 174.274C216.742 172.264 216.381 169.594 214.423 171.828C212.464 174.062 214.101 177.262 214.402 177.919C214.703 178.576 215.385 179.445 215.385 179.445C215.385 179.445 198.818 175.041 196.618 174.087C194.414 173.133 189.907 172.328 188.568 173.578C187.228 174.829 187.254 175.995 187.254 175.995C187.254 175.995 182.658 174.172 181.467 175.567C179.424 177.957 180.819 179.335 181.09 179.895C181.361 180.454 182.603 181.048 182.603 181.048C182.603 181.048 181.734 183.706 182.15 184.757C182.565 185.808 186.037 187.614 186.737 187.996C187.436 188.377 189.344 189.416 189.344 189.416C189.344 189.416 188.322 190.836 188.386 191.777C188.449 192.718 191.387 193.99 192.375 194.444C193.362 194.902 204.851 201.816 206.695 202.82C208.539 203.825 226.598 206.958 229.718 208.492C232.838 210.027 282.56 239.689 285.447 241.507L295.68 214.326Z" fill="#FAB890"/>
<path d="M232.461 186.775C232.461 186.665 232.393 186.559 232.287 186.512C232.215 186.482 225.207 183.392 223.24 182.646C221.29 181.908 215.567 179.204 215.508 179.174C215.36 179.106 215.186 179.166 215.118 179.314C215.05 179.462 215.109 179.636 215.258 179.704C215.495 179.814 221.061 182.447 223.033 183.193C224.987 183.93 231.982 187.017 232.049 187.046C232.198 187.11 232.372 187.046 232.435 186.898C232.452 186.86 232.461 186.817 232.461 186.775Z" fill="#F7823C"/>
<path d="M210.268 187.165C210.268 187.063 210.213 186.966 210.116 186.915C210.09 186.898 210.01 186.864 209.65 186.694C208.48 186.147 204.923 184.481 203.465 183.625C202.239 182.9 198.267 181.192 195.363 179.941C194.015 179.36 192.951 178.903 192.549 178.708C191.302 178.11 187.436 175.761 187.398 175.736C187.258 175.651 187.08 175.698 186.995 175.833C186.91 175.973 186.957 176.151 187.093 176.236C187.254 176.334 191.022 178.623 192.294 179.233C192.705 179.433 193.778 179.89 195.13 180.475C198.017 181.717 201.972 183.417 203.164 184.125C204.643 184.999 208.098 186.614 209.395 187.224C209.624 187.33 209.802 187.415 209.832 187.428C209.976 187.5 210.15 187.449 210.226 187.305C210.256 187.262 210.268 187.216 210.268 187.165Z" fill="#F7823C"/>
<path d="M205.711 192.434C205.711 192.329 205.652 192.231 205.554 192.18C205.135 191.96 195.232 186.805 194.49 186.44C193.748 186.076 182.84 180.832 182.73 180.777C182.586 180.705 182.408 180.768 182.34 180.912C182.268 181.056 182.332 181.234 182.476 181.302C182.586 181.353 193.494 186.601 194.231 186.962C194.969 187.322 205.181 192.638 205.283 192.693C205.427 192.769 205.605 192.71 205.677 192.57C205.698 192.532 205.711 192.485 205.711 192.434Z" fill="#F56D6D"/>
<path d="M204.901 197.025C204.901 196.919 204.842 196.822 204.74 196.771C204.69 196.745 199.827 194.261 198.958 193.829C198.093 193.396 189.551 189.195 189.462 189.153C189.318 189.081 189.14 189.14 189.068 189.289C188.996 189.433 189.055 189.611 189.204 189.683C189.288 189.725 197.83 193.926 198.695 194.355C199.56 194.783 204.422 197.267 204.469 197.292C204.613 197.364 204.791 197.309 204.863 197.165C204.893 197.119 204.901 197.072 204.901 197.025Z" fill="#F56D6D"/>
<path d="M216.042 171.035C216.042 171.035 214.529 173.366 214.677 174.231C214.826 175.096 216.513 176.465 217.59 177.135C218.666 177.805 219.841 176.258 220.04 175.664C220.239 175.071 219.735 174.333 219.056 173.684C218.374 173.04 216.933 170.908 216.042 171.035Z" fill="#C65E2B"/>
<path d="M189.67 192.82C189.547 192.765 189.424 192.71 189.301 192.659C189 192.536 188.301 192.21 188.229 191.756C188.131 191.18 188.424 190.056 189.204 190.082C189.984 190.107 191.277 190.938 191.951 191.527C192.811 192.273 192.62 193.138 191.963 193.545C191.688 193.715 190.242 193.083 189.67 192.82Z" fill="#EE0000"/>
<path d="M232.041 181.336C232.041 181.251 231.999 181.167 231.927 181.111C228.175 178.195 225.428 176.936 223.219 175.927C221.884 175.316 220.731 174.787 219.692 174.036C218.781 173.379 218.128 172.637 217.602 172.039C216.937 171.285 216.411 170.687 215.733 170.691C215.254 170.691 214.77 170.992 214.202 171.637C212.88 173.146 212.842 175.266 214.088 177.94L214.135 178.042C214.27 178.339 214.474 178.67 214.664 178.949C211.332 178.059 198.615 174.634 196.733 173.82C194.621 172.909 189.886 171.946 188.364 173.366C187.419 174.248 187.105 175.104 187.004 175.592C185.825 175.164 182.366 174.057 181.238 175.376C179.318 177.618 180.238 179.085 180.683 179.789C180.742 179.882 180.793 179.963 180.823 180.022C181.064 180.514 181.849 180.984 182.247 181.196C182.031 181.913 181.493 183.905 181.874 184.867C182.256 185.834 184.647 187.212 186.414 188.161C186.486 188.199 186.546 188.233 186.592 188.259C187.127 188.547 188.36 189.221 188.915 189.526C188.61 190.01 188.034 191.027 188.089 191.807C188.148 192.68 189.7 193.558 192.014 194.613C192.099 194.651 192.175 194.685 192.243 194.719L196.423 196.907C196.567 196.983 196.745 196.928 196.817 196.784C196.894 196.64 196.839 196.462 196.694 196.39L192.51 194.198C192.506 194.194 192.502 194.194 192.498 194.189C192.426 194.155 192.349 194.122 192.26 194.079C189.916 193.011 188.712 192.231 188.678 191.769C188.631 191.082 189.314 189.967 189.581 189.598C189.632 189.53 189.649 189.446 189.628 189.361C189.611 189.28 189.556 189.208 189.484 189.17C189.484 189.17 187.576 188.127 186.876 187.75C186.83 187.725 186.766 187.691 186.694 187.653C183.451 185.906 182.582 185.062 182.421 184.66C182.112 183.88 182.65 181.862 182.883 181.15C182.93 181.01 182.862 180.857 182.73 180.793C182.285 180.582 181.518 180.115 181.353 179.776C181.31 179.687 181.251 179.594 181.183 179.488C180.759 178.814 180.051 177.682 181.688 175.766C182.552 174.753 185.918 175.791 187.144 176.279C187.237 176.317 187.339 176.304 187.419 176.249C187.5 176.194 187.546 176.101 187.546 176.003C187.546 175.961 187.555 174.939 188.767 173.807C189.95 172.705 194.206 173.379 196.504 174.371C198.7 175.321 214.635 179.564 215.313 179.742C215.436 179.776 215.563 179.725 215.635 179.619C215.703 179.513 215.699 179.378 215.623 179.276C215.614 179.267 214.957 178.428 214.677 177.809C214.664 177.779 214.648 177.741 214.626 177.703C213.486 175.261 213.494 173.354 214.648 172.035C215.088 171.535 215.444 171.289 215.737 171.289C216.152 171.289 216.602 171.798 217.17 172.442C217.717 173.061 218.395 173.833 219.357 174.528C220.443 175.312 221.621 175.851 222.986 176.478C225.169 177.478 227.882 178.72 231.579 181.595C231.706 181.692 231.893 181.671 231.99 181.544C232.02 181.467 232.041 181.404 232.041 181.336Z" fill="#F7823C"/>
<path d="M188.797 173.146C188.797 173.146 193.125 174.948 193.274 175.584C193.422 176.219 192.714 177.97 192.027 177.873C191.34 177.775 187.64 176.258 187.33 175.842C187.021 175.422 187.428 173.977 188.797 173.146Z" fill="#EE0000"/>
<path d="M186.456 183.498C186.456 183.498 187.186 184.206 187.126 184.821C187.067 185.44 186.363 186.508 185.791 186.474C185.223 186.44 181.84 185.096 181.704 184.558C181.564 184.02 182.277 181.747 182.671 181.65C183.065 181.552 186.456 183.498 186.456 183.498Z" fill="#EE0000"/>
<path d="M180.67 176.071C180.895 175.77 181.293 175.651 181.645 175.779C182.044 175.918 182.591 176.135 183.082 176.406C183.99 176.898 185.698 177.83 185.931 178.407C186.164 178.983 185.923 179.992 185.728 180.353C185.533 180.709 184.469 180.895 184.066 180.819C183.663 180.743 181.145 179.645 180.34 179.123C179.293 178.445 180.013 176.944 180.67 176.071Z" fill="#EE0000"/>
<path d="M199.454 174.969L201.574 175.723C201.574 175.723 201.76 179.492 208.734 189.573L218.297 200.781L222.723 206.576L217.449 205.398L207.275 203.185L195.643 188.475L193.333 171.862L199.454 174.969Z" fill="#F7823C"/>
<path d="M164.621 181.824C164.621 181.824 157.499 176.847 151.361 176.101C145.222 175.355 141.64 178.157 143.119 180.331C144.599 182.506 148.16 182.938 152.098 185.41C156.036 187.881 163.387 194.011 169.602 198.255C175.817 202.498 182.362 201.926 184.884 203.728C187.407 205.529 225.106 259.244 228.281 259.753C231.456 260.262 252.86 246.925 252.474 246.005C252.283 245.547 209.37 194.813 204.469 188.165C199.488 181.412 195.465 173.193 193.731 170.912C190.293 166.38 184.52 158.016 183.205 156.549C181.887 155.083 174.909 146.384 173.888 145.574C172.866 144.764 171.31 143.705 170.238 143.823C169.165 143.942 168.216 145.074 168.216 145.074C168.216 145.074 164.79 141.479 163.62 140.839C162.45 140.199 160.695 139.796 159.462 140.207C158.228 140.618 157.817 142.441 157.817 142.441C157.817 142.441 153.942 138.974 152.726 139.262C151.509 139.55 149.58 141.059 149.8 142.831C150.021 144.603 150.928 145.337 150.928 145.337C150.928 145.337 148.635 145.744 148.181 147.931C147.728 150.119 148.27 151.407 150.284 154.332C152.297 157.257 157.512 166.512 159.555 169.687C161.598 172.858 164.621 181.824 164.621 181.824Z" fill="#C65E2B"/>
<path d="M167.961 164.502C167.855 164.532 167.737 164.498 167.66 164.409C167.601 164.341 161.742 157.634 160.381 156.18C159.016 154.722 150.521 145.497 150.432 145.404C150.322 145.281 150.326 145.095 150.449 144.985C150.572 144.874 150.758 144.879 150.869 145.001C150.953 145.095 159.453 154.315 160.814 155.773C162.179 157.236 168.046 163.951 168.105 164.019C168.216 164.142 168.203 164.332 168.076 164.438C168.046 164.472 168.004 164.493 167.961 164.502Z" fill="#944620"/>
<path d="M173.718 161.717C173.603 161.747 173.476 161.705 173.4 161.607C173.349 161.539 168.466 154.879 166.821 152.713C165.184 150.555 157.677 142.726 157.6 142.649C157.486 142.531 157.49 142.34 157.609 142.225C157.728 142.111 157.918 142.115 158.033 142.234C158.342 142.556 165.642 150.165 167.3 152.353C168.945 154.528 173.832 161.187 173.883 161.255C173.981 161.387 173.951 161.573 173.82 161.671C173.786 161.692 173.752 161.709 173.718 161.717Z" fill="#944620"/>
<path d="M180.247 160.454C180.136 160.483 180.013 160.445 179.937 160.348C179.912 160.314 177.194 156.867 175.511 154.438C173.845 152.03 168.05 145.328 167.991 145.26C167.885 145.137 167.898 144.947 168.021 144.841C168.144 144.735 168.334 144.747 168.44 144.87C168.678 145.146 174.316 151.666 175.999 154.099C177.669 156.511 180.374 159.945 180.403 159.979C180.505 160.11 180.484 160.297 180.353 160.399C180.323 160.424 180.285 160.445 180.247 160.454Z" fill="#944620"/>
<path d="M183.282 156.833C183.176 156.859 183.061 156.829 182.985 156.744C182.515 156.223 181.34 154.794 179.975 153.141C177.597 150.254 174.337 146.303 173.701 145.803C172.222 144.633 171.005 144.031 170.272 144.111C169.331 144.217 168.457 145.247 168.449 145.256C168.394 145.32 168.313 145.362 168.228 145.362C168.144 145.366 168.063 145.332 168.004 145.269C167.97 145.235 164.595 141.699 163.481 141.089C162.4 140.495 160.704 140.097 159.559 140.478C158.504 140.83 158.114 142.479 158.109 142.496C158.084 142.598 158.008 142.683 157.91 142.712C157.808 142.746 157.698 142.721 157.622 142.649C157.609 142.636 156.27 141.441 154.943 140.533C154.807 140.44 154.773 140.254 154.866 140.118C154.96 139.982 155.146 139.948 155.282 140.042C156.227 140.69 157.177 141.475 157.669 141.899C157.889 141.284 158.398 140.233 159.373 139.91C160.746 139.452 162.616 139.927 163.769 140.563C164.803 141.131 167.431 143.815 168.216 144.624C168.58 144.26 169.343 143.607 170.208 143.514C171.124 143.412 172.425 144.022 174.074 145.328C174.71 145.832 177.22 148.855 180.437 152.755C181.794 154.4 182.968 155.824 183.43 156.337C183.54 156.46 183.532 156.647 183.409 156.757C183.371 156.799 183.329 156.825 183.282 156.833Z" fill="#944620"/>
<path d="M169.678 198.543C169.598 198.564 169.509 198.551 169.432 198.5C166.372 196.411 162.972 193.812 159.97 191.523C156.863 189.153 153.929 186.91 151.941 185.66C150.322 184.643 148.762 183.973 147.384 183.383C145.375 182.519 143.789 181.84 142.874 180.497C142.373 179.763 142.361 178.937 142.831 178.165C143.353 177.309 144.434 176.592 145.871 176.156C147.448 175.677 149.36 175.554 151.394 175.804C156.448 176.418 162.056 179.793 164.048 181.082C163.247 178.784 160.941 172.383 159.305 169.843C158.41 168.453 156.918 165.914 155.341 163.23C153.289 159.741 151.17 156.134 150.042 154.497C148.011 151.547 147.414 150.173 147.893 147.867C147.952 147.583 148.037 147.312 148.151 147.058C148.219 146.905 148.393 146.837 148.546 146.905C148.698 146.973 148.766 147.147 148.698 147.299C148.605 147.516 148.529 147.744 148.478 147.986C148.041 150.093 148.58 151.318 150.534 154.154C151.674 155.812 153.798 159.428 155.854 162.925C157.431 165.604 158.919 168.135 159.805 169.517C161.844 172.688 164.778 181.357 164.901 181.726C164.943 181.849 164.901 181.985 164.795 182.061C164.693 182.137 164.549 182.141 164.443 182.065C164.371 182.014 157.312 177.122 151.318 176.393C147.02 175.872 144.167 177.105 143.331 178.474C142.984 179.043 142.997 179.628 143.361 180.162C144.175 181.357 145.693 182.01 147.613 182.832C149.008 183.43 150.593 184.113 152.251 185.155C154.264 186.419 157.206 188.666 160.326 191.048C163.319 193.333 166.715 195.923 169.763 198.005C169.899 198.098 169.932 198.284 169.839 198.42C169.805 198.484 169.746 198.526 169.678 198.543Z" fill="#944620"/>
<path d="M168.584 189.573C168.453 189.607 168.309 189.547 168.245 189.42L164.358 181.959C164.281 181.815 164.337 181.633 164.485 181.557C164.633 181.48 164.811 181.535 164.888 181.684L168.775 189.145C168.851 189.289 168.796 189.471 168.648 189.547C168.627 189.56 168.605 189.569 168.584 189.573Z" fill="#DF6655"/>
<path d="M197.148 168.656C197.148 168.656 197.428 176.927 199.759 181.234C199.759 181.234 193.613 183.002 191.209 178.055L182.235 197.555C182.235 197.555 180.327 201.51 177.22 201.51L172.417 200.311L177.431 183.494L186.584 166.147L197.148 168.656Z" fill="#944620"/>
<path d="M217.946 73.033C211.714 99.1931 200.289 131.42 200.878 136.023C201.463 140.623 204.27 145.977 203.439 155.409C202.608 164.842 200.06 168.271 199.539 172.493C199.017 176.716 201.137 179.302 197.457 179.196C193.774 179.09 192.247 174.897 191.904 174.07C191.561 173.239 191.349 171.887 191.349 171.887C191.349 171.887 181.361 190.663 180.365 193.469C179.369 196.275 176.295 201.053 174.027 201.214C171.759 201.375 170.721 200.37 170.721 200.37C170.721 200.37 168.499 206.085 166.227 205.992C162.327 205.83 162.251 203.401 161.971 202.681C161.691 201.96 162.2 200.328 162.2 200.328C162.2 200.328 159.046 198.874 158.444 197.606C157.842 196.339 159.126 191.663 159.372 190.705C159.618 189.747 160.28 187.136 160.28 187.136C160.28 187.136 158.126 186.864 157.325 186.008C156.524 185.156 157.85 181.413 158.27 180.128C158.69 178.844 162.107 162.561 162.751 160.039C163.395 157.516 175.799 138.457 177.037 134.323C178.279 130.19 192.718 69.9384 193.498 65.7839L217.946 73.033Z" fill="#FAB890"/>
<path d="M199.102 150.169C199.2 150.263 199.242 150.411 199.195 150.551C199.166 150.64 196.054 159.623 195.071 162.039C194.096 164.434 191.722 171.921 191.696 171.997C191.637 172.188 191.429 172.294 191.238 172.234C191.048 172.175 190.942 171.967 191.001 171.777C191.099 171.467 193.409 164.184 194.397 161.764C195.376 159.364 198.479 150.403 198.509 150.313C198.572 150.123 198.78 150.021 198.971 150.089C199.022 150.106 199.068 150.135 199.102 150.169Z" fill="#F7823C"/>
<path d="M180.005 170.009C180.094 170.098 180.136 170.229 180.102 170.357C180.094 170.395 180.06 170.496 179.911 170.963C179.42 172.489 177.927 177.127 177.478 179.178C177.101 180.904 175.299 185.961 173.985 189.649C173.375 191.366 172.891 192.718 172.726 193.248C172.217 194.889 171.085 200.383 171.077 200.438C171.034 200.633 170.844 200.76 170.649 200.722C170.454 200.684 170.327 200.489 170.365 200.294C170.411 200.065 171.513 194.707 172.035 193.032C172.204 192.489 172.688 191.129 173.302 189.403C174.612 185.732 176.406 180.7 176.77 179.021C177.224 176.936 178.674 172.434 179.22 170.738C179.318 170.441 179.39 170.208 179.403 170.17C179.458 169.979 179.657 169.865 179.848 169.916C179.907 169.937 179.962 169.967 180.005 170.009Z" fill="#F7823C"/>
<path d="M171.365 169.7C171.458 169.789 171.5 169.924 171.462 170.06C171.305 170.628 167.63 183.981 167.333 184.965C167.037 185.944 162.594 200.29 162.547 200.438C162.488 200.629 162.284 200.739 162.094 200.68C161.903 200.62 161.793 200.417 161.852 200.226C161.899 200.082 166.341 185.736 166.638 184.761C166.931 183.786 170.725 170.013 170.763 169.878C170.818 169.683 171.017 169.568 171.208 169.623C171.272 169.627 171.322 169.661 171.365 169.7Z" fill="#F7823C"/>
<path d="M166.511 166.563C166.604 166.652 166.647 166.791 166.609 166.923C166.592 166.991 164.739 173.511 164.4 174.664C164.061 175.817 160.665 187.127 160.627 187.241C160.568 187.432 160.369 187.542 160.174 187.483C159.983 187.424 159.873 187.224 159.932 187.029C159.966 186.915 163.361 175.605 163.701 174.456C164.04 173.307 165.888 166.791 165.905 166.724C165.96 166.529 166.159 166.418 166.354 166.474C166.418 166.49 166.469 166.52 166.511 166.563Z" fill="#F7823C"/>
<path d="M199.539 178.386C199.539 178.386 196.143 177.792 195.482 176.927C194.821 176.062 194.999 173.375 195.3 171.827C195.601 170.28 197.996 170.522 198.704 170.844C199.412 171.162 199.658 172.247 199.67 173.409C199.691 174.57 200.412 177.682 199.539 178.386Z" fill="#EE0000"/>
<path d="M157.473 183.956C157.422 184.113 157.367 184.27 157.308 184.427C157.164 184.804 156.876 185.716 157.219 186.165C157.664 186.741 158.927 187.424 159.563 186.695C160.203 185.966 160.534 184.088 160.572 182.977C160.619 181.565 159.673 181.01 158.749 181.26C158.364 181.366 157.715 183.214 157.473 183.956Z" fill="#EE0000"/>
<path d="M203.689 155.146C203.765 155.218 203.808 155.324 203.799 155.439C203.282 161.31 202.104 164.871 201.158 167.732C200.586 169.462 200.094 170.958 199.899 172.535C199.73 173.917 199.853 175.143 199.95 176.122C200.073 177.364 200.175 178.343 199.598 178.962C199.195 179.394 198.513 179.585 197.449 179.551C194.961 179.479 192.998 177.724 191.624 174.329L191.569 174.197C191.417 173.824 191.285 173.362 191.192 172.951C189.187 176.732 181.56 191.184 180.713 193.579C179.759 196.267 176.634 201.383 174.061 201.566C172.459 201.68 171.42 201.239 170.89 200.921C170.284 202.354 168.368 206.432 166.219 206.343C162.56 206.19 162.005 204.118 161.738 203.121C161.704 202.99 161.67 202.875 161.64 202.799C161.394 202.163 161.632 201.057 161.776 200.51C160.941 200.099 158.677 198.908 158.126 197.75C157.571 196.584 158.338 193.252 158.965 190.845C158.991 190.747 159.012 190.667 159.029 190.603C159.216 189.874 159.648 188.182 159.839 187.419C159.143 187.292 157.732 186.953 157.07 186.245C156.329 185.457 156.837 183.303 157.834 180.31C157.872 180.2 157.901 180.102 157.931 180.013L159.47 174.371C159.521 174.176 159.724 174.062 159.915 174.117C160.11 174.168 160.224 174.371 160.169 174.562L158.626 180.217C158.626 180.221 158.622 180.23 158.622 180.234C158.592 180.323 158.558 180.429 158.52 180.543C157.511 183.579 157.202 185.329 157.596 185.753C158.181 186.376 159.771 186.694 160.33 186.766C160.432 186.779 160.525 186.834 160.585 186.923C160.644 187.008 160.661 187.118 160.636 187.216C160.636 187.216 159.97 189.827 159.728 190.785C159.711 190.849 159.69 190.934 159.665 191.031C158.512 195.453 158.546 196.957 158.775 197.441C159.224 198.382 161.509 199.599 162.357 199.989C162.522 200.065 162.607 200.251 162.552 200.425C162.369 201.01 162.145 202.1 162.314 202.536C162.357 202.647 162.395 202.782 162.433 202.935C162.687 203.889 163.12 205.487 166.244 205.618C167.893 205.686 169.792 201.752 170.386 200.23C170.428 200.116 170.53 200.031 170.649 200.005C170.767 199.98 170.89 200.014 170.979 200.099C171.017 200.133 171.954 200.989 174.006 200.841C176.007 200.696 178.991 196.258 180.026 193.333C181.018 190.535 190.62 172.468 191.031 171.7C191.103 171.56 191.26 171.488 191.412 171.514C191.565 171.539 191.688 171.662 191.713 171.815C191.718 171.827 191.921 173.133 192.247 173.913C192.264 173.951 192.281 173.998 192.303 174.049C193.557 177.148 195.3 178.754 197.474 178.818C198.301 178.843 198.822 178.725 199.073 178.458C199.424 178.08 199.34 177.245 199.234 176.185C199.132 175.168 199.005 173.9 199.187 172.434C199.391 170.785 199.895 169.259 200.48 167.491C201.413 164.663 202.574 161.145 203.087 155.362C203.104 155.163 203.282 155.015 203.481 155.032C203.553 155.053 203.63 155.091 203.689 155.146Z" fill="#F7823C"/>
<path d="M174.616 201.362C174.616 201.362 176.634 195.911 176.181 195.237C175.727 194.563 173.54 193.728 173.048 194.436C172.556 195.143 170.814 199.785 170.928 200.421C171.043 201.053 172.705 201.909 174.616 201.362Z" fill="#EE0000"/>
<path d="M163.23 194.749C163.23 194.749 163.204 193.49 162.594 193.024C161.983 192.553 160.415 192.295 159.966 192.837C159.512 193.384 157.884 197.589 158.257 198.174C158.63 198.755 161.297 200.027 161.712 199.751C162.128 199.472 163.23 194.749 163.23 194.749Z" fill="#EE0000"/>
<path d="M165.095 206.28C165.557 206.326 166.002 206.068 166.185 205.64C166.392 205.156 166.659 204.478 166.829 203.804C167.147 202.562 167.745 200.226 167.418 199.527C167.092 198.827 165.968 198.196 165.477 198.068C164.985 197.946 163.921 198.755 163.65 199.188C163.378 199.62 162.251 202.833 162.043 204.008C161.772 205.525 163.747 206.14 165.095 206.28Z" fill="#EE0000"/>
<path d="M339.933 170.463L282.704 176.02L278.888 143.518L335.6 135.794L339.933 170.463Z" fill="#BE0000"/>
<path d="M338.818 159.894L281.902 169.805L278.863 143.251L335.409 135.629L338.818 159.894Z" fill="#EE0000"/>
<path d="M231.557 43.2904L215.054 98.3662L183.523 89.6038L197.83 34.1846L231.557 43.2904Z" fill="#8B8B8B"/>
<path d="M224.232 40.9125L203.244 95.0981L183.536 89.7483L196.94 33.7313L224.232 40.9125Z" fill="#AAAAAA"/>
<path d="M246.34 295.85L204.193 238.468L232.397 218.412L279.499 269.469L246.34 295.85Z" fill="#BE0000"/>
<path d="M246.904 297.003L204.079 238.455L227.416 221.935L250.668 295.498L246.904 297.003Z" fill="#EE0000"/>
<path d="M259.074 176.054L254.123 176.555C253.114 176.656 252.207 175.915 252.109 174.906L249.464 148.644C249.362 147.635 250.104 146.728 251.113 146.63L256.064 146.13C257.073 146.028 257.981 146.77 258.078 147.779L260.723 174.041C260.825 175.05 260.083 175.953 259.074 176.054Z" fill="#2E2E2E"/>
<path d="M255.196 167.52C258.707 167.52 261.554 164.673 261.554 161.162C261.554 157.65 258.707 154.803 255.196 154.803C251.684 154.803 248.837 157.65 248.837 161.162C248.837 164.673 251.684 167.52 255.196 167.52Z" fill="#2E2E2E"/>
<path d="M255.195 166.185C257.97 166.185 260.219 163.936 260.219 161.162C260.219 158.387 257.97 156.138 255.195 156.138C252.421 156.138 250.172 158.387 250.172 161.162C250.172 163.936 252.421 166.185 255.195 166.185Z" fill="#6C6C6C"/>
<path d="M328.22 67.2972L249.578 130.538L231.888 111.321L296.774 46.08L328.22 67.2972Z" fill="#8F0000"/>
<path d="M315.765 58.1617L243.856 124.276L231.876 111.287L296.447 45.639L315.765 58.1617Z" fill="#BE0000"/>
<path d="M91.1295 251.749L131.389 193.028L159.631 213.033L126.972 274.344L91.1295 251.749Z" fill="black"/>
<path d="M110.499 216.903L129.338 190.717L161.746 214.08L147.613 244.602L110.499 216.903Z" fill="#AAAAAA"/>
<path d="M110.202 216.861L129.55 190.535L153.878 208.242L137.155 237.459L110.202 216.861Z" fill="#C9C9C9"/>
<path d="M120.109 216.339C121.565 216.339 122.746 215.159 122.746 213.703C122.746 212.246 121.565 211.066 120.109 211.066C118.652 211.066 117.472 212.246 117.472 213.703C117.472 215.159 118.652 216.339 120.109 216.339Z" fill="#AAAAAA"/>
<path d="M125.76 208.802C127.216 208.802 128.396 207.622 128.396 206.165C128.396 204.709 127.216 203.529 125.76 203.529C124.303 203.529 123.123 204.709 123.123 206.165C123.123 207.622 124.303 208.802 125.76 208.802Z" fill="#AAAAAA"/>
<path d="M139.914 105.195C139.474 105.768 139.334 106.128 139.334 106.128L139.291 106.255L139.202 106.361C133.929 112.682 129.202 114.038 128.625 114.183C126.145 115.098 124.191 116.472 122.813 118.265C121.495 119.978 121.203 121.47 121.198 121.483L121.181 121.58L121.139 121.669C120.885 122.203 120.596 122.708 120.287 123.174L128.854 132.572C129.681 133.48 131.101 133.547 132.013 132.716L153.658 112.983C154.565 112.156 154.633 110.736 153.802 109.825L145.773 101.016C142.42 102.546 140.733 104.127 139.914 105.195Z" fill="#EE0000"/>
<path d="M125.679 128.337L125.713 128.236L125.717 128.13C125.717 128.117 125.84 126.519 127.01 124.56C128.231 122.513 130.109 120.834 132.589 119.571C133.174 119.346 137.956 117.345 142.691 110.071L142.767 109.952L142.797 109.812C142.797 109.812 142.899 109.414 143.289 108.761C143.979 107.599 145.438 105.857 148.443 103.958L145.764 101.02C142.411 102.542 140.728 104.123 139.906 105.191C139.465 105.764 139.325 106.124 139.325 106.124L139.282 106.251L139.193 106.357C133.92 112.678 129.193 114.034 128.617 114.179C126.137 115.094 124.182 116.468 122.805 118.261C121.486 119.974 121.194 121.466 121.19 121.478L121.173 121.576L121.13 121.665C120.876 122.199 120.588 122.704 120.278 123.17L125.471 128.863C125.547 128.694 125.619 128.52 125.679 128.337Z" fill="#BE0000"/>
<path d="M79.4422 86.3311C79.4422 86.3311 85.7077 106.862 97.6835 112.737C97.6835 112.737 104.322 113.877 105.937 119.923C105.937 119.923 108.023 127.795 115.916 126.765C115.916 126.765 119.036 126.239 121.075 121.962C121.075 121.962 122.034 116.646 129.02 114.081C129.02 114.081 133.831 112.983 139.245 106.493C139.245 106.493 140.275 103.525 146.299 100.855C146.299 100.855 151.161 98.3322 151.326 93.2367C151.326 93.2367 150.623 86.0131 143.285 82.2487C143.285 82.2487 134.446 79.6246 134.929 72.4815C134.929 72.4815 133.7 62.1379 123.013 56.2157L73.2826 76.1739L79.4422 86.3311Z" fill="#EE0000"/>
<path d="M203.18 123.335C203.18 123.335 193.201 118.485 181.416 117.498L179.288 117.103C179.288 117.103 177.05 116.485 177.101 115.047L177.949 109.914C177.949 109.914 178.063 107.909 181.357 107.985C181.357 107.985 193.841 107.086 208.115 114.577C208.115 114.577 211.014 116.226 210.362 118.596C210.362 118.596 210.124 120.876 208.284 123.199C208.289 123.199 206.915 125.111 203.18 123.335Z" fill="#EE0000"/>
<mask id="mask1_282_4176" style="mask-type:luminance" maskUnits="userSpaceOnUse" x="153" y="163" width="126" height="69">
<path d="M278.21 205.924C258.527 197.208 218.331 185.635 215.686 183.028C213.041 180.421 210.993 176.041 204.583 171.997C198.174 167.953 194.757 167.911 191.811 166.198C188.869 164.481 188.25 161.878 186.533 164.273C184.816 166.669 186.745 169.674 187.105 170.297C187.465 170.921 188.224 171.709 188.224 171.709C188.224 171.709 171.424 168.966 169.152 168.241C166.884 167.516 162.348 167.156 161.144 168.521C159.94 169.886 160.08 171.039 160.08 171.039C160.08 171.039 155.362 169.683 154.319 171.175C152.53 173.735 154.044 174.96 154.366 175.49C154.688 176.016 155.977 176.487 155.977 176.487C155.977 176.487 155.375 179.2 155.888 180.196C156.401 181.196 160.004 182.642 160.733 182.951C161.462 183.261 163.446 184.104 163.446 184.104C163.446 184.104 162.577 185.609 162.73 186.534C162.882 187.458 165.909 188.428 166.931 188.78C167.952 189.136 179.979 194.855 181.899 195.665C183.82 196.479 201.972 197.818 205.207 199.035C208.441 200.247 268.35 229.549 271.376 231.066L278.21 205.924Z" fill="white"/>
</mask>
<g mask="url(#mask1_282_4176)">
<path d="M268.803 221.252C267.565 221.939 266.628 221.99 266.59 221.99C266.073 222.015 265.543 222.126 265.094 222.249V222.291C263.644 224.606 260.261 223.673 260.261 223.673C259.049 222.647 256.446 222.643 256.446 222.643L256.581 222.24C262.325 217.518 264.712 221.146 265.068 221.774C265.522 221.655 266.047 221.553 266.569 221.528C266.577 221.528 267.239 221.49 268.167 221.057C266.925 220.684 265.988 220.46 265.967 220.455L265.946 220.451C263.657 219.735 261.634 218.624 259.888 217.348C257.968 216.36 256.268 216.191 255.102 216.25L255.059 216.483C252.728 218.929 250.125 217.357 250.125 217.357C248.264 216.284 246.517 216.174 246.517 216.174L246.649 215.992C253.059 212.66 254.674 214.902 255.043 215.775C255.937 215.724 257.124 215.801 258.493 216.25C255.678 213.876 253.724 211.201 252.647 209.527C252.389 209.535 250.833 209.48 248.824 206.987C248.824 206.987 247.908 205.567 248.133 202.914C248.133 202.914 248.251 201.557 247.997 200.294L248.094 200.031L248.281 200.124L251.053 202.286C251.053 202.286 252.461 203.261 253.012 204.741C253.012 204.741 254.131 206.593 253.101 209.086C254.144 210.731 256.115 213.469 258.993 215.869C258.599 215.195 258.29 214.41 258.065 213.533C257.925 212.977 257.836 212.452 257.781 211.994H257.582C254.886 210.235 256.162 207.738 256.162 207.738C257.285 206.046 257.578 203.715 257.578 203.715L257.773 203.804C262.008 209.433 259.159 211.422 258.243 211.879C258.421 213.367 258.951 215.61 260.507 217.034C262.143 218.192 264.017 219.201 266.128 219.858C266.209 219.875 266.539 219.955 267.031 220.087C266.421 219.396 265.713 218.832 265.641 218.772C264.771 218.187 264.318 217.454 264.085 216.793H263.775C261.079 215.033 262.266 212.295 262.266 212.295C263.067 210.349 262.944 208.683 262.944 208.683L263.139 208.772C267.15 214.105 265.348 216.059 264.517 216.61C264.721 217.204 265.123 217.861 265.912 218.387L265.925 218.395C265.975 218.433 267.095 219.311 267.803 220.299C269.659 220.833 272.576 221.795 274.026 222.94L273.64 223.427C272.538 222.567 270.503 221.795 268.803 221.252Z" fill="#F7823C"/>
<path d="M280.927 207.975C280.927 207.975 284.259 207.806 283.111 204.936C283.111 204.936 282.365 203.104 280.699 203.893C280.699 203.893 279.889 203.961 278.876 205.415C278.753 205.593 277.193 207.11 277.193 207.11C277.193 207.11 277.595 207.517 277.74 208.141L280.927 207.975Z" fill="#F56D6D"/>
<path d="M275.857 203.91C275.878 204.13 275.658 206.314 275.658 206.314C275.658 206.314 276.23 206.365 276.739 206.746L279.083 204.533C279.083 204.533 281.533 202.214 278.803 200.765C278.803 200.765 277.048 199.849 276.281 201.545C276.277 201.545 275.7 202.125 275.857 203.91Z" fill="#F7823C"/>
<path d="M272.606 204.648C272.767 204.804 274.047 206.661 274.047 206.661C274.047 206.661 274.509 206.318 275.149 206.28L275.45 202.99C275.45 202.99 275.764 199.552 272.746 200.235C272.746 200.235 270.817 200.684 271.359 202.524C271.359 202.519 271.309 203.359 272.606 204.648Z" fill="#F7823C"/>
<path d="M270.55 207.259C270.779 207.289 272.97 207.98 272.97 207.98C272.97 207.98 273.119 207.42 273.598 206.996L271.737 204.185C271.737 204.185 269.791 201.248 267.841 203.647C267.841 203.647 266.603 205.194 268.206 206.326C268.206 206.33 268.701 207.03 270.55 207.259Z" fill="#F7823C"/>
<path d="M273.093 209.548C273.093 209.548 272.831 209.031 272.915 208.395L269.592 207.513C269.592 207.513 266.116 206.593 266.226 209.684C266.226 209.684 266.311 211.664 268.307 211.456C268.307 211.456 269.159 211.655 270.741 210.608C270.936 210.481 273.093 209.548 273.093 209.548Z" fill="#F7823C"/>
<path d="M277.401 209.964L280.003 211.943C280.003 211.943 282.725 214.012 283.734 211.091C283.734 211.091 284.366 209.218 282.538 208.713C282.538 208.713 281.86 208.23 280.097 208.658C279.88 208.709 277.651 208.827 277.651 208.827C277.651 208.827 277.701 209.4 277.401 209.964Z" fill="#F56D6D"/>
<path d="M280.117 216.093C280.117 216.093 281.826 215.093 280.779 213.516C280.779 213.516 280.584 212.706 278.973 211.871C278.774 211.769 277.019 210.396 277.019 210.396C277.019 210.396 276.675 210.858 276.082 211.087L276.747 214.292C276.743 214.287 277.438 217.636 280.117 216.093Z" fill="#F56D6D"/>
<path d="M276.544 215.992C276.544 215.992 276.905 215.229 276.192 213.537C276.103 213.329 275.62 211.117 275.62 211.117C275.62 211.117 275.06 211.261 274.454 211.057L272.937 214.008C272.937 214.008 271.351 217.094 274.399 217.598C274.395 217.598 276.353 217.904 276.544 215.992Z" fill="#F7823C"/>
<path d="M272.945 213.016C273.021 212.8 274.153 210.769 274.153 210.769C274.153 210.769 273.644 210.536 273.331 209.997L270.215 211.358C270.215 211.358 266.959 212.783 268.875 215.072C268.875 215.072 270.113 216.53 271.546 215.152C271.55 215.157 272.335 214.784 272.945 213.016Z" fill="#F7823C"/>
</g>
<path d="M314.918 259.639L264.344 232.287L279.329 203.194L330.687 228.459L314.918 259.639Z" fill="#AAAAAA"/>
<path d="M325.515 240.219L270.541 220.108L279.232 203.016L331.052 227.374L325.515 240.219Z" fill="#C9C9C9"/>
<path d="M231.744 181.345L239.065 186.936" stroke="#F7823C" stroke-width="1.35" stroke-miterlimit="10" stroke-linecap="round"/>
</g>
</svg>
