<?xml version="1.0" encoding="utf-8"?>
<!-- Generator: Adobe Illustrator 27.5.0, SVG Export Plug-In . SVG Version: 6.00 Build 0)  -->
<svg version="1.1" id="Layer_1" xmlns="http://www.w3.org/2000/svg" xmlns:xlink="http://www.w3.org/1999/xlink" x="0px" y="0px"
	 viewBox="0 0 718.2 634.3" style="enable-background:new 0 0 718.2 634.3;" xml:space="preserve">
<style type="text/css">
	.st0{fill:#DEDEDE;}
	.st1{fill:#C9C9C9;}
	.st2{fill:#AAAAAA;}
	.st3{fill:none;stroke:#FFFFFF;stroke-width:1.7522;stroke-linecap:round;stroke-linejoin:round;}
	.st4{fill:none;stroke:#AAAAAA;stroke-width:1.7522;stroke-linecap:round;stroke-linejoin:round;}
	.st5{fill:none;stroke:#000000;stroke-width:4.9062;stroke-miterlimit:10;}
	.st6{fill:none;stroke:#EE0000;stroke-width:1.9695;stroke-linecap:round;stroke-miterlimit:10;}
	.st7{fill:#6C6C6C;}
	.st8{fill:#FFFFFF;}
	.st9{clip-path:url(#SVGID_00000067932988623843880910000010664368821130393484_);}
	.st10{fill:none;stroke:#DEDEDE;stroke-width:1.7522;stroke-linecap:round;stroke-linejoin:round;}
	.st11{fill:#8B8B8B;}
	.st12{fill:none;stroke:#FFFFFF;stroke-width:1.4018;stroke-linecap:round;stroke-miterlimit:10;}
	.st13{fill:#231F20;}
	.st14{fill:none;stroke:#000000;stroke-width:1.7522;stroke-linecap:round;stroke-linejoin:round;}
	.st15{fill:#AAAAAA;stroke:#AAAAAA;stroke-width:1.7522;stroke-linecap:round;stroke-linejoin:round;}
	.st16{fill:none;stroke:#C9C9C9;stroke-width:1.7522;stroke-linecap:round;stroke-linejoin:round;}
	.st17{fill:#FFFFFF;stroke:#EE0000;stroke-width:1.556;stroke-linecap:round;stroke-linejoin:round;}
	.st18{fill:#4D4D4D;}
	.st19{fill:none;stroke:#EE0000;stroke-width:1.7522;stroke-linecap:round;stroke-linejoin:round;}
	.st20{fill:#8F0000;}
	.st21{fill:#5F0000;}
	.st22{fill:#FFFFFF;stroke:#FFFFFF;stroke-width:1.7522;stroke-linecap:round;stroke-linejoin:round;}
	.st23{fill:#C9C9C9;stroke:#C9C9C9;stroke-width:1.7522;stroke-linecap:round;stroke-linejoin:round;}
	.st24{fill:none;stroke:#FFFFFF;stroke-width:1.4018;stroke-miterlimit:10;}
	.st25{fill:#EE0000;}
	.st26{fill:#BE0000;}
	.st27{clip-path:url(#SVGID_00000162310350780027205920000003099877226228904862_);}
	.st28{fill:none;stroke:#8F0000;stroke-width:1.7522;stroke-linecap:round;stroke-linejoin:round;}
	.st29{stroke:#000000;stroke-width:1.6891;stroke-miterlimit:10;}
	.st30{fill:#F3F3F3;}
	.st31{fill:none;stroke:#C9C9C9;stroke-width:4.4296;stroke-linecap:round;stroke-linejoin:round;}
	.st32{clip-path:url(#SVGID_00000102531641157985640540000010342225367566238902_);}
	.st33{fill:none;stroke:#6C6C6C;stroke-width:1.4018;stroke-linecap:round;stroke-linejoin:round;}
	.st34{fill:#EE0000;stroke:#EE0000;stroke-width:1.7522;stroke-miterlimit:10;}
	.st35{fill:none;stroke:#FFFFFF;stroke-width:4.2053;stroke-linecap:round;stroke-linejoin:round;}
	.st36{clip-path:url(#SVGID_00000029032252633025541770000014770243238547020958_);}
	.st37{fill:none;stroke:#FAB6B6;stroke-width:1.7522;stroke-linecap:round;stroke-linejoin:round;}
	.st38{fill:none;stroke:#FFFFFF;stroke-width:2.1026;stroke-linecap:round;stroke-linejoin:round;}
</style>
<g id="container">
	<path class="st0" d="M628.9,238c-15.5-12.8-32.1-24.5-45.8-39.6c-33.1-36.6-33.5-86.6-64.9-124.1c-55-65.6-152.7-74.3-218.3-19.3
		c-15,12.6-27.5,27.8-36.8,45c-14.4,36.4-34.4,70.2-59.3,100.3c-23,27.8-54,47.8-76.7,75.7c-63,77.4-10.6,204,89,213.4
		c43.9,4.1,87.3-11.8,131.1-12.4c32.6-0.5,65.4,2.8,96.5,12.8c30.8,9.9,56.9,23.9,90.4,23.6c85.6-0.8,154.3-70.9,153.5-156.5
		c-0.3-32.1-10.6-63.3-29.4-89.3C649.9,256.3,639.6,246.9,628.9,238L628.9,238z"/>
</g>
<g id="gfx">
	<path class="st1" d="M329.4,583.4c0.5-7.5-19.9-15.1-23.3-16.1s-11.2,0.3-14.7-3.9c-2.1-2.5-4.9-4.2-8-5l0,0
		c-0.5-0.6-1.1-1.2-1.8-1.8c-1-0.8-2.2-1.5-3.4-2c-8.2-3.3-10.7-18.4-14.5-25.4c-3-5.6-8.9-8.4-11.5-9.4c-0.6-0.2-1.3-0.4-2-0.6
		c-1.3-0.3-4.7-1.2-9.8-4.6c-6.5-4.2-14.8-11.9-30.4-1.5c-1.6,1.1-3.5,1.7-5.4,1.9c-3,0.2-8.5,0.6-17.6,0.9c0,0-7.1-2.1-23,13.9
		c-0.9,0.9-2,1.7-3.2,2.3c-3.7,1.7-18.9,5.8-29.7,2.1c-0.4-0.1-0.8-0.3-1.2-0.5c-2.9-1.4-18.1-7.7-40.1,4.8
		c-0.3,0.2-0.7,0.4-1.1,0.5c-2.1,0.9-11.6,5.8-22.9,22.4c-1,1.5-2.3,2.7-3.8,3.5c-8.6,4.8-37,19.3-40.9,2.9
		c-0.1-0.5-0.6-0.8-1.1-0.6c-0.4,0.1-0.7,0.4-0.7,0.8c-0.3,7.7,0,22.1,16.4,23.7c-4.6,3.8-10.5,5.8-16.4,5.6
		c-0.9,10.7,6.5,13.6,6.5,13.6c19.1,7.5,25.6-6.3,25.6-6.3c4.2-6.6,11.3-10,17.8-11.7c-0.6,1.2-4.5,9.9,3.1,13.3c0,0,4,7.4,14.2,4
		c0,0,2.6-1.6,3.5-4c0,0,8.6-1.2,8.6-7.9c0,0,3.6-2.2,7.1-0.6c2,0.9,4.2,1.3,6.3,1.4c7.8,0.2,23.1,0.1,27.2-4.1
		c5.3,0.4,10.5,0.2,15.8-0.6l0,0c1.2,4.1,3.4,6.1,6.4,6.1c0,0,4.4,1.1,5.4-7.7c0,0,0.9-6.5,4.4-9.3l0,0c-0.2,3.8,0.2,7.7,1.4,11.4
		c0,0,0.8,1.7,1.7,4c2.3,5.9,8,9.8,14.3,10l1.7,0c1.3,0,2.6,0,3.9,0c3.5-0.1,11.2-0.2,15.4,0.2c1.7,0.2,3.4-0.7,4.3-2.1
		c1.1-1.7,2-3.5,2.6-5.4l0,0c3.2-2.6,14.4-0.3,14.4-0.3c16,2,20-5.2,20.9-7.4l0.2,0c0,0,16.2,4.9,28.9-1.5l13.2-0.7
		c1.1,0.5,2.1,1.3,3,2.1c6,6,16.8,12.2,27.9-1.7l1,1.2c0.5-1,0.6-2.1,0.5-3.2l0.1-0.1h-0.1c0-0.3-0.1-0.6-0.3-0.9l0.3,0.2
		C330,587.8,329.4,583.4,329.4,583.4L329.4,583.4z"/>
	<path class="st2" d="M153.9,580.4c0.4-8.3,3.9-13.1,6.5-15.6c-1.3,0-2.6,0.2-3.9,0.3c-5.4,0.7-16.3-4.7-21.7-2.3
		c0,0-4.1,10.4-8.3,13.5c-2.1,1.5-4,3.3-6.1,4.8c-2.1,1.5-4.6,2.2-7,3.3c-4.9,2.2-10.1,3.9-15.5,5c-5.6,1-11.9,1.4-17.6,1.9
		c-3.9,0.5-7.8,1.3-11.6,2.5c-2.1,5.1-1.4,10,3.6,12.3c0,0,4,7.4,14.2,4c0,0,2.6-1.6,3.5-4c0,0,8.6-1.2,8.6-7.9c0,0,3.6-2.2,7.1-0.6
		c2,0.9,4.2,1.3,6.3,1.4c7.8,0.2,23.1,0.1,27.2-4.1c5.3,0.4,10.5,0.2,15.8-0.6l0,0C154,591,153.6,586.4,153.9,580.4L153.9,580.4z"/>
	<path class="st2" d="M216.5,601.5L216.5,601.5c3.2-2.6,14.4-0.3,14.4-0.3c16,2,20-5.2,20.9-7.4l0.2,0c0,0,16.2,4.9,28.9-1.5
		l13.1-0.7c-3.7-3.6-7.9-6.7-12.3-9.4c-7.4-4.6-15.4-8.3-23-12.7c-4-2.3-8.1-5.6-12.9-5.7c-0.8,0-1.6,0.1-2.4,0.3
		c2.8,3.4,6.6,8.9,6.6,14c0,0,4,23.2-18.4,17.3"/>
	<path class="st3" d="M171.1,583.4c-3.6,2.8-4.4,9.3-4.4,9.3c-0.9,8.8-5.4,7.7-5.4,7.7c-5.4,0.1-8.2-6.7-7.5-19.9
		c0.7-13.3,9.3-17.7,9.3-17.7c4.4-4.9,9.3-15,9.3-15s2.6-7.8,13.5-6.9c0,0,14,2.4,24-0.1c0,0,12-1.8,16.2,4.5
		c0,0,6.7,13.5,14.1,15.7c0,0,9.5,9.1,9.5,17.2c0,0,4,23.2-18.4,17.3"/>
	<path class="st0" d="M218.8,588.8c0,0,10.2-6.3,16.6-5.9c1.2-0.3,2.4-0.7,3.5-1.3c1-0.7,2.2-1,3.4-0.9c3,0.3,7.7,1.3,7,4.8
		c0,0,4.7,2.1,2.6,7.5c0,0-2.1,10.4-21.1,8.1c0,0-11.2-2.3-14.4,0.3C216.5,601.5,218.5,591.6,218.8,588.8L218.8,588.8z"/>
	<path class="st1" d="M216.5,601.5c3.2-2.6,14.4-0.3,14.4-0.3c19,2.3,21.1-8.1,21.1-8.1c2.1-5.4-2.6-7.5-2.6-7.5
		c0.6-3.5-4-4.5-7-4.8c-1.2-0.1-2.4,0.2-3.4,0.9c-1.4,0.9-6.1,1.4-6.1,1.4s-1,0.2-2.8,0.6c-1.8,0.4-11.3,5.1-11.3,5.1"/>
	<path class="st4" d="M309.6,589.7c0,0,10.7,1.8,7.6,9"/>
	<path class="st4" d="M318.2,584.2c0,0,10.7,1.8,7.6,9"/>
	<path class="st4" d="M251.8,593.8c0,0,17.3,5.2,30.1-2c0,0,8.8-4.2,15.1,2c6.3,6.2,17.9,12.8,29.4-3.8"/>
	<path class="st5" d="M321.5,596.6c2.8-5,27.1-39,27.1-39v-95.8"/>
	<polyline class="st5" points="410.9,588.8 348.5,557.6 274.8,588.8 	"/>
	<circle cx="331.4" cy="603" r="14.2"/>
	<circle cx="393.6" cy="603" r="14.2"/>
	<circle cx="281.9" cy="598.3" r="14.2"/>
	<path class="st6" d="M407.7,585.1c0,0,11.2,3.8,7.6,15.3"/>
	<rect x="331.2" y="467.4" class="st7" width="34.9" height="13.5"/>
	<rect x="74.6" y="292.7" class="st8" width="624.4" height="56.4"/>
	<g>
		<defs>
			<path id="SVGID_1_" d="M628.9,238c-15.5-12.8-32.1-24.5-45.8-39.6c-33.1-36.6-33.5-86.6-64.9-124.1
				c-55-65.6-152.7-74.3-218.3-19.3c-15,12.6-27.5,27.8-36.8,45c-14.4,36.4-34.4,70.2-59.3,100.3c-23,27.8-54,47.8-76.7,75.7
				c-63,77.4-10.6,204,89,213.4c43.9,4.1,87.3-11.8,131.1-12.4c32.6-0.5,65.4,2.8,96.5,12.8c30.8,9.9,56.9,23.9,90.4,23.6
				c85.6-0.8,154.3-70.9,153.5-156.5c-0.3-32.1-10.6-63.3-29.4-89.3C649.9,256.3,639.6,246.9,628.9,238L628.9,238z"/>
		</defs>
		<clipPath id="SVGID_00000011737315998647564550000001766293937223696000_">
			<use xlink:href="#SVGID_1_"  style="overflow:visible;"/>
		</clipPath>
		<g style="clip-path:url(#SVGID_00000011737315998647564550000001766293937223696000_);">
			<g>
				<rect x="313.4" y="7.4" class="st8" width="292.9" height="176.6"/>
				<line class="st10" x1="453.9" y1="8.3" x2="453.9" y2="183.2"/>
				<rect x="296.8" y="183.7" class="st11" width="328.2" height="8.6"/>
				<line class="st10" x1="313.4" y1="83.1" x2="606.3" y2="83.1"/>
			</g>
		</g>
	</g>
	<path class="st3" d="M172.5,576.2c-2,6-2,12.5,0,18.5c0,0,0.8,1.7,1.7,4c2.3,5.9,8,9.9,14.3,10l1.7,0c1.3,0,2.6,0,3.9,0
		c3.5-0.1,11.2-0.2,15.4,0.2c1.7,0.2,3.4-0.7,4.3-2.1c1.9-3,4.7-8.9,4.9-18.1c0,0,10.2-5.6,13.4-5.5l-2-3c-1.5-2.4-2.1-5.2-1.6-8
		c0.2-1.1,0.2-2.2,0.1-3.3"/>
	<path class="st4" d="M178.9,558.9c0,0,5.1-3.7,7.6,0c2.5,3.7,1.9,16.2-1.1,20.8c-3,4.7-5,11.7,0,18"/>
	<path class="st12" d="M331.5,592.6c0,0,11.7,1.5,10.5,13.5"/>
	<path class="st12" d="M286.2,588.3c0,0,10,6.2,4,16.6"/>
	<path class="st3" d="M40.4,586.5c11.4-2.1,33.6-15.1,33.6-15.1c13.5-12.4,25.7-15.2,25.7-15.2"/>
	<path class="st4" d="M134.8,561c0,0-0.9,24.8-51,30.1c0,0-23.1-1.1-32.4,13.5c0,0-6.5,13.8-25.6,6.3"/>
	<path class="st4" d="M200.9,561.9c0,0,0.2-5.7,9.6-5.7"/>
	<path class="st13" d="M184.4,597.9c-0.9-1.4-2.2-4.4,0.4-6.8c0.6-0.6,1.4-1,2.2-1.3c2.2-0.7,7.2-2.1,10.9,0.4c0,0,5.2,3,3.2,7.5
		c-0.3,0.7-0.9,1.1-1.7,1.1h-3.2c-1.5,0-2.9-0.4-4.2-1.2l0,0l-0.3,0.2c-1.2,0.7-2.5,1.1-3.9,1.1h-1.9
		C185.3,598.7,184.7,598.4,184.4,597.9L184.4,597.9z"/>
	<path class="st14" d="M175.4,566.1c1.6,2.6,6.3,3.7,9.2,2.3"/>
	<path class="st14" d="M212.6,565.9c-1.4,2.7-6.1,3.9-9.1,2.7"/>
	<path class="st15" d="M251.1,585.5c-3.2,1.3-6.6,1.9-10.1,1.6"/>
	<path class="st15" d="M252.6,589.8c0,0-3.9,2.2-7.2,1.8"/>
	<line class="st16" x1="349.6" y1="93.9" x2="328.2" y2="115.3"/>
	<line class="st10" x1="367.3" y1="91.7" x2="341.4" y2="117.7"/>
	<line class="st16" x1="417.6" y1="41.4" x2="391.7" y2="67.4"/>
	<line class="st16" x1="494.2" y1="94.2" x2="468.3" y2="120.2"/>
	<line class="st16" x1="333.5" y1="125.6" x2="323.5" y2="135.5"/>
	<path class="st11" d="M411.4,592.9c-10.1-12.2-9.6-27.4-6.3-33.3c0.8-1.4,0.3-3.3,2.4-5.3c2.1-2.1-20.3-19.3-23.1-16.5
		c-4,4-8.6,7.5-13.7,10.1c-7.3,3.7-11.3,5.9-13.8,11.2c-0.5,1.1-0.5,2.3,0,3.4c2.8,6,7.2,11.2,12.6,15.1c10,7.1,7.9,10.8,18.1,21.9
		c10.2,11.2,18.1,16.9,23,14.2S421.4,605.1,411.4,592.9z"/>
	<path class="st17" d="M395.2,526.8c0,0,8.1,14.7,21.8,20c0,0-7.7,6.7-12,12.1c0,0-1.4-6.1-9.1-2.1c-3.1,1.6-7,1.1-9.7-7.3
		c-1.3-4-5.5-5.6-6.7-6.6C379.6,542.9,391.6,531.3,395.2,526.8L395.2,526.8z"/>
	<path class="st18" d="M360.6,553.9c0,0-3,6.2,10.6,16.5c13.6,10.3,12.9,15.4,18.1,22.9c5.2,7.5,17.1,20.3,24.5,18.1
		c0,0-7.5,14.1-30.4-15.4c-0.3-0.4-0.6-0.9-0.9-1.4c-1.3-2.6-6.1-11.8-13.2-16.9c-7.8-5.6-11.5-12.1-13-15.9c-0.2-0.6-0.2-1.3,0-1.9
		C357.1,558.2,358.6,555,360.6,553.9L360.6,553.9z"/>
	<polyline class="st19" points="64.7,365.6 64.7,349.1 687,349.1 	"/>
	<path class="st20" d="M379.6,314.3h15.9l10.7-3.6l21.1,24.9c0,0-24.9,0.7-27.9-1.9c-3-2.6-23.9-1.3-23.9-1.3L379.6,314.3
		L379.6,314.3z"/>
	<path class="st21" d="M399.4,324.4c-2.4-2.1-16.4-1.7-21.7-1.4l-2.1,9.4c0,0,20.9-1.2,23.9,1.3c3,2.6,27.8,1.9,27.8,1.9l-7.8-9.2
		C411.9,326.3,401.2,326,399.4,324.4L399.4,324.4z"/>
	<polygon points="454.4,253.8 434.8,316.8 437.1,328.7 472.3,331.6 520.6,327.1 543.3,253.8 	"/>
	<polygon class="st22" points="458.7,259.5 536,259.8 517.2,317.6 441,315.5 	"/>
	<line class="st16" x1="528" y1="266.2" x2="488.2" y2="266.2"/>
	<line class="st16" x1="482.2" y1="266.2" x2="462" y2="266.2"/>
	<line class="st16" x1="525" y1="272.8" x2="486" y2="272.8"/>
	<line class="st16" x1="522.3" y1="279.4" x2="483.9" y2="279.4"/>
	<line class="st16" x1="520.2" y1="286.1" x2="481.1" y2="286.1"/>
	<line class="st16" x1="474.9" y1="286.1" x2="457" y2="286.1"/>
	<polygon class="st23" points="517.3,294.1 453.9,293.8 450.1,305 513.5,306 	"/>
	<path class="st20" d="M355.1,188.5l-4.9,16.5l49.2,11.6l7-10.1c0,0,3.6-11,5-12.7c0,0,3.8-5.4,1.9-10.6l2.2-3
		c0.9-1.2,1.2-2.9,0.7-4.3l-0.9-2.9c0,0,0.4-13.1-5.2-15.1l-49.4,10.8L355.1,188.5L355.1,188.5z"/>
	<path class="st24" d="M399.4,216.6l7-10.1c0,0,3.6-11,5-12.7c0,0,3.8-5.4,1.9-10.6l2.2-3c0.9-1.2,1.2-2.9,0.7-4.3l-0.9-2.9
		c0,0,0.4-13.1-5.2-15.1"/>
	<path class="st21" d="M394.9,207.2c-0.4-2.3-0.6-4.6-0.5-6.9c0.1-2.5,0.8-4.8,0.9-7.3c0.1-4.5-0.5-9.1-2-13.4
		c-2-5.8-4.8-11.3-8.3-16.4l-24.3,5.3l-5.6,19.9l-4.9,16.5l47.3,11.2C396.4,213.3,395.5,210.3,394.9,207.2L394.9,207.2z"/>
	<path class="st11" d="M473.8,582.6c-18.8-3.6-32-16.4-33.6-24.4c-0.4-1.9-0.3-4.9,0-8.4c0.3-3.5-35.2-2.3-35.7,2.6
		c-0.7,7.3-0.9,14-3.5,20c-4.3,10.1-6.3,15.2-3.5,23.2c7.8,4.2,16.6,6,25.4,5.3c14.8-1.2,15.7,3.9,33.8,6.4s29.9,1.7,32.4-4.6
		C491.7,596.3,492.6,586.2,473.8,582.6L473.8,582.6z"/>
	<path class="st25" d="M406.3,536c0,0,10.3,9.3,27,3.6c0,0,6.6,9.3,6.8,17.7c0,0-6-3.6-10,6.1c-1.6,3.9-5.6,6.4-14.6,0.7
		c-4.3-2.7-9.4-1-11.4-1C404.2,563,406.4,542.9,406.3,536L406.3,536z"/>
	<path class="st18" d="M396.5,585.6c0,0,2,8.1,22.6,7.1c20.6-1,23.9,4.3,34.5,7.2c10.6,2.9,31.7,5.7,36.8-2.1c0,0,3.5,18.2-41.7,7.9
		c0,0-13.2-5.8-25.7-4.9c-8.8,0.6-17.6-1.2-25.4-5.3C397.6,595.5,395.7,588.9,396.5,585.6L396.5,585.6z"/>
	<path d="M373.3,386.9c0,0,55.4-7.1,75.4,3.4c0,0,16.6,6.5,4.8,39.5c0,0-23.9,113.1-9.3,127.8c0,0-27.6-0.1-40.7-6.7
		c0,0,7.7-72.1,6.8-77.1c0,0-4.4-33.2-2.6-49.4l-39.3-14.9L373.3,386.9L373.3,386.9z"/>
	<path d="M391.5,395.3l8.7,3.7c0,0,97.3,7.2,110.9,12.5c0,0,15.8,6.7,18.6,17c2.8,10.3,8.4,23.4-13.7,40.8l-111.9,95.4
		c-12.3-1.4-23.1-8.7-28.9-19.6c0,0,37.5-37.2,40.7-45.6c3.2-8.4,49.5-42.5,49.5-42.5l-12.6-1.4c0,0-122.9,15.7-137.1,4.2
		c-14.2-11.5-38.9-49.1-21.6-74L391.5,395.3L391.5,395.3z"/>
	<path class="st20" d="M393.3,287.7c4.7,9.4,10.1,18.5,16.2,27.2l12.2,17.4c5.1,7.3,11.4,13.5,18.7,18.6c0,0,6.1,2,11.3-1.4
		c0,0,17.4-5.9,29.7-19.9l9-8.9c0,0,3.1-4.4,0-8.9c0,0-2.8-1.4-3-3.6c0,0-0.6-1.8-2.2-1.8s-2.1-2-3.7-3.8c-1.6-1.8-3-0.7-4.4-0.8
		c-1.4-0.1-1.4-2.4-4-2.9c-1.6-0.2-3.2,0.3-4.3,1.5l-3.8,5.2l-3.5-0.8c-1.2,0.2-2.8,1.6-2.8,1.6c-0.2,0.6-0.4,1.2-0.4,1.8
		c-0.3,0.8-0.5,1.7-0.6,2.5c-0.4,2.8,1.1,4.9,2.2,7.3c0,0-7,0.1-13.1,2.8c0,0-19.5-43-25.2-48.1L393.3,287.7L393.3,287.7z"/>
	<path class="st25" d="M458.6,315.3l-11,1.2l-2.3-5.6l-14.7-31.1c-0.3-0.6-0.6-1.3-0.8-2l-14.2-43.5c-2.8-7-7.6-13-11.8-17.4
		c-4.2-4.3-9.5-7.3-15.4-8.6c-4.4-1-8.8-1.9-13.2-2.8l-12.5-2.4c-4.2-0.6-8.3-1.7-12.5-1.8c-5.5-0.1-9.6,1.8-14.4,4.2
		c-2.7,1.4-5.4,2.8-8.1,4.3c-15,8.7-28.1,19.3-34.3,35.6c-3.6,9.4-5.4,19.6-4.7,29.6c0.3,4.6,0.6,9.1,0.6,13.7v100.3
		c0,0,8.6,12.7,38.8,15.5c13.8,1.2,27.6,0.1,41-3.4l22.4-5.8l-2.7-9.5c-1.2-4.3-1.3-8.8-0.1-13.1l1.9-6.7c0.6-2.2,0.4-4.5-0.6-6.6
		c-2-4.4-2.6-9.4-1.7-14.2c1.4-7.2,3.2-18.9,3.2-30.4c0-7.5,1.3-14.9,3.8-21.9c4.3,8.6,8.6,17.1,13.9,26.7c4.1,7.4,9.1,14,14.8,21.2
		c4.2,5.2,9,10,14.2,14.2c1.6,1.3,3.9,1.7,5.8,0.9c8.5-3.6,32.2-14,34.7-18.5C478.8,337.3,476.2,315,458.6,315.3L458.6,315.3z"/>
	<path class="st26" d="M387.8,379.5c-12.8-0.8-25.3,0.6-34.3-9.2c-5.5-6-9-13.6-11.3-21.4c-2.3-8.3-3.3-16.9-3-25.6
		c0.2-8.9,1.9-17.7,5-26.1c1.5-3.9,3.4-7.6,5.8-11c2.7-3.8,6-7.1,9.3-10.3c7.3-7.1,15.3-13.7,21.6-21.9c6.5-8.5,10.2-18.6,12.5-28.9
		c1-4.6,1.7-9.3,2.3-14c-2.3-1.2-4.8-2.1-7.4-2.7c-4.4-1-8.8-1.9-13.2-2.8l-12.5-2.4c-4.2-0.6-8.3-1.7-12.5-1.8
		c-5.5-0.1-9.6,1.8-14.4,4.2c-2.7,1.4-5.4,2.8-8.1,4.3c-15,8.7-28.1,19.3-34.3,35.6c-3.6,9.4-5.4,19.6-4.7,29.6
		c0.3,4.6,0.6,9.1,0.6,13.7v100.3c0,0,8.6,12.7,38.8,15.5c13.8,1.2,27.6,0.1,41-3.4l22.4-5.8l-2.7-9.5
		C388.3,383.7,388,381.6,387.8,379.5z"/>
	<g>
		<defs>
			<path id="SVGID_00000046314627853762296260000004260682106780974239_" d="M423.7,265.1l-8.1-30.8c-5.5-13.6-19.3-24.2-19.3-24.2
				c-7-1.6-14.1-3.2-21.2-4.6l-12.5-2.4c-4.2-0.6-8.3-1.7-12.5-1.8c-5.5-0.1-9.6,1.8-14.4,4.2c-2.7,1.4-5.4,2.8-8.1,4.3
				c-15,8.7-28.1,19.3-34.3,35.6c-3.6,9.4-5.4,19.6-4.7,29.6c0.3,4.6,0.6,9.1,0.6,13.7v100.3c0,0,8.6,12.7,38.8,15.5
				c13.8,1.2,27.6,0.1,41-3.4l22.4-5.8l-2.7-9.5c-1.2-4.3-1.3-8.8-0.1-13.1l1.9-6.7c0.6-2.2,0.4-4.5-0.6-6.6
				c-2-4.4-2.6-9.4-1.7-14.2c1.4-7.2,3.2-18.9,3.2-30.4c0-18.6,7.9-30.5,7.9-30.5L423.7,265.1L423.7,265.1z"/>
		</defs>
		<clipPath id="SVGID_00000183218645073166373150000006486393608687841193_">
			<use xlink:href="#SVGID_00000046314627853762296260000004260682106780974239_"  style="overflow:visible;"/>
		</clipPath>
		<g style="clip-path:url(#SVGID_00000183218645073166373150000006486393608687841193_);">
			<g>
				<line class="st28" x1="379.7" y1="388" x2="383.2" y2="397.3"/>
				<line class="st28" x1="360.1" y1="391.4" x2="361.1" y2="403.2"/>
			</g>
		</g>
	</g>
	<path class="st28" d="M330,387.5c0,0,25.1,3.4,47.2-4.7"/>
	<path class="st8" d="M452.9,455.4c-59.6,3.2-93-3.2-107.2-46.3c-7.5-22.7-19-42.3-28.3-55.8c-14.1-20.6-37.1-33.4-62.1-34.4
		c-1.7-0.1-2.6,0-2.6,0s-1.4-1.6,5.8,11.4c11.9,21.8,12.5,47.1,16.5,71.1c2.5,14.8,7,29.5,14.4,42.6c4.5,8,10.5,15.3,18.3,20
		c8.1,4.9,17.7,6.7,27.1,7.4c30.5,2.1,59.3-6.8,89.3-9.6c6-0.5,11.9-1.5,17.8-2.8C446.3,458.1,450.7,456.8,452.9,455.4z"/>
	<path class="st29" d="M354.7,188.9c0,0,15.9,5.9,28.9-3.3c1.1-0.8,2.1-1.8,2.9-3c2.3-3.7,9.5-13.1,20.3-6.8c0,0,6.7-3.1,4.9-15.6
		c0,0,6.4-4.6,4.4-11l-15.7-12.9c-12.1-10-30-9.7-41.4,1.2c-0.3,0.3-0.6,0.5-0.8,0.8l-1,1.6c-2.9,4.5-5,9.4-6.2,14.6l0,0
		c-1.5,6.5-1.7,13.3-0.6,19.8L354.7,188.9L354.7,188.9z"/>
	<path class="st30" d="M558.9,300h-16.3v14.9c0,10.7,7.3,19.4,16.3,19.4l0,0c9,0,16.3-8.7,16.3-19.4V300H558.9z"/>
	<path class="st0" d="M567.2,326L567.2,326c-9,0-16.3-8.7-16.3-19.4V300h-8.3v14.9c0,10.7,7.3,19.4,16.3,19.4l0,0
		c6,0,11.2-3.8,14-9.6C571.1,325.6,569.2,326,567.2,326z"/>
	<ellipse class="st18" cx="558.9" cy="300" rx="16.3" ry="2.4"/>
	<path class="st8" d="M228.8,267v46.5c-14.3,5.7-30.2,5.7-44.5,0V267"/>
	<path class="st0" d="M209.8,303.5c-3-1.5-5.9-3.4-8.4-5.6c-2.2-2-4-4.3-5.4-6.8c-3.3-5.7-5.2-12.3-6.2-18.9
		c-0.3-1.8-0.5-3.5-0.6-5.3h-4.8v46.5c14.3,5.7,30.2,5.7,44.5,0v-4.1C222.2,308.4,215.8,306.4,209.8,303.5L209.8,303.5z"/>
	<ellipse class="st2" cx="206.6" cy="267" rx="22.2" ry="2.1"/>
	<path class="st31" d="M571,307.8h14.3v5.2c0,6.3-5.1,11.4-11.4,11.4c-1,0-1.9-0.1-2.9-0.4l0,0"/>
	<path d="M173.3,178.3c0,0,0.3,15.1-1.5,23s-4.4,23.3,1.6,30.9c4.6,5.8,14.4,23.3,18.7,31.2c1.4,2.5,3.9,4,6.7,4h6.2
		c0,0-11.5-23.9-10.8-32c0.7-8.1-1.7-22-7.3-29c-5.6-7-5.6-16.3-7-20.2C178.7,182.3,173.3,178.3,173.3,178.3L173.3,178.3z"/>
	<path d="M206.7,261.3c0,0,6.3-10,6.9-15.8c0.5-5.9,19.2-32.4,39.8-34.5l10.9-0.8c-10.3,8.6-22.9,17.9-29.2,30
		c-1.8,3.5-2.8,4.9-6.2,6.4c-3.1,1.4-5.2,4.1-6.7,7.2c-0.7,1.6-1.4,3.2-1.8,4.9c-1.5,4.9-6.3,8-11.3,7.4l-4.6-0.6L206.7,261.3
		L206.7,261.3z"/>
	<path class="st23" d="M199.6,160.6c0,0-3,50.8-6.9,62.5s1.1,36.2,7,44.3h12.9c3.3,0,6.1-2.5,6.4-5.7c1-8.9,2.5-26.3,0-38.8
		c-1-4.5-0.8-9.1,0.5-13.4c1-2.8,0.9-5.8-0.1-8.5L199.6,160.6L199.6,160.6z"/>
	<g>
		<defs>
			<path id="SVGID_00000018195945241755734900000001223328274822633097_" d="M452.9,455.4c-59.6,3.2-93-3.2-107.2-46.3
				c-7.5-22.7-19-42.3-28.3-55.8c-14.1-20.6-37.1-33.4-62.1-34.4c-1.7-0.1-2.6,0-2.6,0s-1.4-1.6,5.8,11.4
				c11.9,21.8,12.5,47.1,16.5,71.1c2.5,14.8,7,29.5,14.4,42.6c4.5,8,10.5,15.3,18.3,20c8.1,4.9,17.7,6.7,27.1,7.4
				c30.5,2.1,59.3-6.8,89.3-9.6c6-0.5,11.9-1.5,17.8-2.8C446.3,458.1,450.7,456.8,452.9,455.4z"/>
		</defs>
		<clipPath id="SVGID_00000152231395991328789970000004905051361540021893_">
			<use xlink:href="#SVGID_00000018195945241755734900000001223328274822633097_"  style="overflow:visible;"/>
		</clipPath>
		<g style="clip-path:url(#SVGID_00000152231395991328789970000004905051361540021893_);">
			<path class="st2" d="M431.5,469.6c4.3-1,8.6-2.3,10.9-3.6c-59.6,3.2-93-3.2-107.2-46.3c-7.5-22.7-19-42.3-28.3-55.8
				c-14.1-20.6-37.1-33.4-62.1-34.4c-1.7-0.1-2.6,0-2.6,0s-0.9,84.8-2.5,86.2c-1.6,1.4,32.4,75.5,32.4,75.5l150.1,11.6l20.2-36.8"/>
		</g>
	</g>
	<path class="st29" d="M406.9,165.9c3.9-2,10.7-12.3,8.8-15.8c-2.8-5.2-0.7-9.2-2.5-12.7s-1.9-5.3-4.7-6.4c-3-1.2-5.9,2-8.2,1.8
		c-4.6-0.3-2.9-5.4-5.2-6.1s-2.3-1.5-4.5-1.9s-2.8-2.4-5-2.7c-2.2-0.3-3.3,1.6-5.5,1.4c-2.2-0.2-4.5-0.9-6.5,0c-2,0.9-3.1,1.9-5,2.1
		c-2,0.2-3.5-0.6-5.5,0.4c-2,1-2.2,4-4.4,5c-2.2,1-5.3,1.4-7,3.4s-0.3,4.7-2.4,6.5c-2.2,1.8-3.7,3.5-4.5,6.4s0.2,4.8-0.3,8
		c-0.5,3.1-1,5,0.6,8.5c1.6,3.5,3.1,8.3,4.6,12.4c1.5,4,4.6,9,5.1,13.4"/>
	<polyline class="st33" points="398.8,152.6 389.9,146.7 389.6,144 385.5,144.5 384.7,140.4 	"/>
	<path class="st34" d="M406.8,175.7v4.4c0,0.4-0.3,0.7-0.6,0.8c-0.1,0-0.3,0-0.4-0.1L404,180c-0.6-0.3-1-0.9-1-1.5l-0.4-4.7
		L406.8,175.7L406.8,175.7z"/>
	<path class="st35" d="M395.2,173.7c0,0,17.8-30.2,5.1-43.5"/>
	<path class="st26" d="M409.2,178.9c-4,7.1-6.4,13.6-18.2,10.5c-6.1-1.6-8.7-9.9-6.1-17.7c2.6-7.7,9.6-12.3,15.6-10.3
		C406.5,163.5,414.2,169.8,409.2,178.9L409.2,178.9z"/>
	
		<ellipse transform="matrix(0.3226 -0.9465 0.9465 0.3226 103.7065 498.781)" class="st25" cx="400.3" cy="176.9" rx="13.7" ry="10.7"/>
	<line class="st28" x1="370.5" y1="384.9" x2="372.4" y2="396.5"/>
	<line class="st28" x1="349.8" y1="388.3" x2="350.2" y2="400.3"/>
	<circle class="st25" cx="134.5" cy="597" r="15.4"/>
	<g>
		<defs>
			<circle id="SVGID_00000051381600333290261310000000329872496701067683_" cx="134.5" cy="597" r="15.4"/>
		</defs>
		<clipPath id="SVGID_00000121962091851929369910000017998252529520029618_">
			<use xlink:href="#SVGID_00000051381600333290261310000000329872496701067683_"  style="overflow:visible;"/>
		</clipPath>
		<g style="clip-path:url(#SVGID_00000121962091851929369910000017998252529520029618_);">
			<g>
				<path class="st37" d="M147.7,585.2c-12.3,6.6-11.2,23.8-1.8,28.9"/>
				<path class="st37" d="M121.5,581.3c10.8,8.9,4.7,22.2-3.8,28.7"/>
			</g>
		</g>
	</g>
	<line class="st38" x1="450.6" y1="568.6" x2="442.9" y2="576.8"/>
	<line class="st38" x1="455.2" y1="571.8" x2="447.5" y2="580.1"/>
	<line class="st38" x1="460.6" y1="574.7" x2="452.9" y2="582.9"/>
	<path class="st4" d="M172.5,576.2c-2,6-2,12.5,0,18.5c0,0,0.8,1.7,1.7,4c2.3,5.8,7.9,9.7,14.2,9.8l3,0.1c1.3,0,4.5-0.2,5.8-0.2"/>
	<path class="st3" d="M547.2,295.1c0,0-7.9-7.8-1.1-18.9c6.8-11.2,17.4-8.9,15.5-21.3"/>
	<path class="st3" d="M556.7,275c2.2-2.9,5-5.5,8.1-7.5"/>
	<path class="st3" d="M557.1,295.1c-2-2.2-3.3-4.9-3.7-7.9"/>
	<path class="st3" d="M581.6,260.8c0.6-1.9,0.8-3.9,0.4-5.9"/>
	<path class="st3" d="M565.6,277.7c2.8-6.5,9.1-9.3,14.1-13.8"/>
	<path class="st3" d="M567.6,295.1c-3.6-3.8-4.7-9.5-3.2-14.4"/>
	<path class="st8" d="M415.3,498.9l-7.3,8.7l-0.3,3.1l9.1-10.8c0.1-0.1,0.1-0.2,0.2-0.3c2.1-5.6,18.9-20,29-27.8l0.2-1.5
		C436.1,478,417.9,492.6,415.3,498.9L415.3,498.9z"/>
</g>
</svg>
