<svg xmlns="http://www.w3.org/2000/svg" xmlns:xlink="http://www.w3.org/1999/xlink" viewBox="0 0 1200 1200"><defs><style>.cls-1,.cls-14,.cls-16,.cls-21,.cls-26,.cls-30,.cls-33,.cls-35,.cls-37,.cls-39,.cls-40,.cls-5,.cls-6,.cls-7,.cls-8{fill:none;}.cls-2{fill:#dedede;}.cls-25,.cls-3{fill:#c9c9c9;}.cls-17,.cls-4{fill:#aaa;}.cls-14,.cls-24,.cls-26,.cls-37,.cls-40,.cls-5{stroke:#fff;}.cls-12,.cls-14,.cls-16,.cls-17,.cls-18,.cls-19,.cls-21,.cls-24,.cls-25,.cls-30,.cls-33,.cls-35,.cls-37,.cls-39,.cls-40,.cls-5,.cls-6,.cls-8{stroke-linecap:round;}.cls-12,.cls-16,.cls-17,.cls-18,.cls-19,.cls-21,.cls-24,.cls-25,.cls-30,.cls-33,.cls-35,.cls-37,.cls-39,.cls-40,.cls-5,.cls-6{stroke-linejoin:round;}.cls-12,.cls-16,.cls-17,.cls-18,.cls-21,.cls-24,.cls-25,.cls-30,.cls-36,.cls-39,.cls-5,.cls-6{stroke-width:2.5px;}.cls-17,.cls-6{stroke:#aaa;}.cls-16,.cls-31,.cls-7{stroke:#000;}.cls-14,.cls-26,.cls-31,.cls-36,.cls-7,.cls-8{stroke-miterlimit:10;}.cls-7{stroke-width:7px;}.cls-19,.cls-21,.cls-36,.cls-8{stroke:#e00;}.cls-8{stroke-width:2.81px;}.cls-9{fill:#6c6c6c;}.cls-10,.cls-12,.cls-18,.cls-19,.cls-24{fill:#fff;}.cls-11{clip-path:url(#clip-path);}.cls-12{stroke:#dedede;}.cls-13{fill:#8b8b8b;}.cls-14,.cls-26,.cls-35{stroke-width:2px;}.cls-15{fill:#231f20;}.cls-18,.cls-25,.cls-33{stroke:#c9c9c9;}.cls-19{stroke-width:2.22px;}.cls-20{fill:#4d4d4d;}.cls-22{fill:#8f0000;}.cls-23{fill:#5f0000;}.cls-27,.cls-36{fill:#e00;}.cls-28{fill:#be0000;}.cls-29{clip-path:url(#clip-path-2);}.cls-30{stroke:#8f0000;}.cls-31{stroke-width:2.41px;}.cls-32{fill:#f3f3f3;}.cls-33{stroke-width:6.32px;}.cls-34{clip-path:url(#clip-path-3);}.cls-35{stroke:#6c6c6c;}.cls-37{stroke-width:6px;}.cls-38{clip-path:url(#clip-path-4);}.cls-39{stroke:#fab6b6;}.cls-40{stroke-width:3px;}</style><clipPath id="clip-path"><path class="cls-1" d="M986.23,453.73c-22.08-18.25-45.77-34.93-65.29-56.47-47.24-52.15-47.77-123.51-92.63-177a221.14,221.14,0,0,0-364,36.73,531,531,0,0,1-84.67,143.17c-32.82,39.63-77,68.14-109.47,108.07-89.84,110.46-15.18,291.05,127,304.45,62.6,5.9,124.49-16.81,187.07-17.74,46.45-.68,93.3,4,137.69,18.23,44,14.11,81.14,34.17,129,33.73A221.12,221.12,0,0,0,1028,496.24C1016.15,479.87,1001.58,466.42,986.23,453.73Z"/></clipPath><clipPath id="clip-path-2"><path class="cls-1" d="M693.46,492.47l-11.57-44C674.07,429,654.38,414,654.38,414q-15-3.5-30.18-6.55l-17.79-3.4c-6-.79-11.82-2.38-17.89-2.52-7.82-.18-13.71,2.56-20.51,6-3.88,1.95-7.75,3.93-11.51,6.1-21.38,12.37-40.12,27.47-48.95,50.78-5.09,13.45-7.72,27.92-6.65,42.27.48,6.51.82,13,.82,19.56V669.32S514,687.38,557.1,691.39a170.6,170.6,0,0,0,58.49-4.92l32-8.29-3.92-13.5a34.1,34.1,0,0,1-.09-18.74l2.69-9.6a13.81,13.81,0,0,0-.79-9.36,34.08,34.08,0,0,1-2.39-20.19c1.95-10.29,4.5-26.95,4.5-43.44,0-26.6,11.22-43.48,11.22-43.48Z"/></clipPath><clipPath id="clip-path-3"><path class="cls-1" d="M735.21,764c-85,4.58-132.69-4.57-153-66-10.67-32.36-27.14-60.37-40.34-79.63a112.8,112.8,0,0,0-88.6-49.07c-2.39-.09-3.74-.07-3.74-.07s-1.94-2.31,8.25,16.31c17,31.11,17.81,67.22,23.61,101.42,3.57,21.11,10,42.1,20.53,60.84,6.39,11.38,15,21.81,26.14,28.55,11.57,7,25.25,9.6,38.72,10.53,43.58,3,84.65-9.76,127.43-13.69a184.57,184.57,0,0,0,25.4-4C725.79,767.74,732,765.94,735.21,764Z"/></clipPath><clipPath id="clip-path-4"><circle class="cls-1" cx="280.83" cy="966" r="21.98"/></clipPath></defs><g id="container"><path class="cls-2" d="M986.23,453.73c-22.08-18.25-45.77-34.93-65.29-56.47-47.24-52.15-47.77-123.51-92.63-177a221.14,221.14,0,0,0-364,36.73,531,531,0,0,1-84.67,143.17c-32.82,39.63-77,68.14-109.47,108.07-89.84,110.46-15.18,291.05,127,304.45,62.6,5.9,124.49-16.81,187.07-17.74,46.45-.68,93.3,4,137.69,18.23,44,14.11,81.14,34.17,129,33.73A221.12,221.12,0,0,0,1028,496.24C1016.15,479.87,1001.58,466.42,986.23,453.73Z"/></g><g id="gfx"><path class="cls-3" d="M558.92,946.52c.66-10.77-28.38-21.59-33.26-22.94s-16,.47-21-5.52a21.37,21.37,0,0,0-11.41-7.13h0a22.6,22.6,0,0,0-2.52-2.55,17.38,17.38,0,0,0-4.87-2.81c-11.71-4.7-15.29-26.19-20.71-36.26-4.3-8-12.64-12-16.39-13.44a17.12,17.12,0,0,0-2.82-.8c-1.91-.37-6.74-1.72-14-6.51-9.22-6-21.17-16.94-43.4-2.21a16.36,16.36,0,0,1-7.67,2.65c-4.32.35-12.14.84-25.09,1.22,0,0-10.08-3-32.77,19.79a16,16,0,0,1-4.59,3.22c-5.3,2.49-27,8.23-42.43,3a16,16,0,0,1-1.76-.75c-4.2-2.06-25.84-10.94-57.25,6.87a14.21,14.21,0,0,1-1.51.76c-3,1.34-16.55,8.28-32.68,31.93a16.22,16.22,0,0,1-5.49,5.06c-12.2,6.85-52.8,27.6-58.32,4.08a1.31,1.31,0,0,0-2.57.29c-.44,11-.06,31.58,23.39,33.87a35.41,35.41,0,0,1-23.45,8c-1.33,15.28,9.31,19.41,9.31,19.41,27.27,10.75,36.58-9,36.58-9,6.05-9.47,16.14-14.3,25.35-16.75-.85,1.76-6.37,14.16,4.43,19,0,0,5.66,10.61,20.29,5.75,0,0,3.66-2.33,5-5.75,0,0,12.3-1.76,12.3-11.24,0,0,5.13-3.07,10.16-.8a23.41,23.41,0,0,0,9.06,1.93c11.1.34,32.92.19,38.8-5.87a96.17,96.17,0,0,0,22.48-.83h0c1.76,5.84,4.87,8.76,9.1,8.66,0,0,6.32,1.64,7.65-10.92,0,0,1.22-9.26,6.34-13.32h0a44.32,44.32,0,0,0,2,16.25s1.11,2.39,2.41,5.66A22.64,22.64,0,0,0,358,982.78l2.49.07c1.86.06,3.71.06,5.57,0,5-.11,16-.29,21.91.26a6.6,6.6,0,0,0,6.16-3,38.94,38.94,0,0,0,3.77-7.73v0c4.54-3.73,20.51-.49,20.51-.49,22.89,2.82,28.59-7.4,29.8-10.6l.3.06s23.1,7,41.18-2.09l18.84-.95a16.64,16.64,0,0,1,4.21,3c8.58,8.49,24,17.36,39.74-2.44l1.41,1.67a8.32,8.32,0,0,0,.72-4.51l.08-.1h-.1a5.94,5.94,0,0,0-.36-1.33l.46.33C559.84,952.79,558.92,946.52,558.92,946.52Z"/><path class="cls-4" d="M308.51,942.34c.62-11.78,5.61-18.68,9.29-22.21-1.85.07-3.7.23-5.54.46-7.69.94-23.2-6.66-31-3.28,0,0-5.82,14.81-11.91,19.24-3,2.18-5.77,4.65-8.76,6.85s-6.59,3.18-10,4.67a102.19,102.19,0,0,1-22.07,7.1c-8,1.48-17,2-25.07,2.71a89.47,89.47,0,0,0-16.55,3.58c-3,7.23-2,14.3,5.09,17.48,0,0,5.66,10.61,20.29,5.75,0,0,3.66-2.33,5-5.75,0,0,12.3-1.76,12.3-11.24,0,0,5.13-3.07,10.16-.8a23.41,23.41,0,0,0,9.06,1.93c11.1.34,32.92.19,38.8-5.87a96.17,96.17,0,0,0,22.48-.83h0C308.62,957.42,308.07,950.8,308.51,942.34Z"/><path class="cls-4" d="M397.85,972.4v0c4.54-3.73,20.51-.49,20.51-.49,22.89,2.82,28.59-7.4,29.8-10.6l.3.06s23.1,7,41.18-2.09l18.73-.95a97.92,97.92,0,0,0-17.55-13.43C480.22,938.3,468.89,933,458,926.84c-5.69-3.23-11.55-8.06-18.41-8.09a13.85,13.85,0,0,0-3.49.45c4,4.82,9.37,12.65,9.37,20,0,0,5.66,33.13-26.27,24.63"/><path class="cls-5" d="M333.14,946.55c-5.12,4.06-6.34,13.32-6.34,13.32-1.33,12.56-7.65,10.92-7.65,10.92-7.64.19-11.64-9.5-10.64-28.45s13.3-25.28,13.3-25.28c6.32-7,13.31-21.39,13.31-21.39s3.65-11.2,19.28-9.87c0,0,20,3.44,34.25-.11,0,0,17.08-2.55,23.06,6.43,0,0,9.53,19.29,20.18,22.45,0,0,13.61,13,13.61,24.6,0,0,5.66,33.13-26.27,24.63"/><path class="cls-2" d="M401.08,954.32s14.62-9.05,23.71-8.35a17.5,17.5,0,0,0,5-1.85,7.62,7.62,0,0,1,4.85-1.28c4.3.43,11,1.88,10.05,6.81,0,0,6.76,3,3.72,10.74,0,0-3,14.87-30.1,11.54,0,0-16-3.24-20.51.49C397.85,972.42,400.65,958.21,401.08,954.32Z"/><path class="cls-3" d="M397.85,972.42c4.54-3.73,20.51-.49,20.51-.49,27.05,3.33,30.1-11.54,30.1-11.54,3-7.77-3.72-10.74-3.72-10.74.91-4.93-5.75-6.38-10.05-6.81a7.62,7.62,0,0,0-4.85,1.28c-1.93,1.24-8.66,2-8.66,2s-1.38.32-4,.87-16.06,7.33-16.06,7.33"/><path class="cls-6" d="M530.65,955.49s15.3,2.55,10.89,12.9"/><path class="cls-6" d="M543,947.71s15.3,2.56,10.89,12.91"/><path class="cls-6" d="M448.16,961.33s24.66,7.43,42.94-2.79c0,0,12.61-6,21.59,2.85s25.49,18.22,41.95-5.38"/><path class="cls-7" d="M547.74,965.44c4-7.08,38.66-55.63,38.66-55.63V773.17"/><polyline class="cls-7" points="675.2 954.32 586.18 909.81 480.98 954.32"/><circle cx="561.77" cy="974.55" r="20.23"/><circle cx="650.48" cy="974.55" r="20.23"/><circle cx="491.1" cy="967.76" r="20.23"/><path class="cls-8" d="M670.71,949s15.91,5.36,10.82,21.83"/><rect class="cls-9" x="561.49" y="781.05" width="49.82" height="19.29"/><rect class="cls-10" x="195.45" y="531.75" width="890.88" height="80.54"/><g class="cls-11"><rect class="cls-10" x="536.06" y="124.74" width="417.91" height="252.02"/><line class="cls-12" x1="736.56" y1="126.07" x2="736.56" y2="375.57"/><rect class="cls-13" x="512.36" y="376.22" width="468.22" height="12.27"/><line class="cls-12" x1="536.06" y1="232.73" x2="953.97" y2="232.73"/></g><path class="cls-5" d="M335.12,936.35a42.49,42.49,0,0,0,0,26.45s1.11,2.39,2.41,5.66A22.64,22.64,0,0,0,358,982.78l2.49.07c1.86.06,3.71.06,5.57,0,5-.11,16-.29,21.91.26a6.6,6.6,0,0,0,6.16-3c2.77-4.3,6.66-12.64,7-25.81,0,0,14.51-7.93,19.17-7.8l-2.86-4.35a15.87,15.87,0,0,1-2.27-11.46,16.71,16.71,0,0,0,.14-4.75"/><path class="cls-6" d="M344.21,911.63s7.31-5.32,10.86,0,2.66,23.06-1.55,29.71-7.1,16.65,0,25.73"/><path class="cls-14" d="M562,959.71s16.66,2.07,15,19.23"/><path class="cls-14" d="M497.34,953.59s14.29,8.8,5.64,23.71"/><path class="cls-5" d="M146.56,951c16.3-3,47.89-21.58,47.89-21.58,19.29-17.63,36.67-21.62,36.67-21.62"/><path class="cls-6" d="M281.24,914.57s-1.33,35.39-72.82,42.88c0,0-32.92-1.62-46.23,19.23,0,0-9.31,19.75-36.58,9"/><path class="cls-6" d="M375.63,915.84s.22-8.09,13.69-8.09"/><path class="cls-15" d="M352,967.19c-1.26-2-3.12-6.28.52-9.73a8.73,8.73,0,0,1,3.11-1.83c3.07-1.07,10.23-3,15.52.58,0,0,7.49,4.21,4.58,10.66a2.6,2.6,0,0,1-2.37,1.52h-4.54a11,11,0,0,1-5.93-1.73h0l-.37.22a11,11,0,0,1-5.58,1.51h-2.75A2.58,2.58,0,0,1,352,967.19Z"/><path class="cls-16" d="M339.18,921.84c2.22,3.73,8.94,5.21,13.12,3.25"/><path class="cls-16" d="M392.28,921.55c-2,3.83-8.7,5.6-13,3.83"/><path class="cls-17" d="M447.29,949.53a30.38,30.38,0,0,1-14.39,2.26"/><path class="cls-17" d="M449.41,955.75s-5.5,3.1-10.29,2.51"/><line class="cls-18" x1="587.83" y1="248.1" x2="557.19" y2="278.74"/><line class="cls-12" x1="613.07" y1="245.05" x2="576.04" y2="282.08"/><line class="cls-18" x1="684.85" y1="173.27" x2="647.83" y2="210.29"/><line class="cls-18" x1="794.1" y1="248.59" x2="757.08" y2="285.61"/><line class="cls-18" x1="564.74" y1="293.38" x2="550.55" y2="307.57"/><path class="cls-13" d="M675.87,960.08c-14.36-17.42-13.67-39.06-9-47.5,1.1-2,.44-4.68,3.38-7.63s-28.91-27.54-33-23.5a79.82,79.82,0,0,1-19.56,14.4c-10.43,5.31-16.11,8.4-19.62,15.94a5.81,5.81,0,0,0,0,4.91,55.57,55.57,0,0,0,18,21.56c14.27,10.07,11.28,15.39,25.78,31.31s25.85,24.07,32.86,20.32S690.23,977.5,675.87,960.08Z"/><path class="cls-19" d="M652.83,865.86s11.61,21,31.15,28.47c0,0-11,9.54-17.12,17.25,0,0-2.05-8.75-13-3-4.36,2.31-9.93,1.55-13.8-10.42-1.84-5.67-7.82-8-9.59-9.46C630.51,888.74,647.75,872.19,652.83,865.86Z"/><path class="cls-20" d="M603.49,904.42s-4.25,8.85,15.19,23.49,18.44,22,25.87,32.63,24.44,29,35,25.88c0,0-10.65,20.18-43.38-22a12.44,12.44,0,0,1-1.25-2c-1.81-3.76-8.64-16.82-18.85-24.17-11.08-8-16.38-17.21-18.57-22.66a3.57,3.57,0,0,1,0-2.67C598.43,910.62,600.58,906,603.49,904.42Z"/><polyline class="cls-21" points="181.26 635.74 181.26 612.29 1069.15 612.29"/><path class="cls-22" d="M630.55,562.58h22.64l15.25-5.16L698.58,593s-35.58,1-39.79-2.71-34.08-1.9-34.08-1.9Z"/><path class="cls-23" d="M658.79,577c-3.38-3-23.34-2.38-31-2l-3,13.44s29.87-1.77,34.08,1.9S698.58,593,698.58,593l-11.16-13.18C676.6,579.78,661.45,579.3,658.79,577Z"/><polygon points="737.25 476.24 709.31 566.16 712.56 583.11 762.78 587.26 831.74 580.93 864.19 476.24 737.25 476.24"/><polygon class="cls-24" points="743.48 484.44 853.73 484.9 826.95 567.26 718.21 564.26 743.48 484.44"/><line class="cls-25" x1="842.25" y1="494" x2="785.58" y2="494"/><line class="cls-25" x1="776.89" y1="494" x2="748.1" y2="494"/><line class="cls-25" x1="838.09" y1="503.44" x2="782.42" y2="503.44"/><line class="cls-25" x1="834.1" y1="512.87" x2="779.43" y2="512.87"/><line class="cls-25" x1="831.11" y1="522.31" x2="775.44" y2="522.31"/><line class="cls-25" x1="766.53" y1="522.31" x2="740.96" y2="522.31"/><polygon class="cls-25" points="827.07 533.79 736.6 533.31 731.16 549.41 821.62 550.83 827.07 533.79"/><path class="cls-22" d="M595.61,383.11l-7,23.53,70.19,16.59,10-14.41s5.1-15.74,7.09-18.17c0,0,5.44-7.76,2.78-15.08l3.16-4.27a6.89,6.89,0,0,0,1-6.18l-1.31-4.18s.55-18.76-7.43-21.58l-70.5,15.37Z"/><path class="cls-26" d="M658.79,423.23l10-14.41s5.1-15.74,7.09-18.17c0,0,5.44-7.76,2.78-15.08l3.16-4.27a6.89,6.89,0,0,0,1-6.18l-1.31-4.18s.55-18.76-7.43-21.58"/><path class="cls-23" d="M652.35,409.81a48,48,0,0,1-.74-9.87c.11-3.5,1.2-6.88,1.34-10.38a55.36,55.36,0,0,0-2.79-19.06,88.79,88.79,0,0,0-11.9-23.33l-34.67,7.56-8,28.38-7,23.53,67.55,16A72.38,72.38,0,0,1,652.35,409.81Z"/><path class="cls-13" d="M764.94,945.43c-26.82-5.09-45.68-23.42-47.88-34.87-.52-2.7-.42-7,0-12s-50.19-3.24-50.9,3.7c-1.06,10.38-1.32,19.91-5,28.51-6.17,14.34-9.06,21.7-4.94,33.1a65.61,65.61,0,0,0,36.24,7.55c21.06-1.67,22.39,5.58,48.17,9.16S783.29,983,786.9,974,791.76,950.52,764.94,945.43Z"/><path class="cls-27" d="M668.68,878.91s14.63,13.23,38.57,5.07c0,0,9.43,13.34,9.74,25.2,0,0-8.6-5.17-14.26,8.65-2.27,5.52-8,9.12-20.89,1-6.09-3.86-13.44-1.39-16.22-1.38C665.62,917.44,668.85,888.73,668.68,878.91Z"/><path class="cls-20" d="M654.64,949.65s2.9,11.51,32.28,10.08,34.11,6.16,49.27,10.34,45.16,8.1,52.52-3c0,0,5,26-59.54,11.33,0,0-18.84-8.28-36.69-7a68.1,68.1,0,0,1-36.24-7.55S653.59,954.34,654.64,949.65Z"/><path d="M621.62,666.22s79-10.2,107.59,4.87c0,0,23.67,9.31,6.82,56.31,0,0-34.14,161.3-13.3,182.41,0,0-39.33-.17-58-9.49,0,0,11-102.86,9.69-110,0,0-6.22-47.44-3.78-70.49l-56.07-21.29Z"/><path d="M647.59,678.18,660,683.45s138.78,10.26,158.29,17.79c0,0,22.61,9.55,26.6,24.28s12,33.36-19.51,58.19L665.77,919.78a53.55,53.55,0,0,1-41.23-28s53.48-53.12,58-65.09S753.12,766,753.12,766l-17.91-2s-175.36,22.38-195.56,6-55.55-70.06-30.78-105.53Z"/><path class="cls-22" d="M650.11,524.7a302.88,302.88,0,0,0,23.14,38.77l17.44,24.8a106.76,106.76,0,0,0,26.74,26.51s8.64,2.88,16.18-2c0,0,24.83-8.43,42.34-28.38l12.86-12.64s4.44-6.24,0-12.65c0,0-4-2-4.21-5.08,0,0-.89-2.61-3.21-2.61s-3-2.82-5.32-5.45-4.33-1-6.32-1.2-2-3.49-5.66-4.15a7.08,7.08,0,0,0-6.15,2.16l-5.49,7.48-5-1.16c-1.67.33-4,2.32-4,2.32a11.47,11.47,0,0,0-.62,2.58,24.84,24.84,0,0,0-.91,3.59c-.57,3.95,1.62,7,3.19,10.41,0,0-10,.16-18.62,4,0,0-27.83-61.34-36-68.58Z"/><path class="cls-27" d="M743.27,564l-15.72,1.77-3.25-8-21-44.38a23.69,23.69,0,0,1-1.13-2.82l-20.3-62C677.94,438.65,671,430,665,423.76a43.36,43.36,0,0,0-22-12.29q-9.4-2.07-18.83-4l-17.79-3.4c-6-.79-11.82-2.38-17.89-2.52-7.82-.18-13.71,2.56-20.51,6-3.88,1.95-7.75,3.93-11.51,6.1-21.38,12.37-40.12,27.47-48.95,50.78-5.09,13.45-7.72,27.92-6.65,42.27.48,6.51.82,13,.82,19.56V669.32S514,687.38,557.1,691.39a170.62,170.62,0,0,0,58.49-4.92l32-8.29-3.92-13.5a34.14,34.14,0,0,1-.09-18.75l2.69-9.58a13.83,13.83,0,0,0-.79-9.37,34.08,34.08,0,0,1-2.39-20.19c1.95-10.29,4.5-26.95,4.5-43.44A91.1,91.1,0,0,1,653,532.12c6.11,12.25,12.22,24.39,19.82,38.13,5.82,10.52,13,20,21.11,30.26a134,134,0,0,0,20.27,20.2,8.17,8.17,0,0,0,8.34,1.23c12.18-5.16,46-19.92,49.5-26.44C772.07,595.5,768.34,563.64,743.27,564Z"/><path class="cls-28" d="M642.31,655.6c-18.31-1.14-36.07.88-48.93-13.14-7.85-8.57-12.9-19.45-16.08-30.54A120.43,120.43,0,0,1,573,575.44a110.38,110.38,0,0,1,7.15-37.19,75,75,0,0,1,8.28-15.7c3.8-5.43,8.54-10.15,13.28-14.76,10.48-10.18,21.87-19.59,30.8-31.24,9.26-12.08,14.59-26.51,17.83-41.28a196.8,196.8,0,0,0,3.22-20,44,44,0,0,0-10.51-3.8q-9.4-2.07-18.83-4l-17.79-3.4c-6-.79-11.82-2.38-17.89-2.52-7.82-.18-13.71,2.56-20.51,6-3.88,1.95-7.75,3.93-11.51,6.1-21.38,12.37-40.12,27.47-48.95,50.78-5.09,13.45-7.72,27.92-6.65,42.27.48,6.51.82,13,.82,19.56V669.32S514,687.38,557.1,691.39a170.62,170.62,0,0,0,58.49-4.92l32-8.29-3.92-13.5A73.55,73.55,0,0,1,642.31,655.6Z"/><g class="cls-29"><line class="cls-30" x1="630.68" y1="667.74" x2="635.67" y2="681.06"/><line class="cls-30" x1="602.71" y1="672.68" x2="604.14" y2="689.44"/></g><path class="cls-30" d="M559.8,667s35.83,4.84,67.31-6.73"/><path class="cls-10" d="M735.21,764c-85,4.58-132.69-4.57-153-66-10.67-32.36-27.14-60.37-40.34-79.63a112.8,112.8,0,0,0-88.6-49.07c-2.39-.09-3.74-.07-3.74-.07s-1.94-2.31,8.25,16.31c17,31.11,17.81,67.22,23.61,101.42,3.57,21.11,10,42.1,20.53,60.84,6.39,11.38,15,21.81,26.14,28.55,11.57,7,25.25,9.6,38.72,10.53,43.58,3,84.65-9.76,127.43-13.69a184.57,184.57,0,0,0,25.4-4C725.79,767.74,732,765.94,735.21,764Z"/><path class="cls-31" d="M595,383.71s22.73,8.36,41.24-4.71a14.87,14.87,0,0,0,4.07-4.33c3.28-5.33,13.5-18.75,29-9.74,0,0,9.63-4.46,7-22.19,0,0,9.07-6.52,6.24-15.73L660.2,308.65c-17.33-14.25-42.75-13.77-59,1.7-.39.37-.79.76-1.18,1.16l-1.47,2.29a66.77,66.77,0,0,0-8.84,20.88h0a71,71,0,0,0-.82,28.31Z"/><path class="cls-32" d="M886.35,542.2H863.09v21.24c0,15.32,10.41,27.74,23.26,27.74h0c12.84,0,23.26-12.42,23.26-27.74V542.2Z"/><path class="cls-2" d="M898.26,579.27h0c-12.85,0-23.26-12.42-23.26-27.74V542.2H863.09v21.24c0,15.32,10.41,27.74,23.26,27.74h0c8.53,0,16-5.48,20-13.65A20,20,0,0,1,898.26,579.27Z"/><ellipse class="cls-20" cx="886.35" cy="542.2" rx="23.26" ry="3.48"/><path class="cls-10" d="M415.43,495.09v66.29a86.25,86.25,0,0,1-63.48,0V495.09"/><path class="cls-2" d="M388.25,547.23a56.26,56.26,0,0,1-12-7.92,38,38,0,0,1-7.67-9.71c-4.73-8.2-7.45-17.58-8.85-26.9-.38-2.5-.66-5.05-.84-7.61H352v66.29a86.25,86.25,0,0,0,63.48,0v-5.86A91.38,91.38,0,0,1,388.25,547.23Z"/><ellipse class="cls-4" cx="383.69" cy="495.09" rx="31.74" ry="3.03"/><path class="cls-33" d="M903.6,553.28H924v7.43a16.25,16.25,0,0,1-20.37,15.71h0"/><path d="M336.28,368.59s.49,21.54-2.21,32.8-6.29,33.28,2.24,44.05c6.52,8.23,20.51,33.23,26.74,44.57a11,11,0,0,0,9.63,5.69h8.9s-16.42-34.11-15.44-45.61-2.37-31.33-10.37-41.36-8-23.25-9.95-28.88S336.28,368.59,336.28,368.59Z"/><path d="M383.84,487.06s9-14.23,9.78-22.61,27.46-46.17,56.82-49.16l15.5-1.17c-14.76,12.2-32.73,25.47-41.68,42.82-2.57,5-4,7-8.87,9.19-4.49,2-7.41,5.88-9.5,10.22a49,49,0,0,0-2.62,7,14.86,14.86,0,0,1-16.18,10.51l-6.51-.87Z"/><path class="cls-25" d="M373.77,343.3s-4.34,72.46-9.89,89.22,1.58,51.58,10,63.18H392.3a9.25,9.25,0,0,0,9.2-8.18c1.49-12.69,3.57-37.51,0-55.43a38.58,38.58,0,0,1,.77-19.15,17.27,17.27,0,0,0-.21-12.13Z"/><g class="cls-34"><path class="cls-4" d="M704.58,784.26c6.14-1.45,12.34-3.25,15.56-5.2-85,4.58-132.69-4.57-153-66-10.67-32.36-27.14-60.37-40.34-79.63a112.82,112.82,0,0,0-88.6-49.07c-2.39-.09-3.75-.07-3.75-.07s-1.27,121-3.6,123S477.11,815,477.11,815L691.34,831.6l28.8-52.54"/></g><path class="cls-31" d="M669.53,350.89c5.54-2.79,15.27-17.54,12.61-22.51-4-7.4-1-13.1-3.5-18.16s-2.76-7.61-6.66-9.19c-4.32-1.75-8.38,2.83-11.76,2.57-6.61-.49-4.08-7.64-7.38-8.72s-3.23-2.17-6.35-2.77-4-3.45-7.11-3.84-4.67,2.33-7.82,2-6.47-1.27-9.28,0-4.37,2.7-7.19,3-5-.91-7.9.55-3.12,5.72-6.32,7.18-7.62,2-10,4.89-.39,6.65-3.48,9.24-5.33,4.95-6.44,9.07.25,6.9-.47,11.36-1.41,7.09.86,12.15,4.4,11.89,6.6,17.63,6.58,12.81,7.3,19.11"/><polyline class="cls-35" points="657.99 331.94 645.21 323.51 644.77 319.64 639.01 320.42 637.79 314.54"/><path class="cls-36" d="M669.32,364.93v6.29a1,1,0,0,1-1.51.94L665.37,371a2.67,2.67,0,0,1-1.49-2.19l-.52-6.73Z"/><path class="cls-37" d="M652.84,362.05s25.46-43.12,7.32-62.07"/><path class="cls-28" d="M672.76,369.42c-5.66,10.15-9.08,19.46-25.94,14.92-8.71-2.35-12.43-14.19-8.68-25.19s13.71-17.54,22.26-14.63S680,356.51,672.76,369.42Z"/><ellipse class="cls-27" cx="660.16" cy="366.66" rx="19.58" ry="15.22" transform="translate(100.11 873.21) rotate(-71.18)"/><line class="cls-30" x1="617.59" y1="663.29" x2="620.29" y2="679.87"/><line class="cls-30" x1="588" y1="668.25" x2="588.62" y2="685.28"/><circle class="cls-27" cx="280.83" cy="966" r="21.98"/><g class="cls-38"><path class="cls-39" d="M299.72,949.12c-17.5,9.48-16,34-2.6,41.19"/><path class="cls-39" d="M262.26,943.55c15.34,12.67,6.65,31.67-5.38,40.92"/></g><line class="cls-40" x1="731.84" y1="925.38" x2="720.86" y2="937.18"/><line class="cls-40" x1="738.41" y1="929.99" x2="727.43" y2="941.8"/><line class="cls-40" x1="746.18" y1="934.08" x2="735.21" y2="945.89"/><path class="cls-6" d="M335.12,936.35a42.49,42.49,0,0,0,0,26.45s1.11,2.39,2.41,5.66a22.08,22.08,0,0,0,20.24,14l4.32.09c1.86,0,6.46-.23,8.32-.27"/><path class="cls-5" d="M869.74,535.19s-11.31-11.08-1.55-27,24.81-12.64,22.16-30.37"/><path class="cls-5" d="M883.3,506.48a46.81,46.81,0,0,1,11.52-10.71"/><path class="cls-5" d="M883.75,535.19a20.71,20.71,0,0,1-5.32-11.27"/><path class="cls-5" d="M918.77,486.24a17.46,17.46,0,0,0,.6-8.46"/><path class="cls-5" d="M896,510.39c4-9.27,13-13.27,20.11-19.63"/><path class="cls-5" d="M898.76,535.19c-5.15-5.36-6.67-13.51-4.54-20.52"/><path class="cls-10" d="M681.45,826.07,671,838.51l-.42,4.38,12.94-15.36a1.25,1.25,0,0,0,.22-.37c3-7.95,26.9-28.56,41.33-39.69l.34-2.12C711.2,796.19,685.17,817,681.45,826.07Z"/></g></svg>