<?xml version="1.0" encoding="utf-8"?>
<!-- Generator: Adobe Illustrator 27.5.0, SVG Export Plug-In . SVG Version: 6.00 Build 0)  -->
<svg version="1.1" id="Layer_1" xmlns="http://www.w3.org/2000/svg" xmlns:xlink="http://www.w3.org/1999/xlink" x="0px" y="0px"
	 width="30px" height="30px" viewBox="0 0 30 30" style="enable-background:new 0 0 30 30;" xml:space="preserve">
<style type="text/css">
	.st0{fill:#E02927;}
</style>
<path class="st0" d="M25.5,9.7c-0.3-1-1-1.7-1.9-2C21.9,7.3,15,7.3,15,7.3s-6.9,0-8.6,0.5c-0.9,0.3-1.7,1-1.9,2C4,11.4,4,15,4,15
	s0,3.6,0.5,5.3c0.3,1,1,1.7,1.9,1.9c1.7,0.5,8.6,0.5,8.6,0.5s6.9,0,8.6-0.5c0.9-0.3,1.7-1,1.9-1.9C26,18.6,26,15,26,15
	S26,11.4,25.5,9.7z M12.7,18.3v-6.5l5.7,3.3L12.7,18.3L12.7,18.3z"/>
</svg>
